M48
; DRILL file {KiCad (5.1.5-0-10_14)} date 2020 June 21, Sunday 17:24:12
; FORMAT={-:-/ absolute / inch / decimal}
; #@! TF.CreationDate,2020-06-21T17:24:12+09:00
; #@! TF.GenerationSoftware,Kicad,Pcbnew,(5.1.5-0-10_14)
FMAT,2
INCH
T1C0.0100
T2C0.0256
T3C0.0394
%
G90
G05
T1
X-0.4724Y-0.815
X-0.2657Y-0.878
X-0.2362Y-0.8465
X-0.1102Y-1.0039
X-0.0591Y-0.3543
X-0.0472Y-0.6693
X-0.0472Y-0.8661
X-0.0197Y-0.3543
X-0.0157Y-0.6988
X0.0157Y-0.8661
X0.0472Y-0.5315
X0.0787Y-0.502
X0.1004Y-0.2559
X0.1102Y-0.4724
X0.128Y-0.2854
X0.1575Y-0.315
X0.1969Y-0.3543
X0.2362Y-0.2264
X0.2756Y-0.3937
X0.2953Y-0.1969
T2
X0.4Y-0.2
X0.4Y-0.25
X0.4Y-0.3
X0.4Y-0.35
X0.4Y-0.4
X0.45Y-0.2
X0.45Y-0.25
X0.45Y-0.3
X0.45Y-0.35
X0.45Y-0.4
X0.265Y-1.2992
X0.315Y-1.2992
X0.365Y-1.2992
T3
X-0.41Y-0.15
X-0.41Y-1.313
X-0.31Y-0.15
X-0.31Y-1.313
X-0.21Y-0.15
X-0.21Y-1.313
X-0.11Y-0.15
X-0.11Y-1.313
X-0.01Y-0.15
X0.4Y-0.6
X0.4Y-0.7
X0.4Y-0.8
X0.4Y-0.9
X0.4Y-1.0
X0.4Y-1.1
X-0.3Y-0.05
X-0.2Y-0.05
X-0.1Y-0.05
X0.0Y-0.05
X0.1Y-0.05
X0.2Y-0.05
X0.3Y-0.05
T0
M30
