G04 #@! TF.GenerationSoftware,KiCad,Pcbnew,(5.1.5-0-10_14)*
G04 #@! TF.CreationDate,2020-10-11T20:42:09+09:00*
G04 #@! TF.ProjectId,EnvMon,456e764d-6f6e-42e6-9b69-6361645f7063,2.0*
G04 #@! TF.SameCoordinates,Original*
G04 #@! TF.FileFunction,Paste,Top*
G04 #@! TF.FilePolarity,Positive*
%FSLAX46Y46*%
G04 Gerber Fmt 4.6, Leading zero omitted, Abs format (unit mm)*
G04 Created by KiCad (PCBNEW (5.1.5-0-10_14)) date 2020-10-11 20:42:09*
%MOMM*%
%LPD*%
G04 APERTURE LIST*
%ADD10C,0.100000*%
%ADD11R,0.800000X1.500000*%
%ADD12C,1.000000*%
%ADD13R,1.500000X0.800000*%
G04 APERTURE END LIST*
D10*
G36*
X7960779Y-14926144D02*
G01*
X7983834Y-14929563D01*
X8006443Y-14935227D01*
X8028387Y-14943079D01*
X8049457Y-14953044D01*
X8069448Y-14965026D01*
X8088168Y-14978910D01*
X8105438Y-14994562D01*
X8121090Y-15011832D01*
X8134974Y-15030552D01*
X8146956Y-15050543D01*
X8156921Y-15071613D01*
X8164773Y-15093557D01*
X8170437Y-15116166D01*
X8173856Y-15139221D01*
X8175000Y-15162500D01*
X8175000Y-15637500D01*
X8173856Y-15660779D01*
X8170437Y-15683834D01*
X8164773Y-15706443D01*
X8156921Y-15728387D01*
X8146956Y-15749457D01*
X8134974Y-15769448D01*
X8121090Y-15788168D01*
X8105438Y-15805438D01*
X8088168Y-15821090D01*
X8069448Y-15834974D01*
X8049457Y-15846956D01*
X8028387Y-15856921D01*
X8006443Y-15864773D01*
X7983834Y-15870437D01*
X7960779Y-15873856D01*
X7937500Y-15875000D01*
X7362500Y-15875000D01*
X7339221Y-15873856D01*
X7316166Y-15870437D01*
X7293557Y-15864773D01*
X7271613Y-15856921D01*
X7250543Y-15846956D01*
X7230552Y-15834974D01*
X7211832Y-15821090D01*
X7194562Y-15805438D01*
X7178910Y-15788168D01*
X7165026Y-15769448D01*
X7153044Y-15749457D01*
X7143079Y-15728387D01*
X7135227Y-15706443D01*
X7129563Y-15683834D01*
X7126144Y-15660779D01*
X7125000Y-15637500D01*
X7125000Y-15162500D01*
X7126144Y-15139221D01*
X7129563Y-15116166D01*
X7135227Y-15093557D01*
X7143079Y-15071613D01*
X7153044Y-15050543D01*
X7165026Y-15030552D01*
X7178910Y-15011832D01*
X7194562Y-14994562D01*
X7211832Y-14978910D01*
X7230552Y-14965026D01*
X7250543Y-14953044D01*
X7271613Y-14943079D01*
X7293557Y-14935227D01*
X7316166Y-14929563D01*
X7339221Y-14926144D01*
X7362500Y-14925000D01*
X7937500Y-14925000D01*
X7960779Y-14926144D01*
G37*
G36*
X6210779Y-14926144D02*
G01*
X6233834Y-14929563D01*
X6256443Y-14935227D01*
X6278387Y-14943079D01*
X6299457Y-14953044D01*
X6319448Y-14965026D01*
X6338168Y-14978910D01*
X6355438Y-14994562D01*
X6371090Y-15011832D01*
X6384974Y-15030552D01*
X6396956Y-15050543D01*
X6406921Y-15071613D01*
X6414773Y-15093557D01*
X6420437Y-15116166D01*
X6423856Y-15139221D01*
X6425000Y-15162500D01*
X6425000Y-15637500D01*
X6423856Y-15660779D01*
X6420437Y-15683834D01*
X6414773Y-15706443D01*
X6406921Y-15728387D01*
X6396956Y-15749457D01*
X6384974Y-15769448D01*
X6371090Y-15788168D01*
X6355438Y-15805438D01*
X6338168Y-15821090D01*
X6319448Y-15834974D01*
X6299457Y-15846956D01*
X6278387Y-15856921D01*
X6256443Y-15864773D01*
X6233834Y-15870437D01*
X6210779Y-15873856D01*
X6187500Y-15875000D01*
X5612500Y-15875000D01*
X5589221Y-15873856D01*
X5566166Y-15870437D01*
X5543557Y-15864773D01*
X5521613Y-15856921D01*
X5500543Y-15846956D01*
X5480552Y-15834974D01*
X5461832Y-15821090D01*
X5444562Y-15805438D01*
X5428910Y-15788168D01*
X5415026Y-15769448D01*
X5403044Y-15749457D01*
X5393079Y-15728387D01*
X5385227Y-15706443D01*
X5379563Y-15683834D01*
X5376144Y-15660779D01*
X5375000Y-15637500D01*
X5375000Y-15162500D01*
X5376144Y-15139221D01*
X5379563Y-15116166D01*
X5385227Y-15093557D01*
X5393079Y-15071613D01*
X5403044Y-15050543D01*
X5415026Y-15030552D01*
X5428910Y-15011832D01*
X5444562Y-14994562D01*
X5461832Y-14978910D01*
X5480552Y-14965026D01*
X5500543Y-14953044D01*
X5521613Y-14943079D01*
X5543557Y-14935227D01*
X5566166Y-14929563D01*
X5589221Y-14926144D01*
X5612500Y-14925000D01*
X6187500Y-14925000D01*
X6210779Y-14926144D01*
G37*
G36*
X-6519221Y-7926144D02*
G01*
X-6496166Y-7929563D01*
X-6473557Y-7935227D01*
X-6451613Y-7943079D01*
X-6430543Y-7953044D01*
X-6410552Y-7965026D01*
X-6391832Y-7978910D01*
X-6374562Y-7994562D01*
X-6358910Y-8011832D01*
X-6345026Y-8030552D01*
X-6333044Y-8050543D01*
X-6323079Y-8071613D01*
X-6315227Y-8093557D01*
X-6309563Y-8116166D01*
X-6306144Y-8139221D01*
X-6305000Y-8162500D01*
X-6305000Y-8637500D01*
X-6306144Y-8660779D01*
X-6309563Y-8683834D01*
X-6315227Y-8706443D01*
X-6323079Y-8728387D01*
X-6333044Y-8749457D01*
X-6345026Y-8769448D01*
X-6358910Y-8788168D01*
X-6374562Y-8805438D01*
X-6391832Y-8821090D01*
X-6410552Y-8834974D01*
X-6430543Y-8846956D01*
X-6451613Y-8856921D01*
X-6473557Y-8864773D01*
X-6496166Y-8870437D01*
X-6519221Y-8873856D01*
X-6542500Y-8875000D01*
X-7117500Y-8875000D01*
X-7140779Y-8873856D01*
X-7163834Y-8870437D01*
X-7186443Y-8864773D01*
X-7208387Y-8856921D01*
X-7229457Y-8846956D01*
X-7249448Y-8834974D01*
X-7268168Y-8821090D01*
X-7285438Y-8805438D01*
X-7301090Y-8788168D01*
X-7314974Y-8769448D01*
X-7326956Y-8749457D01*
X-7336921Y-8728387D01*
X-7344773Y-8706443D01*
X-7350437Y-8683834D01*
X-7353856Y-8660779D01*
X-7355000Y-8637500D01*
X-7355000Y-8162500D01*
X-7353856Y-8139221D01*
X-7350437Y-8116166D01*
X-7344773Y-8093557D01*
X-7336921Y-8071613D01*
X-7326956Y-8050543D01*
X-7314974Y-8030552D01*
X-7301090Y-8011832D01*
X-7285438Y-7994562D01*
X-7268168Y-7978910D01*
X-7249448Y-7965026D01*
X-7229457Y-7953044D01*
X-7208387Y-7943079D01*
X-7186443Y-7935227D01*
X-7163834Y-7929563D01*
X-7140779Y-7926144D01*
X-7117500Y-7925000D01*
X-6542500Y-7925000D01*
X-6519221Y-7926144D01*
G37*
G36*
X-4769221Y-7926144D02*
G01*
X-4746166Y-7929563D01*
X-4723557Y-7935227D01*
X-4701613Y-7943079D01*
X-4680543Y-7953044D01*
X-4660552Y-7965026D01*
X-4641832Y-7978910D01*
X-4624562Y-7994562D01*
X-4608910Y-8011832D01*
X-4595026Y-8030552D01*
X-4583044Y-8050543D01*
X-4573079Y-8071613D01*
X-4565227Y-8093557D01*
X-4559563Y-8116166D01*
X-4556144Y-8139221D01*
X-4555000Y-8162500D01*
X-4555000Y-8637500D01*
X-4556144Y-8660779D01*
X-4559563Y-8683834D01*
X-4565227Y-8706443D01*
X-4573079Y-8728387D01*
X-4583044Y-8749457D01*
X-4595026Y-8769448D01*
X-4608910Y-8788168D01*
X-4624562Y-8805438D01*
X-4641832Y-8821090D01*
X-4660552Y-8834974D01*
X-4680543Y-8846956D01*
X-4701613Y-8856921D01*
X-4723557Y-8864773D01*
X-4746166Y-8870437D01*
X-4769221Y-8873856D01*
X-4792500Y-8875000D01*
X-5367500Y-8875000D01*
X-5390779Y-8873856D01*
X-5413834Y-8870437D01*
X-5436443Y-8864773D01*
X-5458387Y-8856921D01*
X-5479457Y-8846956D01*
X-5499448Y-8834974D01*
X-5518168Y-8821090D01*
X-5535438Y-8805438D01*
X-5551090Y-8788168D01*
X-5564974Y-8769448D01*
X-5576956Y-8749457D01*
X-5586921Y-8728387D01*
X-5594773Y-8706443D01*
X-5600437Y-8683834D01*
X-5603856Y-8660779D01*
X-5605000Y-8637500D01*
X-5605000Y-8162500D01*
X-5603856Y-8139221D01*
X-5600437Y-8116166D01*
X-5594773Y-8093557D01*
X-5586921Y-8071613D01*
X-5576956Y-8050543D01*
X-5564974Y-8030552D01*
X-5551090Y-8011832D01*
X-5535438Y-7994562D01*
X-5518168Y-7978910D01*
X-5499448Y-7965026D01*
X-5479457Y-7953044D01*
X-5458387Y-7943079D01*
X-5436443Y-7935227D01*
X-5413834Y-7929563D01*
X-5390779Y-7926144D01*
X-5367500Y-7925000D01*
X-4792500Y-7925000D01*
X-4769221Y-7926144D01*
G37*
G36*
X-1166198Y-6251482D02*
G01*
X-1156491Y-6252921D01*
X-1146972Y-6255306D01*
X-1137732Y-6258612D01*
X-1128860Y-6262808D01*
X-1120443Y-6267853D01*
X-1112561Y-6273699D01*
X-1105289Y-6280289D01*
X-1098699Y-6287561D01*
X-1092853Y-6295443D01*
X-1087808Y-6303860D01*
X-1083612Y-6312732D01*
X-1080306Y-6321972D01*
X-1077921Y-6331491D01*
X-1076482Y-6341198D01*
X-1076000Y-6351000D01*
X-1076000Y-7651000D01*
X-1076482Y-7660802D01*
X-1077921Y-7670509D01*
X-1080306Y-7680028D01*
X-1083612Y-7689268D01*
X-1087808Y-7698140D01*
X-1092853Y-7706557D01*
X-1098699Y-7714439D01*
X-1105289Y-7721711D01*
X-1112561Y-7728301D01*
X-1120443Y-7734147D01*
X-1128860Y-7739192D01*
X-1137732Y-7743388D01*
X-1146972Y-7746694D01*
X-1156491Y-7749079D01*
X-1166198Y-7750518D01*
X-1176000Y-7751000D01*
X-1376000Y-7751000D01*
X-1385802Y-7750518D01*
X-1395509Y-7749079D01*
X-1405028Y-7746694D01*
X-1414268Y-7743388D01*
X-1423140Y-7739192D01*
X-1431557Y-7734147D01*
X-1439439Y-7728301D01*
X-1446711Y-7721711D01*
X-1453301Y-7714439D01*
X-1459147Y-7706557D01*
X-1464192Y-7698140D01*
X-1468388Y-7689268D01*
X-1471694Y-7680028D01*
X-1474079Y-7670509D01*
X-1475518Y-7660802D01*
X-1476000Y-7651000D01*
X-1476000Y-6351000D01*
X-1475518Y-6341198D01*
X-1474079Y-6331491D01*
X-1471694Y-6321972D01*
X-1468388Y-6312732D01*
X-1464192Y-6303860D01*
X-1459147Y-6295443D01*
X-1453301Y-6287561D01*
X-1446711Y-6280289D01*
X-1439439Y-6273699D01*
X-1431557Y-6267853D01*
X-1423140Y-6262808D01*
X-1414268Y-6258612D01*
X-1405028Y-6255306D01*
X-1395509Y-6252921D01*
X-1385802Y-6251482D01*
X-1376000Y-6251000D01*
X-1176000Y-6251000D01*
X-1166198Y-6251482D01*
G37*
G36*
X-366198Y-6251482D02*
G01*
X-356491Y-6252921D01*
X-346972Y-6255306D01*
X-337732Y-6258612D01*
X-328860Y-6262808D01*
X-320443Y-6267853D01*
X-312561Y-6273699D01*
X-305289Y-6280289D01*
X-298699Y-6287561D01*
X-292853Y-6295443D01*
X-287808Y-6303860D01*
X-283612Y-6312732D01*
X-280306Y-6321972D01*
X-277921Y-6331491D01*
X-276482Y-6341198D01*
X-276000Y-6351000D01*
X-276000Y-7651000D01*
X-276482Y-7660802D01*
X-277921Y-7670509D01*
X-280306Y-7680028D01*
X-283612Y-7689268D01*
X-287808Y-7698140D01*
X-292853Y-7706557D01*
X-298699Y-7714439D01*
X-305289Y-7721711D01*
X-312561Y-7728301D01*
X-320443Y-7734147D01*
X-328860Y-7739192D01*
X-337732Y-7743388D01*
X-346972Y-7746694D01*
X-356491Y-7749079D01*
X-366198Y-7750518D01*
X-376000Y-7751000D01*
X-576000Y-7751000D01*
X-585802Y-7750518D01*
X-595509Y-7749079D01*
X-605028Y-7746694D01*
X-614268Y-7743388D01*
X-623140Y-7739192D01*
X-631557Y-7734147D01*
X-639439Y-7728301D01*
X-646711Y-7721711D01*
X-653301Y-7714439D01*
X-659147Y-7706557D01*
X-664192Y-7698140D01*
X-668388Y-7689268D01*
X-671694Y-7680028D01*
X-674079Y-7670509D01*
X-675518Y-7660802D01*
X-676000Y-7651000D01*
X-676000Y-6351000D01*
X-675518Y-6341198D01*
X-674079Y-6331491D01*
X-671694Y-6321972D01*
X-668388Y-6312732D01*
X-664192Y-6303860D01*
X-659147Y-6295443D01*
X-653301Y-6287561D01*
X-646711Y-6280289D01*
X-639439Y-6273699D01*
X-631557Y-6267853D01*
X-623140Y-6262808D01*
X-614268Y-6258612D01*
X-605028Y-6255306D01*
X-595509Y-6252921D01*
X-585802Y-6251482D01*
X-576000Y-6251000D01*
X-376000Y-6251000D01*
X-366198Y-6251482D01*
G37*
G36*
X433802Y-6251482D02*
G01*
X443509Y-6252921D01*
X453028Y-6255306D01*
X462268Y-6258612D01*
X471140Y-6262808D01*
X479557Y-6267853D01*
X487439Y-6273699D01*
X494711Y-6280289D01*
X501301Y-6287561D01*
X507147Y-6295443D01*
X512192Y-6303860D01*
X516388Y-6312732D01*
X519694Y-6321972D01*
X522079Y-6331491D01*
X523518Y-6341198D01*
X524000Y-6351000D01*
X524000Y-7651000D01*
X523518Y-7660802D01*
X522079Y-7670509D01*
X519694Y-7680028D01*
X516388Y-7689268D01*
X512192Y-7698140D01*
X507147Y-7706557D01*
X501301Y-7714439D01*
X494711Y-7721711D01*
X487439Y-7728301D01*
X479557Y-7734147D01*
X471140Y-7739192D01*
X462268Y-7743388D01*
X453028Y-7746694D01*
X443509Y-7749079D01*
X433802Y-7750518D01*
X424000Y-7751000D01*
X224000Y-7751000D01*
X214198Y-7750518D01*
X204491Y-7749079D01*
X194972Y-7746694D01*
X185732Y-7743388D01*
X176860Y-7739192D01*
X168443Y-7734147D01*
X160561Y-7728301D01*
X153289Y-7721711D01*
X146699Y-7714439D01*
X140853Y-7706557D01*
X135808Y-7698140D01*
X131612Y-7689268D01*
X128306Y-7680028D01*
X125921Y-7670509D01*
X124482Y-7660802D01*
X124000Y-7651000D01*
X124000Y-6351000D01*
X124482Y-6341198D01*
X125921Y-6331491D01*
X128306Y-6321972D01*
X131612Y-6312732D01*
X135808Y-6303860D01*
X140853Y-6295443D01*
X146699Y-6287561D01*
X153289Y-6280289D01*
X160561Y-6273699D01*
X168443Y-6267853D01*
X176860Y-6262808D01*
X185732Y-6258612D01*
X194972Y-6255306D01*
X204491Y-6252921D01*
X214198Y-6251482D01*
X224000Y-6251000D01*
X424000Y-6251000D01*
X433802Y-6251482D01*
G37*
G36*
X1233802Y-6251482D02*
G01*
X1243509Y-6252921D01*
X1253028Y-6255306D01*
X1262268Y-6258612D01*
X1271140Y-6262808D01*
X1279557Y-6267853D01*
X1287439Y-6273699D01*
X1294711Y-6280289D01*
X1301301Y-6287561D01*
X1307147Y-6295443D01*
X1312192Y-6303860D01*
X1316388Y-6312732D01*
X1319694Y-6321972D01*
X1322079Y-6331491D01*
X1323518Y-6341198D01*
X1324000Y-6351000D01*
X1324000Y-7651000D01*
X1323518Y-7660802D01*
X1322079Y-7670509D01*
X1319694Y-7680028D01*
X1316388Y-7689268D01*
X1312192Y-7698140D01*
X1307147Y-7706557D01*
X1301301Y-7714439D01*
X1294711Y-7721711D01*
X1287439Y-7728301D01*
X1279557Y-7734147D01*
X1271140Y-7739192D01*
X1262268Y-7743388D01*
X1253028Y-7746694D01*
X1243509Y-7749079D01*
X1233802Y-7750518D01*
X1224000Y-7751000D01*
X1024000Y-7751000D01*
X1014198Y-7750518D01*
X1004491Y-7749079D01*
X994972Y-7746694D01*
X985732Y-7743388D01*
X976860Y-7739192D01*
X968443Y-7734147D01*
X960561Y-7728301D01*
X953289Y-7721711D01*
X946699Y-7714439D01*
X940853Y-7706557D01*
X935808Y-7698140D01*
X931612Y-7689268D01*
X928306Y-7680028D01*
X925921Y-7670509D01*
X924482Y-7660802D01*
X924000Y-7651000D01*
X924000Y-6351000D01*
X924482Y-6341198D01*
X925921Y-6331491D01*
X928306Y-6321972D01*
X931612Y-6312732D01*
X935808Y-6303860D01*
X940853Y-6295443D01*
X946699Y-6287561D01*
X953289Y-6280289D01*
X960561Y-6273699D01*
X968443Y-6267853D01*
X976860Y-6262808D01*
X985732Y-6258612D01*
X994972Y-6255306D01*
X1004491Y-6252921D01*
X1014198Y-6251482D01*
X1024000Y-6251000D01*
X1224000Y-6251000D01*
X1233802Y-6251482D01*
G37*
G36*
X2033802Y-6251482D02*
G01*
X2043509Y-6252921D01*
X2053028Y-6255306D01*
X2062268Y-6258612D01*
X2071140Y-6262808D01*
X2079557Y-6267853D01*
X2087439Y-6273699D01*
X2094711Y-6280289D01*
X2101301Y-6287561D01*
X2107147Y-6295443D01*
X2112192Y-6303860D01*
X2116388Y-6312732D01*
X2119694Y-6321972D01*
X2122079Y-6331491D01*
X2123518Y-6341198D01*
X2124000Y-6351000D01*
X2124000Y-7651000D01*
X2123518Y-7660802D01*
X2122079Y-7670509D01*
X2119694Y-7680028D01*
X2116388Y-7689268D01*
X2112192Y-7698140D01*
X2107147Y-7706557D01*
X2101301Y-7714439D01*
X2094711Y-7721711D01*
X2087439Y-7728301D01*
X2079557Y-7734147D01*
X2071140Y-7739192D01*
X2062268Y-7743388D01*
X2053028Y-7746694D01*
X2043509Y-7749079D01*
X2033802Y-7750518D01*
X2024000Y-7751000D01*
X1824000Y-7751000D01*
X1814198Y-7750518D01*
X1804491Y-7749079D01*
X1794972Y-7746694D01*
X1785732Y-7743388D01*
X1776860Y-7739192D01*
X1768443Y-7734147D01*
X1760561Y-7728301D01*
X1753289Y-7721711D01*
X1746699Y-7714439D01*
X1740853Y-7706557D01*
X1735808Y-7698140D01*
X1731612Y-7689268D01*
X1728306Y-7680028D01*
X1725921Y-7670509D01*
X1724482Y-7660802D01*
X1724000Y-7651000D01*
X1724000Y-6351000D01*
X1724482Y-6341198D01*
X1725921Y-6331491D01*
X1728306Y-6321972D01*
X1731612Y-6312732D01*
X1735808Y-6303860D01*
X1740853Y-6295443D01*
X1746699Y-6287561D01*
X1753289Y-6280289D01*
X1760561Y-6273699D01*
X1768443Y-6267853D01*
X1776860Y-6262808D01*
X1785732Y-6258612D01*
X1794972Y-6255306D01*
X1804491Y-6252921D01*
X1814198Y-6251482D01*
X1824000Y-6251000D01*
X2024000Y-6251000D01*
X2033802Y-6251482D01*
G37*
G36*
X2833802Y-6251482D02*
G01*
X2843509Y-6252921D01*
X2853028Y-6255306D01*
X2862268Y-6258612D01*
X2871140Y-6262808D01*
X2879557Y-6267853D01*
X2887439Y-6273699D01*
X2894711Y-6280289D01*
X2901301Y-6287561D01*
X2907147Y-6295443D01*
X2912192Y-6303860D01*
X2916388Y-6312732D01*
X2919694Y-6321972D01*
X2922079Y-6331491D01*
X2923518Y-6341198D01*
X2924000Y-6351000D01*
X2924000Y-7651000D01*
X2923518Y-7660802D01*
X2922079Y-7670509D01*
X2919694Y-7680028D01*
X2916388Y-7689268D01*
X2912192Y-7698140D01*
X2907147Y-7706557D01*
X2901301Y-7714439D01*
X2894711Y-7721711D01*
X2887439Y-7728301D01*
X2879557Y-7734147D01*
X2871140Y-7739192D01*
X2862268Y-7743388D01*
X2853028Y-7746694D01*
X2843509Y-7749079D01*
X2833802Y-7750518D01*
X2824000Y-7751000D01*
X2624000Y-7751000D01*
X2614198Y-7750518D01*
X2604491Y-7749079D01*
X2594972Y-7746694D01*
X2585732Y-7743388D01*
X2576860Y-7739192D01*
X2568443Y-7734147D01*
X2560561Y-7728301D01*
X2553289Y-7721711D01*
X2546699Y-7714439D01*
X2540853Y-7706557D01*
X2535808Y-7698140D01*
X2531612Y-7689268D01*
X2528306Y-7680028D01*
X2525921Y-7670509D01*
X2524482Y-7660802D01*
X2524000Y-7651000D01*
X2524000Y-6351000D01*
X2524482Y-6341198D01*
X2525921Y-6331491D01*
X2528306Y-6321972D01*
X2531612Y-6312732D01*
X2535808Y-6303860D01*
X2540853Y-6295443D01*
X2546699Y-6287561D01*
X2553289Y-6280289D01*
X2560561Y-6273699D01*
X2568443Y-6267853D01*
X2576860Y-6262808D01*
X2585732Y-6258612D01*
X2594972Y-6255306D01*
X2604491Y-6252921D01*
X2614198Y-6251482D01*
X2624000Y-6251000D01*
X2824000Y-6251000D01*
X2833802Y-6251482D01*
G37*
G36*
X3633802Y-6251482D02*
G01*
X3643509Y-6252921D01*
X3653028Y-6255306D01*
X3662268Y-6258612D01*
X3671140Y-6262808D01*
X3679557Y-6267853D01*
X3687439Y-6273699D01*
X3694711Y-6280289D01*
X3701301Y-6287561D01*
X3707147Y-6295443D01*
X3712192Y-6303860D01*
X3716388Y-6312732D01*
X3719694Y-6321972D01*
X3722079Y-6331491D01*
X3723518Y-6341198D01*
X3724000Y-6351000D01*
X3724000Y-7651000D01*
X3723518Y-7660802D01*
X3722079Y-7670509D01*
X3719694Y-7680028D01*
X3716388Y-7689268D01*
X3712192Y-7698140D01*
X3707147Y-7706557D01*
X3701301Y-7714439D01*
X3694711Y-7721711D01*
X3687439Y-7728301D01*
X3679557Y-7734147D01*
X3671140Y-7739192D01*
X3662268Y-7743388D01*
X3653028Y-7746694D01*
X3643509Y-7749079D01*
X3633802Y-7750518D01*
X3624000Y-7751000D01*
X3424000Y-7751000D01*
X3414198Y-7750518D01*
X3404491Y-7749079D01*
X3394972Y-7746694D01*
X3385732Y-7743388D01*
X3376860Y-7739192D01*
X3368443Y-7734147D01*
X3360561Y-7728301D01*
X3353289Y-7721711D01*
X3346699Y-7714439D01*
X3340853Y-7706557D01*
X3335808Y-7698140D01*
X3331612Y-7689268D01*
X3328306Y-7680028D01*
X3325921Y-7670509D01*
X3324482Y-7660802D01*
X3324000Y-7651000D01*
X3324000Y-6351000D01*
X3324482Y-6341198D01*
X3325921Y-6331491D01*
X3328306Y-6321972D01*
X3331612Y-6312732D01*
X3335808Y-6303860D01*
X3340853Y-6295443D01*
X3346699Y-6287561D01*
X3353289Y-6280289D01*
X3360561Y-6273699D01*
X3368443Y-6267853D01*
X3376860Y-6262808D01*
X3385732Y-6258612D01*
X3394972Y-6255306D01*
X3404491Y-6252921D01*
X3414198Y-6251482D01*
X3424000Y-6251000D01*
X3624000Y-6251000D01*
X3633802Y-6251482D01*
G37*
G36*
X4433802Y-6251482D02*
G01*
X4443509Y-6252921D01*
X4453028Y-6255306D01*
X4462268Y-6258612D01*
X4471140Y-6262808D01*
X4479557Y-6267853D01*
X4487439Y-6273699D01*
X4494711Y-6280289D01*
X4501301Y-6287561D01*
X4507147Y-6295443D01*
X4512192Y-6303860D01*
X4516388Y-6312732D01*
X4519694Y-6321972D01*
X4522079Y-6331491D01*
X4523518Y-6341198D01*
X4524000Y-6351000D01*
X4524000Y-7651000D01*
X4523518Y-7660802D01*
X4522079Y-7670509D01*
X4519694Y-7680028D01*
X4516388Y-7689268D01*
X4512192Y-7698140D01*
X4507147Y-7706557D01*
X4501301Y-7714439D01*
X4494711Y-7721711D01*
X4487439Y-7728301D01*
X4479557Y-7734147D01*
X4471140Y-7739192D01*
X4462268Y-7743388D01*
X4453028Y-7746694D01*
X4443509Y-7749079D01*
X4433802Y-7750518D01*
X4424000Y-7751000D01*
X4224000Y-7751000D01*
X4214198Y-7750518D01*
X4204491Y-7749079D01*
X4194972Y-7746694D01*
X4185732Y-7743388D01*
X4176860Y-7739192D01*
X4168443Y-7734147D01*
X4160561Y-7728301D01*
X4153289Y-7721711D01*
X4146699Y-7714439D01*
X4140853Y-7706557D01*
X4135808Y-7698140D01*
X4131612Y-7689268D01*
X4128306Y-7680028D01*
X4125921Y-7670509D01*
X4124482Y-7660802D01*
X4124000Y-7651000D01*
X4124000Y-6351000D01*
X4124482Y-6341198D01*
X4125921Y-6331491D01*
X4128306Y-6321972D01*
X4131612Y-6312732D01*
X4135808Y-6303860D01*
X4140853Y-6295443D01*
X4146699Y-6287561D01*
X4153289Y-6280289D01*
X4160561Y-6273699D01*
X4168443Y-6267853D01*
X4176860Y-6262808D01*
X4185732Y-6258612D01*
X4194972Y-6255306D01*
X4204491Y-6252921D01*
X4214198Y-6251482D01*
X4224000Y-6251000D01*
X4424000Y-6251000D01*
X4433802Y-6251482D01*
G37*
G36*
X6358802Y-8176482D02*
G01*
X6368509Y-8177921D01*
X6378028Y-8180306D01*
X6387268Y-8183612D01*
X6396140Y-8187808D01*
X6404557Y-8192853D01*
X6412439Y-8198699D01*
X6419711Y-8205289D01*
X6426301Y-8212561D01*
X6432147Y-8220443D01*
X6437192Y-8228860D01*
X6441388Y-8237732D01*
X6444694Y-8246972D01*
X6447079Y-8256491D01*
X6448518Y-8266198D01*
X6449000Y-8276000D01*
X6449000Y-8476000D01*
X6448518Y-8485802D01*
X6447079Y-8495509D01*
X6444694Y-8505028D01*
X6441388Y-8514268D01*
X6437192Y-8523140D01*
X6432147Y-8531557D01*
X6426301Y-8539439D01*
X6419711Y-8546711D01*
X6412439Y-8553301D01*
X6404557Y-8559147D01*
X6396140Y-8564192D01*
X6387268Y-8568388D01*
X6378028Y-8571694D01*
X6368509Y-8574079D01*
X6358802Y-8575518D01*
X6349000Y-8576000D01*
X5049000Y-8576000D01*
X5039198Y-8575518D01*
X5029491Y-8574079D01*
X5019972Y-8571694D01*
X5010732Y-8568388D01*
X5001860Y-8564192D01*
X4993443Y-8559147D01*
X4985561Y-8553301D01*
X4978289Y-8546711D01*
X4971699Y-8539439D01*
X4965853Y-8531557D01*
X4960808Y-8523140D01*
X4956612Y-8514268D01*
X4953306Y-8505028D01*
X4950921Y-8495509D01*
X4949482Y-8485802D01*
X4949000Y-8476000D01*
X4949000Y-8276000D01*
X4949482Y-8266198D01*
X4950921Y-8256491D01*
X4953306Y-8246972D01*
X4956612Y-8237732D01*
X4960808Y-8228860D01*
X4965853Y-8220443D01*
X4971699Y-8212561D01*
X4978289Y-8205289D01*
X4985561Y-8198699D01*
X4993443Y-8192853D01*
X5001860Y-8187808D01*
X5010732Y-8183612D01*
X5019972Y-8180306D01*
X5029491Y-8177921D01*
X5039198Y-8176482D01*
X5049000Y-8176000D01*
X6349000Y-8176000D01*
X6358802Y-8176482D01*
G37*
G36*
X6358802Y-8976482D02*
G01*
X6368509Y-8977921D01*
X6378028Y-8980306D01*
X6387268Y-8983612D01*
X6396140Y-8987808D01*
X6404557Y-8992853D01*
X6412439Y-8998699D01*
X6419711Y-9005289D01*
X6426301Y-9012561D01*
X6432147Y-9020443D01*
X6437192Y-9028860D01*
X6441388Y-9037732D01*
X6444694Y-9046972D01*
X6447079Y-9056491D01*
X6448518Y-9066198D01*
X6449000Y-9076000D01*
X6449000Y-9276000D01*
X6448518Y-9285802D01*
X6447079Y-9295509D01*
X6444694Y-9305028D01*
X6441388Y-9314268D01*
X6437192Y-9323140D01*
X6432147Y-9331557D01*
X6426301Y-9339439D01*
X6419711Y-9346711D01*
X6412439Y-9353301D01*
X6404557Y-9359147D01*
X6396140Y-9364192D01*
X6387268Y-9368388D01*
X6378028Y-9371694D01*
X6368509Y-9374079D01*
X6358802Y-9375518D01*
X6349000Y-9376000D01*
X5049000Y-9376000D01*
X5039198Y-9375518D01*
X5029491Y-9374079D01*
X5019972Y-9371694D01*
X5010732Y-9368388D01*
X5001860Y-9364192D01*
X4993443Y-9359147D01*
X4985561Y-9353301D01*
X4978289Y-9346711D01*
X4971699Y-9339439D01*
X4965853Y-9331557D01*
X4960808Y-9323140D01*
X4956612Y-9314268D01*
X4953306Y-9305028D01*
X4950921Y-9295509D01*
X4949482Y-9285802D01*
X4949000Y-9276000D01*
X4949000Y-9076000D01*
X4949482Y-9066198D01*
X4950921Y-9056491D01*
X4953306Y-9046972D01*
X4956612Y-9037732D01*
X4960808Y-9028860D01*
X4965853Y-9020443D01*
X4971699Y-9012561D01*
X4978289Y-9005289D01*
X4985561Y-8998699D01*
X4993443Y-8992853D01*
X5001860Y-8987808D01*
X5010732Y-8983612D01*
X5019972Y-8980306D01*
X5029491Y-8977921D01*
X5039198Y-8976482D01*
X5049000Y-8976000D01*
X6349000Y-8976000D01*
X6358802Y-8976482D01*
G37*
G36*
X6358802Y-9776482D02*
G01*
X6368509Y-9777921D01*
X6378028Y-9780306D01*
X6387268Y-9783612D01*
X6396140Y-9787808D01*
X6404557Y-9792853D01*
X6412439Y-9798699D01*
X6419711Y-9805289D01*
X6426301Y-9812561D01*
X6432147Y-9820443D01*
X6437192Y-9828860D01*
X6441388Y-9837732D01*
X6444694Y-9846972D01*
X6447079Y-9856491D01*
X6448518Y-9866198D01*
X6449000Y-9876000D01*
X6449000Y-10076000D01*
X6448518Y-10085802D01*
X6447079Y-10095509D01*
X6444694Y-10105028D01*
X6441388Y-10114268D01*
X6437192Y-10123140D01*
X6432147Y-10131557D01*
X6426301Y-10139439D01*
X6419711Y-10146711D01*
X6412439Y-10153301D01*
X6404557Y-10159147D01*
X6396140Y-10164192D01*
X6387268Y-10168388D01*
X6378028Y-10171694D01*
X6368509Y-10174079D01*
X6358802Y-10175518D01*
X6349000Y-10176000D01*
X5049000Y-10176000D01*
X5039198Y-10175518D01*
X5029491Y-10174079D01*
X5019972Y-10171694D01*
X5010732Y-10168388D01*
X5001860Y-10164192D01*
X4993443Y-10159147D01*
X4985561Y-10153301D01*
X4978289Y-10146711D01*
X4971699Y-10139439D01*
X4965853Y-10131557D01*
X4960808Y-10123140D01*
X4956612Y-10114268D01*
X4953306Y-10105028D01*
X4950921Y-10095509D01*
X4949482Y-10085802D01*
X4949000Y-10076000D01*
X4949000Y-9876000D01*
X4949482Y-9866198D01*
X4950921Y-9856491D01*
X4953306Y-9846972D01*
X4956612Y-9837732D01*
X4960808Y-9828860D01*
X4965853Y-9820443D01*
X4971699Y-9812561D01*
X4978289Y-9805289D01*
X4985561Y-9798699D01*
X4993443Y-9792853D01*
X5001860Y-9787808D01*
X5010732Y-9783612D01*
X5019972Y-9780306D01*
X5029491Y-9777921D01*
X5039198Y-9776482D01*
X5049000Y-9776000D01*
X6349000Y-9776000D01*
X6358802Y-9776482D01*
G37*
G36*
X6358802Y-10576482D02*
G01*
X6368509Y-10577921D01*
X6378028Y-10580306D01*
X6387268Y-10583612D01*
X6396140Y-10587808D01*
X6404557Y-10592853D01*
X6412439Y-10598699D01*
X6419711Y-10605289D01*
X6426301Y-10612561D01*
X6432147Y-10620443D01*
X6437192Y-10628860D01*
X6441388Y-10637732D01*
X6444694Y-10646972D01*
X6447079Y-10656491D01*
X6448518Y-10666198D01*
X6449000Y-10676000D01*
X6449000Y-10876000D01*
X6448518Y-10885802D01*
X6447079Y-10895509D01*
X6444694Y-10905028D01*
X6441388Y-10914268D01*
X6437192Y-10923140D01*
X6432147Y-10931557D01*
X6426301Y-10939439D01*
X6419711Y-10946711D01*
X6412439Y-10953301D01*
X6404557Y-10959147D01*
X6396140Y-10964192D01*
X6387268Y-10968388D01*
X6378028Y-10971694D01*
X6368509Y-10974079D01*
X6358802Y-10975518D01*
X6349000Y-10976000D01*
X5049000Y-10976000D01*
X5039198Y-10975518D01*
X5029491Y-10974079D01*
X5019972Y-10971694D01*
X5010732Y-10968388D01*
X5001860Y-10964192D01*
X4993443Y-10959147D01*
X4985561Y-10953301D01*
X4978289Y-10946711D01*
X4971699Y-10939439D01*
X4965853Y-10931557D01*
X4960808Y-10923140D01*
X4956612Y-10914268D01*
X4953306Y-10905028D01*
X4950921Y-10895509D01*
X4949482Y-10885802D01*
X4949000Y-10876000D01*
X4949000Y-10676000D01*
X4949482Y-10666198D01*
X4950921Y-10656491D01*
X4953306Y-10646972D01*
X4956612Y-10637732D01*
X4960808Y-10628860D01*
X4965853Y-10620443D01*
X4971699Y-10612561D01*
X4978289Y-10605289D01*
X4985561Y-10598699D01*
X4993443Y-10592853D01*
X5001860Y-10587808D01*
X5010732Y-10583612D01*
X5019972Y-10580306D01*
X5029491Y-10577921D01*
X5039198Y-10576482D01*
X5049000Y-10576000D01*
X6349000Y-10576000D01*
X6358802Y-10576482D01*
G37*
G36*
X6358802Y-11376482D02*
G01*
X6368509Y-11377921D01*
X6378028Y-11380306D01*
X6387268Y-11383612D01*
X6396140Y-11387808D01*
X6404557Y-11392853D01*
X6412439Y-11398699D01*
X6419711Y-11405289D01*
X6426301Y-11412561D01*
X6432147Y-11420443D01*
X6437192Y-11428860D01*
X6441388Y-11437732D01*
X6444694Y-11446972D01*
X6447079Y-11456491D01*
X6448518Y-11466198D01*
X6449000Y-11476000D01*
X6449000Y-11676000D01*
X6448518Y-11685802D01*
X6447079Y-11695509D01*
X6444694Y-11705028D01*
X6441388Y-11714268D01*
X6437192Y-11723140D01*
X6432147Y-11731557D01*
X6426301Y-11739439D01*
X6419711Y-11746711D01*
X6412439Y-11753301D01*
X6404557Y-11759147D01*
X6396140Y-11764192D01*
X6387268Y-11768388D01*
X6378028Y-11771694D01*
X6368509Y-11774079D01*
X6358802Y-11775518D01*
X6349000Y-11776000D01*
X5049000Y-11776000D01*
X5039198Y-11775518D01*
X5029491Y-11774079D01*
X5019972Y-11771694D01*
X5010732Y-11768388D01*
X5001860Y-11764192D01*
X4993443Y-11759147D01*
X4985561Y-11753301D01*
X4978289Y-11746711D01*
X4971699Y-11739439D01*
X4965853Y-11731557D01*
X4960808Y-11723140D01*
X4956612Y-11714268D01*
X4953306Y-11705028D01*
X4950921Y-11695509D01*
X4949482Y-11685802D01*
X4949000Y-11676000D01*
X4949000Y-11476000D01*
X4949482Y-11466198D01*
X4950921Y-11456491D01*
X4953306Y-11446972D01*
X4956612Y-11437732D01*
X4960808Y-11428860D01*
X4965853Y-11420443D01*
X4971699Y-11412561D01*
X4978289Y-11405289D01*
X4985561Y-11398699D01*
X4993443Y-11392853D01*
X5001860Y-11387808D01*
X5010732Y-11383612D01*
X5019972Y-11380306D01*
X5029491Y-11377921D01*
X5039198Y-11376482D01*
X5049000Y-11376000D01*
X6349000Y-11376000D01*
X6358802Y-11376482D01*
G37*
G36*
X6358802Y-12176482D02*
G01*
X6368509Y-12177921D01*
X6378028Y-12180306D01*
X6387268Y-12183612D01*
X6396140Y-12187808D01*
X6404557Y-12192853D01*
X6412439Y-12198699D01*
X6419711Y-12205289D01*
X6426301Y-12212561D01*
X6432147Y-12220443D01*
X6437192Y-12228860D01*
X6441388Y-12237732D01*
X6444694Y-12246972D01*
X6447079Y-12256491D01*
X6448518Y-12266198D01*
X6449000Y-12276000D01*
X6449000Y-12476000D01*
X6448518Y-12485802D01*
X6447079Y-12495509D01*
X6444694Y-12505028D01*
X6441388Y-12514268D01*
X6437192Y-12523140D01*
X6432147Y-12531557D01*
X6426301Y-12539439D01*
X6419711Y-12546711D01*
X6412439Y-12553301D01*
X6404557Y-12559147D01*
X6396140Y-12564192D01*
X6387268Y-12568388D01*
X6378028Y-12571694D01*
X6368509Y-12574079D01*
X6358802Y-12575518D01*
X6349000Y-12576000D01*
X5049000Y-12576000D01*
X5039198Y-12575518D01*
X5029491Y-12574079D01*
X5019972Y-12571694D01*
X5010732Y-12568388D01*
X5001860Y-12564192D01*
X4993443Y-12559147D01*
X4985561Y-12553301D01*
X4978289Y-12546711D01*
X4971699Y-12539439D01*
X4965853Y-12531557D01*
X4960808Y-12523140D01*
X4956612Y-12514268D01*
X4953306Y-12505028D01*
X4950921Y-12495509D01*
X4949482Y-12485802D01*
X4949000Y-12476000D01*
X4949000Y-12276000D01*
X4949482Y-12266198D01*
X4950921Y-12256491D01*
X4953306Y-12246972D01*
X4956612Y-12237732D01*
X4960808Y-12228860D01*
X4965853Y-12220443D01*
X4971699Y-12212561D01*
X4978289Y-12205289D01*
X4985561Y-12198699D01*
X4993443Y-12192853D01*
X5001860Y-12187808D01*
X5010732Y-12183612D01*
X5019972Y-12180306D01*
X5029491Y-12177921D01*
X5039198Y-12176482D01*
X5049000Y-12176000D01*
X6349000Y-12176000D01*
X6358802Y-12176482D01*
G37*
G36*
X6358802Y-12976482D02*
G01*
X6368509Y-12977921D01*
X6378028Y-12980306D01*
X6387268Y-12983612D01*
X6396140Y-12987808D01*
X6404557Y-12992853D01*
X6412439Y-12998699D01*
X6419711Y-13005289D01*
X6426301Y-13012561D01*
X6432147Y-13020443D01*
X6437192Y-13028860D01*
X6441388Y-13037732D01*
X6444694Y-13046972D01*
X6447079Y-13056491D01*
X6448518Y-13066198D01*
X6449000Y-13076000D01*
X6449000Y-13276000D01*
X6448518Y-13285802D01*
X6447079Y-13295509D01*
X6444694Y-13305028D01*
X6441388Y-13314268D01*
X6437192Y-13323140D01*
X6432147Y-13331557D01*
X6426301Y-13339439D01*
X6419711Y-13346711D01*
X6412439Y-13353301D01*
X6404557Y-13359147D01*
X6396140Y-13364192D01*
X6387268Y-13368388D01*
X6378028Y-13371694D01*
X6368509Y-13374079D01*
X6358802Y-13375518D01*
X6349000Y-13376000D01*
X5049000Y-13376000D01*
X5039198Y-13375518D01*
X5029491Y-13374079D01*
X5019972Y-13371694D01*
X5010732Y-13368388D01*
X5001860Y-13364192D01*
X4993443Y-13359147D01*
X4985561Y-13353301D01*
X4978289Y-13346711D01*
X4971699Y-13339439D01*
X4965853Y-13331557D01*
X4960808Y-13323140D01*
X4956612Y-13314268D01*
X4953306Y-13305028D01*
X4950921Y-13295509D01*
X4949482Y-13285802D01*
X4949000Y-13276000D01*
X4949000Y-13076000D01*
X4949482Y-13066198D01*
X4950921Y-13056491D01*
X4953306Y-13046972D01*
X4956612Y-13037732D01*
X4960808Y-13028860D01*
X4965853Y-13020443D01*
X4971699Y-13012561D01*
X4978289Y-13005289D01*
X4985561Y-12998699D01*
X4993443Y-12992853D01*
X5001860Y-12987808D01*
X5010732Y-12983612D01*
X5019972Y-12980306D01*
X5029491Y-12977921D01*
X5039198Y-12976482D01*
X5049000Y-12976000D01*
X6349000Y-12976000D01*
X6358802Y-12976482D01*
G37*
G36*
X6358802Y-13776482D02*
G01*
X6368509Y-13777921D01*
X6378028Y-13780306D01*
X6387268Y-13783612D01*
X6396140Y-13787808D01*
X6404557Y-13792853D01*
X6412439Y-13798699D01*
X6419711Y-13805289D01*
X6426301Y-13812561D01*
X6432147Y-13820443D01*
X6437192Y-13828860D01*
X6441388Y-13837732D01*
X6444694Y-13846972D01*
X6447079Y-13856491D01*
X6448518Y-13866198D01*
X6449000Y-13876000D01*
X6449000Y-14076000D01*
X6448518Y-14085802D01*
X6447079Y-14095509D01*
X6444694Y-14105028D01*
X6441388Y-14114268D01*
X6437192Y-14123140D01*
X6432147Y-14131557D01*
X6426301Y-14139439D01*
X6419711Y-14146711D01*
X6412439Y-14153301D01*
X6404557Y-14159147D01*
X6396140Y-14164192D01*
X6387268Y-14168388D01*
X6378028Y-14171694D01*
X6368509Y-14174079D01*
X6358802Y-14175518D01*
X6349000Y-14176000D01*
X5049000Y-14176000D01*
X5039198Y-14175518D01*
X5029491Y-14174079D01*
X5019972Y-14171694D01*
X5010732Y-14168388D01*
X5001860Y-14164192D01*
X4993443Y-14159147D01*
X4985561Y-14153301D01*
X4978289Y-14146711D01*
X4971699Y-14139439D01*
X4965853Y-14131557D01*
X4960808Y-14123140D01*
X4956612Y-14114268D01*
X4953306Y-14105028D01*
X4950921Y-14095509D01*
X4949482Y-14085802D01*
X4949000Y-14076000D01*
X4949000Y-13876000D01*
X4949482Y-13866198D01*
X4950921Y-13856491D01*
X4953306Y-13846972D01*
X4956612Y-13837732D01*
X4960808Y-13828860D01*
X4965853Y-13820443D01*
X4971699Y-13812561D01*
X4978289Y-13805289D01*
X4985561Y-13798699D01*
X4993443Y-13792853D01*
X5001860Y-13787808D01*
X5010732Y-13783612D01*
X5019972Y-13780306D01*
X5029491Y-13777921D01*
X5039198Y-13776482D01*
X5049000Y-13776000D01*
X6349000Y-13776000D01*
X6358802Y-13776482D01*
G37*
G36*
X4433802Y-14601482D02*
G01*
X4443509Y-14602921D01*
X4453028Y-14605306D01*
X4462268Y-14608612D01*
X4471140Y-14612808D01*
X4479557Y-14617853D01*
X4487439Y-14623699D01*
X4494711Y-14630289D01*
X4501301Y-14637561D01*
X4507147Y-14645443D01*
X4512192Y-14653860D01*
X4516388Y-14662732D01*
X4519694Y-14671972D01*
X4522079Y-14681491D01*
X4523518Y-14691198D01*
X4524000Y-14701000D01*
X4524000Y-16001000D01*
X4523518Y-16010802D01*
X4522079Y-16020509D01*
X4519694Y-16030028D01*
X4516388Y-16039268D01*
X4512192Y-16048140D01*
X4507147Y-16056557D01*
X4501301Y-16064439D01*
X4494711Y-16071711D01*
X4487439Y-16078301D01*
X4479557Y-16084147D01*
X4471140Y-16089192D01*
X4462268Y-16093388D01*
X4453028Y-16096694D01*
X4443509Y-16099079D01*
X4433802Y-16100518D01*
X4424000Y-16101000D01*
X4224000Y-16101000D01*
X4214198Y-16100518D01*
X4204491Y-16099079D01*
X4194972Y-16096694D01*
X4185732Y-16093388D01*
X4176860Y-16089192D01*
X4168443Y-16084147D01*
X4160561Y-16078301D01*
X4153289Y-16071711D01*
X4146699Y-16064439D01*
X4140853Y-16056557D01*
X4135808Y-16048140D01*
X4131612Y-16039268D01*
X4128306Y-16030028D01*
X4125921Y-16020509D01*
X4124482Y-16010802D01*
X4124000Y-16001000D01*
X4124000Y-14701000D01*
X4124482Y-14691198D01*
X4125921Y-14681491D01*
X4128306Y-14671972D01*
X4131612Y-14662732D01*
X4135808Y-14653860D01*
X4140853Y-14645443D01*
X4146699Y-14637561D01*
X4153289Y-14630289D01*
X4160561Y-14623699D01*
X4168443Y-14617853D01*
X4176860Y-14612808D01*
X4185732Y-14608612D01*
X4194972Y-14605306D01*
X4204491Y-14602921D01*
X4214198Y-14601482D01*
X4224000Y-14601000D01*
X4424000Y-14601000D01*
X4433802Y-14601482D01*
G37*
G36*
X3633802Y-14601482D02*
G01*
X3643509Y-14602921D01*
X3653028Y-14605306D01*
X3662268Y-14608612D01*
X3671140Y-14612808D01*
X3679557Y-14617853D01*
X3687439Y-14623699D01*
X3694711Y-14630289D01*
X3701301Y-14637561D01*
X3707147Y-14645443D01*
X3712192Y-14653860D01*
X3716388Y-14662732D01*
X3719694Y-14671972D01*
X3722079Y-14681491D01*
X3723518Y-14691198D01*
X3724000Y-14701000D01*
X3724000Y-16001000D01*
X3723518Y-16010802D01*
X3722079Y-16020509D01*
X3719694Y-16030028D01*
X3716388Y-16039268D01*
X3712192Y-16048140D01*
X3707147Y-16056557D01*
X3701301Y-16064439D01*
X3694711Y-16071711D01*
X3687439Y-16078301D01*
X3679557Y-16084147D01*
X3671140Y-16089192D01*
X3662268Y-16093388D01*
X3653028Y-16096694D01*
X3643509Y-16099079D01*
X3633802Y-16100518D01*
X3624000Y-16101000D01*
X3424000Y-16101000D01*
X3414198Y-16100518D01*
X3404491Y-16099079D01*
X3394972Y-16096694D01*
X3385732Y-16093388D01*
X3376860Y-16089192D01*
X3368443Y-16084147D01*
X3360561Y-16078301D01*
X3353289Y-16071711D01*
X3346699Y-16064439D01*
X3340853Y-16056557D01*
X3335808Y-16048140D01*
X3331612Y-16039268D01*
X3328306Y-16030028D01*
X3325921Y-16020509D01*
X3324482Y-16010802D01*
X3324000Y-16001000D01*
X3324000Y-14701000D01*
X3324482Y-14691198D01*
X3325921Y-14681491D01*
X3328306Y-14671972D01*
X3331612Y-14662732D01*
X3335808Y-14653860D01*
X3340853Y-14645443D01*
X3346699Y-14637561D01*
X3353289Y-14630289D01*
X3360561Y-14623699D01*
X3368443Y-14617853D01*
X3376860Y-14612808D01*
X3385732Y-14608612D01*
X3394972Y-14605306D01*
X3404491Y-14602921D01*
X3414198Y-14601482D01*
X3424000Y-14601000D01*
X3624000Y-14601000D01*
X3633802Y-14601482D01*
G37*
G36*
X2833802Y-14601482D02*
G01*
X2843509Y-14602921D01*
X2853028Y-14605306D01*
X2862268Y-14608612D01*
X2871140Y-14612808D01*
X2879557Y-14617853D01*
X2887439Y-14623699D01*
X2894711Y-14630289D01*
X2901301Y-14637561D01*
X2907147Y-14645443D01*
X2912192Y-14653860D01*
X2916388Y-14662732D01*
X2919694Y-14671972D01*
X2922079Y-14681491D01*
X2923518Y-14691198D01*
X2924000Y-14701000D01*
X2924000Y-16001000D01*
X2923518Y-16010802D01*
X2922079Y-16020509D01*
X2919694Y-16030028D01*
X2916388Y-16039268D01*
X2912192Y-16048140D01*
X2907147Y-16056557D01*
X2901301Y-16064439D01*
X2894711Y-16071711D01*
X2887439Y-16078301D01*
X2879557Y-16084147D01*
X2871140Y-16089192D01*
X2862268Y-16093388D01*
X2853028Y-16096694D01*
X2843509Y-16099079D01*
X2833802Y-16100518D01*
X2824000Y-16101000D01*
X2624000Y-16101000D01*
X2614198Y-16100518D01*
X2604491Y-16099079D01*
X2594972Y-16096694D01*
X2585732Y-16093388D01*
X2576860Y-16089192D01*
X2568443Y-16084147D01*
X2560561Y-16078301D01*
X2553289Y-16071711D01*
X2546699Y-16064439D01*
X2540853Y-16056557D01*
X2535808Y-16048140D01*
X2531612Y-16039268D01*
X2528306Y-16030028D01*
X2525921Y-16020509D01*
X2524482Y-16010802D01*
X2524000Y-16001000D01*
X2524000Y-14701000D01*
X2524482Y-14691198D01*
X2525921Y-14681491D01*
X2528306Y-14671972D01*
X2531612Y-14662732D01*
X2535808Y-14653860D01*
X2540853Y-14645443D01*
X2546699Y-14637561D01*
X2553289Y-14630289D01*
X2560561Y-14623699D01*
X2568443Y-14617853D01*
X2576860Y-14612808D01*
X2585732Y-14608612D01*
X2594972Y-14605306D01*
X2604491Y-14602921D01*
X2614198Y-14601482D01*
X2624000Y-14601000D01*
X2824000Y-14601000D01*
X2833802Y-14601482D01*
G37*
G36*
X2033802Y-14601482D02*
G01*
X2043509Y-14602921D01*
X2053028Y-14605306D01*
X2062268Y-14608612D01*
X2071140Y-14612808D01*
X2079557Y-14617853D01*
X2087439Y-14623699D01*
X2094711Y-14630289D01*
X2101301Y-14637561D01*
X2107147Y-14645443D01*
X2112192Y-14653860D01*
X2116388Y-14662732D01*
X2119694Y-14671972D01*
X2122079Y-14681491D01*
X2123518Y-14691198D01*
X2124000Y-14701000D01*
X2124000Y-16001000D01*
X2123518Y-16010802D01*
X2122079Y-16020509D01*
X2119694Y-16030028D01*
X2116388Y-16039268D01*
X2112192Y-16048140D01*
X2107147Y-16056557D01*
X2101301Y-16064439D01*
X2094711Y-16071711D01*
X2087439Y-16078301D01*
X2079557Y-16084147D01*
X2071140Y-16089192D01*
X2062268Y-16093388D01*
X2053028Y-16096694D01*
X2043509Y-16099079D01*
X2033802Y-16100518D01*
X2024000Y-16101000D01*
X1824000Y-16101000D01*
X1814198Y-16100518D01*
X1804491Y-16099079D01*
X1794972Y-16096694D01*
X1785732Y-16093388D01*
X1776860Y-16089192D01*
X1768443Y-16084147D01*
X1760561Y-16078301D01*
X1753289Y-16071711D01*
X1746699Y-16064439D01*
X1740853Y-16056557D01*
X1735808Y-16048140D01*
X1731612Y-16039268D01*
X1728306Y-16030028D01*
X1725921Y-16020509D01*
X1724482Y-16010802D01*
X1724000Y-16001000D01*
X1724000Y-14701000D01*
X1724482Y-14691198D01*
X1725921Y-14681491D01*
X1728306Y-14671972D01*
X1731612Y-14662732D01*
X1735808Y-14653860D01*
X1740853Y-14645443D01*
X1746699Y-14637561D01*
X1753289Y-14630289D01*
X1760561Y-14623699D01*
X1768443Y-14617853D01*
X1776860Y-14612808D01*
X1785732Y-14608612D01*
X1794972Y-14605306D01*
X1804491Y-14602921D01*
X1814198Y-14601482D01*
X1824000Y-14601000D01*
X2024000Y-14601000D01*
X2033802Y-14601482D01*
G37*
G36*
X1233802Y-14601482D02*
G01*
X1243509Y-14602921D01*
X1253028Y-14605306D01*
X1262268Y-14608612D01*
X1271140Y-14612808D01*
X1279557Y-14617853D01*
X1287439Y-14623699D01*
X1294711Y-14630289D01*
X1301301Y-14637561D01*
X1307147Y-14645443D01*
X1312192Y-14653860D01*
X1316388Y-14662732D01*
X1319694Y-14671972D01*
X1322079Y-14681491D01*
X1323518Y-14691198D01*
X1324000Y-14701000D01*
X1324000Y-16001000D01*
X1323518Y-16010802D01*
X1322079Y-16020509D01*
X1319694Y-16030028D01*
X1316388Y-16039268D01*
X1312192Y-16048140D01*
X1307147Y-16056557D01*
X1301301Y-16064439D01*
X1294711Y-16071711D01*
X1287439Y-16078301D01*
X1279557Y-16084147D01*
X1271140Y-16089192D01*
X1262268Y-16093388D01*
X1253028Y-16096694D01*
X1243509Y-16099079D01*
X1233802Y-16100518D01*
X1224000Y-16101000D01*
X1024000Y-16101000D01*
X1014198Y-16100518D01*
X1004491Y-16099079D01*
X994972Y-16096694D01*
X985732Y-16093388D01*
X976860Y-16089192D01*
X968443Y-16084147D01*
X960561Y-16078301D01*
X953289Y-16071711D01*
X946699Y-16064439D01*
X940853Y-16056557D01*
X935808Y-16048140D01*
X931612Y-16039268D01*
X928306Y-16030028D01*
X925921Y-16020509D01*
X924482Y-16010802D01*
X924000Y-16001000D01*
X924000Y-14701000D01*
X924482Y-14691198D01*
X925921Y-14681491D01*
X928306Y-14671972D01*
X931612Y-14662732D01*
X935808Y-14653860D01*
X940853Y-14645443D01*
X946699Y-14637561D01*
X953289Y-14630289D01*
X960561Y-14623699D01*
X968443Y-14617853D01*
X976860Y-14612808D01*
X985732Y-14608612D01*
X994972Y-14605306D01*
X1004491Y-14602921D01*
X1014198Y-14601482D01*
X1024000Y-14601000D01*
X1224000Y-14601000D01*
X1233802Y-14601482D01*
G37*
G36*
X433802Y-14601482D02*
G01*
X443509Y-14602921D01*
X453028Y-14605306D01*
X462268Y-14608612D01*
X471140Y-14612808D01*
X479557Y-14617853D01*
X487439Y-14623699D01*
X494711Y-14630289D01*
X501301Y-14637561D01*
X507147Y-14645443D01*
X512192Y-14653860D01*
X516388Y-14662732D01*
X519694Y-14671972D01*
X522079Y-14681491D01*
X523518Y-14691198D01*
X524000Y-14701000D01*
X524000Y-16001000D01*
X523518Y-16010802D01*
X522079Y-16020509D01*
X519694Y-16030028D01*
X516388Y-16039268D01*
X512192Y-16048140D01*
X507147Y-16056557D01*
X501301Y-16064439D01*
X494711Y-16071711D01*
X487439Y-16078301D01*
X479557Y-16084147D01*
X471140Y-16089192D01*
X462268Y-16093388D01*
X453028Y-16096694D01*
X443509Y-16099079D01*
X433802Y-16100518D01*
X424000Y-16101000D01*
X224000Y-16101000D01*
X214198Y-16100518D01*
X204491Y-16099079D01*
X194972Y-16096694D01*
X185732Y-16093388D01*
X176860Y-16089192D01*
X168443Y-16084147D01*
X160561Y-16078301D01*
X153289Y-16071711D01*
X146699Y-16064439D01*
X140853Y-16056557D01*
X135808Y-16048140D01*
X131612Y-16039268D01*
X128306Y-16030028D01*
X125921Y-16020509D01*
X124482Y-16010802D01*
X124000Y-16001000D01*
X124000Y-14701000D01*
X124482Y-14691198D01*
X125921Y-14681491D01*
X128306Y-14671972D01*
X131612Y-14662732D01*
X135808Y-14653860D01*
X140853Y-14645443D01*
X146699Y-14637561D01*
X153289Y-14630289D01*
X160561Y-14623699D01*
X168443Y-14617853D01*
X176860Y-14612808D01*
X185732Y-14608612D01*
X194972Y-14605306D01*
X204491Y-14602921D01*
X214198Y-14601482D01*
X224000Y-14601000D01*
X424000Y-14601000D01*
X433802Y-14601482D01*
G37*
G36*
X-366198Y-14601482D02*
G01*
X-356491Y-14602921D01*
X-346972Y-14605306D01*
X-337732Y-14608612D01*
X-328860Y-14612808D01*
X-320443Y-14617853D01*
X-312561Y-14623699D01*
X-305289Y-14630289D01*
X-298699Y-14637561D01*
X-292853Y-14645443D01*
X-287808Y-14653860D01*
X-283612Y-14662732D01*
X-280306Y-14671972D01*
X-277921Y-14681491D01*
X-276482Y-14691198D01*
X-276000Y-14701000D01*
X-276000Y-16001000D01*
X-276482Y-16010802D01*
X-277921Y-16020509D01*
X-280306Y-16030028D01*
X-283612Y-16039268D01*
X-287808Y-16048140D01*
X-292853Y-16056557D01*
X-298699Y-16064439D01*
X-305289Y-16071711D01*
X-312561Y-16078301D01*
X-320443Y-16084147D01*
X-328860Y-16089192D01*
X-337732Y-16093388D01*
X-346972Y-16096694D01*
X-356491Y-16099079D01*
X-366198Y-16100518D01*
X-376000Y-16101000D01*
X-576000Y-16101000D01*
X-585802Y-16100518D01*
X-595509Y-16099079D01*
X-605028Y-16096694D01*
X-614268Y-16093388D01*
X-623140Y-16089192D01*
X-631557Y-16084147D01*
X-639439Y-16078301D01*
X-646711Y-16071711D01*
X-653301Y-16064439D01*
X-659147Y-16056557D01*
X-664192Y-16048140D01*
X-668388Y-16039268D01*
X-671694Y-16030028D01*
X-674079Y-16020509D01*
X-675518Y-16010802D01*
X-676000Y-16001000D01*
X-676000Y-14701000D01*
X-675518Y-14691198D01*
X-674079Y-14681491D01*
X-671694Y-14671972D01*
X-668388Y-14662732D01*
X-664192Y-14653860D01*
X-659147Y-14645443D01*
X-653301Y-14637561D01*
X-646711Y-14630289D01*
X-639439Y-14623699D01*
X-631557Y-14617853D01*
X-623140Y-14612808D01*
X-614268Y-14608612D01*
X-605028Y-14605306D01*
X-595509Y-14602921D01*
X-585802Y-14601482D01*
X-576000Y-14601000D01*
X-376000Y-14601000D01*
X-366198Y-14601482D01*
G37*
G36*
X-1166198Y-14601482D02*
G01*
X-1156491Y-14602921D01*
X-1146972Y-14605306D01*
X-1137732Y-14608612D01*
X-1128860Y-14612808D01*
X-1120443Y-14617853D01*
X-1112561Y-14623699D01*
X-1105289Y-14630289D01*
X-1098699Y-14637561D01*
X-1092853Y-14645443D01*
X-1087808Y-14653860D01*
X-1083612Y-14662732D01*
X-1080306Y-14671972D01*
X-1077921Y-14681491D01*
X-1076482Y-14691198D01*
X-1076000Y-14701000D01*
X-1076000Y-16001000D01*
X-1076482Y-16010802D01*
X-1077921Y-16020509D01*
X-1080306Y-16030028D01*
X-1083612Y-16039268D01*
X-1087808Y-16048140D01*
X-1092853Y-16056557D01*
X-1098699Y-16064439D01*
X-1105289Y-16071711D01*
X-1112561Y-16078301D01*
X-1120443Y-16084147D01*
X-1128860Y-16089192D01*
X-1137732Y-16093388D01*
X-1146972Y-16096694D01*
X-1156491Y-16099079D01*
X-1166198Y-16100518D01*
X-1176000Y-16101000D01*
X-1376000Y-16101000D01*
X-1385802Y-16100518D01*
X-1395509Y-16099079D01*
X-1405028Y-16096694D01*
X-1414268Y-16093388D01*
X-1423140Y-16089192D01*
X-1431557Y-16084147D01*
X-1439439Y-16078301D01*
X-1446711Y-16071711D01*
X-1453301Y-16064439D01*
X-1459147Y-16056557D01*
X-1464192Y-16048140D01*
X-1468388Y-16039268D01*
X-1471694Y-16030028D01*
X-1474079Y-16020509D01*
X-1475518Y-16010802D01*
X-1476000Y-16001000D01*
X-1476000Y-14701000D01*
X-1475518Y-14691198D01*
X-1474079Y-14681491D01*
X-1471694Y-14671972D01*
X-1468388Y-14662732D01*
X-1464192Y-14653860D01*
X-1459147Y-14645443D01*
X-1453301Y-14637561D01*
X-1446711Y-14630289D01*
X-1439439Y-14623699D01*
X-1431557Y-14617853D01*
X-1423140Y-14612808D01*
X-1414268Y-14608612D01*
X-1405028Y-14605306D01*
X-1395509Y-14602921D01*
X-1385802Y-14601482D01*
X-1376000Y-14601000D01*
X-1176000Y-14601000D01*
X-1166198Y-14601482D01*
G37*
G36*
X-1991198Y-13776482D02*
G01*
X-1981491Y-13777921D01*
X-1971972Y-13780306D01*
X-1962732Y-13783612D01*
X-1953860Y-13787808D01*
X-1945443Y-13792853D01*
X-1937561Y-13798699D01*
X-1930289Y-13805289D01*
X-1923699Y-13812561D01*
X-1917853Y-13820443D01*
X-1912808Y-13828860D01*
X-1908612Y-13837732D01*
X-1905306Y-13846972D01*
X-1902921Y-13856491D01*
X-1901482Y-13866198D01*
X-1901000Y-13876000D01*
X-1901000Y-14076000D01*
X-1901482Y-14085802D01*
X-1902921Y-14095509D01*
X-1905306Y-14105028D01*
X-1908612Y-14114268D01*
X-1912808Y-14123140D01*
X-1917853Y-14131557D01*
X-1923699Y-14139439D01*
X-1930289Y-14146711D01*
X-1937561Y-14153301D01*
X-1945443Y-14159147D01*
X-1953860Y-14164192D01*
X-1962732Y-14168388D01*
X-1971972Y-14171694D01*
X-1981491Y-14174079D01*
X-1991198Y-14175518D01*
X-2001000Y-14176000D01*
X-3301000Y-14176000D01*
X-3310802Y-14175518D01*
X-3320509Y-14174079D01*
X-3330028Y-14171694D01*
X-3339268Y-14168388D01*
X-3348140Y-14164192D01*
X-3356557Y-14159147D01*
X-3364439Y-14153301D01*
X-3371711Y-14146711D01*
X-3378301Y-14139439D01*
X-3384147Y-14131557D01*
X-3389192Y-14123140D01*
X-3393388Y-14114268D01*
X-3396694Y-14105028D01*
X-3399079Y-14095509D01*
X-3400518Y-14085802D01*
X-3401000Y-14076000D01*
X-3401000Y-13876000D01*
X-3400518Y-13866198D01*
X-3399079Y-13856491D01*
X-3396694Y-13846972D01*
X-3393388Y-13837732D01*
X-3389192Y-13828860D01*
X-3384147Y-13820443D01*
X-3378301Y-13812561D01*
X-3371711Y-13805289D01*
X-3364439Y-13798699D01*
X-3356557Y-13792853D01*
X-3348140Y-13787808D01*
X-3339268Y-13783612D01*
X-3330028Y-13780306D01*
X-3320509Y-13777921D01*
X-3310802Y-13776482D01*
X-3301000Y-13776000D01*
X-2001000Y-13776000D01*
X-1991198Y-13776482D01*
G37*
G36*
X-1991198Y-12976482D02*
G01*
X-1981491Y-12977921D01*
X-1971972Y-12980306D01*
X-1962732Y-12983612D01*
X-1953860Y-12987808D01*
X-1945443Y-12992853D01*
X-1937561Y-12998699D01*
X-1930289Y-13005289D01*
X-1923699Y-13012561D01*
X-1917853Y-13020443D01*
X-1912808Y-13028860D01*
X-1908612Y-13037732D01*
X-1905306Y-13046972D01*
X-1902921Y-13056491D01*
X-1901482Y-13066198D01*
X-1901000Y-13076000D01*
X-1901000Y-13276000D01*
X-1901482Y-13285802D01*
X-1902921Y-13295509D01*
X-1905306Y-13305028D01*
X-1908612Y-13314268D01*
X-1912808Y-13323140D01*
X-1917853Y-13331557D01*
X-1923699Y-13339439D01*
X-1930289Y-13346711D01*
X-1937561Y-13353301D01*
X-1945443Y-13359147D01*
X-1953860Y-13364192D01*
X-1962732Y-13368388D01*
X-1971972Y-13371694D01*
X-1981491Y-13374079D01*
X-1991198Y-13375518D01*
X-2001000Y-13376000D01*
X-3301000Y-13376000D01*
X-3310802Y-13375518D01*
X-3320509Y-13374079D01*
X-3330028Y-13371694D01*
X-3339268Y-13368388D01*
X-3348140Y-13364192D01*
X-3356557Y-13359147D01*
X-3364439Y-13353301D01*
X-3371711Y-13346711D01*
X-3378301Y-13339439D01*
X-3384147Y-13331557D01*
X-3389192Y-13323140D01*
X-3393388Y-13314268D01*
X-3396694Y-13305028D01*
X-3399079Y-13295509D01*
X-3400518Y-13285802D01*
X-3401000Y-13276000D01*
X-3401000Y-13076000D01*
X-3400518Y-13066198D01*
X-3399079Y-13056491D01*
X-3396694Y-13046972D01*
X-3393388Y-13037732D01*
X-3389192Y-13028860D01*
X-3384147Y-13020443D01*
X-3378301Y-13012561D01*
X-3371711Y-13005289D01*
X-3364439Y-12998699D01*
X-3356557Y-12992853D01*
X-3348140Y-12987808D01*
X-3339268Y-12983612D01*
X-3330028Y-12980306D01*
X-3320509Y-12977921D01*
X-3310802Y-12976482D01*
X-3301000Y-12976000D01*
X-2001000Y-12976000D01*
X-1991198Y-12976482D01*
G37*
G36*
X-1991198Y-12176482D02*
G01*
X-1981491Y-12177921D01*
X-1971972Y-12180306D01*
X-1962732Y-12183612D01*
X-1953860Y-12187808D01*
X-1945443Y-12192853D01*
X-1937561Y-12198699D01*
X-1930289Y-12205289D01*
X-1923699Y-12212561D01*
X-1917853Y-12220443D01*
X-1912808Y-12228860D01*
X-1908612Y-12237732D01*
X-1905306Y-12246972D01*
X-1902921Y-12256491D01*
X-1901482Y-12266198D01*
X-1901000Y-12276000D01*
X-1901000Y-12476000D01*
X-1901482Y-12485802D01*
X-1902921Y-12495509D01*
X-1905306Y-12505028D01*
X-1908612Y-12514268D01*
X-1912808Y-12523140D01*
X-1917853Y-12531557D01*
X-1923699Y-12539439D01*
X-1930289Y-12546711D01*
X-1937561Y-12553301D01*
X-1945443Y-12559147D01*
X-1953860Y-12564192D01*
X-1962732Y-12568388D01*
X-1971972Y-12571694D01*
X-1981491Y-12574079D01*
X-1991198Y-12575518D01*
X-2001000Y-12576000D01*
X-3301000Y-12576000D01*
X-3310802Y-12575518D01*
X-3320509Y-12574079D01*
X-3330028Y-12571694D01*
X-3339268Y-12568388D01*
X-3348140Y-12564192D01*
X-3356557Y-12559147D01*
X-3364439Y-12553301D01*
X-3371711Y-12546711D01*
X-3378301Y-12539439D01*
X-3384147Y-12531557D01*
X-3389192Y-12523140D01*
X-3393388Y-12514268D01*
X-3396694Y-12505028D01*
X-3399079Y-12495509D01*
X-3400518Y-12485802D01*
X-3401000Y-12476000D01*
X-3401000Y-12276000D01*
X-3400518Y-12266198D01*
X-3399079Y-12256491D01*
X-3396694Y-12246972D01*
X-3393388Y-12237732D01*
X-3389192Y-12228860D01*
X-3384147Y-12220443D01*
X-3378301Y-12212561D01*
X-3371711Y-12205289D01*
X-3364439Y-12198699D01*
X-3356557Y-12192853D01*
X-3348140Y-12187808D01*
X-3339268Y-12183612D01*
X-3330028Y-12180306D01*
X-3320509Y-12177921D01*
X-3310802Y-12176482D01*
X-3301000Y-12176000D01*
X-2001000Y-12176000D01*
X-1991198Y-12176482D01*
G37*
G36*
X-1991198Y-11376482D02*
G01*
X-1981491Y-11377921D01*
X-1971972Y-11380306D01*
X-1962732Y-11383612D01*
X-1953860Y-11387808D01*
X-1945443Y-11392853D01*
X-1937561Y-11398699D01*
X-1930289Y-11405289D01*
X-1923699Y-11412561D01*
X-1917853Y-11420443D01*
X-1912808Y-11428860D01*
X-1908612Y-11437732D01*
X-1905306Y-11446972D01*
X-1902921Y-11456491D01*
X-1901482Y-11466198D01*
X-1901000Y-11476000D01*
X-1901000Y-11676000D01*
X-1901482Y-11685802D01*
X-1902921Y-11695509D01*
X-1905306Y-11705028D01*
X-1908612Y-11714268D01*
X-1912808Y-11723140D01*
X-1917853Y-11731557D01*
X-1923699Y-11739439D01*
X-1930289Y-11746711D01*
X-1937561Y-11753301D01*
X-1945443Y-11759147D01*
X-1953860Y-11764192D01*
X-1962732Y-11768388D01*
X-1971972Y-11771694D01*
X-1981491Y-11774079D01*
X-1991198Y-11775518D01*
X-2001000Y-11776000D01*
X-3301000Y-11776000D01*
X-3310802Y-11775518D01*
X-3320509Y-11774079D01*
X-3330028Y-11771694D01*
X-3339268Y-11768388D01*
X-3348140Y-11764192D01*
X-3356557Y-11759147D01*
X-3364439Y-11753301D01*
X-3371711Y-11746711D01*
X-3378301Y-11739439D01*
X-3384147Y-11731557D01*
X-3389192Y-11723140D01*
X-3393388Y-11714268D01*
X-3396694Y-11705028D01*
X-3399079Y-11695509D01*
X-3400518Y-11685802D01*
X-3401000Y-11676000D01*
X-3401000Y-11476000D01*
X-3400518Y-11466198D01*
X-3399079Y-11456491D01*
X-3396694Y-11446972D01*
X-3393388Y-11437732D01*
X-3389192Y-11428860D01*
X-3384147Y-11420443D01*
X-3378301Y-11412561D01*
X-3371711Y-11405289D01*
X-3364439Y-11398699D01*
X-3356557Y-11392853D01*
X-3348140Y-11387808D01*
X-3339268Y-11383612D01*
X-3330028Y-11380306D01*
X-3320509Y-11377921D01*
X-3310802Y-11376482D01*
X-3301000Y-11376000D01*
X-2001000Y-11376000D01*
X-1991198Y-11376482D01*
G37*
G36*
X-1991198Y-10576482D02*
G01*
X-1981491Y-10577921D01*
X-1971972Y-10580306D01*
X-1962732Y-10583612D01*
X-1953860Y-10587808D01*
X-1945443Y-10592853D01*
X-1937561Y-10598699D01*
X-1930289Y-10605289D01*
X-1923699Y-10612561D01*
X-1917853Y-10620443D01*
X-1912808Y-10628860D01*
X-1908612Y-10637732D01*
X-1905306Y-10646972D01*
X-1902921Y-10656491D01*
X-1901482Y-10666198D01*
X-1901000Y-10676000D01*
X-1901000Y-10876000D01*
X-1901482Y-10885802D01*
X-1902921Y-10895509D01*
X-1905306Y-10905028D01*
X-1908612Y-10914268D01*
X-1912808Y-10923140D01*
X-1917853Y-10931557D01*
X-1923699Y-10939439D01*
X-1930289Y-10946711D01*
X-1937561Y-10953301D01*
X-1945443Y-10959147D01*
X-1953860Y-10964192D01*
X-1962732Y-10968388D01*
X-1971972Y-10971694D01*
X-1981491Y-10974079D01*
X-1991198Y-10975518D01*
X-2001000Y-10976000D01*
X-3301000Y-10976000D01*
X-3310802Y-10975518D01*
X-3320509Y-10974079D01*
X-3330028Y-10971694D01*
X-3339268Y-10968388D01*
X-3348140Y-10964192D01*
X-3356557Y-10959147D01*
X-3364439Y-10953301D01*
X-3371711Y-10946711D01*
X-3378301Y-10939439D01*
X-3384147Y-10931557D01*
X-3389192Y-10923140D01*
X-3393388Y-10914268D01*
X-3396694Y-10905028D01*
X-3399079Y-10895509D01*
X-3400518Y-10885802D01*
X-3401000Y-10876000D01*
X-3401000Y-10676000D01*
X-3400518Y-10666198D01*
X-3399079Y-10656491D01*
X-3396694Y-10646972D01*
X-3393388Y-10637732D01*
X-3389192Y-10628860D01*
X-3384147Y-10620443D01*
X-3378301Y-10612561D01*
X-3371711Y-10605289D01*
X-3364439Y-10598699D01*
X-3356557Y-10592853D01*
X-3348140Y-10587808D01*
X-3339268Y-10583612D01*
X-3330028Y-10580306D01*
X-3320509Y-10577921D01*
X-3310802Y-10576482D01*
X-3301000Y-10576000D01*
X-2001000Y-10576000D01*
X-1991198Y-10576482D01*
G37*
G36*
X-1991198Y-9776482D02*
G01*
X-1981491Y-9777921D01*
X-1971972Y-9780306D01*
X-1962732Y-9783612D01*
X-1953860Y-9787808D01*
X-1945443Y-9792853D01*
X-1937561Y-9798699D01*
X-1930289Y-9805289D01*
X-1923699Y-9812561D01*
X-1917853Y-9820443D01*
X-1912808Y-9828860D01*
X-1908612Y-9837732D01*
X-1905306Y-9846972D01*
X-1902921Y-9856491D01*
X-1901482Y-9866198D01*
X-1901000Y-9876000D01*
X-1901000Y-10076000D01*
X-1901482Y-10085802D01*
X-1902921Y-10095509D01*
X-1905306Y-10105028D01*
X-1908612Y-10114268D01*
X-1912808Y-10123140D01*
X-1917853Y-10131557D01*
X-1923699Y-10139439D01*
X-1930289Y-10146711D01*
X-1937561Y-10153301D01*
X-1945443Y-10159147D01*
X-1953860Y-10164192D01*
X-1962732Y-10168388D01*
X-1971972Y-10171694D01*
X-1981491Y-10174079D01*
X-1991198Y-10175518D01*
X-2001000Y-10176000D01*
X-3301000Y-10176000D01*
X-3310802Y-10175518D01*
X-3320509Y-10174079D01*
X-3330028Y-10171694D01*
X-3339268Y-10168388D01*
X-3348140Y-10164192D01*
X-3356557Y-10159147D01*
X-3364439Y-10153301D01*
X-3371711Y-10146711D01*
X-3378301Y-10139439D01*
X-3384147Y-10131557D01*
X-3389192Y-10123140D01*
X-3393388Y-10114268D01*
X-3396694Y-10105028D01*
X-3399079Y-10095509D01*
X-3400518Y-10085802D01*
X-3401000Y-10076000D01*
X-3401000Y-9876000D01*
X-3400518Y-9866198D01*
X-3399079Y-9856491D01*
X-3396694Y-9846972D01*
X-3393388Y-9837732D01*
X-3389192Y-9828860D01*
X-3384147Y-9820443D01*
X-3378301Y-9812561D01*
X-3371711Y-9805289D01*
X-3364439Y-9798699D01*
X-3356557Y-9792853D01*
X-3348140Y-9787808D01*
X-3339268Y-9783612D01*
X-3330028Y-9780306D01*
X-3320509Y-9777921D01*
X-3310802Y-9776482D01*
X-3301000Y-9776000D01*
X-2001000Y-9776000D01*
X-1991198Y-9776482D01*
G37*
G36*
X-1991198Y-8976482D02*
G01*
X-1981491Y-8977921D01*
X-1971972Y-8980306D01*
X-1962732Y-8983612D01*
X-1953860Y-8987808D01*
X-1945443Y-8992853D01*
X-1937561Y-8998699D01*
X-1930289Y-9005289D01*
X-1923699Y-9012561D01*
X-1917853Y-9020443D01*
X-1912808Y-9028860D01*
X-1908612Y-9037732D01*
X-1905306Y-9046972D01*
X-1902921Y-9056491D01*
X-1901482Y-9066198D01*
X-1901000Y-9076000D01*
X-1901000Y-9276000D01*
X-1901482Y-9285802D01*
X-1902921Y-9295509D01*
X-1905306Y-9305028D01*
X-1908612Y-9314268D01*
X-1912808Y-9323140D01*
X-1917853Y-9331557D01*
X-1923699Y-9339439D01*
X-1930289Y-9346711D01*
X-1937561Y-9353301D01*
X-1945443Y-9359147D01*
X-1953860Y-9364192D01*
X-1962732Y-9368388D01*
X-1971972Y-9371694D01*
X-1981491Y-9374079D01*
X-1991198Y-9375518D01*
X-2001000Y-9376000D01*
X-3301000Y-9376000D01*
X-3310802Y-9375518D01*
X-3320509Y-9374079D01*
X-3330028Y-9371694D01*
X-3339268Y-9368388D01*
X-3348140Y-9364192D01*
X-3356557Y-9359147D01*
X-3364439Y-9353301D01*
X-3371711Y-9346711D01*
X-3378301Y-9339439D01*
X-3384147Y-9331557D01*
X-3389192Y-9323140D01*
X-3393388Y-9314268D01*
X-3396694Y-9305028D01*
X-3399079Y-9295509D01*
X-3400518Y-9285802D01*
X-3401000Y-9276000D01*
X-3401000Y-9076000D01*
X-3400518Y-9066198D01*
X-3399079Y-9056491D01*
X-3396694Y-9046972D01*
X-3393388Y-9037732D01*
X-3389192Y-9028860D01*
X-3384147Y-9020443D01*
X-3378301Y-9012561D01*
X-3371711Y-9005289D01*
X-3364439Y-8998699D01*
X-3356557Y-8992853D01*
X-3348140Y-8987808D01*
X-3339268Y-8983612D01*
X-3330028Y-8980306D01*
X-3320509Y-8977921D01*
X-3310802Y-8976482D01*
X-3301000Y-8976000D01*
X-2001000Y-8976000D01*
X-1991198Y-8976482D01*
G37*
G36*
X-1991198Y-8176482D02*
G01*
X-1981491Y-8177921D01*
X-1971972Y-8180306D01*
X-1962732Y-8183612D01*
X-1953860Y-8187808D01*
X-1945443Y-8192853D01*
X-1937561Y-8198699D01*
X-1930289Y-8205289D01*
X-1923699Y-8212561D01*
X-1917853Y-8220443D01*
X-1912808Y-8228860D01*
X-1908612Y-8237732D01*
X-1905306Y-8246972D01*
X-1902921Y-8256491D01*
X-1901482Y-8266198D01*
X-1901000Y-8276000D01*
X-1901000Y-8476000D01*
X-1901482Y-8485802D01*
X-1902921Y-8495509D01*
X-1905306Y-8505028D01*
X-1908612Y-8514268D01*
X-1912808Y-8523140D01*
X-1917853Y-8531557D01*
X-1923699Y-8539439D01*
X-1930289Y-8546711D01*
X-1937561Y-8553301D01*
X-1945443Y-8559147D01*
X-1953860Y-8564192D01*
X-1962732Y-8568388D01*
X-1971972Y-8571694D01*
X-1981491Y-8574079D01*
X-1991198Y-8575518D01*
X-2001000Y-8576000D01*
X-3301000Y-8576000D01*
X-3310802Y-8575518D01*
X-3320509Y-8574079D01*
X-3330028Y-8571694D01*
X-3339268Y-8568388D01*
X-3348140Y-8564192D01*
X-3356557Y-8559147D01*
X-3364439Y-8553301D01*
X-3371711Y-8546711D01*
X-3378301Y-8539439D01*
X-3384147Y-8531557D01*
X-3389192Y-8523140D01*
X-3393388Y-8514268D01*
X-3396694Y-8505028D01*
X-3399079Y-8495509D01*
X-3400518Y-8485802D01*
X-3401000Y-8476000D01*
X-3401000Y-8276000D01*
X-3400518Y-8266198D01*
X-3399079Y-8256491D01*
X-3396694Y-8246972D01*
X-3393388Y-8237732D01*
X-3389192Y-8228860D01*
X-3384147Y-8220443D01*
X-3378301Y-8212561D01*
X-3371711Y-8205289D01*
X-3364439Y-8198699D01*
X-3356557Y-8192853D01*
X-3348140Y-8187808D01*
X-3339268Y-8183612D01*
X-3330028Y-8180306D01*
X-3320509Y-8177921D01*
X-3310802Y-8176482D01*
X-3301000Y-8176000D01*
X-2001000Y-8176000D01*
X-1991198Y-8176482D01*
G37*
G36*
X-6519221Y-6026144D02*
G01*
X-6496166Y-6029563D01*
X-6473557Y-6035227D01*
X-6451613Y-6043079D01*
X-6430543Y-6053044D01*
X-6410552Y-6065026D01*
X-6391832Y-6078910D01*
X-6374562Y-6094562D01*
X-6358910Y-6111832D01*
X-6345026Y-6130552D01*
X-6333044Y-6150543D01*
X-6323079Y-6171613D01*
X-6315227Y-6193557D01*
X-6309563Y-6216166D01*
X-6306144Y-6239221D01*
X-6305000Y-6262500D01*
X-6305000Y-6737500D01*
X-6306144Y-6760779D01*
X-6309563Y-6783834D01*
X-6315227Y-6806443D01*
X-6323079Y-6828387D01*
X-6333044Y-6849457D01*
X-6345026Y-6869448D01*
X-6358910Y-6888168D01*
X-6374562Y-6905438D01*
X-6391832Y-6921090D01*
X-6410552Y-6934974D01*
X-6430543Y-6946956D01*
X-6451613Y-6956921D01*
X-6473557Y-6964773D01*
X-6496166Y-6970437D01*
X-6519221Y-6973856D01*
X-6542500Y-6975000D01*
X-7117500Y-6975000D01*
X-7140779Y-6973856D01*
X-7163834Y-6970437D01*
X-7186443Y-6964773D01*
X-7208387Y-6956921D01*
X-7229457Y-6946956D01*
X-7249448Y-6934974D01*
X-7268168Y-6921090D01*
X-7285438Y-6905438D01*
X-7301090Y-6888168D01*
X-7314974Y-6869448D01*
X-7326956Y-6849457D01*
X-7336921Y-6828387D01*
X-7344773Y-6806443D01*
X-7350437Y-6783834D01*
X-7353856Y-6760779D01*
X-7355000Y-6737500D01*
X-7355000Y-6262500D01*
X-7353856Y-6239221D01*
X-7350437Y-6216166D01*
X-7344773Y-6193557D01*
X-7336921Y-6171613D01*
X-7326956Y-6150543D01*
X-7314974Y-6130552D01*
X-7301090Y-6111832D01*
X-7285438Y-6094562D01*
X-7268168Y-6078910D01*
X-7249448Y-6065026D01*
X-7229457Y-6053044D01*
X-7208387Y-6043079D01*
X-7186443Y-6035227D01*
X-7163834Y-6029563D01*
X-7140779Y-6026144D01*
X-7117500Y-6025000D01*
X-6542500Y-6025000D01*
X-6519221Y-6026144D01*
G37*
G36*
X-4769221Y-6026144D02*
G01*
X-4746166Y-6029563D01*
X-4723557Y-6035227D01*
X-4701613Y-6043079D01*
X-4680543Y-6053044D01*
X-4660552Y-6065026D01*
X-4641832Y-6078910D01*
X-4624562Y-6094562D01*
X-4608910Y-6111832D01*
X-4595026Y-6130552D01*
X-4583044Y-6150543D01*
X-4573079Y-6171613D01*
X-4565227Y-6193557D01*
X-4559563Y-6216166D01*
X-4556144Y-6239221D01*
X-4555000Y-6262500D01*
X-4555000Y-6737500D01*
X-4556144Y-6760779D01*
X-4559563Y-6783834D01*
X-4565227Y-6806443D01*
X-4573079Y-6828387D01*
X-4583044Y-6849457D01*
X-4595026Y-6869448D01*
X-4608910Y-6888168D01*
X-4624562Y-6905438D01*
X-4641832Y-6921090D01*
X-4660552Y-6934974D01*
X-4680543Y-6946956D01*
X-4701613Y-6956921D01*
X-4723557Y-6964773D01*
X-4746166Y-6970437D01*
X-4769221Y-6973856D01*
X-4792500Y-6975000D01*
X-5367500Y-6975000D01*
X-5390779Y-6973856D01*
X-5413834Y-6970437D01*
X-5436443Y-6964773D01*
X-5458387Y-6956921D01*
X-5479457Y-6946956D01*
X-5499448Y-6934974D01*
X-5518168Y-6921090D01*
X-5535438Y-6905438D01*
X-5551090Y-6888168D01*
X-5564974Y-6869448D01*
X-5576956Y-6849457D01*
X-5586921Y-6828387D01*
X-5594773Y-6806443D01*
X-5600437Y-6783834D01*
X-5603856Y-6760779D01*
X-5605000Y-6737500D01*
X-5605000Y-6262500D01*
X-5603856Y-6239221D01*
X-5600437Y-6216166D01*
X-5594773Y-6193557D01*
X-5586921Y-6171613D01*
X-5576956Y-6150543D01*
X-5564974Y-6130552D01*
X-5551090Y-6111832D01*
X-5535438Y-6094562D01*
X-5518168Y-6078910D01*
X-5499448Y-6065026D01*
X-5479457Y-6053044D01*
X-5458387Y-6043079D01*
X-5436443Y-6035227D01*
X-5413834Y-6029563D01*
X-5390779Y-6026144D01*
X-5367500Y-6025000D01*
X-4792500Y-6025000D01*
X-4769221Y-6026144D01*
G37*
G36*
X-3114221Y-15226144D02*
G01*
X-3091166Y-15229563D01*
X-3068557Y-15235227D01*
X-3046613Y-15243079D01*
X-3025543Y-15253044D01*
X-3005552Y-15265026D01*
X-2986832Y-15278910D01*
X-2969562Y-15294562D01*
X-2953910Y-15311832D01*
X-2940026Y-15330552D01*
X-2928044Y-15350543D01*
X-2918079Y-15371613D01*
X-2910227Y-15393557D01*
X-2904563Y-15416166D01*
X-2901144Y-15439221D01*
X-2900000Y-15462500D01*
X-2900000Y-15937500D01*
X-2901144Y-15960779D01*
X-2904563Y-15983834D01*
X-2910227Y-16006443D01*
X-2918079Y-16028387D01*
X-2928044Y-16049457D01*
X-2940026Y-16069448D01*
X-2953910Y-16088168D01*
X-2969562Y-16105438D01*
X-2986832Y-16121090D01*
X-3005552Y-16134974D01*
X-3025543Y-16146956D01*
X-3046613Y-16156921D01*
X-3068557Y-16164773D01*
X-3091166Y-16170437D01*
X-3114221Y-16173856D01*
X-3137500Y-16175000D01*
X-3712500Y-16175000D01*
X-3735779Y-16173856D01*
X-3758834Y-16170437D01*
X-3781443Y-16164773D01*
X-3803387Y-16156921D01*
X-3824457Y-16146956D01*
X-3844448Y-16134974D01*
X-3863168Y-16121090D01*
X-3880438Y-16105438D01*
X-3896090Y-16088168D01*
X-3909974Y-16069448D01*
X-3921956Y-16049457D01*
X-3931921Y-16028387D01*
X-3939773Y-16006443D01*
X-3945437Y-15983834D01*
X-3948856Y-15960779D01*
X-3950000Y-15937500D01*
X-3950000Y-15462500D01*
X-3948856Y-15439221D01*
X-3945437Y-15416166D01*
X-3939773Y-15393557D01*
X-3931921Y-15371613D01*
X-3921956Y-15350543D01*
X-3909974Y-15330552D01*
X-3896090Y-15311832D01*
X-3880438Y-15294562D01*
X-3863168Y-15278910D01*
X-3844448Y-15265026D01*
X-3824457Y-15253044D01*
X-3803387Y-15243079D01*
X-3781443Y-15235227D01*
X-3758834Y-15229563D01*
X-3735779Y-15226144D01*
X-3712500Y-15225000D01*
X-3137500Y-15225000D01*
X-3114221Y-15226144D01*
G37*
G36*
X-4864221Y-15226144D02*
G01*
X-4841166Y-15229563D01*
X-4818557Y-15235227D01*
X-4796613Y-15243079D01*
X-4775543Y-15253044D01*
X-4755552Y-15265026D01*
X-4736832Y-15278910D01*
X-4719562Y-15294562D01*
X-4703910Y-15311832D01*
X-4690026Y-15330552D01*
X-4678044Y-15350543D01*
X-4668079Y-15371613D01*
X-4660227Y-15393557D01*
X-4654563Y-15416166D01*
X-4651144Y-15439221D01*
X-4650000Y-15462500D01*
X-4650000Y-15937500D01*
X-4651144Y-15960779D01*
X-4654563Y-15983834D01*
X-4660227Y-16006443D01*
X-4668079Y-16028387D01*
X-4678044Y-16049457D01*
X-4690026Y-16069448D01*
X-4703910Y-16088168D01*
X-4719562Y-16105438D01*
X-4736832Y-16121090D01*
X-4755552Y-16134974D01*
X-4775543Y-16146956D01*
X-4796613Y-16156921D01*
X-4818557Y-16164773D01*
X-4841166Y-16170437D01*
X-4864221Y-16173856D01*
X-4887500Y-16175000D01*
X-5462500Y-16175000D01*
X-5485779Y-16173856D01*
X-5508834Y-16170437D01*
X-5531443Y-16164773D01*
X-5553387Y-16156921D01*
X-5574457Y-16146956D01*
X-5594448Y-16134974D01*
X-5613168Y-16121090D01*
X-5630438Y-16105438D01*
X-5646090Y-16088168D01*
X-5659974Y-16069448D01*
X-5671956Y-16049457D01*
X-5681921Y-16028387D01*
X-5689773Y-16006443D01*
X-5695437Y-15983834D01*
X-5698856Y-15960779D01*
X-5700000Y-15937500D01*
X-5700000Y-15462500D01*
X-5698856Y-15439221D01*
X-5695437Y-15416166D01*
X-5689773Y-15393557D01*
X-5681921Y-15371613D01*
X-5671956Y-15350543D01*
X-5659974Y-15330552D01*
X-5646090Y-15311832D01*
X-5630438Y-15294562D01*
X-5613168Y-15278910D01*
X-5594448Y-15265026D01*
X-5574457Y-15253044D01*
X-5553387Y-15243079D01*
X-5531443Y-15235227D01*
X-5508834Y-15229563D01*
X-5485779Y-15226144D01*
X-5462500Y-15225000D01*
X-4887500Y-15225000D01*
X-4864221Y-15226144D01*
G37*
G36*
X-10589221Y-13326144D02*
G01*
X-10566166Y-13329563D01*
X-10543557Y-13335227D01*
X-10521613Y-13343079D01*
X-10500543Y-13353044D01*
X-10480552Y-13365026D01*
X-10461832Y-13378910D01*
X-10444562Y-13394562D01*
X-10428910Y-13411832D01*
X-10415026Y-13430552D01*
X-10403044Y-13450543D01*
X-10393079Y-13471613D01*
X-10385227Y-13493557D01*
X-10379563Y-13516166D01*
X-10376144Y-13539221D01*
X-10375000Y-13562500D01*
X-10375000Y-14037500D01*
X-10376144Y-14060779D01*
X-10379563Y-14083834D01*
X-10385227Y-14106443D01*
X-10393079Y-14128387D01*
X-10403044Y-14149457D01*
X-10415026Y-14169448D01*
X-10428910Y-14188168D01*
X-10444562Y-14205438D01*
X-10461832Y-14221090D01*
X-10480552Y-14234974D01*
X-10500543Y-14246956D01*
X-10521613Y-14256921D01*
X-10543557Y-14264773D01*
X-10566166Y-14270437D01*
X-10589221Y-14273856D01*
X-10612500Y-14275000D01*
X-11187500Y-14275000D01*
X-11210779Y-14273856D01*
X-11233834Y-14270437D01*
X-11256443Y-14264773D01*
X-11278387Y-14256921D01*
X-11299457Y-14246956D01*
X-11319448Y-14234974D01*
X-11338168Y-14221090D01*
X-11355438Y-14205438D01*
X-11371090Y-14188168D01*
X-11384974Y-14169448D01*
X-11396956Y-14149457D01*
X-11406921Y-14128387D01*
X-11414773Y-14106443D01*
X-11420437Y-14083834D01*
X-11423856Y-14060779D01*
X-11425000Y-14037500D01*
X-11425000Y-13562500D01*
X-11423856Y-13539221D01*
X-11420437Y-13516166D01*
X-11414773Y-13493557D01*
X-11406921Y-13471613D01*
X-11396956Y-13450543D01*
X-11384974Y-13430552D01*
X-11371090Y-13411832D01*
X-11355438Y-13394562D01*
X-11338168Y-13378910D01*
X-11319448Y-13365026D01*
X-11299457Y-13353044D01*
X-11278387Y-13343079D01*
X-11256443Y-13335227D01*
X-11233834Y-13329563D01*
X-11210779Y-13326144D01*
X-11187500Y-13325000D01*
X-10612500Y-13325000D01*
X-10589221Y-13326144D01*
G37*
G36*
X-12339221Y-13326144D02*
G01*
X-12316166Y-13329563D01*
X-12293557Y-13335227D01*
X-12271613Y-13343079D01*
X-12250543Y-13353044D01*
X-12230552Y-13365026D01*
X-12211832Y-13378910D01*
X-12194562Y-13394562D01*
X-12178910Y-13411832D01*
X-12165026Y-13430552D01*
X-12153044Y-13450543D01*
X-12143079Y-13471613D01*
X-12135227Y-13493557D01*
X-12129563Y-13516166D01*
X-12126144Y-13539221D01*
X-12125000Y-13562500D01*
X-12125000Y-14037500D01*
X-12126144Y-14060779D01*
X-12129563Y-14083834D01*
X-12135227Y-14106443D01*
X-12143079Y-14128387D01*
X-12153044Y-14149457D01*
X-12165026Y-14169448D01*
X-12178910Y-14188168D01*
X-12194562Y-14205438D01*
X-12211832Y-14221090D01*
X-12230552Y-14234974D01*
X-12250543Y-14246956D01*
X-12271613Y-14256921D01*
X-12293557Y-14264773D01*
X-12316166Y-14270437D01*
X-12339221Y-14273856D01*
X-12362500Y-14275000D01*
X-12937500Y-14275000D01*
X-12960779Y-14273856D01*
X-12983834Y-14270437D01*
X-13006443Y-14264773D01*
X-13028387Y-14256921D01*
X-13049457Y-14246956D01*
X-13069448Y-14234974D01*
X-13088168Y-14221090D01*
X-13105438Y-14205438D01*
X-13121090Y-14188168D01*
X-13134974Y-14169448D01*
X-13146956Y-14149457D01*
X-13156921Y-14128387D01*
X-13164773Y-14106443D01*
X-13170437Y-14083834D01*
X-13173856Y-14060779D01*
X-13175000Y-14037500D01*
X-13175000Y-13562500D01*
X-13173856Y-13539221D01*
X-13170437Y-13516166D01*
X-13164773Y-13493557D01*
X-13156921Y-13471613D01*
X-13146956Y-13450543D01*
X-13134974Y-13430552D01*
X-13121090Y-13411832D01*
X-13105438Y-13394562D01*
X-13088168Y-13378910D01*
X-13069448Y-13365026D01*
X-13049457Y-13353044D01*
X-13028387Y-13343079D01*
X-13006443Y-13335227D01*
X-12983834Y-13329563D01*
X-12960779Y-13326144D01*
X-12937500Y-13325000D01*
X-12362500Y-13325000D01*
X-12339221Y-13326144D01*
G37*
G36*
X-8589221Y-15226144D02*
G01*
X-8566166Y-15229563D01*
X-8543557Y-15235227D01*
X-8521613Y-15243079D01*
X-8500543Y-15253044D01*
X-8480552Y-15265026D01*
X-8461832Y-15278910D01*
X-8444562Y-15294562D01*
X-8428910Y-15311832D01*
X-8415026Y-15330552D01*
X-8403044Y-15350543D01*
X-8393079Y-15371613D01*
X-8385227Y-15393557D01*
X-8379563Y-15416166D01*
X-8376144Y-15439221D01*
X-8375000Y-15462500D01*
X-8375000Y-15937500D01*
X-8376144Y-15960779D01*
X-8379563Y-15983834D01*
X-8385227Y-16006443D01*
X-8393079Y-16028387D01*
X-8403044Y-16049457D01*
X-8415026Y-16069448D01*
X-8428910Y-16088168D01*
X-8444562Y-16105438D01*
X-8461832Y-16121090D01*
X-8480552Y-16134974D01*
X-8500543Y-16146956D01*
X-8521613Y-16156921D01*
X-8543557Y-16164773D01*
X-8566166Y-16170437D01*
X-8589221Y-16173856D01*
X-8612500Y-16175000D01*
X-9187500Y-16175000D01*
X-9210779Y-16173856D01*
X-9233834Y-16170437D01*
X-9256443Y-16164773D01*
X-9278387Y-16156921D01*
X-9299457Y-16146956D01*
X-9319448Y-16134974D01*
X-9338168Y-16121090D01*
X-9355438Y-16105438D01*
X-9371090Y-16088168D01*
X-9384974Y-16069448D01*
X-9396956Y-16049457D01*
X-9406921Y-16028387D01*
X-9414773Y-16006443D01*
X-9420437Y-15983834D01*
X-9423856Y-15960779D01*
X-9425000Y-15937500D01*
X-9425000Y-15462500D01*
X-9423856Y-15439221D01*
X-9420437Y-15416166D01*
X-9414773Y-15393557D01*
X-9406921Y-15371613D01*
X-9396956Y-15350543D01*
X-9384974Y-15330552D01*
X-9371090Y-15311832D01*
X-9355438Y-15294562D01*
X-9338168Y-15278910D01*
X-9319448Y-15265026D01*
X-9299457Y-15253044D01*
X-9278387Y-15243079D01*
X-9256443Y-15235227D01*
X-9233834Y-15229563D01*
X-9210779Y-15226144D01*
X-9187500Y-15225000D01*
X-8612500Y-15225000D01*
X-8589221Y-15226144D01*
G37*
G36*
X-6839221Y-15226144D02*
G01*
X-6816166Y-15229563D01*
X-6793557Y-15235227D01*
X-6771613Y-15243079D01*
X-6750543Y-15253044D01*
X-6730552Y-15265026D01*
X-6711832Y-15278910D01*
X-6694562Y-15294562D01*
X-6678910Y-15311832D01*
X-6665026Y-15330552D01*
X-6653044Y-15350543D01*
X-6643079Y-15371613D01*
X-6635227Y-15393557D01*
X-6629563Y-15416166D01*
X-6626144Y-15439221D01*
X-6625000Y-15462500D01*
X-6625000Y-15937500D01*
X-6626144Y-15960779D01*
X-6629563Y-15983834D01*
X-6635227Y-16006443D01*
X-6643079Y-16028387D01*
X-6653044Y-16049457D01*
X-6665026Y-16069448D01*
X-6678910Y-16088168D01*
X-6694562Y-16105438D01*
X-6711832Y-16121090D01*
X-6730552Y-16134974D01*
X-6750543Y-16146956D01*
X-6771613Y-16156921D01*
X-6793557Y-16164773D01*
X-6816166Y-16170437D01*
X-6839221Y-16173856D01*
X-6862500Y-16175000D01*
X-7437500Y-16175000D01*
X-7460779Y-16173856D01*
X-7483834Y-16170437D01*
X-7506443Y-16164773D01*
X-7528387Y-16156921D01*
X-7549457Y-16146956D01*
X-7569448Y-16134974D01*
X-7588168Y-16121090D01*
X-7605438Y-16105438D01*
X-7621090Y-16088168D01*
X-7634974Y-16069448D01*
X-7646956Y-16049457D01*
X-7656921Y-16028387D01*
X-7664773Y-16006443D01*
X-7670437Y-15983834D01*
X-7673856Y-15960779D01*
X-7675000Y-15937500D01*
X-7675000Y-15462500D01*
X-7673856Y-15439221D01*
X-7670437Y-15416166D01*
X-7664773Y-15393557D01*
X-7656921Y-15371613D01*
X-7646956Y-15350543D01*
X-7634974Y-15330552D01*
X-7621090Y-15311832D01*
X-7605438Y-15294562D01*
X-7588168Y-15278910D01*
X-7569448Y-15265026D01*
X-7549457Y-15253044D01*
X-7528387Y-15243079D01*
X-7506443Y-15235227D01*
X-7483834Y-15229563D01*
X-7460779Y-15226144D01*
X-7437500Y-15225000D01*
X-6862500Y-15225000D01*
X-6839221Y-15226144D01*
G37*
G36*
X-6839221Y-13326144D02*
G01*
X-6816166Y-13329563D01*
X-6793557Y-13335227D01*
X-6771613Y-13343079D01*
X-6750543Y-13353044D01*
X-6730552Y-13365026D01*
X-6711832Y-13378910D01*
X-6694562Y-13394562D01*
X-6678910Y-13411832D01*
X-6665026Y-13430552D01*
X-6653044Y-13450543D01*
X-6643079Y-13471613D01*
X-6635227Y-13493557D01*
X-6629563Y-13516166D01*
X-6626144Y-13539221D01*
X-6625000Y-13562500D01*
X-6625000Y-14037500D01*
X-6626144Y-14060779D01*
X-6629563Y-14083834D01*
X-6635227Y-14106443D01*
X-6643079Y-14128387D01*
X-6653044Y-14149457D01*
X-6665026Y-14169448D01*
X-6678910Y-14188168D01*
X-6694562Y-14205438D01*
X-6711832Y-14221090D01*
X-6730552Y-14234974D01*
X-6750543Y-14246956D01*
X-6771613Y-14256921D01*
X-6793557Y-14264773D01*
X-6816166Y-14270437D01*
X-6839221Y-14273856D01*
X-6862500Y-14275000D01*
X-7437500Y-14275000D01*
X-7460779Y-14273856D01*
X-7483834Y-14270437D01*
X-7506443Y-14264773D01*
X-7528387Y-14256921D01*
X-7549457Y-14246956D01*
X-7569448Y-14234974D01*
X-7588168Y-14221090D01*
X-7605438Y-14205438D01*
X-7621090Y-14188168D01*
X-7634974Y-14169448D01*
X-7646956Y-14149457D01*
X-7656921Y-14128387D01*
X-7664773Y-14106443D01*
X-7670437Y-14083834D01*
X-7673856Y-14060779D01*
X-7675000Y-14037500D01*
X-7675000Y-13562500D01*
X-7673856Y-13539221D01*
X-7670437Y-13516166D01*
X-7664773Y-13493557D01*
X-7656921Y-13471613D01*
X-7646956Y-13450543D01*
X-7634974Y-13430552D01*
X-7621090Y-13411832D01*
X-7605438Y-13394562D01*
X-7588168Y-13378910D01*
X-7569448Y-13365026D01*
X-7549457Y-13353044D01*
X-7528387Y-13343079D01*
X-7506443Y-13335227D01*
X-7483834Y-13329563D01*
X-7460779Y-13326144D01*
X-7437500Y-13325000D01*
X-6862500Y-13325000D01*
X-6839221Y-13326144D01*
G37*
G36*
X-8589221Y-13326144D02*
G01*
X-8566166Y-13329563D01*
X-8543557Y-13335227D01*
X-8521613Y-13343079D01*
X-8500543Y-13353044D01*
X-8480552Y-13365026D01*
X-8461832Y-13378910D01*
X-8444562Y-13394562D01*
X-8428910Y-13411832D01*
X-8415026Y-13430552D01*
X-8403044Y-13450543D01*
X-8393079Y-13471613D01*
X-8385227Y-13493557D01*
X-8379563Y-13516166D01*
X-8376144Y-13539221D01*
X-8375000Y-13562500D01*
X-8375000Y-14037500D01*
X-8376144Y-14060779D01*
X-8379563Y-14083834D01*
X-8385227Y-14106443D01*
X-8393079Y-14128387D01*
X-8403044Y-14149457D01*
X-8415026Y-14169448D01*
X-8428910Y-14188168D01*
X-8444562Y-14205438D01*
X-8461832Y-14221090D01*
X-8480552Y-14234974D01*
X-8500543Y-14246956D01*
X-8521613Y-14256921D01*
X-8543557Y-14264773D01*
X-8566166Y-14270437D01*
X-8589221Y-14273856D01*
X-8612500Y-14275000D01*
X-9187500Y-14275000D01*
X-9210779Y-14273856D01*
X-9233834Y-14270437D01*
X-9256443Y-14264773D01*
X-9278387Y-14256921D01*
X-9299457Y-14246956D01*
X-9319448Y-14234974D01*
X-9338168Y-14221090D01*
X-9355438Y-14205438D01*
X-9371090Y-14188168D01*
X-9384974Y-14169448D01*
X-9396956Y-14149457D01*
X-9406921Y-14128387D01*
X-9414773Y-14106443D01*
X-9420437Y-14083834D01*
X-9423856Y-14060779D01*
X-9425000Y-14037500D01*
X-9425000Y-13562500D01*
X-9423856Y-13539221D01*
X-9420437Y-13516166D01*
X-9414773Y-13493557D01*
X-9406921Y-13471613D01*
X-9396956Y-13450543D01*
X-9384974Y-13430552D01*
X-9371090Y-13411832D01*
X-9355438Y-13394562D01*
X-9338168Y-13378910D01*
X-9319448Y-13365026D01*
X-9299457Y-13353044D01*
X-9278387Y-13343079D01*
X-9256443Y-13335227D01*
X-9233834Y-13329563D01*
X-9210779Y-13326144D01*
X-9187500Y-13325000D01*
X-8612500Y-13325000D01*
X-8589221Y-13326144D01*
G37*
G36*
X-12339221Y-15226144D02*
G01*
X-12316166Y-15229563D01*
X-12293557Y-15235227D01*
X-12271613Y-15243079D01*
X-12250543Y-15253044D01*
X-12230552Y-15265026D01*
X-12211832Y-15278910D01*
X-12194562Y-15294562D01*
X-12178910Y-15311832D01*
X-12165026Y-15330552D01*
X-12153044Y-15350543D01*
X-12143079Y-15371613D01*
X-12135227Y-15393557D01*
X-12129563Y-15416166D01*
X-12126144Y-15439221D01*
X-12125000Y-15462500D01*
X-12125000Y-15937500D01*
X-12126144Y-15960779D01*
X-12129563Y-15983834D01*
X-12135227Y-16006443D01*
X-12143079Y-16028387D01*
X-12153044Y-16049457D01*
X-12165026Y-16069448D01*
X-12178910Y-16088168D01*
X-12194562Y-16105438D01*
X-12211832Y-16121090D01*
X-12230552Y-16134974D01*
X-12250543Y-16146956D01*
X-12271613Y-16156921D01*
X-12293557Y-16164773D01*
X-12316166Y-16170437D01*
X-12339221Y-16173856D01*
X-12362500Y-16175000D01*
X-12937500Y-16175000D01*
X-12960779Y-16173856D01*
X-12983834Y-16170437D01*
X-13006443Y-16164773D01*
X-13028387Y-16156921D01*
X-13049457Y-16146956D01*
X-13069448Y-16134974D01*
X-13088168Y-16121090D01*
X-13105438Y-16105438D01*
X-13121090Y-16088168D01*
X-13134974Y-16069448D01*
X-13146956Y-16049457D01*
X-13156921Y-16028387D01*
X-13164773Y-16006443D01*
X-13170437Y-15983834D01*
X-13173856Y-15960779D01*
X-13175000Y-15937500D01*
X-13175000Y-15462500D01*
X-13173856Y-15439221D01*
X-13170437Y-15416166D01*
X-13164773Y-15393557D01*
X-13156921Y-15371613D01*
X-13146956Y-15350543D01*
X-13134974Y-15330552D01*
X-13121090Y-15311832D01*
X-13105438Y-15294562D01*
X-13088168Y-15278910D01*
X-13069448Y-15265026D01*
X-13049457Y-15253044D01*
X-13028387Y-15243079D01*
X-13006443Y-15235227D01*
X-12983834Y-15229563D01*
X-12960779Y-15226144D01*
X-12937500Y-15225000D01*
X-12362500Y-15225000D01*
X-12339221Y-15226144D01*
G37*
G36*
X-10589221Y-15226144D02*
G01*
X-10566166Y-15229563D01*
X-10543557Y-15235227D01*
X-10521613Y-15243079D01*
X-10500543Y-15253044D01*
X-10480552Y-15265026D01*
X-10461832Y-15278910D01*
X-10444562Y-15294562D01*
X-10428910Y-15311832D01*
X-10415026Y-15330552D01*
X-10403044Y-15350543D01*
X-10393079Y-15371613D01*
X-10385227Y-15393557D01*
X-10379563Y-15416166D01*
X-10376144Y-15439221D01*
X-10375000Y-15462500D01*
X-10375000Y-15937500D01*
X-10376144Y-15960779D01*
X-10379563Y-15983834D01*
X-10385227Y-16006443D01*
X-10393079Y-16028387D01*
X-10403044Y-16049457D01*
X-10415026Y-16069448D01*
X-10428910Y-16088168D01*
X-10444562Y-16105438D01*
X-10461832Y-16121090D01*
X-10480552Y-16134974D01*
X-10500543Y-16146956D01*
X-10521613Y-16156921D01*
X-10543557Y-16164773D01*
X-10566166Y-16170437D01*
X-10589221Y-16173856D01*
X-10612500Y-16175000D01*
X-11187500Y-16175000D01*
X-11210779Y-16173856D01*
X-11233834Y-16170437D01*
X-11256443Y-16164773D01*
X-11278387Y-16156921D01*
X-11299457Y-16146956D01*
X-11319448Y-16134974D01*
X-11338168Y-16121090D01*
X-11355438Y-16105438D01*
X-11371090Y-16088168D01*
X-11384974Y-16069448D01*
X-11396956Y-16049457D01*
X-11406921Y-16028387D01*
X-11414773Y-16006443D01*
X-11420437Y-15983834D01*
X-11423856Y-15960779D01*
X-11425000Y-15937500D01*
X-11425000Y-15462500D01*
X-11423856Y-15439221D01*
X-11420437Y-15416166D01*
X-11414773Y-15393557D01*
X-11406921Y-15371613D01*
X-11396956Y-15350543D01*
X-11384974Y-15330552D01*
X-11371090Y-15311832D01*
X-11355438Y-15294562D01*
X-11338168Y-15278910D01*
X-11319448Y-15265026D01*
X-11299457Y-15253044D01*
X-11278387Y-15243079D01*
X-11256443Y-15235227D01*
X-11233834Y-15229563D01*
X-11210779Y-15226144D01*
X-11187500Y-15225000D01*
X-10612500Y-15225000D01*
X-10589221Y-15226144D01*
G37*
D11*
X-4804000Y-29722000D03*
X-3604000Y-29722000D03*
X-2404000Y-29722000D03*
X-1204000Y-29722000D03*
X-4000Y-29722000D03*
X1196000Y-29722000D03*
X2396000Y-29722000D03*
X3596000Y-29722000D03*
D12*
X6096000Y-29972000D03*
D13*
X5846000Y-27222000D03*
X5846000Y-26022000D03*
X5846000Y-24822000D03*
X5846000Y-23622000D03*
X5846000Y-22422000D03*
X5846000Y-21222000D03*
D12*
X6096000Y-18472000D03*
D11*
X3596000Y-18722000D03*
X2396000Y-18722000D03*
X1196000Y-18722000D03*
X-4000Y-18722000D03*
X-1204000Y-18722000D03*
X-2404000Y-18722000D03*
X-3604000Y-18722000D03*
X-4804000Y-18722000D03*
M02*
