G04 #@! TF.GenerationSoftware,KiCad,Pcbnew,(5.1.5-0-10_14)*
G04 #@! TF.CreationDate,2021-01-17T15:25:25+09:00*
G04 #@! TF.ProjectId,EnvMon,456e764d-6f6e-42e6-9b69-6361645f7063,2.1*
G04 #@! TF.SameCoordinates,Original*
G04 #@! TF.FileFunction,Paste,Top*
G04 #@! TF.FilePolarity,Positive*
%FSLAX46Y46*%
G04 Gerber Fmt 4.6, Leading zero omitted, Abs format (unit mm)*
G04 Created by KiCad (PCBNEW (5.1.5-0-10_14)) date 2021-01-17 15:25:25*
%MOMM*%
%LPD*%
G04 APERTURE LIST*
%ADD10R,1.200000X1.350000*%
%ADD11C,0.100000*%
%ADD12R,0.800000X1.500000*%
%ADD13C,1.000000*%
%ADD14R,1.500000X0.800000*%
G04 APERTURE END LIST*
D10*
X-4750000Y-7900000D03*
X-4750000Y-10500000D03*
X-6850000Y-10500000D03*
X-6850000Y-7900000D03*
D11*
G36*
X-4444317Y-11880770D02*
G01*
X-4428786Y-11883074D01*
X-4413554Y-11886890D01*
X-4398771Y-11892179D01*
X-4384577Y-11898893D01*
X-4371109Y-11906965D01*
X-4358497Y-11916318D01*
X-4346863Y-11926863D01*
X-4336318Y-11938497D01*
X-4326965Y-11951109D01*
X-4318893Y-11964577D01*
X-4312179Y-11978771D01*
X-4306890Y-11993554D01*
X-4303074Y-12008786D01*
X-4300770Y-12024317D01*
X-4300000Y-12040000D01*
X-4300000Y-12360000D01*
X-4300770Y-12375683D01*
X-4303074Y-12391214D01*
X-4306890Y-12406446D01*
X-4312179Y-12421229D01*
X-4318893Y-12435423D01*
X-4326965Y-12448891D01*
X-4336318Y-12461503D01*
X-4346863Y-12473137D01*
X-4358497Y-12483682D01*
X-4371109Y-12493035D01*
X-4384577Y-12501107D01*
X-4398771Y-12507821D01*
X-4413554Y-12513110D01*
X-4428786Y-12516926D01*
X-4444317Y-12519230D01*
X-4460000Y-12520000D01*
X-5140000Y-12520000D01*
X-5155683Y-12519230D01*
X-5171214Y-12516926D01*
X-5186446Y-12513110D01*
X-5201229Y-12507821D01*
X-5215423Y-12501107D01*
X-5228891Y-12493035D01*
X-5241503Y-12483682D01*
X-5253137Y-12473137D01*
X-5263682Y-12461503D01*
X-5273035Y-12448891D01*
X-5281107Y-12435423D01*
X-5287821Y-12421229D01*
X-5293110Y-12406446D01*
X-5296926Y-12391214D01*
X-5299230Y-12375683D01*
X-5300000Y-12360000D01*
X-5300000Y-12040000D01*
X-5299230Y-12024317D01*
X-5296926Y-12008786D01*
X-5293110Y-11993554D01*
X-5287821Y-11978771D01*
X-5281107Y-11964577D01*
X-5273035Y-11951109D01*
X-5263682Y-11938497D01*
X-5253137Y-11926863D01*
X-5241503Y-11916318D01*
X-5228891Y-11906965D01*
X-5215423Y-11898893D01*
X-5201229Y-11892179D01*
X-5186446Y-11886890D01*
X-5171214Y-11883074D01*
X-5155683Y-11880770D01*
X-5140000Y-11880000D01*
X-4460000Y-11880000D01*
X-4444317Y-11880770D01*
G37*
G36*
X-5814317Y-11880770D02*
G01*
X-5798786Y-11883074D01*
X-5783554Y-11886890D01*
X-5768771Y-11892179D01*
X-5754577Y-11898893D01*
X-5741109Y-11906965D01*
X-5728497Y-11916318D01*
X-5716863Y-11926863D01*
X-5706318Y-11938497D01*
X-5696965Y-11951109D01*
X-5688893Y-11964577D01*
X-5682179Y-11978771D01*
X-5676890Y-11993554D01*
X-5673074Y-12008786D01*
X-5670770Y-12024317D01*
X-5670000Y-12040000D01*
X-5670000Y-12360000D01*
X-5670770Y-12375683D01*
X-5673074Y-12391214D01*
X-5676890Y-12406446D01*
X-5682179Y-12421229D01*
X-5688893Y-12435423D01*
X-5696965Y-12448891D01*
X-5706318Y-12461503D01*
X-5716863Y-12473137D01*
X-5728497Y-12483682D01*
X-5741109Y-12493035D01*
X-5754577Y-12501107D01*
X-5768771Y-12507821D01*
X-5783554Y-12513110D01*
X-5798786Y-12516926D01*
X-5814317Y-12519230D01*
X-5830000Y-12520000D01*
X-6510000Y-12520000D01*
X-6525683Y-12519230D01*
X-6541214Y-12516926D01*
X-6556446Y-12513110D01*
X-6571229Y-12507821D01*
X-6585423Y-12501107D01*
X-6598891Y-12493035D01*
X-6611503Y-12483682D01*
X-6623137Y-12473137D01*
X-6633682Y-12461503D01*
X-6643035Y-12448891D01*
X-6651107Y-12435423D01*
X-6657821Y-12421229D01*
X-6663110Y-12406446D01*
X-6666926Y-12391214D01*
X-6669230Y-12375683D01*
X-6670000Y-12360000D01*
X-6670000Y-12040000D01*
X-6669230Y-12024317D01*
X-6666926Y-12008786D01*
X-6663110Y-11993554D01*
X-6657821Y-11978771D01*
X-6651107Y-11964577D01*
X-6643035Y-11951109D01*
X-6633682Y-11938497D01*
X-6623137Y-11926863D01*
X-6611503Y-11916318D01*
X-6598891Y-11906965D01*
X-6585423Y-11898893D01*
X-6571229Y-11892179D01*
X-6556446Y-11886890D01*
X-6541214Y-11883074D01*
X-6525683Y-11880770D01*
X-6510000Y-11880000D01*
X-5830000Y-11880000D01*
X-5814317Y-11880770D01*
G37*
G36*
X-8144317Y-7580770D02*
G01*
X-8128786Y-7583074D01*
X-8113554Y-7586890D01*
X-8098771Y-7592179D01*
X-8084577Y-7598893D01*
X-8071109Y-7606965D01*
X-8058497Y-7616318D01*
X-8046863Y-7626863D01*
X-8036318Y-7638497D01*
X-8026965Y-7651109D01*
X-8018893Y-7664577D01*
X-8012179Y-7678771D01*
X-8006890Y-7693554D01*
X-8003074Y-7708786D01*
X-8000770Y-7724317D01*
X-8000000Y-7740000D01*
X-8000000Y-8060000D01*
X-8000770Y-8075683D01*
X-8003074Y-8091214D01*
X-8006890Y-8106446D01*
X-8012179Y-8121229D01*
X-8018893Y-8135423D01*
X-8026965Y-8148891D01*
X-8036318Y-8161503D01*
X-8046863Y-8173137D01*
X-8058497Y-8183682D01*
X-8071109Y-8193035D01*
X-8084577Y-8201107D01*
X-8098771Y-8207821D01*
X-8113554Y-8213110D01*
X-8128786Y-8216926D01*
X-8144317Y-8219230D01*
X-8160000Y-8220000D01*
X-8840000Y-8220000D01*
X-8855683Y-8219230D01*
X-8871214Y-8216926D01*
X-8886446Y-8213110D01*
X-8901229Y-8207821D01*
X-8915423Y-8201107D01*
X-8928891Y-8193035D01*
X-8941503Y-8183682D01*
X-8953137Y-8173137D01*
X-8963682Y-8161503D01*
X-8973035Y-8148891D01*
X-8981107Y-8135423D01*
X-8987821Y-8121229D01*
X-8993110Y-8106446D01*
X-8996926Y-8091214D01*
X-8999230Y-8075683D01*
X-9000000Y-8060000D01*
X-9000000Y-7740000D01*
X-8999230Y-7724317D01*
X-8996926Y-7708786D01*
X-8993110Y-7693554D01*
X-8987821Y-7678771D01*
X-8981107Y-7664577D01*
X-8973035Y-7651109D01*
X-8963682Y-7638497D01*
X-8953137Y-7626863D01*
X-8941503Y-7616318D01*
X-8928891Y-7606965D01*
X-8915423Y-7598893D01*
X-8901229Y-7592179D01*
X-8886446Y-7586890D01*
X-8871214Y-7583074D01*
X-8855683Y-7580770D01*
X-8840000Y-7580000D01*
X-8160000Y-7580000D01*
X-8144317Y-7580770D01*
G37*
G36*
X-9514317Y-7580770D02*
G01*
X-9498786Y-7583074D01*
X-9483554Y-7586890D01*
X-9468771Y-7592179D01*
X-9454577Y-7598893D01*
X-9441109Y-7606965D01*
X-9428497Y-7616318D01*
X-9416863Y-7626863D01*
X-9406318Y-7638497D01*
X-9396965Y-7651109D01*
X-9388893Y-7664577D01*
X-9382179Y-7678771D01*
X-9376890Y-7693554D01*
X-9373074Y-7708786D01*
X-9370770Y-7724317D01*
X-9370000Y-7740000D01*
X-9370000Y-8060000D01*
X-9370770Y-8075683D01*
X-9373074Y-8091214D01*
X-9376890Y-8106446D01*
X-9382179Y-8121229D01*
X-9388893Y-8135423D01*
X-9396965Y-8148891D01*
X-9406318Y-8161503D01*
X-9416863Y-8173137D01*
X-9428497Y-8183682D01*
X-9441109Y-8193035D01*
X-9454577Y-8201107D01*
X-9468771Y-8207821D01*
X-9483554Y-8213110D01*
X-9498786Y-8216926D01*
X-9514317Y-8219230D01*
X-9530000Y-8220000D01*
X-10210000Y-8220000D01*
X-10225683Y-8219230D01*
X-10241214Y-8216926D01*
X-10256446Y-8213110D01*
X-10271229Y-8207821D01*
X-10285423Y-8201107D01*
X-10298891Y-8193035D01*
X-10311503Y-8183682D01*
X-10323137Y-8173137D01*
X-10333682Y-8161503D01*
X-10343035Y-8148891D01*
X-10351107Y-8135423D01*
X-10357821Y-8121229D01*
X-10363110Y-8106446D01*
X-10366926Y-8091214D01*
X-10369230Y-8075683D01*
X-10370000Y-8060000D01*
X-10370000Y-7740000D01*
X-10369230Y-7724317D01*
X-10366926Y-7708786D01*
X-10363110Y-7693554D01*
X-10357821Y-7678771D01*
X-10351107Y-7664577D01*
X-10343035Y-7651109D01*
X-10333682Y-7638497D01*
X-10323137Y-7626863D01*
X-10311503Y-7616318D01*
X-10298891Y-7606965D01*
X-10285423Y-7598893D01*
X-10271229Y-7592179D01*
X-10256446Y-7586890D01*
X-10241214Y-7583074D01*
X-10225683Y-7580770D01*
X-10210000Y-7580000D01*
X-9530000Y-7580000D01*
X-9514317Y-7580770D01*
G37*
G36*
X7960779Y-14926144D02*
G01*
X7983834Y-14929563D01*
X8006443Y-14935227D01*
X8028387Y-14943079D01*
X8049457Y-14953044D01*
X8069448Y-14965026D01*
X8088168Y-14978910D01*
X8105438Y-14994562D01*
X8121090Y-15011832D01*
X8134974Y-15030552D01*
X8146956Y-15050543D01*
X8156921Y-15071613D01*
X8164773Y-15093557D01*
X8170437Y-15116166D01*
X8173856Y-15139221D01*
X8175000Y-15162500D01*
X8175000Y-15637500D01*
X8173856Y-15660779D01*
X8170437Y-15683834D01*
X8164773Y-15706443D01*
X8156921Y-15728387D01*
X8146956Y-15749457D01*
X8134974Y-15769448D01*
X8121090Y-15788168D01*
X8105438Y-15805438D01*
X8088168Y-15821090D01*
X8069448Y-15834974D01*
X8049457Y-15846956D01*
X8028387Y-15856921D01*
X8006443Y-15864773D01*
X7983834Y-15870437D01*
X7960779Y-15873856D01*
X7937500Y-15875000D01*
X7362500Y-15875000D01*
X7339221Y-15873856D01*
X7316166Y-15870437D01*
X7293557Y-15864773D01*
X7271613Y-15856921D01*
X7250543Y-15846956D01*
X7230552Y-15834974D01*
X7211832Y-15821090D01*
X7194562Y-15805438D01*
X7178910Y-15788168D01*
X7165026Y-15769448D01*
X7153044Y-15749457D01*
X7143079Y-15728387D01*
X7135227Y-15706443D01*
X7129563Y-15683834D01*
X7126144Y-15660779D01*
X7125000Y-15637500D01*
X7125000Y-15162500D01*
X7126144Y-15139221D01*
X7129563Y-15116166D01*
X7135227Y-15093557D01*
X7143079Y-15071613D01*
X7153044Y-15050543D01*
X7165026Y-15030552D01*
X7178910Y-15011832D01*
X7194562Y-14994562D01*
X7211832Y-14978910D01*
X7230552Y-14965026D01*
X7250543Y-14953044D01*
X7271613Y-14943079D01*
X7293557Y-14935227D01*
X7316166Y-14929563D01*
X7339221Y-14926144D01*
X7362500Y-14925000D01*
X7937500Y-14925000D01*
X7960779Y-14926144D01*
G37*
G36*
X6210779Y-14926144D02*
G01*
X6233834Y-14929563D01*
X6256443Y-14935227D01*
X6278387Y-14943079D01*
X6299457Y-14953044D01*
X6319448Y-14965026D01*
X6338168Y-14978910D01*
X6355438Y-14994562D01*
X6371090Y-15011832D01*
X6384974Y-15030552D01*
X6396956Y-15050543D01*
X6406921Y-15071613D01*
X6414773Y-15093557D01*
X6420437Y-15116166D01*
X6423856Y-15139221D01*
X6425000Y-15162500D01*
X6425000Y-15637500D01*
X6423856Y-15660779D01*
X6420437Y-15683834D01*
X6414773Y-15706443D01*
X6406921Y-15728387D01*
X6396956Y-15749457D01*
X6384974Y-15769448D01*
X6371090Y-15788168D01*
X6355438Y-15805438D01*
X6338168Y-15821090D01*
X6319448Y-15834974D01*
X6299457Y-15846956D01*
X6278387Y-15856921D01*
X6256443Y-15864773D01*
X6233834Y-15870437D01*
X6210779Y-15873856D01*
X6187500Y-15875000D01*
X5612500Y-15875000D01*
X5589221Y-15873856D01*
X5566166Y-15870437D01*
X5543557Y-15864773D01*
X5521613Y-15856921D01*
X5500543Y-15846956D01*
X5480552Y-15834974D01*
X5461832Y-15821090D01*
X5444562Y-15805438D01*
X5428910Y-15788168D01*
X5415026Y-15769448D01*
X5403044Y-15749457D01*
X5393079Y-15728387D01*
X5385227Y-15706443D01*
X5379563Y-15683834D01*
X5376144Y-15660779D01*
X5375000Y-15637500D01*
X5375000Y-15162500D01*
X5376144Y-15139221D01*
X5379563Y-15116166D01*
X5385227Y-15093557D01*
X5393079Y-15071613D01*
X5403044Y-15050543D01*
X5415026Y-15030552D01*
X5428910Y-15011832D01*
X5444562Y-14994562D01*
X5461832Y-14978910D01*
X5480552Y-14965026D01*
X5500543Y-14953044D01*
X5521613Y-14943079D01*
X5543557Y-14935227D01*
X5566166Y-14929563D01*
X5589221Y-14926144D01*
X5612500Y-14925000D01*
X6187500Y-14925000D01*
X6210779Y-14926144D01*
G37*
G36*
X-7839221Y-5526144D02*
G01*
X-7816166Y-5529563D01*
X-7793557Y-5535227D01*
X-7771613Y-5543079D01*
X-7750543Y-5553044D01*
X-7730552Y-5565026D01*
X-7711832Y-5578910D01*
X-7694562Y-5594562D01*
X-7678910Y-5611832D01*
X-7665026Y-5630552D01*
X-7653044Y-5650543D01*
X-7643079Y-5671613D01*
X-7635227Y-5693557D01*
X-7629563Y-5716166D01*
X-7626144Y-5739221D01*
X-7625000Y-5762500D01*
X-7625000Y-6237500D01*
X-7626144Y-6260779D01*
X-7629563Y-6283834D01*
X-7635227Y-6306443D01*
X-7643079Y-6328387D01*
X-7653044Y-6349457D01*
X-7665026Y-6369448D01*
X-7678910Y-6388168D01*
X-7694562Y-6405438D01*
X-7711832Y-6421090D01*
X-7730552Y-6434974D01*
X-7750543Y-6446956D01*
X-7771613Y-6456921D01*
X-7793557Y-6464773D01*
X-7816166Y-6470437D01*
X-7839221Y-6473856D01*
X-7862500Y-6475000D01*
X-8437500Y-6475000D01*
X-8460779Y-6473856D01*
X-8483834Y-6470437D01*
X-8506443Y-6464773D01*
X-8528387Y-6456921D01*
X-8549457Y-6446956D01*
X-8569448Y-6434974D01*
X-8588168Y-6421090D01*
X-8605438Y-6405438D01*
X-8621090Y-6388168D01*
X-8634974Y-6369448D01*
X-8646956Y-6349457D01*
X-8656921Y-6328387D01*
X-8664773Y-6306443D01*
X-8670437Y-6283834D01*
X-8673856Y-6260779D01*
X-8675000Y-6237500D01*
X-8675000Y-5762500D01*
X-8673856Y-5739221D01*
X-8670437Y-5716166D01*
X-8664773Y-5693557D01*
X-8656921Y-5671613D01*
X-8646956Y-5650543D01*
X-8634974Y-5630552D01*
X-8621090Y-5611832D01*
X-8605438Y-5594562D01*
X-8588168Y-5578910D01*
X-8569448Y-5565026D01*
X-8549457Y-5553044D01*
X-8528387Y-5543079D01*
X-8506443Y-5535227D01*
X-8483834Y-5529563D01*
X-8460779Y-5526144D01*
X-8437500Y-5525000D01*
X-7862500Y-5525000D01*
X-7839221Y-5526144D01*
G37*
G36*
X-6089221Y-5526144D02*
G01*
X-6066166Y-5529563D01*
X-6043557Y-5535227D01*
X-6021613Y-5543079D01*
X-6000543Y-5553044D01*
X-5980552Y-5565026D01*
X-5961832Y-5578910D01*
X-5944562Y-5594562D01*
X-5928910Y-5611832D01*
X-5915026Y-5630552D01*
X-5903044Y-5650543D01*
X-5893079Y-5671613D01*
X-5885227Y-5693557D01*
X-5879563Y-5716166D01*
X-5876144Y-5739221D01*
X-5875000Y-5762500D01*
X-5875000Y-6237500D01*
X-5876144Y-6260779D01*
X-5879563Y-6283834D01*
X-5885227Y-6306443D01*
X-5893079Y-6328387D01*
X-5903044Y-6349457D01*
X-5915026Y-6369448D01*
X-5928910Y-6388168D01*
X-5944562Y-6405438D01*
X-5961832Y-6421090D01*
X-5980552Y-6434974D01*
X-6000543Y-6446956D01*
X-6021613Y-6456921D01*
X-6043557Y-6464773D01*
X-6066166Y-6470437D01*
X-6089221Y-6473856D01*
X-6112500Y-6475000D01*
X-6687500Y-6475000D01*
X-6710779Y-6473856D01*
X-6733834Y-6470437D01*
X-6756443Y-6464773D01*
X-6778387Y-6456921D01*
X-6799457Y-6446956D01*
X-6819448Y-6434974D01*
X-6838168Y-6421090D01*
X-6855438Y-6405438D01*
X-6871090Y-6388168D01*
X-6884974Y-6369448D01*
X-6896956Y-6349457D01*
X-6906921Y-6328387D01*
X-6914773Y-6306443D01*
X-6920437Y-6283834D01*
X-6923856Y-6260779D01*
X-6925000Y-6237500D01*
X-6925000Y-5762500D01*
X-6923856Y-5739221D01*
X-6920437Y-5716166D01*
X-6914773Y-5693557D01*
X-6906921Y-5671613D01*
X-6896956Y-5650543D01*
X-6884974Y-5630552D01*
X-6871090Y-5611832D01*
X-6855438Y-5594562D01*
X-6838168Y-5578910D01*
X-6819448Y-5565026D01*
X-6799457Y-5553044D01*
X-6778387Y-5543079D01*
X-6756443Y-5535227D01*
X-6733834Y-5529563D01*
X-6710779Y-5526144D01*
X-6687500Y-5525000D01*
X-6112500Y-5525000D01*
X-6089221Y-5526144D01*
G37*
G36*
X-1166198Y-6251482D02*
G01*
X-1156491Y-6252921D01*
X-1146972Y-6255306D01*
X-1137732Y-6258612D01*
X-1128860Y-6262808D01*
X-1120443Y-6267853D01*
X-1112561Y-6273699D01*
X-1105289Y-6280289D01*
X-1098699Y-6287561D01*
X-1092853Y-6295443D01*
X-1087808Y-6303860D01*
X-1083612Y-6312732D01*
X-1080306Y-6321972D01*
X-1077921Y-6331491D01*
X-1076482Y-6341198D01*
X-1076000Y-6351000D01*
X-1076000Y-7651000D01*
X-1076482Y-7660802D01*
X-1077921Y-7670509D01*
X-1080306Y-7680028D01*
X-1083612Y-7689268D01*
X-1087808Y-7698140D01*
X-1092853Y-7706557D01*
X-1098699Y-7714439D01*
X-1105289Y-7721711D01*
X-1112561Y-7728301D01*
X-1120443Y-7734147D01*
X-1128860Y-7739192D01*
X-1137732Y-7743388D01*
X-1146972Y-7746694D01*
X-1156491Y-7749079D01*
X-1166198Y-7750518D01*
X-1176000Y-7751000D01*
X-1376000Y-7751000D01*
X-1385802Y-7750518D01*
X-1395509Y-7749079D01*
X-1405028Y-7746694D01*
X-1414268Y-7743388D01*
X-1423140Y-7739192D01*
X-1431557Y-7734147D01*
X-1439439Y-7728301D01*
X-1446711Y-7721711D01*
X-1453301Y-7714439D01*
X-1459147Y-7706557D01*
X-1464192Y-7698140D01*
X-1468388Y-7689268D01*
X-1471694Y-7680028D01*
X-1474079Y-7670509D01*
X-1475518Y-7660802D01*
X-1476000Y-7651000D01*
X-1476000Y-6351000D01*
X-1475518Y-6341198D01*
X-1474079Y-6331491D01*
X-1471694Y-6321972D01*
X-1468388Y-6312732D01*
X-1464192Y-6303860D01*
X-1459147Y-6295443D01*
X-1453301Y-6287561D01*
X-1446711Y-6280289D01*
X-1439439Y-6273699D01*
X-1431557Y-6267853D01*
X-1423140Y-6262808D01*
X-1414268Y-6258612D01*
X-1405028Y-6255306D01*
X-1395509Y-6252921D01*
X-1385802Y-6251482D01*
X-1376000Y-6251000D01*
X-1176000Y-6251000D01*
X-1166198Y-6251482D01*
G37*
G36*
X-366198Y-6251482D02*
G01*
X-356491Y-6252921D01*
X-346972Y-6255306D01*
X-337732Y-6258612D01*
X-328860Y-6262808D01*
X-320443Y-6267853D01*
X-312561Y-6273699D01*
X-305289Y-6280289D01*
X-298699Y-6287561D01*
X-292853Y-6295443D01*
X-287808Y-6303860D01*
X-283612Y-6312732D01*
X-280306Y-6321972D01*
X-277921Y-6331491D01*
X-276482Y-6341198D01*
X-276000Y-6351000D01*
X-276000Y-7651000D01*
X-276482Y-7660802D01*
X-277921Y-7670509D01*
X-280306Y-7680028D01*
X-283612Y-7689268D01*
X-287808Y-7698140D01*
X-292853Y-7706557D01*
X-298699Y-7714439D01*
X-305289Y-7721711D01*
X-312561Y-7728301D01*
X-320443Y-7734147D01*
X-328860Y-7739192D01*
X-337732Y-7743388D01*
X-346972Y-7746694D01*
X-356491Y-7749079D01*
X-366198Y-7750518D01*
X-376000Y-7751000D01*
X-576000Y-7751000D01*
X-585802Y-7750518D01*
X-595509Y-7749079D01*
X-605028Y-7746694D01*
X-614268Y-7743388D01*
X-623140Y-7739192D01*
X-631557Y-7734147D01*
X-639439Y-7728301D01*
X-646711Y-7721711D01*
X-653301Y-7714439D01*
X-659147Y-7706557D01*
X-664192Y-7698140D01*
X-668388Y-7689268D01*
X-671694Y-7680028D01*
X-674079Y-7670509D01*
X-675518Y-7660802D01*
X-676000Y-7651000D01*
X-676000Y-6351000D01*
X-675518Y-6341198D01*
X-674079Y-6331491D01*
X-671694Y-6321972D01*
X-668388Y-6312732D01*
X-664192Y-6303860D01*
X-659147Y-6295443D01*
X-653301Y-6287561D01*
X-646711Y-6280289D01*
X-639439Y-6273699D01*
X-631557Y-6267853D01*
X-623140Y-6262808D01*
X-614268Y-6258612D01*
X-605028Y-6255306D01*
X-595509Y-6252921D01*
X-585802Y-6251482D01*
X-576000Y-6251000D01*
X-376000Y-6251000D01*
X-366198Y-6251482D01*
G37*
G36*
X433802Y-6251482D02*
G01*
X443509Y-6252921D01*
X453028Y-6255306D01*
X462268Y-6258612D01*
X471140Y-6262808D01*
X479557Y-6267853D01*
X487439Y-6273699D01*
X494711Y-6280289D01*
X501301Y-6287561D01*
X507147Y-6295443D01*
X512192Y-6303860D01*
X516388Y-6312732D01*
X519694Y-6321972D01*
X522079Y-6331491D01*
X523518Y-6341198D01*
X524000Y-6351000D01*
X524000Y-7651000D01*
X523518Y-7660802D01*
X522079Y-7670509D01*
X519694Y-7680028D01*
X516388Y-7689268D01*
X512192Y-7698140D01*
X507147Y-7706557D01*
X501301Y-7714439D01*
X494711Y-7721711D01*
X487439Y-7728301D01*
X479557Y-7734147D01*
X471140Y-7739192D01*
X462268Y-7743388D01*
X453028Y-7746694D01*
X443509Y-7749079D01*
X433802Y-7750518D01*
X424000Y-7751000D01*
X224000Y-7751000D01*
X214198Y-7750518D01*
X204491Y-7749079D01*
X194972Y-7746694D01*
X185732Y-7743388D01*
X176860Y-7739192D01*
X168443Y-7734147D01*
X160561Y-7728301D01*
X153289Y-7721711D01*
X146699Y-7714439D01*
X140853Y-7706557D01*
X135808Y-7698140D01*
X131612Y-7689268D01*
X128306Y-7680028D01*
X125921Y-7670509D01*
X124482Y-7660802D01*
X124000Y-7651000D01*
X124000Y-6351000D01*
X124482Y-6341198D01*
X125921Y-6331491D01*
X128306Y-6321972D01*
X131612Y-6312732D01*
X135808Y-6303860D01*
X140853Y-6295443D01*
X146699Y-6287561D01*
X153289Y-6280289D01*
X160561Y-6273699D01*
X168443Y-6267853D01*
X176860Y-6262808D01*
X185732Y-6258612D01*
X194972Y-6255306D01*
X204491Y-6252921D01*
X214198Y-6251482D01*
X224000Y-6251000D01*
X424000Y-6251000D01*
X433802Y-6251482D01*
G37*
G36*
X1233802Y-6251482D02*
G01*
X1243509Y-6252921D01*
X1253028Y-6255306D01*
X1262268Y-6258612D01*
X1271140Y-6262808D01*
X1279557Y-6267853D01*
X1287439Y-6273699D01*
X1294711Y-6280289D01*
X1301301Y-6287561D01*
X1307147Y-6295443D01*
X1312192Y-6303860D01*
X1316388Y-6312732D01*
X1319694Y-6321972D01*
X1322079Y-6331491D01*
X1323518Y-6341198D01*
X1324000Y-6351000D01*
X1324000Y-7651000D01*
X1323518Y-7660802D01*
X1322079Y-7670509D01*
X1319694Y-7680028D01*
X1316388Y-7689268D01*
X1312192Y-7698140D01*
X1307147Y-7706557D01*
X1301301Y-7714439D01*
X1294711Y-7721711D01*
X1287439Y-7728301D01*
X1279557Y-7734147D01*
X1271140Y-7739192D01*
X1262268Y-7743388D01*
X1253028Y-7746694D01*
X1243509Y-7749079D01*
X1233802Y-7750518D01*
X1224000Y-7751000D01*
X1024000Y-7751000D01*
X1014198Y-7750518D01*
X1004491Y-7749079D01*
X994972Y-7746694D01*
X985732Y-7743388D01*
X976860Y-7739192D01*
X968443Y-7734147D01*
X960561Y-7728301D01*
X953289Y-7721711D01*
X946699Y-7714439D01*
X940853Y-7706557D01*
X935808Y-7698140D01*
X931612Y-7689268D01*
X928306Y-7680028D01*
X925921Y-7670509D01*
X924482Y-7660802D01*
X924000Y-7651000D01*
X924000Y-6351000D01*
X924482Y-6341198D01*
X925921Y-6331491D01*
X928306Y-6321972D01*
X931612Y-6312732D01*
X935808Y-6303860D01*
X940853Y-6295443D01*
X946699Y-6287561D01*
X953289Y-6280289D01*
X960561Y-6273699D01*
X968443Y-6267853D01*
X976860Y-6262808D01*
X985732Y-6258612D01*
X994972Y-6255306D01*
X1004491Y-6252921D01*
X1014198Y-6251482D01*
X1024000Y-6251000D01*
X1224000Y-6251000D01*
X1233802Y-6251482D01*
G37*
G36*
X2033802Y-6251482D02*
G01*
X2043509Y-6252921D01*
X2053028Y-6255306D01*
X2062268Y-6258612D01*
X2071140Y-6262808D01*
X2079557Y-6267853D01*
X2087439Y-6273699D01*
X2094711Y-6280289D01*
X2101301Y-6287561D01*
X2107147Y-6295443D01*
X2112192Y-6303860D01*
X2116388Y-6312732D01*
X2119694Y-6321972D01*
X2122079Y-6331491D01*
X2123518Y-6341198D01*
X2124000Y-6351000D01*
X2124000Y-7651000D01*
X2123518Y-7660802D01*
X2122079Y-7670509D01*
X2119694Y-7680028D01*
X2116388Y-7689268D01*
X2112192Y-7698140D01*
X2107147Y-7706557D01*
X2101301Y-7714439D01*
X2094711Y-7721711D01*
X2087439Y-7728301D01*
X2079557Y-7734147D01*
X2071140Y-7739192D01*
X2062268Y-7743388D01*
X2053028Y-7746694D01*
X2043509Y-7749079D01*
X2033802Y-7750518D01*
X2024000Y-7751000D01*
X1824000Y-7751000D01*
X1814198Y-7750518D01*
X1804491Y-7749079D01*
X1794972Y-7746694D01*
X1785732Y-7743388D01*
X1776860Y-7739192D01*
X1768443Y-7734147D01*
X1760561Y-7728301D01*
X1753289Y-7721711D01*
X1746699Y-7714439D01*
X1740853Y-7706557D01*
X1735808Y-7698140D01*
X1731612Y-7689268D01*
X1728306Y-7680028D01*
X1725921Y-7670509D01*
X1724482Y-7660802D01*
X1724000Y-7651000D01*
X1724000Y-6351000D01*
X1724482Y-6341198D01*
X1725921Y-6331491D01*
X1728306Y-6321972D01*
X1731612Y-6312732D01*
X1735808Y-6303860D01*
X1740853Y-6295443D01*
X1746699Y-6287561D01*
X1753289Y-6280289D01*
X1760561Y-6273699D01*
X1768443Y-6267853D01*
X1776860Y-6262808D01*
X1785732Y-6258612D01*
X1794972Y-6255306D01*
X1804491Y-6252921D01*
X1814198Y-6251482D01*
X1824000Y-6251000D01*
X2024000Y-6251000D01*
X2033802Y-6251482D01*
G37*
G36*
X2833802Y-6251482D02*
G01*
X2843509Y-6252921D01*
X2853028Y-6255306D01*
X2862268Y-6258612D01*
X2871140Y-6262808D01*
X2879557Y-6267853D01*
X2887439Y-6273699D01*
X2894711Y-6280289D01*
X2901301Y-6287561D01*
X2907147Y-6295443D01*
X2912192Y-6303860D01*
X2916388Y-6312732D01*
X2919694Y-6321972D01*
X2922079Y-6331491D01*
X2923518Y-6341198D01*
X2924000Y-6351000D01*
X2924000Y-7651000D01*
X2923518Y-7660802D01*
X2922079Y-7670509D01*
X2919694Y-7680028D01*
X2916388Y-7689268D01*
X2912192Y-7698140D01*
X2907147Y-7706557D01*
X2901301Y-7714439D01*
X2894711Y-7721711D01*
X2887439Y-7728301D01*
X2879557Y-7734147D01*
X2871140Y-7739192D01*
X2862268Y-7743388D01*
X2853028Y-7746694D01*
X2843509Y-7749079D01*
X2833802Y-7750518D01*
X2824000Y-7751000D01*
X2624000Y-7751000D01*
X2614198Y-7750518D01*
X2604491Y-7749079D01*
X2594972Y-7746694D01*
X2585732Y-7743388D01*
X2576860Y-7739192D01*
X2568443Y-7734147D01*
X2560561Y-7728301D01*
X2553289Y-7721711D01*
X2546699Y-7714439D01*
X2540853Y-7706557D01*
X2535808Y-7698140D01*
X2531612Y-7689268D01*
X2528306Y-7680028D01*
X2525921Y-7670509D01*
X2524482Y-7660802D01*
X2524000Y-7651000D01*
X2524000Y-6351000D01*
X2524482Y-6341198D01*
X2525921Y-6331491D01*
X2528306Y-6321972D01*
X2531612Y-6312732D01*
X2535808Y-6303860D01*
X2540853Y-6295443D01*
X2546699Y-6287561D01*
X2553289Y-6280289D01*
X2560561Y-6273699D01*
X2568443Y-6267853D01*
X2576860Y-6262808D01*
X2585732Y-6258612D01*
X2594972Y-6255306D01*
X2604491Y-6252921D01*
X2614198Y-6251482D01*
X2624000Y-6251000D01*
X2824000Y-6251000D01*
X2833802Y-6251482D01*
G37*
G36*
X3633802Y-6251482D02*
G01*
X3643509Y-6252921D01*
X3653028Y-6255306D01*
X3662268Y-6258612D01*
X3671140Y-6262808D01*
X3679557Y-6267853D01*
X3687439Y-6273699D01*
X3694711Y-6280289D01*
X3701301Y-6287561D01*
X3707147Y-6295443D01*
X3712192Y-6303860D01*
X3716388Y-6312732D01*
X3719694Y-6321972D01*
X3722079Y-6331491D01*
X3723518Y-6341198D01*
X3724000Y-6351000D01*
X3724000Y-7651000D01*
X3723518Y-7660802D01*
X3722079Y-7670509D01*
X3719694Y-7680028D01*
X3716388Y-7689268D01*
X3712192Y-7698140D01*
X3707147Y-7706557D01*
X3701301Y-7714439D01*
X3694711Y-7721711D01*
X3687439Y-7728301D01*
X3679557Y-7734147D01*
X3671140Y-7739192D01*
X3662268Y-7743388D01*
X3653028Y-7746694D01*
X3643509Y-7749079D01*
X3633802Y-7750518D01*
X3624000Y-7751000D01*
X3424000Y-7751000D01*
X3414198Y-7750518D01*
X3404491Y-7749079D01*
X3394972Y-7746694D01*
X3385732Y-7743388D01*
X3376860Y-7739192D01*
X3368443Y-7734147D01*
X3360561Y-7728301D01*
X3353289Y-7721711D01*
X3346699Y-7714439D01*
X3340853Y-7706557D01*
X3335808Y-7698140D01*
X3331612Y-7689268D01*
X3328306Y-7680028D01*
X3325921Y-7670509D01*
X3324482Y-7660802D01*
X3324000Y-7651000D01*
X3324000Y-6351000D01*
X3324482Y-6341198D01*
X3325921Y-6331491D01*
X3328306Y-6321972D01*
X3331612Y-6312732D01*
X3335808Y-6303860D01*
X3340853Y-6295443D01*
X3346699Y-6287561D01*
X3353289Y-6280289D01*
X3360561Y-6273699D01*
X3368443Y-6267853D01*
X3376860Y-6262808D01*
X3385732Y-6258612D01*
X3394972Y-6255306D01*
X3404491Y-6252921D01*
X3414198Y-6251482D01*
X3424000Y-6251000D01*
X3624000Y-6251000D01*
X3633802Y-6251482D01*
G37*
G36*
X4433802Y-6251482D02*
G01*
X4443509Y-6252921D01*
X4453028Y-6255306D01*
X4462268Y-6258612D01*
X4471140Y-6262808D01*
X4479557Y-6267853D01*
X4487439Y-6273699D01*
X4494711Y-6280289D01*
X4501301Y-6287561D01*
X4507147Y-6295443D01*
X4512192Y-6303860D01*
X4516388Y-6312732D01*
X4519694Y-6321972D01*
X4522079Y-6331491D01*
X4523518Y-6341198D01*
X4524000Y-6351000D01*
X4524000Y-7651000D01*
X4523518Y-7660802D01*
X4522079Y-7670509D01*
X4519694Y-7680028D01*
X4516388Y-7689268D01*
X4512192Y-7698140D01*
X4507147Y-7706557D01*
X4501301Y-7714439D01*
X4494711Y-7721711D01*
X4487439Y-7728301D01*
X4479557Y-7734147D01*
X4471140Y-7739192D01*
X4462268Y-7743388D01*
X4453028Y-7746694D01*
X4443509Y-7749079D01*
X4433802Y-7750518D01*
X4424000Y-7751000D01*
X4224000Y-7751000D01*
X4214198Y-7750518D01*
X4204491Y-7749079D01*
X4194972Y-7746694D01*
X4185732Y-7743388D01*
X4176860Y-7739192D01*
X4168443Y-7734147D01*
X4160561Y-7728301D01*
X4153289Y-7721711D01*
X4146699Y-7714439D01*
X4140853Y-7706557D01*
X4135808Y-7698140D01*
X4131612Y-7689268D01*
X4128306Y-7680028D01*
X4125921Y-7670509D01*
X4124482Y-7660802D01*
X4124000Y-7651000D01*
X4124000Y-6351000D01*
X4124482Y-6341198D01*
X4125921Y-6331491D01*
X4128306Y-6321972D01*
X4131612Y-6312732D01*
X4135808Y-6303860D01*
X4140853Y-6295443D01*
X4146699Y-6287561D01*
X4153289Y-6280289D01*
X4160561Y-6273699D01*
X4168443Y-6267853D01*
X4176860Y-6262808D01*
X4185732Y-6258612D01*
X4194972Y-6255306D01*
X4204491Y-6252921D01*
X4214198Y-6251482D01*
X4224000Y-6251000D01*
X4424000Y-6251000D01*
X4433802Y-6251482D01*
G37*
G36*
X6358802Y-8176482D02*
G01*
X6368509Y-8177921D01*
X6378028Y-8180306D01*
X6387268Y-8183612D01*
X6396140Y-8187808D01*
X6404557Y-8192853D01*
X6412439Y-8198699D01*
X6419711Y-8205289D01*
X6426301Y-8212561D01*
X6432147Y-8220443D01*
X6437192Y-8228860D01*
X6441388Y-8237732D01*
X6444694Y-8246972D01*
X6447079Y-8256491D01*
X6448518Y-8266198D01*
X6449000Y-8276000D01*
X6449000Y-8476000D01*
X6448518Y-8485802D01*
X6447079Y-8495509D01*
X6444694Y-8505028D01*
X6441388Y-8514268D01*
X6437192Y-8523140D01*
X6432147Y-8531557D01*
X6426301Y-8539439D01*
X6419711Y-8546711D01*
X6412439Y-8553301D01*
X6404557Y-8559147D01*
X6396140Y-8564192D01*
X6387268Y-8568388D01*
X6378028Y-8571694D01*
X6368509Y-8574079D01*
X6358802Y-8575518D01*
X6349000Y-8576000D01*
X5049000Y-8576000D01*
X5039198Y-8575518D01*
X5029491Y-8574079D01*
X5019972Y-8571694D01*
X5010732Y-8568388D01*
X5001860Y-8564192D01*
X4993443Y-8559147D01*
X4985561Y-8553301D01*
X4978289Y-8546711D01*
X4971699Y-8539439D01*
X4965853Y-8531557D01*
X4960808Y-8523140D01*
X4956612Y-8514268D01*
X4953306Y-8505028D01*
X4950921Y-8495509D01*
X4949482Y-8485802D01*
X4949000Y-8476000D01*
X4949000Y-8276000D01*
X4949482Y-8266198D01*
X4950921Y-8256491D01*
X4953306Y-8246972D01*
X4956612Y-8237732D01*
X4960808Y-8228860D01*
X4965853Y-8220443D01*
X4971699Y-8212561D01*
X4978289Y-8205289D01*
X4985561Y-8198699D01*
X4993443Y-8192853D01*
X5001860Y-8187808D01*
X5010732Y-8183612D01*
X5019972Y-8180306D01*
X5029491Y-8177921D01*
X5039198Y-8176482D01*
X5049000Y-8176000D01*
X6349000Y-8176000D01*
X6358802Y-8176482D01*
G37*
G36*
X6358802Y-8976482D02*
G01*
X6368509Y-8977921D01*
X6378028Y-8980306D01*
X6387268Y-8983612D01*
X6396140Y-8987808D01*
X6404557Y-8992853D01*
X6412439Y-8998699D01*
X6419711Y-9005289D01*
X6426301Y-9012561D01*
X6432147Y-9020443D01*
X6437192Y-9028860D01*
X6441388Y-9037732D01*
X6444694Y-9046972D01*
X6447079Y-9056491D01*
X6448518Y-9066198D01*
X6449000Y-9076000D01*
X6449000Y-9276000D01*
X6448518Y-9285802D01*
X6447079Y-9295509D01*
X6444694Y-9305028D01*
X6441388Y-9314268D01*
X6437192Y-9323140D01*
X6432147Y-9331557D01*
X6426301Y-9339439D01*
X6419711Y-9346711D01*
X6412439Y-9353301D01*
X6404557Y-9359147D01*
X6396140Y-9364192D01*
X6387268Y-9368388D01*
X6378028Y-9371694D01*
X6368509Y-9374079D01*
X6358802Y-9375518D01*
X6349000Y-9376000D01*
X5049000Y-9376000D01*
X5039198Y-9375518D01*
X5029491Y-9374079D01*
X5019972Y-9371694D01*
X5010732Y-9368388D01*
X5001860Y-9364192D01*
X4993443Y-9359147D01*
X4985561Y-9353301D01*
X4978289Y-9346711D01*
X4971699Y-9339439D01*
X4965853Y-9331557D01*
X4960808Y-9323140D01*
X4956612Y-9314268D01*
X4953306Y-9305028D01*
X4950921Y-9295509D01*
X4949482Y-9285802D01*
X4949000Y-9276000D01*
X4949000Y-9076000D01*
X4949482Y-9066198D01*
X4950921Y-9056491D01*
X4953306Y-9046972D01*
X4956612Y-9037732D01*
X4960808Y-9028860D01*
X4965853Y-9020443D01*
X4971699Y-9012561D01*
X4978289Y-9005289D01*
X4985561Y-8998699D01*
X4993443Y-8992853D01*
X5001860Y-8987808D01*
X5010732Y-8983612D01*
X5019972Y-8980306D01*
X5029491Y-8977921D01*
X5039198Y-8976482D01*
X5049000Y-8976000D01*
X6349000Y-8976000D01*
X6358802Y-8976482D01*
G37*
G36*
X6358802Y-9776482D02*
G01*
X6368509Y-9777921D01*
X6378028Y-9780306D01*
X6387268Y-9783612D01*
X6396140Y-9787808D01*
X6404557Y-9792853D01*
X6412439Y-9798699D01*
X6419711Y-9805289D01*
X6426301Y-9812561D01*
X6432147Y-9820443D01*
X6437192Y-9828860D01*
X6441388Y-9837732D01*
X6444694Y-9846972D01*
X6447079Y-9856491D01*
X6448518Y-9866198D01*
X6449000Y-9876000D01*
X6449000Y-10076000D01*
X6448518Y-10085802D01*
X6447079Y-10095509D01*
X6444694Y-10105028D01*
X6441388Y-10114268D01*
X6437192Y-10123140D01*
X6432147Y-10131557D01*
X6426301Y-10139439D01*
X6419711Y-10146711D01*
X6412439Y-10153301D01*
X6404557Y-10159147D01*
X6396140Y-10164192D01*
X6387268Y-10168388D01*
X6378028Y-10171694D01*
X6368509Y-10174079D01*
X6358802Y-10175518D01*
X6349000Y-10176000D01*
X5049000Y-10176000D01*
X5039198Y-10175518D01*
X5029491Y-10174079D01*
X5019972Y-10171694D01*
X5010732Y-10168388D01*
X5001860Y-10164192D01*
X4993443Y-10159147D01*
X4985561Y-10153301D01*
X4978289Y-10146711D01*
X4971699Y-10139439D01*
X4965853Y-10131557D01*
X4960808Y-10123140D01*
X4956612Y-10114268D01*
X4953306Y-10105028D01*
X4950921Y-10095509D01*
X4949482Y-10085802D01*
X4949000Y-10076000D01*
X4949000Y-9876000D01*
X4949482Y-9866198D01*
X4950921Y-9856491D01*
X4953306Y-9846972D01*
X4956612Y-9837732D01*
X4960808Y-9828860D01*
X4965853Y-9820443D01*
X4971699Y-9812561D01*
X4978289Y-9805289D01*
X4985561Y-9798699D01*
X4993443Y-9792853D01*
X5001860Y-9787808D01*
X5010732Y-9783612D01*
X5019972Y-9780306D01*
X5029491Y-9777921D01*
X5039198Y-9776482D01*
X5049000Y-9776000D01*
X6349000Y-9776000D01*
X6358802Y-9776482D01*
G37*
G36*
X6358802Y-10576482D02*
G01*
X6368509Y-10577921D01*
X6378028Y-10580306D01*
X6387268Y-10583612D01*
X6396140Y-10587808D01*
X6404557Y-10592853D01*
X6412439Y-10598699D01*
X6419711Y-10605289D01*
X6426301Y-10612561D01*
X6432147Y-10620443D01*
X6437192Y-10628860D01*
X6441388Y-10637732D01*
X6444694Y-10646972D01*
X6447079Y-10656491D01*
X6448518Y-10666198D01*
X6449000Y-10676000D01*
X6449000Y-10876000D01*
X6448518Y-10885802D01*
X6447079Y-10895509D01*
X6444694Y-10905028D01*
X6441388Y-10914268D01*
X6437192Y-10923140D01*
X6432147Y-10931557D01*
X6426301Y-10939439D01*
X6419711Y-10946711D01*
X6412439Y-10953301D01*
X6404557Y-10959147D01*
X6396140Y-10964192D01*
X6387268Y-10968388D01*
X6378028Y-10971694D01*
X6368509Y-10974079D01*
X6358802Y-10975518D01*
X6349000Y-10976000D01*
X5049000Y-10976000D01*
X5039198Y-10975518D01*
X5029491Y-10974079D01*
X5019972Y-10971694D01*
X5010732Y-10968388D01*
X5001860Y-10964192D01*
X4993443Y-10959147D01*
X4985561Y-10953301D01*
X4978289Y-10946711D01*
X4971699Y-10939439D01*
X4965853Y-10931557D01*
X4960808Y-10923140D01*
X4956612Y-10914268D01*
X4953306Y-10905028D01*
X4950921Y-10895509D01*
X4949482Y-10885802D01*
X4949000Y-10876000D01*
X4949000Y-10676000D01*
X4949482Y-10666198D01*
X4950921Y-10656491D01*
X4953306Y-10646972D01*
X4956612Y-10637732D01*
X4960808Y-10628860D01*
X4965853Y-10620443D01*
X4971699Y-10612561D01*
X4978289Y-10605289D01*
X4985561Y-10598699D01*
X4993443Y-10592853D01*
X5001860Y-10587808D01*
X5010732Y-10583612D01*
X5019972Y-10580306D01*
X5029491Y-10577921D01*
X5039198Y-10576482D01*
X5049000Y-10576000D01*
X6349000Y-10576000D01*
X6358802Y-10576482D01*
G37*
G36*
X6358802Y-11376482D02*
G01*
X6368509Y-11377921D01*
X6378028Y-11380306D01*
X6387268Y-11383612D01*
X6396140Y-11387808D01*
X6404557Y-11392853D01*
X6412439Y-11398699D01*
X6419711Y-11405289D01*
X6426301Y-11412561D01*
X6432147Y-11420443D01*
X6437192Y-11428860D01*
X6441388Y-11437732D01*
X6444694Y-11446972D01*
X6447079Y-11456491D01*
X6448518Y-11466198D01*
X6449000Y-11476000D01*
X6449000Y-11676000D01*
X6448518Y-11685802D01*
X6447079Y-11695509D01*
X6444694Y-11705028D01*
X6441388Y-11714268D01*
X6437192Y-11723140D01*
X6432147Y-11731557D01*
X6426301Y-11739439D01*
X6419711Y-11746711D01*
X6412439Y-11753301D01*
X6404557Y-11759147D01*
X6396140Y-11764192D01*
X6387268Y-11768388D01*
X6378028Y-11771694D01*
X6368509Y-11774079D01*
X6358802Y-11775518D01*
X6349000Y-11776000D01*
X5049000Y-11776000D01*
X5039198Y-11775518D01*
X5029491Y-11774079D01*
X5019972Y-11771694D01*
X5010732Y-11768388D01*
X5001860Y-11764192D01*
X4993443Y-11759147D01*
X4985561Y-11753301D01*
X4978289Y-11746711D01*
X4971699Y-11739439D01*
X4965853Y-11731557D01*
X4960808Y-11723140D01*
X4956612Y-11714268D01*
X4953306Y-11705028D01*
X4950921Y-11695509D01*
X4949482Y-11685802D01*
X4949000Y-11676000D01*
X4949000Y-11476000D01*
X4949482Y-11466198D01*
X4950921Y-11456491D01*
X4953306Y-11446972D01*
X4956612Y-11437732D01*
X4960808Y-11428860D01*
X4965853Y-11420443D01*
X4971699Y-11412561D01*
X4978289Y-11405289D01*
X4985561Y-11398699D01*
X4993443Y-11392853D01*
X5001860Y-11387808D01*
X5010732Y-11383612D01*
X5019972Y-11380306D01*
X5029491Y-11377921D01*
X5039198Y-11376482D01*
X5049000Y-11376000D01*
X6349000Y-11376000D01*
X6358802Y-11376482D01*
G37*
G36*
X6358802Y-12176482D02*
G01*
X6368509Y-12177921D01*
X6378028Y-12180306D01*
X6387268Y-12183612D01*
X6396140Y-12187808D01*
X6404557Y-12192853D01*
X6412439Y-12198699D01*
X6419711Y-12205289D01*
X6426301Y-12212561D01*
X6432147Y-12220443D01*
X6437192Y-12228860D01*
X6441388Y-12237732D01*
X6444694Y-12246972D01*
X6447079Y-12256491D01*
X6448518Y-12266198D01*
X6449000Y-12276000D01*
X6449000Y-12476000D01*
X6448518Y-12485802D01*
X6447079Y-12495509D01*
X6444694Y-12505028D01*
X6441388Y-12514268D01*
X6437192Y-12523140D01*
X6432147Y-12531557D01*
X6426301Y-12539439D01*
X6419711Y-12546711D01*
X6412439Y-12553301D01*
X6404557Y-12559147D01*
X6396140Y-12564192D01*
X6387268Y-12568388D01*
X6378028Y-12571694D01*
X6368509Y-12574079D01*
X6358802Y-12575518D01*
X6349000Y-12576000D01*
X5049000Y-12576000D01*
X5039198Y-12575518D01*
X5029491Y-12574079D01*
X5019972Y-12571694D01*
X5010732Y-12568388D01*
X5001860Y-12564192D01*
X4993443Y-12559147D01*
X4985561Y-12553301D01*
X4978289Y-12546711D01*
X4971699Y-12539439D01*
X4965853Y-12531557D01*
X4960808Y-12523140D01*
X4956612Y-12514268D01*
X4953306Y-12505028D01*
X4950921Y-12495509D01*
X4949482Y-12485802D01*
X4949000Y-12476000D01*
X4949000Y-12276000D01*
X4949482Y-12266198D01*
X4950921Y-12256491D01*
X4953306Y-12246972D01*
X4956612Y-12237732D01*
X4960808Y-12228860D01*
X4965853Y-12220443D01*
X4971699Y-12212561D01*
X4978289Y-12205289D01*
X4985561Y-12198699D01*
X4993443Y-12192853D01*
X5001860Y-12187808D01*
X5010732Y-12183612D01*
X5019972Y-12180306D01*
X5029491Y-12177921D01*
X5039198Y-12176482D01*
X5049000Y-12176000D01*
X6349000Y-12176000D01*
X6358802Y-12176482D01*
G37*
G36*
X6358802Y-12976482D02*
G01*
X6368509Y-12977921D01*
X6378028Y-12980306D01*
X6387268Y-12983612D01*
X6396140Y-12987808D01*
X6404557Y-12992853D01*
X6412439Y-12998699D01*
X6419711Y-13005289D01*
X6426301Y-13012561D01*
X6432147Y-13020443D01*
X6437192Y-13028860D01*
X6441388Y-13037732D01*
X6444694Y-13046972D01*
X6447079Y-13056491D01*
X6448518Y-13066198D01*
X6449000Y-13076000D01*
X6449000Y-13276000D01*
X6448518Y-13285802D01*
X6447079Y-13295509D01*
X6444694Y-13305028D01*
X6441388Y-13314268D01*
X6437192Y-13323140D01*
X6432147Y-13331557D01*
X6426301Y-13339439D01*
X6419711Y-13346711D01*
X6412439Y-13353301D01*
X6404557Y-13359147D01*
X6396140Y-13364192D01*
X6387268Y-13368388D01*
X6378028Y-13371694D01*
X6368509Y-13374079D01*
X6358802Y-13375518D01*
X6349000Y-13376000D01*
X5049000Y-13376000D01*
X5039198Y-13375518D01*
X5029491Y-13374079D01*
X5019972Y-13371694D01*
X5010732Y-13368388D01*
X5001860Y-13364192D01*
X4993443Y-13359147D01*
X4985561Y-13353301D01*
X4978289Y-13346711D01*
X4971699Y-13339439D01*
X4965853Y-13331557D01*
X4960808Y-13323140D01*
X4956612Y-13314268D01*
X4953306Y-13305028D01*
X4950921Y-13295509D01*
X4949482Y-13285802D01*
X4949000Y-13276000D01*
X4949000Y-13076000D01*
X4949482Y-13066198D01*
X4950921Y-13056491D01*
X4953306Y-13046972D01*
X4956612Y-13037732D01*
X4960808Y-13028860D01*
X4965853Y-13020443D01*
X4971699Y-13012561D01*
X4978289Y-13005289D01*
X4985561Y-12998699D01*
X4993443Y-12992853D01*
X5001860Y-12987808D01*
X5010732Y-12983612D01*
X5019972Y-12980306D01*
X5029491Y-12977921D01*
X5039198Y-12976482D01*
X5049000Y-12976000D01*
X6349000Y-12976000D01*
X6358802Y-12976482D01*
G37*
G36*
X6358802Y-13776482D02*
G01*
X6368509Y-13777921D01*
X6378028Y-13780306D01*
X6387268Y-13783612D01*
X6396140Y-13787808D01*
X6404557Y-13792853D01*
X6412439Y-13798699D01*
X6419711Y-13805289D01*
X6426301Y-13812561D01*
X6432147Y-13820443D01*
X6437192Y-13828860D01*
X6441388Y-13837732D01*
X6444694Y-13846972D01*
X6447079Y-13856491D01*
X6448518Y-13866198D01*
X6449000Y-13876000D01*
X6449000Y-14076000D01*
X6448518Y-14085802D01*
X6447079Y-14095509D01*
X6444694Y-14105028D01*
X6441388Y-14114268D01*
X6437192Y-14123140D01*
X6432147Y-14131557D01*
X6426301Y-14139439D01*
X6419711Y-14146711D01*
X6412439Y-14153301D01*
X6404557Y-14159147D01*
X6396140Y-14164192D01*
X6387268Y-14168388D01*
X6378028Y-14171694D01*
X6368509Y-14174079D01*
X6358802Y-14175518D01*
X6349000Y-14176000D01*
X5049000Y-14176000D01*
X5039198Y-14175518D01*
X5029491Y-14174079D01*
X5019972Y-14171694D01*
X5010732Y-14168388D01*
X5001860Y-14164192D01*
X4993443Y-14159147D01*
X4985561Y-14153301D01*
X4978289Y-14146711D01*
X4971699Y-14139439D01*
X4965853Y-14131557D01*
X4960808Y-14123140D01*
X4956612Y-14114268D01*
X4953306Y-14105028D01*
X4950921Y-14095509D01*
X4949482Y-14085802D01*
X4949000Y-14076000D01*
X4949000Y-13876000D01*
X4949482Y-13866198D01*
X4950921Y-13856491D01*
X4953306Y-13846972D01*
X4956612Y-13837732D01*
X4960808Y-13828860D01*
X4965853Y-13820443D01*
X4971699Y-13812561D01*
X4978289Y-13805289D01*
X4985561Y-13798699D01*
X4993443Y-13792853D01*
X5001860Y-13787808D01*
X5010732Y-13783612D01*
X5019972Y-13780306D01*
X5029491Y-13777921D01*
X5039198Y-13776482D01*
X5049000Y-13776000D01*
X6349000Y-13776000D01*
X6358802Y-13776482D01*
G37*
G36*
X4433802Y-14601482D02*
G01*
X4443509Y-14602921D01*
X4453028Y-14605306D01*
X4462268Y-14608612D01*
X4471140Y-14612808D01*
X4479557Y-14617853D01*
X4487439Y-14623699D01*
X4494711Y-14630289D01*
X4501301Y-14637561D01*
X4507147Y-14645443D01*
X4512192Y-14653860D01*
X4516388Y-14662732D01*
X4519694Y-14671972D01*
X4522079Y-14681491D01*
X4523518Y-14691198D01*
X4524000Y-14701000D01*
X4524000Y-16001000D01*
X4523518Y-16010802D01*
X4522079Y-16020509D01*
X4519694Y-16030028D01*
X4516388Y-16039268D01*
X4512192Y-16048140D01*
X4507147Y-16056557D01*
X4501301Y-16064439D01*
X4494711Y-16071711D01*
X4487439Y-16078301D01*
X4479557Y-16084147D01*
X4471140Y-16089192D01*
X4462268Y-16093388D01*
X4453028Y-16096694D01*
X4443509Y-16099079D01*
X4433802Y-16100518D01*
X4424000Y-16101000D01*
X4224000Y-16101000D01*
X4214198Y-16100518D01*
X4204491Y-16099079D01*
X4194972Y-16096694D01*
X4185732Y-16093388D01*
X4176860Y-16089192D01*
X4168443Y-16084147D01*
X4160561Y-16078301D01*
X4153289Y-16071711D01*
X4146699Y-16064439D01*
X4140853Y-16056557D01*
X4135808Y-16048140D01*
X4131612Y-16039268D01*
X4128306Y-16030028D01*
X4125921Y-16020509D01*
X4124482Y-16010802D01*
X4124000Y-16001000D01*
X4124000Y-14701000D01*
X4124482Y-14691198D01*
X4125921Y-14681491D01*
X4128306Y-14671972D01*
X4131612Y-14662732D01*
X4135808Y-14653860D01*
X4140853Y-14645443D01*
X4146699Y-14637561D01*
X4153289Y-14630289D01*
X4160561Y-14623699D01*
X4168443Y-14617853D01*
X4176860Y-14612808D01*
X4185732Y-14608612D01*
X4194972Y-14605306D01*
X4204491Y-14602921D01*
X4214198Y-14601482D01*
X4224000Y-14601000D01*
X4424000Y-14601000D01*
X4433802Y-14601482D01*
G37*
G36*
X3633802Y-14601482D02*
G01*
X3643509Y-14602921D01*
X3653028Y-14605306D01*
X3662268Y-14608612D01*
X3671140Y-14612808D01*
X3679557Y-14617853D01*
X3687439Y-14623699D01*
X3694711Y-14630289D01*
X3701301Y-14637561D01*
X3707147Y-14645443D01*
X3712192Y-14653860D01*
X3716388Y-14662732D01*
X3719694Y-14671972D01*
X3722079Y-14681491D01*
X3723518Y-14691198D01*
X3724000Y-14701000D01*
X3724000Y-16001000D01*
X3723518Y-16010802D01*
X3722079Y-16020509D01*
X3719694Y-16030028D01*
X3716388Y-16039268D01*
X3712192Y-16048140D01*
X3707147Y-16056557D01*
X3701301Y-16064439D01*
X3694711Y-16071711D01*
X3687439Y-16078301D01*
X3679557Y-16084147D01*
X3671140Y-16089192D01*
X3662268Y-16093388D01*
X3653028Y-16096694D01*
X3643509Y-16099079D01*
X3633802Y-16100518D01*
X3624000Y-16101000D01*
X3424000Y-16101000D01*
X3414198Y-16100518D01*
X3404491Y-16099079D01*
X3394972Y-16096694D01*
X3385732Y-16093388D01*
X3376860Y-16089192D01*
X3368443Y-16084147D01*
X3360561Y-16078301D01*
X3353289Y-16071711D01*
X3346699Y-16064439D01*
X3340853Y-16056557D01*
X3335808Y-16048140D01*
X3331612Y-16039268D01*
X3328306Y-16030028D01*
X3325921Y-16020509D01*
X3324482Y-16010802D01*
X3324000Y-16001000D01*
X3324000Y-14701000D01*
X3324482Y-14691198D01*
X3325921Y-14681491D01*
X3328306Y-14671972D01*
X3331612Y-14662732D01*
X3335808Y-14653860D01*
X3340853Y-14645443D01*
X3346699Y-14637561D01*
X3353289Y-14630289D01*
X3360561Y-14623699D01*
X3368443Y-14617853D01*
X3376860Y-14612808D01*
X3385732Y-14608612D01*
X3394972Y-14605306D01*
X3404491Y-14602921D01*
X3414198Y-14601482D01*
X3424000Y-14601000D01*
X3624000Y-14601000D01*
X3633802Y-14601482D01*
G37*
G36*
X2833802Y-14601482D02*
G01*
X2843509Y-14602921D01*
X2853028Y-14605306D01*
X2862268Y-14608612D01*
X2871140Y-14612808D01*
X2879557Y-14617853D01*
X2887439Y-14623699D01*
X2894711Y-14630289D01*
X2901301Y-14637561D01*
X2907147Y-14645443D01*
X2912192Y-14653860D01*
X2916388Y-14662732D01*
X2919694Y-14671972D01*
X2922079Y-14681491D01*
X2923518Y-14691198D01*
X2924000Y-14701000D01*
X2924000Y-16001000D01*
X2923518Y-16010802D01*
X2922079Y-16020509D01*
X2919694Y-16030028D01*
X2916388Y-16039268D01*
X2912192Y-16048140D01*
X2907147Y-16056557D01*
X2901301Y-16064439D01*
X2894711Y-16071711D01*
X2887439Y-16078301D01*
X2879557Y-16084147D01*
X2871140Y-16089192D01*
X2862268Y-16093388D01*
X2853028Y-16096694D01*
X2843509Y-16099079D01*
X2833802Y-16100518D01*
X2824000Y-16101000D01*
X2624000Y-16101000D01*
X2614198Y-16100518D01*
X2604491Y-16099079D01*
X2594972Y-16096694D01*
X2585732Y-16093388D01*
X2576860Y-16089192D01*
X2568443Y-16084147D01*
X2560561Y-16078301D01*
X2553289Y-16071711D01*
X2546699Y-16064439D01*
X2540853Y-16056557D01*
X2535808Y-16048140D01*
X2531612Y-16039268D01*
X2528306Y-16030028D01*
X2525921Y-16020509D01*
X2524482Y-16010802D01*
X2524000Y-16001000D01*
X2524000Y-14701000D01*
X2524482Y-14691198D01*
X2525921Y-14681491D01*
X2528306Y-14671972D01*
X2531612Y-14662732D01*
X2535808Y-14653860D01*
X2540853Y-14645443D01*
X2546699Y-14637561D01*
X2553289Y-14630289D01*
X2560561Y-14623699D01*
X2568443Y-14617853D01*
X2576860Y-14612808D01*
X2585732Y-14608612D01*
X2594972Y-14605306D01*
X2604491Y-14602921D01*
X2614198Y-14601482D01*
X2624000Y-14601000D01*
X2824000Y-14601000D01*
X2833802Y-14601482D01*
G37*
G36*
X2033802Y-14601482D02*
G01*
X2043509Y-14602921D01*
X2053028Y-14605306D01*
X2062268Y-14608612D01*
X2071140Y-14612808D01*
X2079557Y-14617853D01*
X2087439Y-14623699D01*
X2094711Y-14630289D01*
X2101301Y-14637561D01*
X2107147Y-14645443D01*
X2112192Y-14653860D01*
X2116388Y-14662732D01*
X2119694Y-14671972D01*
X2122079Y-14681491D01*
X2123518Y-14691198D01*
X2124000Y-14701000D01*
X2124000Y-16001000D01*
X2123518Y-16010802D01*
X2122079Y-16020509D01*
X2119694Y-16030028D01*
X2116388Y-16039268D01*
X2112192Y-16048140D01*
X2107147Y-16056557D01*
X2101301Y-16064439D01*
X2094711Y-16071711D01*
X2087439Y-16078301D01*
X2079557Y-16084147D01*
X2071140Y-16089192D01*
X2062268Y-16093388D01*
X2053028Y-16096694D01*
X2043509Y-16099079D01*
X2033802Y-16100518D01*
X2024000Y-16101000D01*
X1824000Y-16101000D01*
X1814198Y-16100518D01*
X1804491Y-16099079D01*
X1794972Y-16096694D01*
X1785732Y-16093388D01*
X1776860Y-16089192D01*
X1768443Y-16084147D01*
X1760561Y-16078301D01*
X1753289Y-16071711D01*
X1746699Y-16064439D01*
X1740853Y-16056557D01*
X1735808Y-16048140D01*
X1731612Y-16039268D01*
X1728306Y-16030028D01*
X1725921Y-16020509D01*
X1724482Y-16010802D01*
X1724000Y-16001000D01*
X1724000Y-14701000D01*
X1724482Y-14691198D01*
X1725921Y-14681491D01*
X1728306Y-14671972D01*
X1731612Y-14662732D01*
X1735808Y-14653860D01*
X1740853Y-14645443D01*
X1746699Y-14637561D01*
X1753289Y-14630289D01*
X1760561Y-14623699D01*
X1768443Y-14617853D01*
X1776860Y-14612808D01*
X1785732Y-14608612D01*
X1794972Y-14605306D01*
X1804491Y-14602921D01*
X1814198Y-14601482D01*
X1824000Y-14601000D01*
X2024000Y-14601000D01*
X2033802Y-14601482D01*
G37*
G36*
X1233802Y-14601482D02*
G01*
X1243509Y-14602921D01*
X1253028Y-14605306D01*
X1262268Y-14608612D01*
X1271140Y-14612808D01*
X1279557Y-14617853D01*
X1287439Y-14623699D01*
X1294711Y-14630289D01*
X1301301Y-14637561D01*
X1307147Y-14645443D01*
X1312192Y-14653860D01*
X1316388Y-14662732D01*
X1319694Y-14671972D01*
X1322079Y-14681491D01*
X1323518Y-14691198D01*
X1324000Y-14701000D01*
X1324000Y-16001000D01*
X1323518Y-16010802D01*
X1322079Y-16020509D01*
X1319694Y-16030028D01*
X1316388Y-16039268D01*
X1312192Y-16048140D01*
X1307147Y-16056557D01*
X1301301Y-16064439D01*
X1294711Y-16071711D01*
X1287439Y-16078301D01*
X1279557Y-16084147D01*
X1271140Y-16089192D01*
X1262268Y-16093388D01*
X1253028Y-16096694D01*
X1243509Y-16099079D01*
X1233802Y-16100518D01*
X1224000Y-16101000D01*
X1024000Y-16101000D01*
X1014198Y-16100518D01*
X1004491Y-16099079D01*
X994972Y-16096694D01*
X985732Y-16093388D01*
X976860Y-16089192D01*
X968443Y-16084147D01*
X960561Y-16078301D01*
X953289Y-16071711D01*
X946699Y-16064439D01*
X940853Y-16056557D01*
X935808Y-16048140D01*
X931612Y-16039268D01*
X928306Y-16030028D01*
X925921Y-16020509D01*
X924482Y-16010802D01*
X924000Y-16001000D01*
X924000Y-14701000D01*
X924482Y-14691198D01*
X925921Y-14681491D01*
X928306Y-14671972D01*
X931612Y-14662732D01*
X935808Y-14653860D01*
X940853Y-14645443D01*
X946699Y-14637561D01*
X953289Y-14630289D01*
X960561Y-14623699D01*
X968443Y-14617853D01*
X976860Y-14612808D01*
X985732Y-14608612D01*
X994972Y-14605306D01*
X1004491Y-14602921D01*
X1014198Y-14601482D01*
X1024000Y-14601000D01*
X1224000Y-14601000D01*
X1233802Y-14601482D01*
G37*
G36*
X433802Y-14601482D02*
G01*
X443509Y-14602921D01*
X453028Y-14605306D01*
X462268Y-14608612D01*
X471140Y-14612808D01*
X479557Y-14617853D01*
X487439Y-14623699D01*
X494711Y-14630289D01*
X501301Y-14637561D01*
X507147Y-14645443D01*
X512192Y-14653860D01*
X516388Y-14662732D01*
X519694Y-14671972D01*
X522079Y-14681491D01*
X523518Y-14691198D01*
X524000Y-14701000D01*
X524000Y-16001000D01*
X523518Y-16010802D01*
X522079Y-16020509D01*
X519694Y-16030028D01*
X516388Y-16039268D01*
X512192Y-16048140D01*
X507147Y-16056557D01*
X501301Y-16064439D01*
X494711Y-16071711D01*
X487439Y-16078301D01*
X479557Y-16084147D01*
X471140Y-16089192D01*
X462268Y-16093388D01*
X453028Y-16096694D01*
X443509Y-16099079D01*
X433802Y-16100518D01*
X424000Y-16101000D01*
X224000Y-16101000D01*
X214198Y-16100518D01*
X204491Y-16099079D01*
X194972Y-16096694D01*
X185732Y-16093388D01*
X176860Y-16089192D01*
X168443Y-16084147D01*
X160561Y-16078301D01*
X153289Y-16071711D01*
X146699Y-16064439D01*
X140853Y-16056557D01*
X135808Y-16048140D01*
X131612Y-16039268D01*
X128306Y-16030028D01*
X125921Y-16020509D01*
X124482Y-16010802D01*
X124000Y-16001000D01*
X124000Y-14701000D01*
X124482Y-14691198D01*
X125921Y-14681491D01*
X128306Y-14671972D01*
X131612Y-14662732D01*
X135808Y-14653860D01*
X140853Y-14645443D01*
X146699Y-14637561D01*
X153289Y-14630289D01*
X160561Y-14623699D01*
X168443Y-14617853D01*
X176860Y-14612808D01*
X185732Y-14608612D01*
X194972Y-14605306D01*
X204491Y-14602921D01*
X214198Y-14601482D01*
X224000Y-14601000D01*
X424000Y-14601000D01*
X433802Y-14601482D01*
G37*
G36*
X-366198Y-14601482D02*
G01*
X-356491Y-14602921D01*
X-346972Y-14605306D01*
X-337732Y-14608612D01*
X-328860Y-14612808D01*
X-320443Y-14617853D01*
X-312561Y-14623699D01*
X-305289Y-14630289D01*
X-298699Y-14637561D01*
X-292853Y-14645443D01*
X-287808Y-14653860D01*
X-283612Y-14662732D01*
X-280306Y-14671972D01*
X-277921Y-14681491D01*
X-276482Y-14691198D01*
X-276000Y-14701000D01*
X-276000Y-16001000D01*
X-276482Y-16010802D01*
X-277921Y-16020509D01*
X-280306Y-16030028D01*
X-283612Y-16039268D01*
X-287808Y-16048140D01*
X-292853Y-16056557D01*
X-298699Y-16064439D01*
X-305289Y-16071711D01*
X-312561Y-16078301D01*
X-320443Y-16084147D01*
X-328860Y-16089192D01*
X-337732Y-16093388D01*
X-346972Y-16096694D01*
X-356491Y-16099079D01*
X-366198Y-16100518D01*
X-376000Y-16101000D01*
X-576000Y-16101000D01*
X-585802Y-16100518D01*
X-595509Y-16099079D01*
X-605028Y-16096694D01*
X-614268Y-16093388D01*
X-623140Y-16089192D01*
X-631557Y-16084147D01*
X-639439Y-16078301D01*
X-646711Y-16071711D01*
X-653301Y-16064439D01*
X-659147Y-16056557D01*
X-664192Y-16048140D01*
X-668388Y-16039268D01*
X-671694Y-16030028D01*
X-674079Y-16020509D01*
X-675518Y-16010802D01*
X-676000Y-16001000D01*
X-676000Y-14701000D01*
X-675518Y-14691198D01*
X-674079Y-14681491D01*
X-671694Y-14671972D01*
X-668388Y-14662732D01*
X-664192Y-14653860D01*
X-659147Y-14645443D01*
X-653301Y-14637561D01*
X-646711Y-14630289D01*
X-639439Y-14623699D01*
X-631557Y-14617853D01*
X-623140Y-14612808D01*
X-614268Y-14608612D01*
X-605028Y-14605306D01*
X-595509Y-14602921D01*
X-585802Y-14601482D01*
X-576000Y-14601000D01*
X-376000Y-14601000D01*
X-366198Y-14601482D01*
G37*
G36*
X-1166198Y-14601482D02*
G01*
X-1156491Y-14602921D01*
X-1146972Y-14605306D01*
X-1137732Y-14608612D01*
X-1128860Y-14612808D01*
X-1120443Y-14617853D01*
X-1112561Y-14623699D01*
X-1105289Y-14630289D01*
X-1098699Y-14637561D01*
X-1092853Y-14645443D01*
X-1087808Y-14653860D01*
X-1083612Y-14662732D01*
X-1080306Y-14671972D01*
X-1077921Y-14681491D01*
X-1076482Y-14691198D01*
X-1076000Y-14701000D01*
X-1076000Y-16001000D01*
X-1076482Y-16010802D01*
X-1077921Y-16020509D01*
X-1080306Y-16030028D01*
X-1083612Y-16039268D01*
X-1087808Y-16048140D01*
X-1092853Y-16056557D01*
X-1098699Y-16064439D01*
X-1105289Y-16071711D01*
X-1112561Y-16078301D01*
X-1120443Y-16084147D01*
X-1128860Y-16089192D01*
X-1137732Y-16093388D01*
X-1146972Y-16096694D01*
X-1156491Y-16099079D01*
X-1166198Y-16100518D01*
X-1176000Y-16101000D01*
X-1376000Y-16101000D01*
X-1385802Y-16100518D01*
X-1395509Y-16099079D01*
X-1405028Y-16096694D01*
X-1414268Y-16093388D01*
X-1423140Y-16089192D01*
X-1431557Y-16084147D01*
X-1439439Y-16078301D01*
X-1446711Y-16071711D01*
X-1453301Y-16064439D01*
X-1459147Y-16056557D01*
X-1464192Y-16048140D01*
X-1468388Y-16039268D01*
X-1471694Y-16030028D01*
X-1474079Y-16020509D01*
X-1475518Y-16010802D01*
X-1476000Y-16001000D01*
X-1476000Y-14701000D01*
X-1475518Y-14691198D01*
X-1474079Y-14681491D01*
X-1471694Y-14671972D01*
X-1468388Y-14662732D01*
X-1464192Y-14653860D01*
X-1459147Y-14645443D01*
X-1453301Y-14637561D01*
X-1446711Y-14630289D01*
X-1439439Y-14623699D01*
X-1431557Y-14617853D01*
X-1423140Y-14612808D01*
X-1414268Y-14608612D01*
X-1405028Y-14605306D01*
X-1395509Y-14602921D01*
X-1385802Y-14601482D01*
X-1376000Y-14601000D01*
X-1176000Y-14601000D01*
X-1166198Y-14601482D01*
G37*
G36*
X-1991198Y-13776482D02*
G01*
X-1981491Y-13777921D01*
X-1971972Y-13780306D01*
X-1962732Y-13783612D01*
X-1953860Y-13787808D01*
X-1945443Y-13792853D01*
X-1937561Y-13798699D01*
X-1930289Y-13805289D01*
X-1923699Y-13812561D01*
X-1917853Y-13820443D01*
X-1912808Y-13828860D01*
X-1908612Y-13837732D01*
X-1905306Y-13846972D01*
X-1902921Y-13856491D01*
X-1901482Y-13866198D01*
X-1901000Y-13876000D01*
X-1901000Y-14076000D01*
X-1901482Y-14085802D01*
X-1902921Y-14095509D01*
X-1905306Y-14105028D01*
X-1908612Y-14114268D01*
X-1912808Y-14123140D01*
X-1917853Y-14131557D01*
X-1923699Y-14139439D01*
X-1930289Y-14146711D01*
X-1937561Y-14153301D01*
X-1945443Y-14159147D01*
X-1953860Y-14164192D01*
X-1962732Y-14168388D01*
X-1971972Y-14171694D01*
X-1981491Y-14174079D01*
X-1991198Y-14175518D01*
X-2001000Y-14176000D01*
X-3301000Y-14176000D01*
X-3310802Y-14175518D01*
X-3320509Y-14174079D01*
X-3330028Y-14171694D01*
X-3339268Y-14168388D01*
X-3348140Y-14164192D01*
X-3356557Y-14159147D01*
X-3364439Y-14153301D01*
X-3371711Y-14146711D01*
X-3378301Y-14139439D01*
X-3384147Y-14131557D01*
X-3389192Y-14123140D01*
X-3393388Y-14114268D01*
X-3396694Y-14105028D01*
X-3399079Y-14095509D01*
X-3400518Y-14085802D01*
X-3401000Y-14076000D01*
X-3401000Y-13876000D01*
X-3400518Y-13866198D01*
X-3399079Y-13856491D01*
X-3396694Y-13846972D01*
X-3393388Y-13837732D01*
X-3389192Y-13828860D01*
X-3384147Y-13820443D01*
X-3378301Y-13812561D01*
X-3371711Y-13805289D01*
X-3364439Y-13798699D01*
X-3356557Y-13792853D01*
X-3348140Y-13787808D01*
X-3339268Y-13783612D01*
X-3330028Y-13780306D01*
X-3320509Y-13777921D01*
X-3310802Y-13776482D01*
X-3301000Y-13776000D01*
X-2001000Y-13776000D01*
X-1991198Y-13776482D01*
G37*
G36*
X-1991198Y-12976482D02*
G01*
X-1981491Y-12977921D01*
X-1971972Y-12980306D01*
X-1962732Y-12983612D01*
X-1953860Y-12987808D01*
X-1945443Y-12992853D01*
X-1937561Y-12998699D01*
X-1930289Y-13005289D01*
X-1923699Y-13012561D01*
X-1917853Y-13020443D01*
X-1912808Y-13028860D01*
X-1908612Y-13037732D01*
X-1905306Y-13046972D01*
X-1902921Y-13056491D01*
X-1901482Y-13066198D01*
X-1901000Y-13076000D01*
X-1901000Y-13276000D01*
X-1901482Y-13285802D01*
X-1902921Y-13295509D01*
X-1905306Y-13305028D01*
X-1908612Y-13314268D01*
X-1912808Y-13323140D01*
X-1917853Y-13331557D01*
X-1923699Y-13339439D01*
X-1930289Y-13346711D01*
X-1937561Y-13353301D01*
X-1945443Y-13359147D01*
X-1953860Y-13364192D01*
X-1962732Y-13368388D01*
X-1971972Y-13371694D01*
X-1981491Y-13374079D01*
X-1991198Y-13375518D01*
X-2001000Y-13376000D01*
X-3301000Y-13376000D01*
X-3310802Y-13375518D01*
X-3320509Y-13374079D01*
X-3330028Y-13371694D01*
X-3339268Y-13368388D01*
X-3348140Y-13364192D01*
X-3356557Y-13359147D01*
X-3364439Y-13353301D01*
X-3371711Y-13346711D01*
X-3378301Y-13339439D01*
X-3384147Y-13331557D01*
X-3389192Y-13323140D01*
X-3393388Y-13314268D01*
X-3396694Y-13305028D01*
X-3399079Y-13295509D01*
X-3400518Y-13285802D01*
X-3401000Y-13276000D01*
X-3401000Y-13076000D01*
X-3400518Y-13066198D01*
X-3399079Y-13056491D01*
X-3396694Y-13046972D01*
X-3393388Y-13037732D01*
X-3389192Y-13028860D01*
X-3384147Y-13020443D01*
X-3378301Y-13012561D01*
X-3371711Y-13005289D01*
X-3364439Y-12998699D01*
X-3356557Y-12992853D01*
X-3348140Y-12987808D01*
X-3339268Y-12983612D01*
X-3330028Y-12980306D01*
X-3320509Y-12977921D01*
X-3310802Y-12976482D01*
X-3301000Y-12976000D01*
X-2001000Y-12976000D01*
X-1991198Y-12976482D01*
G37*
G36*
X-1991198Y-12176482D02*
G01*
X-1981491Y-12177921D01*
X-1971972Y-12180306D01*
X-1962732Y-12183612D01*
X-1953860Y-12187808D01*
X-1945443Y-12192853D01*
X-1937561Y-12198699D01*
X-1930289Y-12205289D01*
X-1923699Y-12212561D01*
X-1917853Y-12220443D01*
X-1912808Y-12228860D01*
X-1908612Y-12237732D01*
X-1905306Y-12246972D01*
X-1902921Y-12256491D01*
X-1901482Y-12266198D01*
X-1901000Y-12276000D01*
X-1901000Y-12476000D01*
X-1901482Y-12485802D01*
X-1902921Y-12495509D01*
X-1905306Y-12505028D01*
X-1908612Y-12514268D01*
X-1912808Y-12523140D01*
X-1917853Y-12531557D01*
X-1923699Y-12539439D01*
X-1930289Y-12546711D01*
X-1937561Y-12553301D01*
X-1945443Y-12559147D01*
X-1953860Y-12564192D01*
X-1962732Y-12568388D01*
X-1971972Y-12571694D01*
X-1981491Y-12574079D01*
X-1991198Y-12575518D01*
X-2001000Y-12576000D01*
X-3301000Y-12576000D01*
X-3310802Y-12575518D01*
X-3320509Y-12574079D01*
X-3330028Y-12571694D01*
X-3339268Y-12568388D01*
X-3348140Y-12564192D01*
X-3356557Y-12559147D01*
X-3364439Y-12553301D01*
X-3371711Y-12546711D01*
X-3378301Y-12539439D01*
X-3384147Y-12531557D01*
X-3389192Y-12523140D01*
X-3393388Y-12514268D01*
X-3396694Y-12505028D01*
X-3399079Y-12495509D01*
X-3400518Y-12485802D01*
X-3401000Y-12476000D01*
X-3401000Y-12276000D01*
X-3400518Y-12266198D01*
X-3399079Y-12256491D01*
X-3396694Y-12246972D01*
X-3393388Y-12237732D01*
X-3389192Y-12228860D01*
X-3384147Y-12220443D01*
X-3378301Y-12212561D01*
X-3371711Y-12205289D01*
X-3364439Y-12198699D01*
X-3356557Y-12192853D01*
X-3348140Y-12187808D01*
X-3339268Y-12183612D01*
X-3330028Y-12180306D01*
X-3320509Y-12177921D01*
X-3310802Y-12176482D01*
X-3301000Y-12176000D01*
X-2001000Y-12176000D01*
X-1991198Y-12176482D01*
G37*
G36*
X-1991198Y-11376482D02*
G01*
X-1981491Y-11377921D01*
X-1971972Y-11380306D01*
X-1962732Y-11383612D01*
X-1953860Y-11387808D01*
X-1945443Y-11392853D01*
X-1937561Y-11398699D01*
X-1930289Y-11405289D01*
X-1923699Y-11412561D01*
X-1917853Y-11420443D01*
X-1912808Y-11428860D01*
X-1908612Y-11437732D01*
X-1905306Y-11446972D01*
X-1902921Y-11456491D01*
X-1901482Y-11466198D01*
X-1901000Y-11476000D01*
X-1901000Y-11676000D01*
X-1901482Y-11685802D01*
X-1902921Y-11695509D01*
X-1905306Y-11705028D01*
X-1908612Y-11714268D01*
X-1912808Y-11723140D01*
X-1917853Y-11731557D01*
X-1923699Y-11739439D01*
X-1930289Y-11746711D01*
X-1937561Y-11753301D01*
X-1945443Y-11759147D01*
X-1953860Y-11764192D01*
X-1962732Y-11768388D01*
X-1971972Y-11771694D01*
X-1981491Y-11774079D01*
X-1991198Y-11775518D01*
X-2001000Y-11776000D01*
X-3301000Y-11776000D01*
X-3310802Y-11775518D01*
X-3320509Y-11774079D01*
X-3330028Y-11771694D01*
X-3339268Y-11768388D01*
X-3348140Y-11764192D01*
X-3356557Y-11759147D01*
X-3364439Y-11753301D01*
X-3371711Y-11746711D01*
X-3378301Y-11739439D01*
X-3384147Y-11731557D01*
X-3389192Y-11723140D01*
X-3393388Y-11714268D01*
X-3396694Y-11705028D01*
X-3399079Y-11695509D01*
X-3400518Y-11685802D01*
X-3401000Y-11676000D01*
X-3401000Y-11476000D01*
X-3400518Y-11466198D01*
X-3399079Y-11456491D01*
X-3396694Y-11446972D01*
X-3393388Y-11437732D01*
X-3389192Y-11428860D01*
X-3384147Y-11420443D01*
X-3378301Y-11412561D01*
X-3371711Y-11405289D01*
X-3364439Y-11398699D01*
X-3356557Y-11392853D01*
X-3348140Y-11387808D01*
X-3339268Y-11383612D01*
X-3330028Y-11380306D01*
X-3320509Y-11377921D01*
X-3310802Y-11376482D01*
X-3301000Y-11376000D01*
X-2001000Y-11376000D01*
X-1991198Y-11376482D01*
G37*
G36*
X-1991198Y-10576482D02*
G01*
X-1981491Y-10577921D01*
X-1971972Y-10580306D01*
X-1962732Y-10583612D01*
X-1953860Y-10587808D01*
X-1945443Y-10592853D01*
X-1937561Y-10598699D01*
X-1930289Y-10605289D01*
X-1923699Y-10612561D01*
X-1917853Y-10620443D01*
X-1912808Y-10628860D01*
X-1908612Y-10637732D01*
X-1905306Y-10646972D01*
X-1902921Y-10656491D01*
X-1901482Y-10666198D01*
X-1901000Y-10676000D01*
X-1901000Y-10876000D01*
X-1901482Y-10885802D01*
X-1902921Y-10895509D01*
X-1905306Y-10905028D01*
X-1908612Y-10914268D01*
X-1912808Y-10923140D01*
X-1917853Y-10931557D01*
X-1923699Y-10939439D01*
X-1930289Y-10946711D01*
X-1937561Y-10953301D01*
X-1945443Y-10959147D01*
X-1953860Y-10964192D01*
X-1962732Y-10968388D01*
X-1971972Y-10971694D01*
X-1981491Y-10974079D01*
X-1991198Y-10975518D01*
X-2001000Y-10976000D01*
X-3301000Y-10976000D01*
X-3310802Y-10975518D01*
X-3320509Y-10974079D01*
X-3330028Y-10971694D01*
X-3339268Y-10968388D01*
X-3348140Y-10964192D01*
X-3356557Y-10959147D01*
X-3364439Y-10953301D01*
X-3371711Y-10946711D01*
X-3378301Y-10939439D01*
X-3384147Y-10931557D01*
X-3389192Y-10923140D01*
X-3393388Y-10914268D01*
X-3396694Y-10905028D01*
X-3399079Y-10895509D01*
X-3400518Y-10885802D01*
X-3401000Y-10876000D01*
X-3401000Y-10676000D01*
X-3400518Y-10666198D01*
X-3399079Y-10656491D01*
X-3396694Y-10646972D01*
X-3393388Y-10637732D01*
X-3389192Y-10628860D01*
X-3384147Y-10620443D01*
X-3378301Y-10612561D01*
X-3371711Y-10605289D01*
X-3364439Y-10598699D01*
X-3356557Y-10592853D01*
X-3348140Y-10587808D01*
X-3339268Y-10583612D01*
X-3330028Y-10580306D01*
X-3320509Y-10577921D01*
X-3310802Y-10576482D01*
X-3301000Y-10576000D01*
X-2001000Y-10576000D01*
X-1991198Y-10576482D01*
G37*
G36*
X-1991198Y-9776482D02*
G01*
X-1981491Y-9777921D01*
X-1971972Y-9780306D01*
X-1962732Y-9783612D01*
X-1953860Y-9787808D01*
X-1945443Y-9792853D01*
X-1937561Y-9798699D01*
X-1930289Y-9805289D01*
X-1923699Y-9812561D01*
X-1917853Y-9820443D01*
X-1912808Y-9828860D01*
X-1908612Y-9837732D01*
X-1905306Y-9846972D01*
X-1902921Y-9856491D01*
X-1901482Y-9866198D01*
X-1901000Y-9876000D01*
X-1901000Y-10076000D01*
X-1901482Y-10085802D01*
X-1902921Y-10095509D01*
X-1905306Y-10105028D01*
X-1908612Y-10114268D01*
X-1912808Y-10123140D01*
X-1917853Y-10131557D01*
X-1923699Y-10139439D01*
X-1930289Y-10146711D01*
X-1937561Y-10153301D01*
X-1945443Y-10159147D01*
X-1953860Y-10164192D01*
X-1962732Y-10168388D01*
X-1971972Y-10171694D01*
X-1981491Y-10174079D01*
X-1991198Y-10175518D01*
X-2001000Y-10176000D01*
X-3301000Y-10176000D01*
X-3310802Y-10175518D01*
X-3320509Y-10174079D01*
X-3330028Y-10171694D01*
X-3339268Y-10168388D01*
X-3348140Y-10164192D01*
X-3356557Y-10159147D01*
X-3364439Y-10153301D01*
X-3371711Y-10146711D01*
X-3378301Y-10139439D01*
X-3384147Y-10131557D01*
X-3389192Y-10123140D01*
X-3393388Y-10114268D01*
X-3396694Y-10105028D01*
X-3399079Y-10095509D01*
X-3400518Y-10085802D01*
X-3401000Y-10076000D01*
X-3401000Y-9876000D01*
X-3400518Y-9866198D01*
X-3399079Y-9856491D01*
X-3396694Y-9846972D01*
X-3393388Y-9837732D01*
X-3389192Y-9828860D01*
X-3384147Y-9820443D01*
X-3378301Y-9812561D01*
X-3371711Y-9805289D01*
X-3364439Y-9798699D01*
X-3356557Y-9792853D01*
X-3348140Y-9787808D01*
X-3339268Y-9783612D01*
X-3330028Y-9780306D01*
X-3320509Y-9777921D01*
X-3310802Y-9776482D01*
X-3301000Y-9776000D01*
X-2001000Y-9776000D01*
X-1991198Y-9776482D01*
G37*
G36*
X-1991198Y-8976482D02*
G01*
X-1981491Y-8977921D01*
X-1971972Y-8980306D01*
X-1962732Y-8983612D01*
X-1953860Y-8987808D01*
X-1945443Y-8992853D01*
X-1937561Y-8998699D01*
X-1930289Y-9005289D01*
X-1923699Y-9012561D01*
X-1917853Y-9020443D01*
X-1912808Y-9028860D01*
X-1908612Y-9037732D01*
X-1905306Y-9046972D01*
X-1902921Y-9056491D01*
X-1901482Y-9066198D01*
X-1901000Y-9076000D01*
X-1901000Y-9276000D01*
X-1901482Y-9285802D01*
X-1902921Y-9295509D01*
X-1905306Y-9305028D01*
X-1908612Y-9314268D01*
X-1912808Y-9323140D01*
X-1917853Y-9331557D01*
X-1923699Y-9339439D01*
X-1930289Y-9346711D01*
X-1937561Y-9353301D01*
X-1945443Y-9359147D01*
X-1953860Y-9364192D01*
X-1962732Y-9368388D01*
X-1971972Y-9371694D01*
X-1981491Y-9374079D01*
X-1991198Y-9375518D01*
X-2001000Y-9376000D01*
X-3301000Y-9376000D01*
X-3310802Y-9375518D01*
X-3320509Y-9374079D01*
X-3330028Y-9371694D01*
X-3339268Y-9368388D01*
X-3348140Y-9364192D01*
X-3356557Y-9359147D01*
X-3364439Y-9353301D01*
X-3371711Y-9346711D01*
X-3378301Y-9339439D01*
X-3384147Y-9331557D01*
X-3389192Y-9323140D01*
X-3393388Y-9314268D01*
X-3396694Y-9305028D01*
X-3399079Y-9295509D01*
X-3400518Y-9285802D01*
X-3401000Y-9276000D01*
X-3401000Y-9076000D01*
X-3400518Y-9066198D01*
X-3399079Y-9056491D01*
X-3396694Y-9046972D01*
X-3393388Y-9037732D01*
X-3389192Y-9028860D01*
X-3384147Y-9020443D01*
X-3378301Y-9012561D01*
X-3371711Y-9005289D01*
X-3364439Y-8998699D01*
X-3356557Y-8992853D01*
X-3348140Y-8987808D01*
X-3339268Y-8983612D01*
X-3330028Y-8980306D01*
X-3320509Y-8977921D01*
X-3310802Y-8976482D01*
X-3301000Y-8976000D01*
X-2001000Y-8976000D01*
X-1991198Y-8976482D01*
G37*
G36*
X-1991198Y-8176482D02*
G01*
X-1981491Y-8177921D01*
X-1971972Y-8180306D01*
X-1962732Y-8183612D01*
X-1953860Y-8187808D01*
X-1945443Y-8192853D01*
X-1937561Y-8198699D01*
X-1930289Y-8205289D01*
X-1923699Y-8212561D01*
X-1917853Y-8220443D01*
X-1912808Y-8228860D01*
X-1908612Y-8237732D01*
X-1905306Y-8246972D01*
X-1902921Y-8256491D01*
X-1901482Y-8266198D01*
X-1901000Y-8276000D01*
X-1901000Y-8476000D01*
X-1901482Y-8485802D01*
X-1902921Y-8495509D01*
X-1905306Y-8505028D01*
X-1908612Y-8514268D01*
X-1912808Y-8523140D01*
X-1917853Y-8531557D01*
X-1923699Y-8539439D01*
X-1930289Y-8546711D01*
X-1937561Y-8553301D01*
X-1945443Y-8559147D01*
X-1953860Y-8564192D01*
X-1962732Y-8568388D01*
X-1971972Y-8571694D01*
X-1981491Y-8574079D01*
X-1991198Y-8575518D01*
X-2001000Y-8576000D01*
X-3301000Y-8576000D01*
X-3310802Y-8575518D01*
X-3320509Y-8574079D01*
X-3330028Y-8571694D01*
X-3339268Y-8568388D01*
X-3348140Y-8564192D01*
X-3356557Y-8559147D01*
X-3364439Y-8553301D01*
X-3371711Y-8546711D01*
X-3378301Y-8539439D01*
X-3384147Y-8531557D01*
X-3389192Y-8523140D01*
X-3393388Y-8514268D01*
X-3396694Y-8505028D01*
X-3399079Y-8495509D01*
X-3400518Y-8485802D01*
X-3401000Y-8476000D01*
X-3401000Y-8276000D01*
X-3400518Y-8266198D01*
X-3399079Y-8256491D01*
X-3396694Y-8246972D01*
X-3393388Y-8237732D01*
X-3389192Y-8228860D01*
X-3384147Y-8220443D01*
X-3378301Y-8212561D01*
X-3371711Y-8205289D01*
X-3364439Y-8198699D01*
X-3356557Y-8192853D01*
X-3348140Y-8187808D01*
X-3339268Y-8183612D01*
X-3330028Y-8180306D01*
X-3320509Y-8177921D01*
X-3310802Y-8176482D01*
X-3301000Y-8176000D01*
X-2001000Y-8176000D01*
X-1991198Y-8176482D01*
G37*
G36*
X-4339221Y-5626144D02*
G01*
X-4316166Y-5629563D01*
X-4293557Y-5635227D01*
X-4271613Y-5643079D01*
X-4250543Y-5653044D01*
X-4230552Y-5665026D01*
X-4211832Y-5678910D01*
X-4194562Y-5694562D01*
X-4178910Y-5711832D01*
X-4165026Y-5730552D01*
X-4153044Y-5750543D01*
X-4143079Y-5771613D01*
X-4135227Y-5793557D01*
X-4129563Y-5816166D01*
X-4126144Y-5839221D01*
X-4125000Y-5862500D01*
X-4125000Y-6337500D01*
X-4126144Y-6360779D01*
X-4129563Y-6383834D01*
X-4135227Y-6406443D01*
X-4143079Y-6428387D01*
X-4153044Y-6449457D01*
X-4165026Y-6469448D01*
X-4178910Y-6488168D01*
X-4194562Y-6505438D01*
X-4211832Y-6521090D01*
X-4230552Y-6534974D01*
X-4250543Y-6546956D01*
X-4271613Y-6556921D01*
X-4293557Y-6564773D01*
X-4316166Y-6570437D01*
X-4339221Y-6573856D01*
X-4362500Y-6575000D01*
X-4937500Y-6575000D01*
X-4960779Y-6573856D01*
X-4983834Y-6570437D01*
X-5006443Y-6564773D01*
X-5028387Y-6556921D01*
X-5049457Y-6546956D01*
X-5069448Y-6534974D01*
X-5088168Y-6521090D01*
X-5105438Y-6505438D01*
X-5121090Y-6488168D01*
X-5134974Y-6469448D01*
X-5146956Y-6449457D01*
X-5156921Y-6428387D01*
X-5164773Y-6406443D01*
X-5170437Y-6383834D01*
X-5173856Y-6360779D01*
X-5175000Y-6337500D01*
X-5175000Y-5862500D01*
X-5173856Y-5839221D01*
X-5170437Y-5816166D01*
X-5164773Y-5793557D01*
X-5156921Y-5771613D01*
X-5146956Y-5750543D01*
X-5134974Y-5730552D01*
X-5121090Y-5711832D01*
X-5105438Y-5694562D01*
X-5088168Y-5678910D01*
X-5069448Y-5665026D01*
X-5049457Y-5653044D01*
X-5028387Y-5643079D01*
X-5006443Y-5635227D01*
X-4983834Y-5629563D01*
X-4960779Y-5626144D01*
X-4937500Y-5625000D01*
X-4362500Y-5625000D01*
X-4339221Y-5626144D01*
G37*
G36*
X-2589221Y-5626144D02*
G01*
X-2566166Y-5629563D01*
X-2543557Y-5635227D01*
X-2521613Y-5643079D01*
X-2500543Y-5653044D01*
X-2480552Y-5665026D01*
X-2461832Y-5678910D01*
X-2444562Y-5694562D01*
X-2428910Y-5711832D01*
X-2415026Y-5730552D01*
X-2403044Y-5750543D01*
X-2393079Y-5771613D01*
X-2385227Y-5793557D01*
X-2379563Y-5816166D01*
X-2376144Y-5839221D01*
X-2375000Y-5862500D01*
X-2375000Y-6337500D01*
X-2376144Y-6360779D01*
X-2379563Y-6383834D01*
X-2385227Y-6406443D01*
X-2393079Y-6428387D01*
X-2403044Y-6449457D01*
X-2415026Y-6469448D01*
X-2428910Y-6488168D01*
X-2444562Y-6505438D01*
X-2461832Y-6521090D01*
X-2480552Y-6534974D01*
X-2500543Y-6546956D01*
X-2521613Y-6556921D01*
X-2543557Y-6564773D01*
X-2566166Y-6570437D01*
X-2589221Y-6573856D01*
X-2612500Y-6575000D01*
X-3187500Y-6575000D01*
X-3210779Y-6573856D01*
X-3233834Y-6570437D01*
X-3256443Y-6564773D01*
X-3278387Y-6556921D01*
X-3299457Y-6546956D01*
X-3319448Y-6534974D01*
X-3338168Y-6521090D01*
X-3355438Y-6505438D01*
X-3371090Y-6488168D01*
X-3384974Y-6469448D01*
X-3396956Y-6449457D01*
X-3406921Y-6428387D01*
X-3414773Y-6406443D01*
X-3420437Y-6383834D01*
X-3423856Y-6360779D01*
X-3425000Y-6337500D01*
X-3425000Y-5862500D01*
X-3423856Y-5839221D01*
X-3420437Y-5816166D01*
X-3414773Y-5793557D01*
X-3406921Y-5771613D01*
X-3396956Y-5750543D01*
X-3384974Y-5730552D01*
X-3371090Y-5711832D01*
X-3355438Y-5694562D01*
X-3338168Y-5678910D01*
X-3319448Y-5665026D01*
X-3299457Y-5653044D01*
X-3278387Y-5643079D01*
X-3256443Y-5635227D01*
X-3233834Y-5629563D01*
X-3210779Y-5626144D01*
X-3187500Y-5625000D01*
X-2612500Y-5625000D01*
X-2589221Y-5626144D01*
G37*
G36*
X-3114221Y-15226144D02*
G01*
X-3091166Y-15229563D01*
X-3068557Y-15235227D01*
X-3046613Y-15243079D01*
X-3025543Y-15253044D01*
X-3005552Y-15265026D01*
X-2986832Y-15278910D01*
X-2969562Y-15294562D01*
X-2953910Y-15311832D01*
X-2940026Y-15330552D01*
X-2928044Y-15350543D01*
X-2918079Y-15371613D01*
X-2910227Y-15393557D01*
X-2904563Y-15416166D01*
X-2901144Y-15439221D01*
X-2900000Y-15462500D01*
X-2900000Y-15937500D01*
X-2901144Y-15960779D01*
X-2904563Y-15983834D01*
X-2910227Y-16006443D01*
X-2918079Y-16028387D01*
X-2928044Y-16049457D01*
X-2940026Y-16069448D01*
X-2953910Y-16088168D01*
X-2969562Y-16105438D01*
X-2986832Y-16121090D01*
X-3005552Y-16134974D01*
X-3025543Y-16146956D01*
X-3046613Y-16156921D01*
X-3068557Y-16164773D01*
X-3091166Y-16170437D01*
X-3114221Y-16173856D01*
X-3137500Y-16175000D01*
X-3712500Y-16175000D01*
X-3735779Y-16173856D01*
X-3758834Y-16170437D01*
X-3781443Y-16164773D01*
X-3803387Y-16156921D01*
X-3824457Y-16146956D01*
X-3844448Y-16134974D01*
X-3863168Y-16121090D01*
X-3880438Y-16105438D01*
X-3896090Y-16088168D01*
X-3909974Y-16069448D01*
X-3921956Y-16049457D01*
X-3931921Y-16028387D01*
X-3939773Y-16006443D01*
X-3945437Y-15983834D01*
X-3948856Y-15960779D01*
X-3950000Y-15937500D01*
X-3950000Y-15462500D01*
X-3948856Y-15439221D01*
X-3945437Y-15416166D01*
X-3939773Y-15393557D01*
X-3931921Y-15371613D01*
X-3921956Y-15350543D01*
X-3909974Y-15330552D01*
X-3896090Y-15311832D01*
X-3880438Y-15294562D01*
X-3863168Y-15278910D01*
X-3844448Y-15265026D01*
X-3824457Y-15253044D01*
X-3803387Y-15243079D01*
X-3781443Y-15235227D01*
X-3758834Y-15229563D01*
X-3735779Y-15226144D01*
X-3712500Y-15225000D01*
X-3137500Y-15225000D01*
X-3114221Y-15226144D01*
G37*
G36*
X-4864221Y-15226144D02*
G01*
X-4841166Y-15229563D01*
X-4818557Y-15235227D01*
X-4796613Y-15243079D01*
X-4775543Y-15253044D01*
X-4755552Y-15265026D01*
X-4736832Y-15278910D01*
X-4719562Y-15294562D01*
X-4703910Y-15311832D01*
X-4690026Y-15330552D01*
X-4678044Y-15350543D01*
X-4668079Y-15371613D01*
X-4660227Y-15393557D01*
X-4654563Y-15416166D01*
X-4651144Y-15439221D01*
X-4650000Y-15462500D01*
X-4650000Y-15937500D01*
X-4651144Y-15960779D01*
X-4654563Y-15983834D01*
X-4660227Y-16006443D01*
X-4668079Y-16028387D01*
X-4678044Y-16049457D01*
X-4690026Y-16069448D01*
X-4703910Y-16088168D01*
X-4719562Y-16105438D01*
X-4736832Y-16121090D01*
X-4755552Y-16134974D01*
X-4775543Y-16146956D01*
X-4796613Y-16156921D01*
X-4818557Y-16164773D01*
X-4841166Y-16170437D01*
X-4864221Y-16173856D01*
X-4887500Y-16175000D01*
X-5462500Y-16175000D01*
X-5485779Y-16173856D01*
X-5508834Y-16170437D01*
X-5531443Y-16164773D01*
X-5553387Y-16156921D01*
X-5574457Y-16146956D01*
X-5594448Y-16134974D01*
X-5613168Y-16121090D01*
X-5630438Y-16105438D01*
X-5646090Y-16088168D01*
X-5659974Y-16069448D01*
X-5671956Y-16049457D01*
X-5681921Y-16028387D01*
X-5689773Y-16006443D01*
X-5695437Y-15983834D01*
X-5698856Y-15960779D01*
X-5700000Y-15937500D01*
X-5700000Y-15462500D01*
X-5698856Y-15439221D01*
X-5695437Y-15416166D01*
X-5689773Y-15393557D01*
X-5681921Y-15371613D01*
X-5671956Y-15350543D01*
X-5659974Y-15330552D01*
X-5646090Y-15311832D01*
X-5630438Y-15294562D01*
X-5613168Y-15278910D01*
X-5594448Y-15265026D01*
X-5574457Y-15253044D01*
X-5553387Y-15243079D01*
X-5531443Y-15235227D01*
X-5508834Y-15229563D01*
X-5485779Y-15226144D01*
X-5462500Y-15225000D01*
X-4887500Y-15225000D01*
X-4864221Y-15226144D01*
G37*
G36*
X-10589221Y-13326144D02*
G01*
X-10566166Y-13329563D01*
X-10543557Y-13335227D01*
X-10521613Y-13343079D01*
X-10500543Y-13353044D01*
X-10480552Y-13365026D01*
X-10461832Y-13378910D01*
X-10444562Y-13394562D01*
X-10428910Y-13411832D01*
X-10415026Y-13430552D01*
X-10403044Y-13450543D01*
X-10393079Y-13471613D01*
X-10385227Y-13493557D01*
X-10379563Y-13516166D01*
X-10376144Y-13539221D01*
X-10375000Y-13562500D01*
X-10375000Y-14037500D01*
X-10376144Y-14060779D01*
X-10379563Y-14083834D01*
X-10385227Y-14106443D01*
X-10393079Y-14128387D01*
X-10403044Y-14149457D01*
X-10415026Y-14169448D01*
X-10428910Y-14188168D01*
X-10444562Y-14205438D01*
X-10461832Y-14221090D01*
X-10480552Y-14234974D01*
X-10500543Y-14246956D01*
X-10521613Y-14256921D01*
X-10543557Y-14264773D01*
X-10566166Y-14270437D01*
X-10589221Y-14273856D01*
X-10612500Y-14275000D01*
X-11187500Y-14275000D01*
X-11210779Y-14273856D01*
X-11233834Y-14270437D01*
X-11256443Y-14264773D01*
X-11278387Y-14256921D01*
X-11299457Y-14246956D01*
X-11319448Y-14234974D01*
X-11338168Y-14221090D01*
X-11355438Y-14205438D01*
X-11371090Y-14188168D01*
X-11384974Y-14169448D01*
X-11396956Y-14149457D01*
X-11406921Y-14128387D01*
X-11414773Y-14106443D01*
X-11420437Y-14083834D01*
X-11423856Y-14060779D01*
X-11425000Y-14037500D01*
X-11425000Y-13562500D01*
X-11423856Y-13539221D01*
X-11420437Y-13516166D01*
X-11414773Y-13493557D01*
X-11406921Y-13471613D01*
X-11396956Y-13450543D01*
X-11384974Y-13430552D01*
X-11371090Y-13411832D01*
X-11355438Y-13394562D01*
X-11338168Y-13378910D01*
X-11319448Y-13365026D01*
X-11299457Y-13353044D01*
X-11278387Y-13343079D01*
X-11256443Y-13335227D01*
X-11233834Y-13329563D01*
X-11210779Y-13326144D01*
X-11187500Y-13325000D01*
X-10612500Y-13325000D01*
X-10589221Y-13326144D01*
G37*
G36*
X-12339221Y-13326144D02*
G01*
X-12316166Y-13329563D01*
X-12293557Y-13335227D01*
X-12271613Y-13343079D01*
X-12250543Y-13353044D01*
X-12230552Y-13365026D01*
X-12211832Y-13378910D01*
X-12194562Y-13394562D01*
X-12178910Y-13411832D01*
X-12165026Y-13430552D01*
X-12153044Y-13450543D01*
X-12143079Y-13471613D01*
X-12135227Y-13493557D01*
X-12129563Y-13516166D01*
X-12126144Y-13539221D01*
X-12125000Y-13562500D01*
X-12125000Y-14037500D01*
X-12126144Y-14060779D01*
X-12129563Y-14083834D01*
X-12135227Y-14106443D01*
X-12143079Y-14128387D01*
X-12153044Y-14149457D01*
X-12165026Y-14169448D01*
X-12178910Y-14188168D01*
X-12194562Y-14205438D01*
X-12211832Y-14221090D01*
X-12230552Y-14234974D01*
X-12250543Y-14246956D01*
X-12271613Y-14256921D01*
X-12293557Y-14264773D01*
X-12316166Y-14270437D01*
X-12339221Y-14273856D01*
X-12362500Y-14275000D01*
X-12937500Y-14275000D01*
X-12960779Y-14273856D01*
X-12983834Y-14270437D01*
X-13006443Y-14264773D01*
X-13028387Y-14256921D01*
X-13049457Y-14246956D01*
X-13069448Y-14234974D01*
X-13088168Y-14221090D01*
X-13105438Y-14205438D01*
X-13121090Y-14188168D01*
X-13134974Y-14169448D01*
X-13146956Y-14149457D01*
X-13156921Y-14128387D01*
X-13164773Y-14106443D01*
X-13170437Y-14083834D01*
X-13173856Y-14060779D01*
X-13175000Y-14037500D01*
X-13175000Y-13562500D01*
X-13173856Y-13539221D01*
X-13170437Y-13516166D01*
X-13164773Y-13493557D01*
X-13156921Y-13471613D01*
X-13146956Y-13450543D01*
X-13134974Y-13430552D01*
X-13121090Y-13411832D01*
X-13105438Y-13394562D01*
X-13088168Y-13378910D01*
X-13069448Y-13365026D01*
X-13049457Y-13353044D01*
X-13028387Y-13343079D01*
X-13006443Y-13335227D01*
X-12983834Y-13329563D01*
X-12960779Y-13326144D01*
X-12937500Y-13325000D01*
X-12362500Y-13325000D01*
X-12339221Y-13326144D01*
G37*
G36*
X-8589221Y-15226144D02*
G01*
X-8566166Y-15229563D01*
X-8543557Y-15235227D01*
X-8521613Y-15243079D01*
X-8500543Y-15253044D01*
X-8480552Y-15265026D01*
X-8461832Y-15278910D01*
X-8444562Y-15294562D01*
X-8428910Y-15311832D01*
X-8415026Y-15330552D01*
X-8403044Y-15350543D01*
X-8393079Y-15371613D01*
X-8385227Y-15393557D01*
X-8379563Y-15416166D01*
X-8376144Y-15439221D01*
X-8375000Y-15462500D01*
X-8375000Y-15937500D01*
X-8376144Y-15960779D01*
X-8379563Y-15983834D01*
X-8385227Y-16006443D01*
X-8393079Y-16028387D01*
X-8403044Y-16049457D01*
X-8415026Y-16069448D01*
X-8428910Y-16088168D01*
X-8444562Y-16105438D01*
X-8461832Y-16121090D01*
X-8480552Y-16134974D01*
X-8500543Y-16146956D01*
X-8521613Y-16156921D01*
X-8543557Y-16164773D01*
X-8566166Y-16170437D01*
X-8589221Y-16173856D01*
X-8612500Y-16175000D01*
X-9187500Y-16175000D01*
X-9210779Y-16173856D01*
X-9233834Y-16170437D01*
X-9256443Y-16164773D01*
X-9278387Y-16156921D01*
X-9299457Y-16146956D01*
X-9319448Y-16134974D01*
X-9338168Y-16121090D01*
X-9355438Y-16105438D01*
X-9371090Y-16088168D01*
X-9384974Y-16069448D01*
X-9396956Y-16049457D01*
X-9406921Y-16028387D01*
X-9414773Y-16006443D01*
X-9420437Y-15983834D01*
X-9423856Y-15960779D01*
X-9425000Y-15937500D01*
X-9425000Y-15462500D01*
X-9423856Y-15439221D01*
X-9420437Y-15416166D01*
X-9414773Y-15393557D01*
X-9406921Y-15371613D01*
X-9396956Y-15350543D01*
X-9384974Y-15330552D01*
X-9371090Y-15311832D01*
X-9355438Y-15294562D01*
X-9338168Y-15278910D01*
X-9319448Y-15265026D01*
X-9299457Y-15253044D01*
X-9278387Y-15243079D01*
X-9256443Y-15235227D01*
X-9233834Y-15229563D01*
X-9210779Y-15226144D01*
X-9187500Y-15225000D01*
X-8612500Y-15225000D01*
X-8589221Y-15226144D01*
G37*
G36*
X-6839221Y-15226144D02*
G01*
X-6816166Y-15229563D01*
X-6793557Y-15235227D01*
X-6771613Y-15243079D01*
X-6750543Y-15253044D01*
X-6730552Y-15265026D01*
X-6711832Y-15278910D01*
X-6694562Y-15294562D01*
X-6678910Y-15311832D01*
X-6665026Y-15330552D01*
X-6653044Y-15350543D01*
X-6643079Y-15371613D01*
X-6635227Y-15393557D01*
X-6629563Y-15416166D01*
X-6626144Y-15439221D01*
X-6625000Y-15462500D01*
X-6625000Y-15937500D01*
X-6626144Y-15960779D01*
X-6629563Y-15983834D01*
X-6635227Y-16006443D01*
X-6643079Y-16028387D01*
X-6653044Y-16049457D01*
X-6665026Y-16069448D01*
X-6678910Y-16088168D01*
X-6694562Y-16105438D01*
X-6711832Y-16121090D01*
X-6730552Y-16134974D01*
X-6750543Y-16146956D01*
X-6771613Y-16156921D01*
X-6793557Y-16164773D01*
X-6816166Y-16170437D01*
X-6839221Y-16173856D01*
X-6862500Y-16175000D01*
X-7437500Y-16175000D01*
X-7460779Y-16173856D01*
X-7483834Y-16170437D01*
X-7506443Y-16164773D01*
X-7528387Y-16156921D01*
X-7549457Y-16146956D01*
X-7569448Y-16134974D01*
X-7588168Y-16121090D01*
X-7605438Y-16105438D01*
X-7621090Y-16088168D01*
X-7634974Y-16069448D01*
X-7646956Y-16049457D01*
X-7656921Y-16028387D01*
X-7664773Y-16006443D01*
X-7670437Y-15983834D01*
X-7673856Y-15960779D01*
X-7675000Y-15937500D01*
X-7675000Y-15462500D01*
X-7673856Y-15439221D01*
X-7670437Y-15416166D01*
X-7664773Y-15393557D01*
X-7656921Y-15371613D01*
X-7646956Y-15350543D01*
X-7634974Y-15330552D01*
X-7621090Y-15311832D01*
X-7605438Y-15294562D01*
X-7588168Y-15278910D01*
X-7569448Y-15265026D01*
X-7549457Y-15253044D01*
X-7528387Y-15243079D01*
X-7506443Y-15235227D01*
X-7483834Y-15229563D01*
X-7460779Y-15226144D01*
X-7437500Y-15225000D01*
X-6862500Y-15225000D01*
X-6839221Y-15226144D01*
G37*
G36*
X-6839221Y-13326144D02*
G01*
X-6816166Y-13329563D01*
X-6793557Y-13335227D01*
X-6771613Y-13343079D01*
X-6750543Y-13353044D01*
X-6730552Y-13365026D01*
X-6711832Y-13378910D01*
X-6694562Y-13394562D01*
X-6678910Y-13411832D01*
X-6665026Y-13430552D01*
X-6653044Y-13450543D01*
X-6643079Y-13471613D01*
X-6635227Y-13493557D01*
X-6629563Y-13516166D01*
X-6626144Y-13539221D01*
X-6625000Y-13562500D01*
X-6625000Y-14037500D01*
X-6626144Y-14060779D01*
X-6629563Y-14083834D01*
X-6635227Y-14106443D01*
X-6643079Y-14128387D01*
X-6653044Y-14149457D01*
X-6665026Y-14169448D01*
X-6678910Y-14188168D01*
X-6694562Y-14205438D01*
X-6711832Y-14221090D01*
X-6730552Y-14234974D01*
X-6750543Y-14246956D01*
X-6771613Y-14256921D01*
X-6793557Y-14264773D01*
X-6816166Y-14270437D01*
X-6839221Y-14273856D01*
X-6862500Y-14275000D01*
X-7437500Y-14275000D01*
X-7460779Y-14273856D01*
X-7483834Y-14270437D01*
X-7506443Y-14264773D01*
X-7528387Y-14256921D01*
X-7549457Y-14246956D01*
X-7569448Y-14234974D01*
X-7588168Y-14221090D01*
X-7605438Y-14205438D01*
X-7621090Y-14188168D01*
X-7634974Y-14169448D01*
X-7646956Y-14149457D01*
X-7656921Y-14128387D01*
X-7664773Y-14106443D01*
X-7670437Y-14083834D01*
X-7673856Y-14060779D01*
X-7675000Y-14037500D01*
X-7675000Y-13562500D01*
X-7673856Y-13539221D01*
X-7670437Y-13516166D01*
X-7664773Y-13493557D01*
X-7656921Y-13471613D01*
X-7646956Y-13450543D01*
X-7634974Y-13430552D01*
X-7621090Y-13411832D01*
X-7605438Y-13394562D01*
X-7588168Y-13378910D01*
X-7569448Y-13365026D01*
X-7549457Y-13353044D01*
X-7528387Y-13343079D01*
X-7506443Y-13335227D01*
X-7483834Y-13329563D01*
X-7460779Y-13326144D01*
X-7437500Y-13325000D01*
X-6862500Y-13325000D01*
X-6839221Y-13326144D01*
G37*
G36*
X-8589221Y-13326144D02*
G01*
X-8566166Y-13329563D01*
X-8543557Y-13335227D01*
X-8521613Y-13343079D01*
X-8500543Y-13353044D01*
X-8480552Y-13365026D01*
X-8461832Y-13378910D01*
X-8444562Y-13394562D01*
X-8428910Y-13411832D01*
X-8415026Y-13430552D01*
X-8403044Y-13450543D01*
X-8393079Y-13471613D01*
X-8385227Y-13493557D01*
X-8379563Y-13516166D01*
X-8376144Y-13539221D01*
X-8375000Y-13562500D01*
X-8375000Y-14037500D01*
X-8376144Y-14060779D01*
X-8379563Y-14083834D01*
X-8385227Y-14106443D01*
X-8393079Y-14128387D01*
X-8403044Y-14149457D01*
X-8415026Y-14169448D01*
X-8428910Y-14188168D01*
X-8444562Y-14205438D01*
X-8461832Y-14221090D01*
X-8480552Y-14234974D01*
X-8500543Y-14246956D01*
X-8521613Y-14256921D01*
X-8543557Y-14264773D01*
X-8566166Y-14270437D01*
X-8589221Y-14273856D01*
X-8612500Y-14275000D01*
X-9187500Y-14275000D01*
X-9210779Y-14273856D01*
X-9233834Y-14270437D01*
X-9256443Y-14264773D01*
X-9278387Y-14256921D01*
X-9299457Y-14246956D01*
X-9319448Y-14234974D01*
X-9338168Y-14221090D01*
X-9355438Y-14205438D01*
X-9371090Y-14188168D01*
X-9384974Y-14169448D01*
X-9396956Y-14149457D01*
X-9406921Y-14128387D01*
X-9414773Y-14106443D01*
X-9420437Y-14083834D01*
X-9423856Y-14060779D01*
X-9425000Y-14037500D01*
X-9425000Y-13562500D01*
X-9423856Y-13539221D01*
X-9420437Y-13516166D01*
X-9414773Y-13493557D01*
X-9406921Y-13471613D01*
X-9396956Y-13450543D01*
X-9384974Y-13430552D01*
X-9371090Y-13411832D01*
X-9355438Y-13394562D01*
X-9338168Y-13378910D01*
X-9319448Y-13365026D01*
X-9299457Y-13353044D01*
X-9278387Y-13343079D01*
X-9256443Y-13335227D01*
X-9233834Y-13329563D01*
X-9210779Y-13326144D01*
X-9187500Y-13325000D01*
X-8612500Y-13325000D01*
X-8589221Y-13326144D01*
G37*
G36*
X-12339221Y-15226144D02*
G01*
X-12316166Y-15229563D01*
X-12293557Y-15235227D01*
X-12271613Y-15243079D01*
X-12250543Y-15253044D01*
X-12230552Y-15265026D01*
X-12211832Y-15278910D01*
X-12194562Y-15294562D01*
X-12178910Y-15311832D01*
X-12165026Y-15330552D01*
X-12153044Y-15350543D01*
X-12143079Y-15371613D01*
X-12135227Y-15393557D01*
X-12129563Y-15416166D01*
X-12126144Y-15439221D01*
X-12125000Y-15462500D01*
X-12125000Y-15937500D01*
X-12126144Y-15960779D01*
X-12129563Y-15983834D01*
X-12135227Y-16006443D01*
X-12143079Y-16028387D01*
X-12153044Y-16049457D01*
X-12165026Y-16069448D01*
X-12178910Y-16088168D01*
X-12194562Y-16105438D01*
X-12211832Y-16121090D01*
X-12230552Y-16134974D01*
X-12250543Y-16146956D01*
X-12271613Y-16156921D01*
X-12293557Y-16164773D01*
X-12316166Y-16170437D01*
X-12339221Y-16173856D01*
X-12362500Y-16175000D01*
X-12937500Y-16175000D01*
X-12960779Y-16173856D01*
X-12983834Y-16170437D01*
X-13006443Y-16164773D01*
X-13028387Y-16156921D01*
X-13049457Y-16146956D01*
X-13069448Y-16134974D01*
X-13088168Y-16121090D01*
X-13105438Y-16105438D01*
X-13121090Y-16088168D01*
X-13134974Y-16069448D01*
X-13146956Y-16049457D01*
X-13156921Y-16028387D01*
X-13164773Y-16006443D01*
X-13170437Y-15983834D01*
X-13173856Y-15960779D01*
X-13175000Y-15937500D01*
X-13175000Y-15462500D01*
X-13173856Y-15439221D01*
X-13170437Y-15416166D01*
X-13164773Y-15393557D01*
X-13156921Y-15371613D01*
X-13146956Y-15350543D01*
X-13134974Y-15330552D01*
X-13121090Y-15311832D01*
X-13105438Y-15294562D01*
X-13088168Y-15278910D01*
X-13069448Y-15265026D01*
X-13049457Y-15253044D01*
X-13028387Y-15243079D01*
X-13006443Y-15235227D01*
X-12983834Y-15229563D01*
X-12960779Y-15226144D01*
X-12937500Y-15225000D01*
X-12362500Y-15225000D01*
X-12339221Y-15226144D01*
G37*
G36*
X-10589221Y-15226144D02*
G01*
X-10566166Y-15229563D01*
X-10543557Y-15235227D01*
X-10521613Y-15243079D01*
X-10500543Y-15253044D01*
X-10480552Y-15265026D01*
X-10461832Y-15278910D01*
X-10444562Y-15294562D01*
X-10428910Y-15311832D01*
X-10415026Y-15330552D01*
X-10403044Y-15350543D01*
X-10393079Y-15371613D01*
X-10385227Y-15393557D01*
X-10379563Y-15416166D01*
X-10376144Y-15439221D01*
X-10375000Y-15462500D01*
X-10375000Y-15937500D01*
X-10376144Y-15960779D01*
X-10379563Y-15983834D01*
X-10385227Y-16006443D01*
X-10393079Y-16028387D01*
X-10403044Y-16049457D01*
X-10415026Y-16069448D01*
X-10428910Y-16088168D01*
X-10444562Y-16105438D01*
X-10461832Y-16121090D01*
X-10480552Y-16134974D01*
X-10500543Y-16146956D01*
X-10521613Y-16156921D01*
X-10543557Y-16164773D01*
X-10566166Y-16170437D01*
X-10589221Y-16173856D01*
X-10612500Y-16175000D01*
X-11187500Y-16175000D01*
X-11210779Y-16173856D01*
X-11233834Y-16170437D01*
X-11256443Y-16164773D01*
X-11278387Y-16156921D01*
X-11299457Y-16146956D01*
X-11319448Y-16134974D01*
X-11338168Y-16121090D01*
X-11355438Y-16105438D01*
X-11371090Y-16088168D01*
X-11384974Y-16069448D01*
X-11396956Y-16049457D01*
X-11406921Y-16028387D01*
X-11414773Y-16006443D01*
X-11420437Y-15983834D01*
X-11423856Y-15960779D01*
X-11425000Y-15937500D01*
X-11425000Y-15462500D01*
X-11423856Y-15439221D01*
X-11420437Y-15416166D01*
X-11414773Y-15393557D01*
X-11406921Y-15371613D01*
X-11396956Y-15350543D01*
X-11384974Y-15330552D01*
X-11371090Y-15311832D01*
X-11355438Y-15294562D01*
X-11338168Y-15278910D01*
X-11319448Y-15265026D01*
X-11299457Y-15253044D01*
X-11278387Y-15243079D01*
X-11256443Y-15235227D01*
X-11233834Y-15229563D01*
X-11210779Y-15226144D01*
X-11187500Y-15225000D01*
X-10612500Y-15225000D01*
X-10589221Y-15226144D01*
G37*
D12*
X-4804000Y-29722000D03*
X-3604000Y-29722000D03*
X-2404000Y-29722000D03*
X-1204000Y-29722000D03*
X-4000Y-29722000D03*
X1196000Y-29722000D03*
X2396000Y-29722000D03*
X3596000Y-29722000D03*
D13*
X6096000Y-29972000D03*
D14*
X5846000Y-27222000D03*
X5846000Y-26022000D03*
X5846000Y-24822000D03*
X5846000Y-23622000D03*
X5846000Y-22422000D03*
X5846000Y-21222000D03*
D13*
X6096000Y-18472000D03*
D12*
X3596000Y-18722000D03*
X2396000Y-18722000D03*
X1196000Y-18722000D03*
X-4000Y-18722000D03*
X-1204000Y-18722000D03*
X-2404000Y-18722000D03*
X-3604000Y-18722000D03*
X-4804000Y-18722000D03*
M02*
