M48
; DRILL file {KiCad (5.1.5-0-10_14)} date 2021 January 17, Sunday 15:25:29
; FORMAT={-:-/ absolute / metric / decimal}
; #@! TF.CreationDate,2021-01-17T15:25:29+09:00
; #@! TF.GenerationSoftware,Kicad,Pcbnew,(5.1.5-0-10_14)
FMAT,2
METRIC
T1C0.305
T2C0.650
T3C1.000
%
G90
G05
T1
X-10.9Y-16.775
X-4.4Y-14.4
X-1.389Y-11.976
X-1.366Y-17.446
X-1.276Y-16.615
X-0.667Y-11.547
X-0.137Y-12.237
X0.032Y-28.464
X0.746Y-8.33
X0.988Y-14.087
X1.037Y-27.945
X1.703Y-9.176
X2.069Y-24.45
X2.745Y-10.402
X3.204Y-12.186
X3.345Y-9.852
X3.404Y-8.4
X4.262Y-8.776
X6.993Y-9.015
X7.694Y-8.461
T2
X5.36Y-4.0
X6.63Y-4.0
X7.9Y-4.0
X10.16Y-5.08
X10.16Y-6.35
X10.16Y-7.62
X10.16Y-8.89
X10.16Y-10.16
X11.43Y-5.08
X11.43Y-6.35
X11.43Y-7.62
X11.43Y-8.89
X11.43Y-10.16
X6.73Y-33.0
X8.0Y-33.0
X9.27Y-33.0
T3
X-10.32Y-3.86
X-10.32Y-33.4
X-7.78Y-3.86
X-7.78Y-33.4
X-5.24Y-3.86
X-5.24Y-33.4
X-2.7Y-3.86
X-2.7Y-33.4
X-0.16Y-3.86
X10.16Y-15.24
X10.16Y-17.78
X10.16Y-20.32
X10.16Y-22.86
X10.16Y-25.4
X10.16Y-27.94
X-7.62Y-1.27
X-5.08Y-1.27
X-2.54Y-1.27
X0.0Y-1.27
X2.54Y-1.27
X5.08Y-1.27
X7.62Y-1.27
T0
M30
