G04 #@! TF.GenerationSoftware,KiCad,Pcbnew,(5.1.5-0-10_14)*
G04 #@! TF.CreationDate,2020-10-11T20:42:09+09:00*
G04 #@! TF.ProjectId,EnvMon,456e764d-6f6e-42e6-9b69-6361645f7063,2.0*
G04 #@! TF.SameCoordinates,Original*
G04 #@! TF.FileFunction,Soldermask,Top*
G04 #@! TF.FilePolarity,Negative*
%FSLAX46Y46*%
G04 Gerber Fmt 4.6, Leading zero omitted, Abs format (unit mm)*
G04 Created by KiCad (PCBNEW (5.1.5-0-10_14)) date 2020-10-11 20:42:09*
%MOMM*%
%LPD*%
G04 APERTURE LIST*
%ADD10C,0.100000*%
G04 APERTURE END LIST*
D10*
G36*
X-2586488Y-32503927D02*
G01*
X-2437188Y-32533624D01*
X-2273216Y-32601544D01*
X-2125646Y-32700147D01*
X-2000147Y-32825646D01*
X-1901544Y-32973216D01*
X-1833624Y-33137188D01*
X-1799000Y-33311259D01*
X-1799000Y-33488741D01*
X-1833624Y-33662812D01*
X-1901544Y-33826784D01*
X-2000147Y-33974354D01*
X-2125646Y-34099853D01*
X-2273216Y-34198456D01*
X-2437188Y-34266376D01*
X-2586488Y-34296073D01*
X-2611258Y-34301000D01*
X-2788742Y-34301000D01*
X-2813512Y-34296073D01*
X-2962812Y-34266376D01*
X-3126784Y-34198456D01*
X-3274354Y-34099853D01*
X-3399853Y-33974354D01*
X-3498456Y-33826784D01*
X-3566376Y-33662812D01*
X-3601000Y-33488741D01*
X-3601000Y-33311259D01*
X-3566376Y-33137188D01*
X-3498456Y-32973216D01*
X-3399853Y-32825646D01*
X-3274354Y-32700147D01*
X-3126784Y-32601544D01*
X-2962812Y-32533624D01*
X-2813512Y-32503927D01*
X-2788742Y-32499000D01*
X-2611258Y-32499000D01*
X-2586488Y-32503927D01*
G37*
G36*
X-5126488Y-32503927D02*
G01*
X-4977188Y-32533624D01*
X-4813216Y-32601544D01*
X-4665646Y-32700147D01*
X-4540147Y-32825646D01*
X-4441544Y-32973216D01*
X-4373624Y-33137188D01*
X-4339000Y-33311259D01*
X-4339000Y-33488741D01*
X-4373624Y-33662812D01*
X-4441544Y-33826784D01*
X-4540147Y-33974354D01*
X-4665646Y-34099853D01*
X-4813216Y-34198456D01*
X-4977188Y-34266376D01*
X-5126488Y-34296073D01*
X-5151258Y-34301000D01*
X-5328742Y-34301000D01*
X-5353512Y-34296073D01*
X-5502812Y-34266376D01*
X-5666784Y-34198456D01*
X-5814354Y-34099853D01*
X-5939853Y-33974354D01*
X-6038456Y-33826784D01*
X-6106376Y-33662812D01*
X-6141000Y-33488741D01*
X-6141000Y-33311259D01*
X-6106376Y-33137188D01*
X-6038456Y-32973216D01*
X-5939853Y-32825646D01*
X-5814354Y-32700147D01*
X-5666784Y-32601544D01*
X-5502812Y-32533624D01*
X-5353512Y-32503927D01*
X-5328742Y-32499000D01*
X-5151258Y-32499000D01*
X-5126488Y-32503927D01*
G37*
G36*
X-7666488Y-32503927D02*
G01*
X-7517188Y-32533624D01*
X-7353216Y-32601544D01*
X-7205646Y-32700147D01*
X-7080147Y-32825646D01*
X-6981544Y-32973216D01*
X-6913624Y-33137188D01*
X-6879000Y-33311259D01*
X-6879000Y-33488741D01*
X-6913624Y-33662812D01*
X-6981544Y-33826784D01*
X-7080147Y-33974354D01*
X-7205646Y-34099853D01*
X-7353216Y-34198456D01*
X-7517188Y-34266376D01*
X-7666488Y-34296073D01*
X-7691258Y-34301000D01*
X-7868742Y-34301000D01*
X-7893512Y-34296073D01*
X-8042812Y-34266376D01*
X-8206784Y-34198456D01*
X-8354354Y-34099853D01*
X-8479853Y-33974354D01*
X-8578456Y-33826784D01*
X-8646376Y-33662812D01*
X-8681000Y-33488741D01*
X-8681000Y-33311259D01*
X-8646376Y-33137188D01*
X-8578456Y-32973216D01*
X-8479853Y-32825646D01*
X-8354354Y-32700147D01*
X-8206784Y-32601544D01*
X-8042812Y-32533624D01*
X-7893512Y-32503927D01*
X-7868742Y-32499000D01*
X-7691258Y-32499000D01*
X-7666488Y-32503927D01*
G37*
G36*
X-9419000Y-34301000D02*
G01*
X-11221000Y-34301000D01*
X-11221000Y-32499000D01*
X-9419000Y-32499000D01*
X-9419000Y-34301000D01*
G37*
G36*
X9378014Y-31956973D02*
G01*
X9481878Y-31988479D01*
X9525907Y-32012013D01*
X9577599Y-32039643D01*
X9577601Y-32039644D01*
X9577600Y-32039644D01*
X9661501Y-32108499D01*
X9730356Y-32192400D01*
X9781521Y-32288121D01*
X9813027Y-32391985D01*
X9821000Y-32472933D01*
X9821000Y-33527067D01*
X9813027Y-33608015D01*
X9781521Y-33711879D01*
X9781520Y-33711880D01*
X9781519Y-33711882D01*
X9730357Y-33807600D01*
X9661501Y-33891501D01*
X9577600Y-33960357D01*
X9509055Y-33996995D01*
X9481879Y-34011521D01*
X9378015Y-34043027D01*
X9270000Y-34053666D01*
X9161986Y-34043027D01*
X9058122Y-34011521D01*
X9030946Y-33996995D01*
X8962401Y-33960357D01*
X8878500Y-33891501D01*
X8809644Y-33807600D01*
X8758481Y-33711880D01*
X8758480Y-33711879D01*
X8754614Y-33699135D01*
X8745241Y-33676505D01*
X8731628Y-33656130D01*
X8714301Y-33638803D01*
X8693927Y-33625189D01*
X8671288Y-33615811D01*
X8647255Y-33611030D01*
X8622751Y-33611030D01*
X8598718Y-33615810D01*
X8576079Y-33625187D01*
X8555704Y-33638800D01*
X8538377Y-33656127D01*
X8524763Y-33676501D01*
X8515387Y-33699134D01*
X8511521Y-33711879D01*
X8511520Y-33711880D01*
X8460357Y-33807600D01*
X8391501Y-33891501D01*
X8307600Y-33960357D01*
X8239055Y-33996995D01*
X8211879Y-34011521D01*
X8108015Y-34043027D01*
X8000000Y-34053666D01*
X7891986Y-34043027D01*
X7788122Y-34011521D01*
X7760946Y-33996995D01*
X7692401Y-33960357D01*
X7608500Y-33891501D01*
X7539644Y-33807600D01*
X7488481Y-33711880D01*
X7488480Y-33711879D01*
X7484614Y-33699135D01*
X7475241Y-33676505D01*
X7461628Y-33656130D01*
X7444301Y-33638803D01*
X7423927Y-33625189D01*
X7401288Y-33615811D01*
X7377255Y-33611030D01*
X7352751Y-33611030D01*
X7328718Y-33615810D01*
X7306079Y-33625187D01*
X7285704Y-33638800D01*
X7268377Y-33656127D01*
X7254763Y-33676501D01*
X7245387Y-33699134D01*
X7241521Y-33711879D01*
X7241520Y-33711880D01*
X7190357Y-33807600D01*
X7121501Y-33891501D01*
X7037600Y-33960357D01*
X6969055Y-33996995D01*
X6941879Y-34011521D01*
X6838015Y-34043027D01*
X6730000Y-34053666D01*
X6621986Y-34043027D01*
X6518122Y-34011521D01*
X6490946Y-33996995D01*
X6422401Y-33960357D01*
X6338500Y-33891501D01*
X6269644Y-33807600D01*
X6218482Y-33711882D01*
X6218481Y-33711880D01*
X6218480Y-33711879D01*
X6186974Y-33608015D01*
X6179001Y-33527067D01*
X6179000Y-32472934D01*
X6186973Y-32391986D01*
X6218479Y-32288122D01*
X6269644Y-32192400D01*
X6338499Y-32108499D01*
X6422400Y-32039644D01*
X6422399Y-32039644D01*
X6422401Y-32039643D01*
X6474093Y-32012013D01*
X6518121Y-31988479D01*
X6621985Y-31956973D01*
X6730000Y-31946334D01*
X6838014Y-31956973D01*
X6941878Y-31988479D01*
X6985907Y-32012013D01*
X7037599Y-32039643D01*
X7037601Y-32039644D01*
X7037600Y-32039644D01*
X7121501Y-32108499D01*
X7190356Y-32192400D01*
X7241521Y-32288121D01*
X7245388Y-32300869D01*
X7254760Y-32323496D01*
X7268374Y-32343870D01*
X7285701Y-32361197D01*
X7306075Y-32374811D01*
X7328714Y-32384188D01*
X7352747Y-32388969D01*
X7377251Y-32388969D01*
X7401285Y-32384189D01*
X7423924Y-32374812D01*
X7444298Y-32361198D01*
X7461625Y-32343871D01*
X7475239Y-32323497D01*
X7484616Y-32300858D01*
X7488479Y-32288123D01*
X7488479Y-32288122D01*
X7539644Y-32192400D01*
X7608499Y-32108499D01*
X7692400Y-32039644D01*
X7692399Y-32039644D01*
X7692401Y-32039643D01*
X7744093Y-32012013D01*
X7788121Y-31988479D01*
X7891985Y-31956973D01*
X8000000Y-31946334D01*
X8108014Y-31956973D01*
X8211878Y-31988479D01*
X8255907Y-32012013D01*
X8307599Y-32039643D01*
X8307601Y-32039644D01*
X8307600Y-32039644D01*
X8391501Y-32108499D01*
X8460356Y-32192400D01*
X8511521Y-32288121D01*
X8515388Y-32300869D01*
X8524760Y-32323496D01*
X8538374Y-32343870D01*
X8555701Y-32361197D01*
X8576075Y-32374811D01*
X8598714Y-32384188D01*
X8622747Y-32388969D01*
X8647251Y-32388969D01*
X8671285Y-32384189D01*
X8693924Y-32374812D01*
X8714298Y-32361198D01*
X8731625Y-32343871D01*
X8745239Y-32323497D01*
X8754616Y-32300858D01*
X8758479Y-32288123D01*
X8758479Y-32288122D01*
X8809644Y-32192400D01*
X8878499Y-32108499D01*
X8962400Y-32039644D01*
X8962399Y-32039644D01*
X8962401Y-32039643D01*
X9014093Y-32012013D01*
X9058121Y-31988479D01*
X9161985Y-31956973D01*
X9270000Y-31946334D01*
X9378014Y-31956973D01*
G37*
G36*
X-3153000Y-30523000D02*
G01*
X-4055000Y-30523000D01*
X-4055000Y-28921000D01*
X-3153000Y-28921000D01*
X-3153000Y-30523000D01*
G37*
G36*
X-4353000Y-30523000D02*
G01*
X-5255000Y-30523000D01*
X-5255000Y-28921000D01*
X-4353000Y-28921000D01*
X-4353000Y-30523000D01*
G37*
G36*
X-1953000Y-30523000D02*
G01*
X-2855000Y-30523000D01*
X-2855000Y-28921000D01*
X-1953000Y-28921000D01*
X-1953000Y-30523000D01*
G37*
G36*
X-753000Y-30523000D02*
G01*
X-1655000Y-30523000D01*
X-1655000Y-28921000D01*
X-753000Y-28921000D01*
X-753000Y-30523000D01*
G37*
G36*
X447000Y-30523000D02*
G01*
X-455000Y-30523000D01*
X-455000Y-28921000D01*
X447000Y-28921000D01*
X447000Y-30523000D01*
G37*
G36*
X1647000Y-30523000D02*
G01*
X745000Y-30523000D01*
X745000Y-28921000D01*
X1647000Y-28921000D01*
X1647000Y-30523000D01*
G37*
G36*
X2847000Y-30523000D02*
G01*
X1945000Y-30523000D01*
X1945000Y-28921000D01*
X2847000Y-28921000D01*
X2847000Y-30523000D01*
G37*
G36*
X4047000Y-30523000D02*
G01*
X3145000Y-30523000D01*
X3145000Y-28921000D01*
X4047000Y-28921000D01*
X4047000Y-30523000D01*
G37*
G36*
X6256721Y-29442174D02*
G01*
X6356995Y-29483709D01*
X6356996Y-29483710D01*
X6447242Y-29544010D01*
X6523990Y-29620758D01*
X6523991Y-29620760D01*
X6584291Y-29711005D01*
X6625826Y-29811279D01*
X6647000Y-29917730D01*
X6647000Y-30026270D01*
X6625826Y-30132721D01*
X6584291Y-30232995D01*
X6584290Y-30232996D01*
X6523990Y-30323242D01*
X6447242Y-30399990D01*
X6401812Y-30430345D01*
X6356995Y-30460291D01*
X6256721Y-30501826D01*
X6150270Y-30523000D01*
X6041730Y-30523000D01*
X5935279Y-30501826D01*
X5835005Y-30460291D01*
X5790188Y-30430345D01*
X5744758Y-30399990D01*
X5668010Y-30323242D01*
X5607710Y-30232996D01*
X5607709Y-30232995D01*
X5566174Y-30132721D01*
X5545000Y-30026270D01*
X5545000Y-29917730D01*
X5566174Y-29811279D01*
X5607709Y-29711005D01*
X5668009Y-29620760D01*
X5668010Y-29620758D01*
X5744758Y-29544010D01*
X5835004Y-29483710D01*
X5835005Y-29483709D01*
X5935279Y-29442174D01*
X6041730Y-29421000D01*
X6150270Y-29421000D01*
X6256721Y-29442174D01*
G37*
G36*
X10273512Y-27043927D02*
G01*
X10422812Y-27073624D01*
X10586784Y-27141544D01*
X10734354Y-27240147D01*
X10859853Y-27365646D01*
X10958456Y-27513216D01*
X11026376Y-27677188D01*
X11061000Y-27851259D01*
X11061000Y-28028741D01*
X11026376Y-28202812D01*
X10958456Y-28366784D01*
X10859853Y-28514354D01*
X10734354Y-28639853D01*
X10586784Y-28738456D01*
X10422812Y-28806376D01*
X10273512Y-28836073D01*
X10248742Y-28841000D01*
X10071258Y-28841000D01*
X10046488Y-28836073D01*
X9897188Y-28806376D01*
X9733216Y-28738456D01*
X9585646Y-28639853D01*
X9460147Y-28514354D01*
X9361544Y-28366784D01*
X9293624Y-28202812D01*
X9259000Y-28028741D01*
X9259000Y-27851259D01*
X9293624Y-27677188D01*
X9361544Y-27513216D01*
X9460147Y-27365646D01*
X9585646Y-27240147D01*
X9733216Y-27141544D01*
X9897188Y-27073624D01*
X10046488Y-27043927D01*
X10071258Y-27039000D01*
X10248742Y-27039000D01*
X10273512Y-27043927D01*
G37*
G36*
X6647000Y-27673000D02*
G01*
X5045000Y-27673000D01*
X5045000Y-26771000D01*
X6647000Y-26771000D01*
X6647000Y-27673000D01*
G37*
G36*
X6647000Y-26473000D02*
G01*
X5045000Y-26473000D01*
X5045000Y-25571000D01*
X6647000Y-25571000D01*
X6647000Y-26473000D01*
G37*
G36*
X10273512Y-24503927D02*
G01*
X10422812Y-24533624D01*
X10586784Y-24601544D01*
X10734354Y-24700147D01*
X10859853Y-24825646D01*
X10958456Y-24973216D01*
X11026376Y-25137188D01*
X11061000Y-25311259D01*
X11061000Y-25488741D01*
X11026376Y-25662812D01*
X10958456Y-25826784D01*
X10859853Y-25974354D01*
X10734354Y-26099853D01*
X10586784Y-26198456D01*
X10422812Y-26266376D01*
X10273512Y-26296073D01*
X10248742Y-26301000D01*
X10071258Y-26301000D01*
X10046488Y-26296073D01*
X9897188Y-26266376D01*
X9733216Y-26198456D01*
X9585646Y-26099853D01*
X9460147Y-25974354D01*
X9361544Y-25826784D01*
X9293624Y-25662812D01*
X9259000Y-25488741D01*
X9259000Y-25311259D01*
X9293624Y-25137188D01*
X9361544Y-24973216D01*
X9460147Y-24825646D01*
X9585646Y-24700147D01*
X9733216Y-24601544D01*
X9897188Y-24533624D01*
X10046488Y-24503927D01*
X10071258Y-24499000D01*
X10248742Y-24499000D01*
X10273512Y-24503927D01*
G37*
G36*
X6647000Y-25273000D02*
G01*
X5045000Y-25273000D01*
X5045000Y-24371000D01*
X6647000Y-24371000D01*
X6647000Y-25273000D01*
G37*
G36*
X6647000Y-24073000D02*
G01*
X5045000Y-24073000D01*
X5045000Y-23171000D01*
X6647000Y-23171000D01*
X6647000Y-24073000D01*
G37*
G36*
X10273512Y-21963927D02*
G01*
X10422812Y-21993624D01*
X10586784Y-22061544D01*
X10734354Y-22160147D01*
X10859853Y-22285646D01*
X10958456Y-22433216D01*
X11026376Y-22597188D01*
X11061000Y-22771259D01*
X11061000Y-22948741D01*
X11026376Y-23122812D01*
X10958456Y-23286784D01*
X10859853Y-23434354D01*
X10734354Y-23559853D01*
X10586784Y-23658456D01*
X10422812Y-23726376D01*
X10273512Y-23756073D01*
X10248742Y-23761000D01*
X10071258Y-23761000D01*
X10046488Y-23756073D01*
X9897188Y-23726376D01*
X9733216Y-23658456D01*
X9585646Y-23559853D01*
X9460147Y-23434354D01*
X9361544Y-23286784D01*
X9293624Y-23122812D01*
X9259000Y-22948741D01*
X9259000Y-22771259D01*
X9293624Y-22597188D01*
X9361544Y-22433216D01*
X9460147Y-22285646D01*
X9585646Y-22160147D01*
X9733216Y-22061544D01*
X9897188Y-21993624D01*
X10046488Y-21963927D01*
X10071258Y-21959000D01*
X10248742Y-21959000D01*
X10273512Y-21963927D01*
G37*
G36*
X6647000Y-22873000D02*
G01*
X5045000Y-22873000D01*
X5045000Y-21971000D01*
X6647000Y-21971000D01*
X6647000Y-22873000D01*
G37*
G36*
X6647000Y-21673000D02*
G01*
X5045000Y-21673000D01*
X5045000Y-20771000D01*
X6647000Y-20771000D01*
X6647000Y-21673000D01*
G37*
G36*
X10273512Y-19423927D02*
G01*
X10422812Y-19453624D01*
X10586784Y-19521544D01*
X10734354Y-19620147D01*
X10859853Y-19745646D01*
X10958456Y-19893216D01*
X11026376Y-20057188D01*
X11061000Y-20231259D01*
X11061000Y-20408741D01*
X11026376Y-20582812D01*
X10958456Y-20746784D01*
X10859853Y-20894354D01*
X10734354Y-21019853D01*
X10586784Y-21118456D01*
X10422812Y-21186376D01*
X10273512Y-21216073D01*
X10248742Y-21221000D01*
X10071258Y-21221000D01*
X10046488Y-21216073D01*
X9897188Y-21186376D01*
X9733216Y-21118456D01*
X9585646Y-21019853D01*
X9460147Y-20894354D01*
X9361544Y-20746784D01*
X9293624Y-20582812D01*
X9259000Y-20408741D01*
X9259000Y-20231259D01*
X9293624Y-20057188D01*
X9361544Y-19893216D01*
X9460147Y-19745646D01*
X9585646Y-19620147D01*
X9733216Y-19521544D01*
X9897188Y-19453624D01*
X10046488Y-19423927D01*
X10071258Y-19419000D01*
X10248742Y-19419000D01*
X10273512Y-19423927D01*
G37*
G36*
X-4353000Y-19523000D02*
G01*
X-5255000Y-19523000D01*
X-5255000Y-17921000D01*
X-4353000Y-17921000D01*
X-4353000Y-19523000D01*
G37*
G36*
X1647000Y-19523000D02*
G01*
X745000Y-19523000D01*
X745000Y-17921000D01*
X1647000Y-17921000D01*
X1647000Y-19523000D01*
G37*
G36*
X447000Y-19523000D02*
G01*
X-455000Y-19523000D01*
X-455000Y-17921000D01*
X447000Y-17921000D01*
X447000Y-19523000D01*
G37*
G36*
X2847000Y-19523000D02*
G01*
X1945000Y-19523000D01*
X1945000Y-17921000D01*
X2847000Y-17921000D01*
X2847000Y-19523000D01*
G37*
G36*
X4047000Y-19523000D02*
G01*
X3145000Y-19523000D01*
X3145000Y-17921000D01*
X4047000Y-17921000D01*
X4047000Y-19523000D01*
G37*
G36*
X-753000Y-19523000D02*
G01*
X-1655000Y-19523000D01*
X-1655000Y-17921000D01*
X-753000Y-17921000D01*
X-753000Y-19523000D01*
G37*
G36*
X-1953000Y-19523000D02*
G01*
X-2855000Y-19523000D01*
X-2855000Y-17921000D01*
X-1953000Y-17921000D01*
X-1953000Y-19523000D01*
G37*
G36*
X-3153000Y-19523000D02*
G01*
X-4055000Y-19523000D01*
X-4055000Y-17921000D01*
X-3153000Y-17921000D01*
X-3153000Y-19523000D01*
G37*
G36*
X6256721Y-17942174D02*
G01*
X6356995Y-17983709D01*
X6356996Y-17983710D01*
X6447242Y-18044010D01*
X6523990Y-18120758D01*
X6523991Y-18120760D01*
X6584291Y-18211005D01*
X6625826Y-18311279D01*
X6647000Y-18417730D01*
X6647000Y-18526270D01*
X6625826Y-18632721D01*
X6584291Y-18732995D01*
X6584290Y-18732996D01*
X6523990Y-18823242D01*
X6447242Y-18899990D01*
X6401812Y-18930345D01*
X6356995Y-18960291D01*
X6256721Y-19001826D01*
X6150270Y-19023000D01*
X6041730Y-19023000D01*
X5935279Y-19001826D01*
X5835005Y-18960291D01*
X5790188Y-18930345D01*
X5744758Y-18899990D01*
X5668010Y-18823242D01*
X5607710Y-18732996D01*
X5607709Y-18732995D01*
X5566174Y-18632721D01*
X5545000Y-18526270D01*
X5545000Y-18417730D01*
X5566174Y-18311279D01*
X5607709Y-18211005D01*
X5668009Y-18120760D01*
X5668010Y-18120758D01*
X5744758Y-18044010D01*
X5835004Y-17983710D01*
X5835005Y-17983709D01*
X5935279Y-17942174D01*
X6041730Y-17921000D01*
X6150270Y-17921000D01*
X6256721Y-17942174D01*
G37*
G36*
X10273512Y-16883927D02*
G01*
X10422812Y-16913624D01*
X10586784Y-16981544D01*
X10734354Y-17080147D01*
X10859853Y-17205646D01*
X10958456Y-17353216D01*
X11026376Y-17517188D01*
X11061000Y-17691259D01*
X11061000Y-17868741D01*
X11026376Y-18042812D01*
X10958456Y-18206784D01*
X10859853Y-18354354D01*
X10734354Y-18479853D01*
X10586784Y-18578456D01*
X10422812Y-18646376D01*
X10273512Y-18676073D01*
X10248742Y-18681000D01*
X10071258Y-18681000D01*
X10046488Y-18676073D01*
X9897188Y-18646376D01*
X9733216Y-18578456D01*
X9585646Y-18479853D01*
X9460147Y-18354354D01*
X9361544Y-18206784D01*
X9293624Y-18042812D01*
X9259000Y-17868741D01*
X9259000Y-17691259D01*
X9293624Y-17517188D01*
X9361544Y-17353216D01*
X9460147Y-17205646D01*
X9585646Y-17080147D01*
X9733216Y-16981544D01*
X9897188Y-16913624D01*
X10046488Y-16883927D01*
X10071258Y-16879000D01*
X10248742Y-16879000D01*
X10273512Y-16883927D01*
G37*
G36*
X-3010501Y-15178445D02*
G01*
X-2973005Y-15189820D01*
X-2938446Y-15208292D01*
X-2908153Y-15233153D01*
X-2883292Y-15263446D01*
X-2864820Y-15298005D01*
X-2853445Y-15335501D01*
X-2849000Y-15380638D01*
X-2849000Y-16019362D01*
X-2853445Y-16064499D01*
X-2864820Y-16101995D01*
X-2883292Y-16136554D01*
X-2908153Y-16166847D01*
X-2938446Y-16191708D01*
X-2973005Y-16210180D01*
X-3010501Y-16221555D01*
X-3055638Y-16226000D01*
X-3794362Y-16226000D01*
X-3839499Y-16221555D01*
X-3876995Y-16210180D01*
X-3911554Y-16191708D01*
X-3941847Y-16166847D01*
X-3966708Y-16136554D01*
X-3985180Y-16101995D01*
X-3996555Y-16064499D01*
X-4001000Y-16019362D01*
X-4001000Y-15380638D01*
X-3996555Y-15335501D01*
X-3985180Y-15298005D01*
X-3966708Y-15263446D01*
X-3941847Y-15233153D01*
X-3911554Y-15208292D01*
X-3876995Y-15189820D01*
X-3839499Y-15178445D01*
X-3794362Y-15174000D01*
X-3055638Y-15174000D01*
X-3010501Y-15178445D01*
G37*
G36*
X-4760501Y-15178445D02*
G01*
X-4723005Y-15189820D01*
X-4688446Y-15208292D01*
X-4658153Y-15233153D01*
X-4633292Y-15263446D01*
X-4614820Y-15298005D01*
X-4603445Y-15335501D01*
X-4599000Y-15380638D01*
X-4599000Y-16019362D01*
X-4603445Y-16064499D01*
X-4614820Y-16101995D01*
X-4633292Y-16136554D01*
X-4658153Y-16166847D01*
X-4688446Y-16191708D01*
X-4723005Y-16210180D01*
X-4760501Y-16221555D01*
X-4805638Y-16226000D01*
X-5544362Y-16226000D01*
X-5589499Y-16221555D01*
X-5626995Y-16210180D01*
X-5661554Y-16191708D01*
X-5691847Y-16166847D01*
X-5716708Y-16136554D01*
X-5735180Y-16101995D01*
X-5746555Y-16064499D01*
X-5751000Y-16019362D01*
X-5751000Y-15380638D01*
X-5746555Y-15335501D01*
X-5735180Y-15298005D01*
X-5716708Y-15263446D01*
X-5691847Y-15233153D01*
X-5661554Y-15208292D01*
X-5626995Y-15189820D01*
X-5589499Y-15178445D01*
X-5544362Y-15174000D01*
X-4805638Y-15174000D01*
X-4760501Y-15178445D01*
G37*
G36*
X-6735501Y-15178445D02*
G01*
X-6698005Y-15189820D01*
X-6663446Y-15208292D01*
X-6633153Y-15233153D01*
X-6608292Y-15263446D01*
X-6589820Y-15298005D01*
X-6578445Y-15335501D01*
X-6574000Y-15380638D01*
X-6574000Y-16019362D01*
X-6578445Y-16064499D01*
X-6589820Y-16101995D01*
X-6608292Y-16136554D01*
X-6633153Y-16166847D01*
X-6663446Y-16191708D01*
X-6698005Y-16210180D01*
X-6735501Y-16221555D01*
X-6780638Y-16226000D01*
X-7519362Y-16226000D01*
X-7564499Y-16221555D01*
X-7601995Y-16210180D01*
X-7636554Y-16191708D01*
X-7666847Y-16166847D01*
X-7691708Y-16136554D01*
X-7710180Y-16101995D01*
X-7721555Y-16064499D01*
X-7726000Y-16019362D01*
X-7726000Y-15380638D01*
X-7721555Y-15335501D01*
X-7710180Y-15298005D01*
X-7691708Y-15263446D01*
X-7666847Y-15233153D01*
X-7636554Y-15208292D01*
X-7601995Y-15189820D01*
X-7564499Y-15178445D01*
X-7519362Y-15174000D01*
X-6780638Y-15174000D01*
X-6735501Y-15178445D01*
G37*
G36*
X-8485501Y-15178445D02*
G01*
X-8448005Y-15189820D01*
X-8413446Y-15208292D01*
X-8383153Y-15233153D01*
X-8358292Y-15263446D01*
X-8339820Y-15298005D01*
X-8328445Y-15335501D01*
X-8324000Y-15380638D01*
X-8324000Y-16019362D01*
X-8328445Y-16064499D01*
X-8339820Y-16101995D01*
X-8358292Y-16136554D01*
X-8383153Y-16166847D01*
X-8413446Y-16191708D01*
X-8448005Y-16210180D01*
X-8485501Y-16221555D01*
X-8530638Y-16226000D01*
X-9269362Y-16226000D01*
X-9314499Y-16221555D01*
X-9351995Y-16210180D01*
X-9386554Y-16191708D01*
X-9416847Y-16166847D01*
X-9441708Y-16136554D01*
X-9460180Y-16101995D01*
X-9471555Y-16064499D01*
X-9476000Y-16019362D01*
X-9476000Y-15380638D01*
X-9471555Y-15335501D01*
X-9460180Y-15298005D01*
X-9441708Y-15263446D01*
X-9416847Y-15233153D01*
X-9386554Y-15208292D01*
X-9351995Y-15189820D01*
X-9314499Y-15178445D01*
X-9269362Y-15174000D01*
X-8530638Y-15174000D01*
X-8485501Y-15178445D01*
G37*
G36*
X-10485501Y-15178445D02*
G01*
X-10448005Y-15189820D01*
X-10413446Y-15208292D01*
X-10383153Y-15233153D01*
X-10358292Y-15263446D01*
X-10339820Y-15298005D01*
X-10328445Y-15335501D01*
X-10324000Y-15380638D01*
X-10324000Y-16019362D01*
X-10328445Y-16064499D01*
X-10339820Y-16101995D01*
X-10358292Y-16136554D01*
X-10383153Y-16166847D01*
X-10413446Y-16191708D01*
X-10448005Y-16210180D01*
X-10485501Y-16221555D01*
X-10530638Y-16226000D01*
X-11269362Y-16226000D01*
X-11314499Y-16221555D01*
X-11351995Y-16210180D01*
X-11386554Y-16191708D01*
X-11416847Y-16166847D01*
X-11441708Y-16136554D01*
X-11460180Y-16101995D01*
X-11471555Y-16064499D01*
X-11476000Y-16019362D01*
X-11476000Y-15380638D01*
X-11471555Y-15335501D01*
X-11460180Y-15298005D01*
X-11441708Y-15263446D01*
X-11416847Y-15233153D01*
X-11386554Y-15208292D01*
X-11351995Y-15189820D01*
X-11314499Y-15178445D01*
X-11269362Y-15174000D01*
X-10530638Y-15174000D01*
X-10485501Y-15178445D01*
G37*
G36*
X-12235501Y-15178445D02*
G01*
X-12198005Y-15189820D01*
X-12163446Y-15208292D01*
X-12133153Y-15233153D01*
X-12108292Y-15263446D01*
X-12089820Y-15298005D01*
X-12078445Y-15335501D01*
X-12074000Y-15380638D01*
X-12074000Y-16019362D01*
X-12078445Y-16064499D01*
X-12089820Y-16101995D01*
X-12108292Y-16136554D01*
X-12133153Y-16166847D01*
X-12163446Y-16191708D01*
X-12198005Y-16210180D01*
X-12235501Y-16221555D01*
X-12280638Y-16226000D01*
X-13019362Y-16226000D01*
X-13064499Y-16221555D01*
X-13101995Y-16210180D01*
X-13136554Y-16191708D01*
X-13166847Y-16166847D01*
X-13191708Y-16136554D01*
X-13210180Y-16101995D01*
X-13221555Y-16064499D01*
X-13226000Y-16019362D01*
X-13226000Y-15380638D01*
X-13221555Y-15335501D01*
X-13210180Y-15298005D01*
X-13191708Y-15263446D01*
X-13166847Y-15233153D01*
X-13136554Y-15208292D01*
X-13101995Y-15189820D01*
X-13064499Y-15178445D01*
X-13019362Y-15174000D01*
X-12280638Y-15174000D01*
X-12235501Y-15178445D01*
G37*
G36*
X-1075830Y-14551803D02*
G01*
X-1064125Y-14555354D01*
X-1053335Y-14561121D01*
X-1043881Y-14568881D01*
X-1036121Y-14578335D01*
X-1030354Y-14589125D01*
X-1026803Y-14600830D01*
X-1025000Y-14619138D01*
X-1025000Y-16082862D01*
X-1026803Y-16101170D01*
X-1030354Y-16112875D01*
X-1036121Y-16123665D01*
X-1043881Y-16133119D01*
X-1053335Y-16140879D01*
X-1064125Y-16146646D01*
X-1075830Y-16150197D01*
X-1094138Y-16152000D01*
X-1457862Y-16152000D01*
X-1476170Y-16150197D01*
X-1487875Y-16146646D01*
X-1498665Y-16140879D01*
X-1508119Y-16133119D01*
X-1515879Y-16123665D01*
X-1521646Y-16112875D01*
X-1525197Y-16101170D01*
X-1527000Y-16082862D01*
X-1527000Y-14619138D01*
X-1525197Y-14600830D01*
X-1521646Y-14589125D01*
X-1515879Y-14578335D01*
X-1508119Y-14568881D01*
X-1498665Y-14561121D01*
X-1487875Y-14555354D01*
X-1476170Y-14551803D01*
X-1457862Y-14550000D01*
X-1094138Y-14550000D01*
X-1075830Y-14551803D01*
G37*
G36*
X-275830Y-14551803D02*
G01*
X-264125Y-14555354D01*
X-253335Y-14561121D01*
X-243881Y-14568881D01*
X-236121Y-14578335D01*
X-230354Y-14589125D01*
X-226803Y-14600830D01*
X-225000Y-14619138D01*
X-225000Y-16082862D01*
X-226803Y-16101170D01*
X-230354Y-16112875D01*
X-236121Y-16123665D01*
X-243881Y-16133119D01*
X-253335Y-16140879D01*
X-264125Y-16146646D01*
X-275830Y-16150197D01*
X-294138Y-16152000D01*
X-657862Y-16152000D01*
X-676170Y-16150197D01*
X-687875Y-16146646D01*
X-698665Y-16140879D01*
X-708119Y-16133119D01*
X-715879Y-16123665D01*
X-721646Y-16112875D01*
X-725197Y-16101170D01*
X-727000Y-16082862D01*
X-727000Y-14619138D01*
X-725197Y-14600830D01*
X-721646Y-14589125D01*
X-715879Y-14578335D01*
X-708119Y-14568881D01*
X-698665Y-14561121D01*
X-687875Y-14555354D01*
X-676170Y-14551803D01*
X-657862Y-14550000D01*
X-294138Y-14550000D01*
X-275830Y-14551803D01*
G37*
G36*
X524170Y-14551803D02*
G01*
X535875Y-14555354D01*
X546665Y-14561121D01*
X556119Y-14568881D01*
X563879Y-14578335D01*
X569646Y-14589125D01*
X573197Y-14600830D01*
X575000Y-14619138D01*
X575000Y-16082862D01*
X573197Y-16101170D01*
X569646Y-16112875D01*
X563879Y-16123665D01*
X556119Y-16133119D01*
X546665Y-16140879D01*
X535875Y-16146646D01*
X524170Y-16150197D01*
X505862Y-16152000D01*
X142138Y-16152000D01*
X123830Y-16150197D01*
X112125Y-16146646D01*
X101335Y-16140879D01*
X91881Y-16133119D01*
X84121Y-16123665D01*
X78354Y-16112875D01*
X74803Y-16101170D01*
X73000Y-16082862D01*
X73000Y-14619138D01*
X74803Y-14600830D01*
X78354Y-14589125D01*
X84121Y-14578335D01*
X91881Y-14568881D01*
X101335Y-14561121D01*
X112125Y-14555354D01*
X123830Y-14551803D01*
X142138Y-14550000D01*
X505862Y-14550000D01*
X524170Y-14551803D01*
G37*
G36*
X1324170Y-14551803D02*
G01*
X1335875Y-14555354D01*
X1346665Y-14561121D01*
X1356119Y-14568881D01*
X1363879Y-14578335D01*
X1369646Y-14589125D01*
X1373197Y-14600830D01*
X1375000Y-14619138D01*
X1375000Y-16082862D01*
X1373197Y-16101170D01*
X1369646Y-16112875D01*
X1363879Y-16123665D01*
X1356119Y-16133119D01*
X1346665Y-16140879D01*
X1335875Y-16146646D01*
X1324170Y-16150197D01*
X1305862Y-16152000D01*
X942138Y-16152000D01*
X923830Y-16150197D01*
X912125Y-16146646D01*
X901335Y-16140879D01*
X891881Y-16133119D01*
X884121Y-16123665D01*
X878354Y-16112875D01*
X874803Y-16101170D01*
X873000Y-16082862D01*
X873000Y-14619138D01*
X874803Y-14600830D01*
X878354Y-14589125D01*
X884121Y-14578335D01*
X891881Y-14568881D01*
X901335Y-14561121D01*
X912125Y-14555354D01*
X923830Y-14551803D01*
X942138Y-14550000D01*
X1305862Y-14550000D01*
X1324170Y-14551803D01*
G37*
G36*
X2124170Y-14551803D02*
G01*
X2135875Y-14555354D01*
X2146665Y-14561121D01*
X2156119Y-14568881D01*
X2163879Y-14578335D01*
X2169646Y-14589125D01*
X2173197Y-14600830D01*
X2175000Y-14619138D01*
X2175000Y-16082862D01*
X2173197Y-16101170D01*
X2169646Y-16112875D01*
X2163879Y-16123665D01*
X2156119Y-16133119D01*
X2146665Y-16140879D01*
X2135875Y-16146646D01*
X2124170Y-16150197D01*
X2105862Y-16152000D01*
X1742138Y-16152000D01*
X1723830Y-16150197D01*
X1712125Y-16146646D01*
X1701335Y-16140879D01*
X1691881Y-16133119D01*
X1684121Y-16123665D01*
X1678354Y-16112875D01*
X1674803Y-16101170D01*
X1673000Y-16082862D01*
X1673000Y-14619138D01*
X1674803Y-14600830D01*
X1678354Y-14589125D01*
X1684121Y-14578335D01*
X1691881Y-14568881D01*
X1701335Y-14561121D01*
X1712125Y-14555354D01*
X1723830Y-14551803D01*
X1742138Y-14550000D01*
X2105862Y-14550000D01*
X2124170Y-14551803D01*
G37*
G36*
X2924170Y-14551803D02*
G01*
X2935875Y-14555354D01*
X2946665Y-14561121D01*
X2956119Y-14568881D01*
X2963879Y-14578335D01*
X2969646Y-14589125D01*
X2973197Y-14600830D01*
X2975000Y-14619138D01*
X2975000Y-16082862D01*
X2973197Y-16101170D01*
X2969646Y-16112875D01*
X2963879Y-16123665D01*
X2956119Y-16133119D01*
X2946665Y-16140879D01*
X2935875Y-16146646D01*
X2924170Y-16150197D01*
X2905862Y-16152000D01*
X2542138Y-16152000D01*
X2523830Y-16150197D01*
X2512125Y-16146646D01*
X2501335Y-16140879D01*
X2491881Y-16133119D01*
X2484121Y-16123665D01*
X2478354Y-16112875D01*
X2474803Y-16101170D01*
X2473000Y-16082862D01*
X2473000Y-14619138D01*
X2474803Y-14600830D01*
X2478354Y-14589125D01*
X2484121Y-14578335D01*
X2491881Y-14568881D01*
X2501335Y-14561121D01*
X2512125Y-14555354D01*
X2523830Y-14551803D01*
X2542138Y-14550000D01*
X2905862Y-14550000D01*
X2924170Y-14551803D01*
G37*
G36*
X3724170Y-14551803D02*
G01*
X3735875Y-14555354D01*
X3746665Y-14561121D01*
X3756119Y-14568881D01*
X3763879Y-14578335D01*
X3769646Y-14589125D01*
X3773197Y-14600830D01*
X3775000Y-14619138D01*
X3775000Y-16082862D01*
X3773197Y-16101170D01*
X3769646Y-16112875D01*
X3763879Y-16123665D01*
X3756119Y-16133119D01*
X3746665Y-16140879D01*
X3735875Y-16146646D01*
X3724170Y-16150197D01*
X3705862Y-16152000D01*
X3342138Y-16152000D01*
X3323830Y-16150197D01*
X3312125Y-16146646D01*
X3301335Y-16140879D01*
X3291881Y-16133119D01*
X3284121Y-16123665D01*
X3278354Y-16112875D01*
X3274803Y-16101170D01*
X3273000Y-16082862D01*
X3273000Y-14619138D01*
X3274803Y-14600830D01*
X3278354Y-14589125D01*
X3284121Y-14578335D01*
X3291881Y-14568881D01*
X3301335Y-14561121D01*
X3312125Y-14555354D01*
X3323830Y-14551803D01*
X3342138Y-14550000D01*
X3705862Y-14550000D01*
X3724170Y-14551803D01*
G37*
G36*
X4524170Y-14551803D02*
G01*
X4535875Y-14555354D01*
X4546665Y-14561121D01*
X4556119Y-14568881D01*
X4563879Y-14578335D01*
X4569646Y-14589125D01*
X4573197Y-14600830D01*
X4575000Y-14619138D01*
X4575000Y-16082862D01*
X4573197Y-16101170D01*
X4569646Y-16112875D01*
X4563879Y-16123665D01*
X4556119Y-16133119D01*
X4546665Y-16140879D01*
X4535875Y-16146646D01*
X4524170Y-16150197D01*
X4505862Y-16152000D01*
X4142138Y-16152000D01*
X4123830Y-16150197D01*
X4112125Y-16146646D01*
X4101335Y-16140879D01*
X4091881Y-16133119D01*
X4084121Y-16123665D01*
X4078354Y-16112875D01*
X4074803Y-16101170D01*
X4073000Y-16082862D01*
X4073000Y-14619138D01*
X4074803Y-14600830D01*
X4078354Y-14589125D01*
X4084121Y-14578335D01*
X4091881Y-14568881D01*
X4101335Y-14561121D01*
X4112125Y-14555354D01*
X4123830Y-14551803D01*
X4142138Y-14550000D01*
X4505862Y-14550000D01*
X4524170Y-14551803D01*
G37*
G36*
X11061000Y-16141000D02*
G01*
X9259000Y-16141000D01*
X9259000Y-14339000D01*
X11061000Y-14339000D01*
X11061000Y-16141000D01*
G37*
G36*
X8064499Y-14878445D02*
G01*
X8101995Y-14889820D01*
X8136554Y-14908292D01*
X8166847Y-14933153D01*
X8191708Y-14963446D01*
X8210180Y-14998005D01*
X8221555Y-15035501D01*
X8226000Y-15080638D01*
X8226000Y-15719362D01*
X8221555Y-15764499D01*
X8210180Y-15801995D01*
X8191708Y-15836554D01*
X8166847Y-15866847D01*
X8136554Y-15891708D01*
X8101995Y-15910180D01*
X8064499Y-15921555D01*
X8019362Y-15926000D01*
X7280638Y-15926000D01*
X7235501Y-15921555D01*
X7198005Y-15910180D01*
X7163446Y-15891708D01*
X7133153Y-15866847D01*
X7108292Y-15836554D01*
X7089820Y-15801995D01*
X7078445Y-15764499D01*
X7074000Y-15719362D01*
X7074000Y-15080638D01*
X7078445Y-15035501D01*
X7089820Y-14998005D01*
X7108292Y-14963446D01*
X7133153Y-14933153D01*
X7163446Y-14908292D01*
X7198005Y-14889820D01*
X7235501Y-14878445D01*
X7280638Y-14874000D01*
X8019362Y-14874000D01*
X8064499Y-14878445D01*
G37*
G36*
X6314499Y-14878445D02*
G01*
X6351995Y-14889820D01*
X6386554Y-14908292D01*
X6416847Y-14933153D01*
X6441708Y-14963446D01*
X6460180Y-14998005D01*
X6471555Y-15035501D01*
X6476000Y-15080638D01*
X6476000Y-15719362D01*
X6471555Y-15764499D01*
X6460180Y-15801995D01*
X6441708Y-15836554D01*
X6416847Y-15866847D01*
X6386554Y-15891708D01*
X6351995Y-15910180D01*
X6314499Y-15921555D01*
X6269362Y-15926000D01*
X5530638Y-15926000D01*
X5485501Y-15921555D01*
X5448005Y-15910180D01*
X5413446Y-15891708D01*
X5383153Y-15866847D01*
X5358292Y-15836554D01*
X5339820Y-15801995D01*
X5328445Y-15764499D01*
X5324000Y-15719362D01*
X5324000Y-15080638D01*
X5328445Y-15035501D01*
X5339820Y-14998005D01*
X5358292Y-14963446D01*
X5383153Y-14933153D01*
X5413446Y-14908292D01*
X5448005Y-14889820D01*
X5485501Y-14878445D01*
X5530638Y-14874000D01*
X6269362Y-14874000D01*
X6314499Y-14878445D01*
G37*
G36*
X-6735501Y-13278445D02*
G01*
X-6698005Y-13289820D01*
X-6663446Y-13308292D01*
X-6633153Y-13333153D01*
X-6608292Y-13363446D01*
X-6589820Y-13398005D01*
X-6578445Y-13435501D01*
X-6574000Y-13480638D01*
X-6574000Y-14119362D01*
X-6578445Y-14164499D01*
X-6589820Y-14201995D01*
X-6608292Y-14236554D01*
X-6633153Y-14266847D01*
X-6663446Y-14291708D01*
X-6698005Y-14310180D01*
X-6735501Y-14321555D01*
X-6780638Y-14326000D01*
X-7519362Y-14326000D01*
X-7564499Y-14321555D01*
X-7601995Y-14310180D01*
X-7636554Y-14291708D01*
X-7666847Y-14266847D01*
X-7691708Y-14236554D01*
X-7710180Y-14201995D01*
X-7721555Y-14164499D01*
X-7726000Y-14119362D01*
X-7726000Y-13480638D01*
X-7721555Y-13435501D01*
X-7710180Y-13398005D01*
X-7691708Y-13363446D01*
X-7666847Y-13333153D01*
X-7636554Y-13308292D01*
X-7601995Y-13289820D01*
X-7564499Y-13278445D01*
X-7519362Y-13274000D01*
X-6780638Y-13274000D01*
X-6735501Y-13278445D01*
G37*
G36*
X-8485501Y-13278445D02*
G01*
X-8448005Y-13289820D01*
X-8413446Y-13308292D01*
X-8383153Y-13333153D01*
X-8358292Y-13363446D01*
X-8339820Y-13398005D01*
X-8328445Y-13435501D01*
X-8324000Y-13480638D01*
X-8324000Y-14119362D01*
X-8328445Y-14164499D01*
X-8339820Y-14201995D01*
X-8358292Y-14236554D01*
X-8383153Y-14266847D01*
X-8413446Y-14291708D01*
X-8448005Y-14310180D01*
X-8485501Y-14321555D01*
X-8530638Y-14326000D01*
X-9269362Y-14326000D01*
X-9314499Y-14321555D01*
X-9351995Y-14310180D01*
X-9386554Y-14291708D01*
X-9416847Y-14266847D01*
X-9441708Y-14236554D01*
X-9460180Y-14201995D01*
X-9471555Y-14164499D01*
X-9476000Y-14119362D01*
X-9476000Y-13480638D01*
X-9471555Y-13435501D01*
X-9460180Y-13398005D01*
X-9441708Y-13363446D01*
X-9416847Y-13333153D01*
X-9386554Y-13308292D01*
X-9351995Y-13289820D01*
X-9314499Y-13278445D01*
X-9269362Y-13274000D01*
X-8530638Y-13274000D01*
X-8485501Y-13278445D01*
G37*
G36*
X-10485501Y-13278445D02*
G01*
X-10448005Y-13289820D01*
X-10413446Y-13308292D01*
X-10383153Y-13333153D01*
X-10358292Y-13363446D01*
X-10339820Y-13398005D01*
X-10328445Y-13435501D01*
X-10324000Y-13480638D01*
X-10324000Y-14119362D01*
X-10328445Y-14164499D01*
X-10339820Y-14201995D01*
X-10358292Y-14236554D01*
X-10383153Y-14266847D01*
X-10413446Y-14291708D01*
X-10448005Y-14310180D01*
X-10485501Y-14321555D01*
X-10530638Y-14326000D01*
X-11269362Y-14326000D01*
X-11314499Y-14321555D01*
X-11351995Y-14310180D01*
X-11386554Y-14291708D01*
X-11416847Y-14266847D01*
X-11441708Y-14236554D01*
X-11460180Y-14201995D01*
X-11471555Y-14164499D01*
X-11476000Y-14119362D01*
X-11476000Y-13480638D01*
X-11471555Y-13435501D01*
X-11460180Y-13398005D01*
X-11441708Y-13363446D01*
X-11416847Y-13333153D01*
X-11386554Y-13308292D01*
X-11351995Y-13289820D01*
X-11314499Y-13278445D01*
X-11269362Y-13274000D01*
X-10530638Y-13274000D01*
X-10485501Y-13278445D01*
G37*
G36*
X-12235501Y-13278445D02*
G01*
X-12198005Y-13289820D01*
X-12163446Y-13308292D01*
X-12133153Y-13333153D01*
X-12108292Y-13363446D01*
X-12089820Y-13398005D01*
X-12078445Y-13435501D01*
X-12074000Y-13480638D01*
X-12074000Y-14119362D01*
X-12078445Y-14164499D01*
X-12089820Y-14201995D01*
X-12108292Y-14236554D01*
X-12133153Y-14266847D01*
X-12163446Y-14291708D01*
X-12198005Y-14310180D01*
X-12235501Y-14321555D01*
X-12280638Y-14326000D01*
X-13019362Y-14326000D01*
X-13064499Y-14321555D01*
X-13101995Y-14310180D01*
X-13136554Y-14291708D01*
X-13166847Y-14266847D01*
X-13191708Y-14236554D01*
X-13210180Y-14201995D01*
X-13221555Y-14164499D01*
X-13226000Y-14119362D01*
X-13226000Y-13480638D01*
X-13221555Y-13435501D01*
X-13210180Y-13398005D01*
X-13191708Y-13363446D01*
X-13166847Y-13333153D01*
X-13136554Y-13308292D01*
X-13101995Y-13289820D01*
X-13064499Y-13278445D01*
X-13019362Y-13274000D01*
X-12280638Y-13274000D01*
X-12235501Y-13278445D01*
G37*
G36*
X-1900830Y-13726803D02*
G01*
X-1889125Y-13730354D01*
X-1878335Y-13736121D01*
X-1868881Y-13743881D01*
X-1861121Y-13753335D01*
X-1855354Y-13764125D01*
X-1851803Y-13775830D01*
X-1850000Y-13794138D01*
X-1850000Y-14157862D01*
X-1851803Y-14176170D01*
X-1855354Y-14187875D01*
X-1861121Y-14198665D01*
X-1868881Y-14208119D01*
X-1878335Y-14215879D01*
X-1889125Y-14221646D01*
X-1900830Y-14225197D01*
X-1919138Y-14227000D01*
X-3382862Y-14227000D01*
X-3401170Y-14225197D01*
X-3412875Y-14221646D01*
X-3423665Y-14215879D01*
X-3433119Y-14208119D01*
X-3440879Y-14198665D01*
X-3446646Y-14187875D01*
X-3450197Y-14176170D01*
X-3452000Y-14157862D01*
X-3452000Y-13794138D01*
X-3450197Y-13775830D01*
X-3446646Y-13764125D01*
X-3440879Y-13753335D01*
X-3433119Y-13743881D01*
X-3423665Y-13736121D01*
X-3412875Y-13730354D01*
X-3401170Y-13726803D01*
X-3382862Y-13725000D01*
X-1919138Y-13725000D01*
X-1900830Y-13726803D01*
G37*
G36*
X6449170Y-13726803D02*
G01*
X6460875Y-13730354D01*
X6471665Y-13736121D01*
X6481119Y-13743881D01*
X6488879Y-13753335D01*
X6494646Y-13764125D01*
X6498197Y-13775830D01*
X6500000Y-13794138D01*
X6500000Y-14157862D01*
X6498197Y-14176170D01*
X6494646Y-14187875D01*
X6488879Y-14198665D01*
X6481119Y-14208119D01*
X6471665Y-14215879D01*
X6460875Y-14221646D01*
X6449170Y-14225197D01*
X6430862Y-14227000D01*
X4967138Y-14227000D01*
X4948830Y-14225197D01*
X4937125Y-14221646D01*
X4926335Y-14215879D01*
X4916881Y-14208119D01*
X4909121Y-14198665D01*
X4903354Y-14187875D01*
X4899803Y-14176170D01*
X4898000Y-14157862D01*
X4898000Y-13794138D01*
X4899803Y-13775830D01*
X4903354Y-13764125D01*
X4909121Y-13753335D01*
X4916881Y-13743881D01*
X4926335Y-13736121D01*
X4937125Y-13730354D01*
X4948830Y-13726803D01*
X4967138Y-13725000D01*
X6430862Y-13725000D01*
X6449170Y-13726803D01*
G37*
G36*
X6449170Y-12926803D02*
G01*
X6460875Y-12930354D01*
X6471665Y-12936121D01*
X6481119Y-12943881D01*
X6488879Y-12953335D01*
X6494646Y-12964125D01*
X6498197Y-12975830D01*
X6500000Y-12994138D01*
X6500000Y-13357862D01*
X6498197Y-13376170D01*
X6494646Y-13387875D01*
X6488879Y-13398665D01*
X6481119Y-13408119D01*
X6471665Y-13415879D01*
X6460875Y-13421646D01*
X6449170Y-13425197D01*
X6430862Y-13427000D01*
X4967138Y-13427000D01*
X4948830Y-13425197D01*
X4937125Y-13421646D01*
X4926335Y-13415879D01*
X4916881Y-13408119D01*
X4909121Y-13398665D01*
X4903354Y-13387875D01*
X4899803Y-13376170D01*
X4898000Y-13357862D01*
X4898000Y-12994138D01*
X4899803Y-12975830D01*
X4903354Y-12964125D01*
X4909121Y-12953335D01*
X4916881Y-12943881D01*
X4926335Y-12936121D01*
X4937125Y-12930354D01*
X4948830Y-12926803D01*
X4967138Y-12925000D01*
X6430862Y-12925000D01*
X6449170Y-12926803D01*
G37*
G36*
X-1900830Y-12926803D02*
G01*
X-1889125Y-12930354D01*
X-1878335Y-12936121D01*
X-1868881Y-12943881D01*
X-1861121Y-12953335D01*
X-1855354Y-12964125D01*
X-1851803Y-12975830D01*
X-1850000Y-12994138D01*
X-1850000Y-13357862D01*
X-1851803Y-13376170D01*
X-1855354Y-13387875D01*
X-1861121Y-13398665D01*
X-1868881Y-13408119D01*
X-1878335Y-13415879D01*
X-1889125Y-13421646D01*
X-1900830Y-13425197D01*
X-1919138Y-13427000D01*
X-3382862Y-13427000D01*
X-3401170Y-13425197D01*
X-3412875Y-13421646D01*
X-3423665Y-13415879D01*
X-3433119Y-13408119D01*
X-3440879Y-13398665D01*
X-3446646Y-13387875D01*
X-3450197Y-13376170D01*
X-3452000Y-13357862D01*
X-3452000Y-12994138D01*
X-3450197Y-12975830D01*
X-3446646Y-12964125D01*
X-3440879Y-12953335D01*
X-3433119Y-12943881D01*
X-3423665Y-12936121D01*
X-3412875Y-12930354D01*
X-3401170Y-12926803D01*
X-3382862Y-12925000D01*
X-1919138Y-12925000D01*
X-1900830Y-12926803D01*
G37*
G36*
X6449170Y-12126803D02*
G01*
X6460875Y-12130354D01*
X6471665Y-12136121D01*
X6481119Y-12143881D01*
X6488879Y-12153335D01*
X6494646Y-12164125D01*
X6498197Y-12175830D01*
X6500000Y-12194138D01*
X6500000Y-12557862D01*
X6498197Y-12576170D01*
X6494646Y-12587875D01*
X6488879Y-12598665D01*
X6481119Y-12608119D01*
X6471665Y-12615879D01*
X6460875Y-12621646D01*
X6449170Y-12625197D01*
X6430862Y-12627000D01*
X4967138Y-12627000D01*
X4948830Y-12625197D01*
X4937125Y-12621646D01*
X4926335Y-12615879D01*
X4916881Y-12608119D01*
X4909121Y-12598665D01*
X4903354Y-12587875D01*
X4899803Y-12576170D01*
X4898000Y-12557862D01*
X4898000Y-12194138D01*
X4899803Y-12175830D01*
X4903354Y-12164125D01*
X4909121Y-12153335D01*
X4916881Y-12143881D01*
X4926335Y-12136121D01*
X4937125Y-12130354D01*
X4948830Y-12126803D01*
X4967138Y-12125000D01*
X6430862Y-12125000D01*
X6449170Y-12126803D01*
G37*
G36*
X-1900830Y-12126803D02*
G01*
X-1889125Y-12130354D01*
X-1878335Y-12136121D01*
X-1868881Y-12143881D01*
X-1861121Y-12153335D01*
X-1855354Y-12164125D01*
X-1851803Y-12175830D01*
X-1850000Y-12194138D01*
X-1850000Y-12557862D01*
X-1851803Y-12576170D01*
X-1855354Y-12587875D01*
X-1861121Y-12598665D01*
X-1868881Y-12608119D01*
X-1878335Y-12615879D01*
X-1889125Y-12621646D01*
X-1900830Y-12625197D01*
X-1919138Y-12627000D01*
X-3382862Y-12627000D01*
X-3401170Y-12625197D01*
X-3412875Y-12621646D01*
X-3423665Y-12615879D01*
X-3433119Y-12608119D01*
X-3440879Y-12598665D01*
X-3446646Y-12587875D01*
X-3450197Y-12576170D01*
X-3452000Y-12557862D01*
X-3452000Y-12194138D01*
X-3450197Y-12175830D01*
X-3446646Y-12164125D01*
X-3440879Y-12153335D01*
X-3433119Y-12143881D01*
X-3423665Y-12136121D01*
X-3412875Y-12130354D01*
X-3401170Y-12126803D01*
X-3382862Y-12125000D01*
X-1919138Y-12125000D01*
X-1900830Y-12126803D01*
G37*
G36*
X6449170Y-11326803D02*
G01*
X6460875Y-11330354D01*
X6471665Y-11336121D01*
X6481119Y-11343881D01*
X6488879Y-11353335D01*
X6494646Y-11364125D01*
X6498197Y-11375830D01*
X6500000Y-11394138D01*
X6500000Y-11757862D01*
X6498197Y-11776170D01*
X6494646Y-11787875D01*
X6488879Y-11798665D01*
X6481119Y-11808119D01*
X6471665Y-11815879D01*
X6460875Y-11821646D01*
X6449170Y-11825197D01*
X6430862Y-11827000D01*
X4967138Y-11827000D01*
X4948830Y-11825197D01*
X4937125Y-11821646D01*
X4926335Y-11815879D01*
X4916881Y-11808119D01*
X4909121Y-11798665D01*
X4903354Y-11787875D01*
X4899803Y-11776170D01*
X4898000Y-11757862D01*
X4898000Y-11394138D01*
X4899803Y-11375830D01*
X4903354Y-11364125D01*
X4909121Y-11353335D01*
X4916881Y-11343881D01*
X4926335Y-11336121D01*
X4937125Y-11330354D01*
X4948830Y-11326803D01*
X4967138Y-11325000D01*
X6430862Y-11325000D01*
X6449170Y-11326803D01*
G37*
G36*
X-1900830Y-11326803D02*
G01*
X-1889125Y-11330354D01*
X-1878335Y-11336121D01*
X-1868881Y-11343881D01*
X-1861121Y-11353335D01*
X-1855354Y-11364125D01*
X-1851803Y-11375830D01*
X-1850000Y-11394138D01*
X-1850000Y-11757862D01*
X-1851803Y-11776170D01*
X-1855354Y-11787875D01*
X-1861121Y-11798665D01*
X-1868881Y-11808119D01*
X-1878335Y-11815879D01*
X-1889125Y-11821646D01*
X-1900830Y-11825197D01*
X-1919138Y-11827000D01*
X-3382862Y-11827000D01*
X-3401170Y-11825197D01*
X-3412875Y-11821646D01*
X-3423665Y-11815879D01*
X-3433119Y-11808119D01*
X-3440879Y-11798665D01*
X-3446646Y-11787875D01*
X-3450197Y-11776170D01*
X-3452000Y-11757862D01*
X-3452000Y-11394138D01*
X-3450197Y-11375830D01*
X-3446646Y-11364125D01*
X-3440879Y-11353335D01*
X-3433119Y-11343881D01*
X-3423665Y-11336121D01*
X-3412875Y-11330354D01*
X-3401170Y-11326803D01*
X-3382862Y-11325000D01*
X-1919138Y-11325000D01*
X-1900830Y-11326803D01*
G37*
G36*
X6449170Y-10526803D02*
G01*
X6460875Y-10530354D01*
X6471665Y-10536121D01*
X6481119Y-10543881D01*
X6488879Y-10553335D01*
X6494646Y-10564125D01*
X6498197Y-10575830D01*
X6500000Y-10594138D01*
X6500000Y-10957862D01*
X6498197Y-10976170D01*
X6494646Y-10987875D01*
X6488879Y-10998665D01*
X6481119Y-11008119D01*
X6471665Y-11015879D01*
X6460875Y-11021646D01*
X6449170Y-11025197D01*
X6430862Y-11027000D01*
X4967138Y-11027000D01*
X4948830Y-11025197D01*
X4937125Y-11021646D01*
X4926335Y-11015879D01*
X4916881Y-11008119D01*
X4909121Y-10998665D01*
X4903354Y-10987875D01*
X4899803Y-10976170D01*
X4898000Y-10957862D01*
X4898000Y-10594138D01*
X4899803Y-10575830D01*
X4903354Y-10564125D01*
X4909121Y-10553335D01*
X4916881Y-10543881D01*
X4926335Y-10536121D01*
X4937125Y-10530354D01*
X4948830Y-10526803D01*
X4967138Y-10525000D01*
X6430862Y-10525000D01*
X6449170Y-10526803D01*
G37*
G36*
X-1900830Y-10526803D02*
G01*
X-1889125Y-10530354D01*
X-1878335Y-10536121D01*
X-1868881Y-10543881D01*
X-1861121Y-10553335D01*
X-1855354Y-10564125D01*
X-1851803Y-10575830D01*
X-1850000Y-10594138D01*
X-1850000Y-10957862D01*
X-1851803Y-10976170D01*
X-1855354Y-10987875D01*
X-1861121Y-10998665D01*
X-1868881Y-11008119D01*
X-1878335Y-11015879D01*
X-1889125Y-11021646D01*
X-1900830Y-11025197D01*
X-1919138Y-11027000D01*
X-3382862Y-11027000D01*
X-3401170Y-11025197D01*
X-3412875Y-11021646D01*
X-3423665Y-11015879D01*
X-3433119Y-11008119D01*
X-3440879Y-10998665D01*
X-3446646Y-10987875D01*
X-3450197Y-10976170D01*
X-3452000Y-10957862D01*
X-3452000Y-10594138D01*
X-3450197Y-10575830D01*
X-3446646Y-10564125D01*
X-3440879Y-10553335D01*
X-3433119Y-10543881D01*
X-3423665Y-10536121D01*
X-3412875Y-10530354D01*
X-3401170Y-10526803D01*
X-3382862Y-10525000D01*
X-1919138Y-10525000D01*
X-1900830Y-10526803D01*
G37*
G36*
X10320721Y-4550174D02*
G01*
X10420995Y-4591709D01*
X10465812Y-4621655D01*
X10511242Y-4652010D01*
X10587990Y-4728758D01*
X10587991Y-4728760D01*
X10648291Y-4819005D01*
X10679516Y-4894389D01*
X10691067Y-4916000D01*
X10706612Y-4934941D01*
X10725554Y-4950487D01*
X10747165Y-4962038D01*
X10770614Y-4969151D01*
X10795000Y-4971553D01*
X10819386Y-4969151D01*
X10842835Y-4962038D01*
X10864446Y-4950487D01*
X10883387Y-4934942D01*
X10898933Y-4916000D01*
X10910484Y-4894389D01*
X10941709Y-4819005D01*
X11002009Y-4728760D01*
X11002010Y-4728758D01*
X11078758Y-4652010D01*
X11124188Y-4621655D01*
X11169005Y-4591709D01*
X11269279Y-4550174D01*
X11375730Y-4529000D01*
X11484270Y-4529000D01*
X11590721Y-4550174D01*
X11690995Y-4591709D01*
X11735812Y-4621655D01*
X11781242Y-4652010D01*
X11857990Y-4728758D01*
X11857991Y-4728760D01*
X11918291Y-4819005D01*
X11959826Y-4919279D01*
X11981000Y-5025730D01*
X11981000Y-5134270D01*
X11959826Y-5240721D01*
X11918291Y-5340995D01*
X11918290Y-5340996D01*
X11857990Y-5431242D01*
X11781242Y-5507990D01*
X11735812Y-5538345D01*
X11690995Y-5568291D01*
X11615611Y-5599516D01*
X11594000Y-5611067D01*
X11575059Y-5626612D01*
X11559513Y-5645554D01*
X11547962Y-5667165D01*
X11540849Y-5690614D01*
X11538447Y-5715000D01*
X11540849Y-5739386D01*
X11547962Y-5762835D01*
X11559513Y-5784446D01*
X11575058Y-5803387D01*
X11594000Y-5818933D01*
X11615611Y-5830484D01*
X11690995Y-5861709D01*
X11690996Y-5861710D01*
X11781242Y-5922010D01*
X11857990Y-5998758D01*
X11857991Y-5998760D01*
X11918291Y-6089005D01*
X11959826Y-6189279D01*
X11981000Y-6295730D01*
X11981000Y-6404270D01*
X11959826Y-6510721D01*
X11918291Y-6610995D01*
X11918290Y-6610996D01*
X11857990Y-6701242D01*
X11781242Y-6777990D01*
X11735812Y-6808345D01*
X11690995Y-6838291D01*
X11615611Y-6869516D01*
X11594000Y-6881067D01*
X11575059Y-6896612D01*
X11559513Y-6915554D01*
X11547962Y-6937165D01*
X11540849Y-6960614D01*
X11538447Y-6985000D01*
X11540849Y-7009386D01*
X11547962Y-7032835D01*
X11559513Y-7054446D01*
X11575058Y-7073387D01*
X11594000Y-7088933D01*
X11615611Y-7100484D01*
X11690995Y-7131709D01*
X11690996Y-7131710D01*
X11781242Y-7192010D01*
X11857990Y-7268758D01*
X11857991Y-7268760D01*
X11918291Y-7359005D01*
X11959826Y-7459279D01*
X11981000Y-7565730D01*
X11981000Y-7674270D01*
X11959826Y-7780721D01*
X11918291Y-7880995D01*
X11918290Y-7880996D01*
X11857990Y-7971242D01*
X11781242Y-8047990D01*
X11735812Y-8078345D01*
X11690995Y-8108291D01*
X11615611Y-8139516D01*
X11594000Y-8151067D01*
X11575059Y-8166612D01*
X11559513Y-8185554D01*
X11547962Y-8207165D01*
X11540849Y-8230614D01*
X11538447Y-8255000D01*
X11540849Y-8279386D01*
X11547962Y-8302835D01*
X11559513Y-8324446D01*
X11575058Y-8343387D01*
X11594000Y-8358933D01*
X11615611Y-8370484D01*
X11690995Y-8401709D01*
X11690996Y-8401710D01*
X11781242Y-8462010D01*
X11857990Y-8538758D01*
X11870755Y-8557862D01*
X11918291Y-8629005D01*
X11959826Y-8729279D01*
X11981000Y-8835730D01*
X11981000Y-8944270D01*
X11959826Y-9050721D01*
X11918291Y-9150995D01*
X11918290Y-9150996D01*
X11857990Y-9241242D01*
X11781242Y-9317990D01*
X11769278Y-9325984D01*
X11690995Y-9378291D01*
X11615611Y-9409516D01*
X11594000Y-9421067D01*
X11575059Y-9436612D01*
X11559513Y-9455554D01*
X11547962Y-9477165D01*
X11540849Y-9500614D01*
X11538447Y-9525000D01*
X11540849Y-9549386D01*
X11547962Y-9572835D01*
X11559513Y-9594446D01*
X11575058Y-9613387D01*
X11594000Y-9628933D01*
X11615611Y-9640484D01*
X11690995Y-9671709D01*
X11690996Y-9671710D01*
X11781242Y-9732010D01*
X11857990Y-9808758D01*
X11857991Y-9808760D01*
X11918291Y-9899005D01*
X11959826Y-9999279D01*
X11981000Y-10105730D01*
X11981000Y-10214270D01*
X11959826Y-10320721D01*
X11918291Y-10420995D01*
X11918290Y-10420996D01*
X11857990Y-10511242D01*
X11781242Y-10587990D01*
X11759566Y-10602473D01*
X11690995Y-10648291D01*
X11590721Y-10689826D01*
X11484270Y-10711000D01*
X11375730Y-10711000D01*
X11269279Y-10689826D01*
X11169005Y-10648291D01*
X11100434Y-10602473D01*
X11078758Y-10587990D01*
X11002010Y-10511242D01*
X10981012Y-10479816D01*
X10939932Y-10418336D01*
X10924386Y-10399394D01*
X10905444Y-10383849D01*
X10883833Y-10372298D01*
X10860385Y-10365185D01*
X10835998Y-10362783D01*
X10811612Y-10365185D01*
X10788163Y-10372298D01*
X10766553Y-10383849D01*
X10747611Y-10399395D01*
X10732066Y-10418337D01*
X10720515Y-10439948D01*
X10713402Y-10463396D01*
X10711000Y-10487782D01*
X10711000Y-10711000D01*
X9609000Y-10711000D01*
X9609000Y-9609000D01*
X9832218Y-9609000D01*
X9856604Y-9606598D01*
X9880053Y-9599485D01*
X9901664Y-9587934D01*
X9920606Y-9572389D01*
X9936151Y-9553447D01*
X9947702Y-9531836D01*
X9954815Y-9508387D01*
X9957216Y-9484002D01*
X10362783Y-9484002D01*
X10365185Y-9508388D01*
X10372298Y-9531837D01*
X10383849Y-9553447D01*
X10399395Y-9572389D01*
X10418337Y-9587934D01*
X10439948Y-9599485D01*
X10463396Y-9606598D01*
X10487782Y-9609000D01*
X10711000Y-9609000D01*
X10711000Y-9832218D01*
X10713402Y-9856604D01*
X10720515Y-9880053D01*
X10732066Y-9901664D01*
X10747611Y-9920606D01*
X10766553Y-9936151D01*
X10788164Y-9947702D01*
X10811613Y-9954815D01*
X10835999Y-9957217D01*
X10860385Y-9954815D01*
X10883834Y-9947702D01*
X10905445Y-9936151D01*
X10924387Y-9920606D01*
X10939932Y-9901664D01*
X11002009Y-9808760D01*
X11002010Y-9808758D01*
X11078758Y-9732010D01*
X11169004Y-9671710D01*
X11169005Y-9671709D01*
X11244389Y-9640484D01*
X11266000Y-9628933D01*
X11284941Y-9613388D01*
X11300487Y-9594446D01*
X11312038Y-9572835D01*
X11319151Y-9549386D01*
X11321553Y-9525000D01*
X11319151Y-9500614D01*
X11312038Y-9477165D01*
X11300487Y-9455554D01*
X11284942Y-9436613D01*
X11266000Y-9421067D01*
X11244389Y-9409516D01*
X11169005Y-9378291D01*
X11090722Y-9325984D01*
X11078758Y-9317990D01*
X11002010Y-9241242D01*
X10941710Y-9150996D01*
X10941709Y-9150995D01*
X10910484Y-9075611D01*
X10898933Y-9054000D01*
X10883388Y-9035059D01*
X10864446Y-9019513D01*
X10842835Y-9007962D01*
X10819386Y-9000849D01*
X10795000Y-8998447D01*
X10770614Y-9000849D01*
X10747165Y-9007962D01*
X10725554Y-9019513D01*
X10706613Y-9035058D01*
X10691067Y-9054000D01*
X10679516Y-9075611D01*
X10648291Y-9150995D01*
X10648290Y-9150996D01*
X10587990Y-9241242D01*
X10511242Y-9317990D01*
X10499278Y-9325984D01*
X10418336Y-9380068D01*
X10399394Y-9395614D01*
X10383849Y-9414556D01*
X10372298Y-9436167D01*
X10365185Y-9459615D01*
X10362783Y-9484002D01*
X9957216Y-9484002D01*
X9957217Y-9484001D01*
X9954815Y-9459615D01*
X9947702Y-9436166D01*
X9936151Y-9414555D01*
X9920606Y-9395613D01*
X9901664Y-9380068D01*
X9820722Y-9325984D01*
X9808758Y-9317990D01*
X9732010Y-9241242D01*
X9671710Y-9150996D01*
X9671709Y-9150995D01*
X9630174Y-9050721D01*
X9609000Y-8944270D01*
X9609000Y-8835730D01*
X9630174Y-8729279D01*
X9671709Y-8629005D01*
X9719245Y-8557862D01*
X9732010Y-8538758D01*
X9808758Y-8462010D01*
X9899004Y-8401710D01*
X9899005Y-8401709D01*
X9974389Y-8370484D01*
X9996000Y-8358933D01*
X10014941Y-8343388D01*
X10030487Y-8324446D01*
X10042038Y-8302835D01*
X10049151Y-8279386D01*
X10051553Y-8255000D01*
X10268447Y-8255000D01*
X10270849Y-8279386D01*
X10277962Y-8302835D01*
X10289513Y-8324446D01*
X10305058Y-8343387D01*
X10324000Y-8358933D01*
X10345611Y-8370484D01*
X10420995Y-8401709D01*
X10420996Y-8401710D01*
X10511242Y-8462010D01*
X10587990Y-8538758D01*
X10600755Y-8557862D01*
X10648291Y-8629005D01*
X10679516Y-8704389D01*
X10691067Y-8726000D01*
X10706612Y-8744941D01*
X10725554Y-8760487D01*
X10747165Y-8772038D01*
X10770614Y-8779151D01*
X10795000Y-8781553D01*
X10819386Y-8779151D01*
X10842835Y-8772038D01*
X10864446Y-8760487D01*
X10883387Y-8744942D01*
X10898933Y-8726000D01*
X10910484Y-8704389D01*
X10941709Y-8629005D01*
X10989245Y-8557862D01*
X11002010Y-8538758D01*
X11078758Y-8462010D01*
X11169004Y-8401710D01*
X11169005Y-8401709D01*
X11244389Y-8370484D01*
X11266000Y-8358933D01*
X11284941Y-8343388D01*
X11300487Y-8324446D01*
X11312038Y-8302835D01*
X11319151Y-8279386D01*
X11321553Y-8255000D01*
X11319151Y-8230614D01*
X11312038Y-8207165D01*
X11300487Y-8185554D01*
X11284942Y-8166613D01*
X11266000Y-8151067D01*
X11244389Y-8139516D01*
X11169005Y-8108291D01*
X11124188Y-8078345D01*
X11078758Y-8047990D01*
X11002010Y-7971242D01*
X10941710Y-7880996D01*
X10941709Y-7880995D01*
X10910484Y-7805611D01*
X10898933Y-7784000D01*
X10883388Y-7765059D01*
X10864446Y-7749513D01*
X10842835Y-7737962D01*
X10819386Y-7730849D01*
X10795000Y-7728447D01*
X10770614Y-7730849D01*
X10747165Y-7737962D01*
X10725554Y-7749513D01*
X10706613Y-7765058D01*
X10691067Y-7784000D01*
X10679516Y-7805611D01*
X10648291Y-7880995D01*
X10648290Y-7880996D01*
X10587990Y-7971242D01*
X10511242Y-8047990D01*
X10465812Y-8078345D01*
X10420995Y-8108291D01*
X10345611Y-8139516D01*
X10324000Y-8151067D01*
X10305059Y-8166612D01*
X10289513Y-8185554D01*
X10277962Y-8207165D01*
X10270849Y-8230614D01*
X10268447Y-8255000D01*
X10051553Y-8255000D01*
X10049151Y-8230614D01*
X10042038Y-8207165D01*
X10030487Y-8185554D01*
X10014942Y-8166613D01*
X9996000Y-8151067D01*
X9974389Y-8139516D01*
X9899005Y-8108291D01*
X9854188Y-8078345D01*
X9808758Y-8047990D01*
X9732010Y-7971242D01*
X9671710Y-7880996D01*
X9671709Y-7880995D01*
X9630174Y-7780721D01*
X9609000Y-7674270D01*
X9609000Y-7565730D01*
X9630174Y-7459279D01*
X9671709Y-7359005D01*
X9732009Y-7268760D01*
X9732010Y-7268758D01*
X9808758Y-7192010D01*
X9899004Y-7131710D01*
X9899005Y-7131709D01*
X9974389Y-7100484D01*
X9996000Y-7088933D01*
X10014941Y-7073388D01*
X10030487Y-7054446D01*
X10042038Y-7032835D01*
X10049151Y-7009386D01*
X10051553Y-6985000D01*
X10268447Y-6985000D01*
X10270849Y-7009386D01*
X10277962Y-7032835D01*
X10289513Y-7054446D01*
X10305058Y-7073387D01*
X10324000Y-7088933D01*
X10345611Y-7100484D01*
X10420995Y-7131709D01*
X10420996Y-7131710D01*
X10511242Y-7192010D01*
X10587990Y-7268758D01*
X10587991Y-7268760D01*
X10648291Y-7359005D01*
X10679516Y-7434389D01*
X10691067Y-7456000D01*
X10706612Y-7474941D01*
X10725554Y-7490487D01*
X10747165Y-7502038D01*
X10770614Y-7509151D01*
X10795000Y-7511553D01*
X10819386Y-7509151D01*
X10842835Y-7502038D01*
X10864446Y-7490487D01*
X10883387Y-7474942D01*
X10898933Y-7456000D01*
X10910484Y-7434389D01*
X10941709Y-7359005D01*
X11002009Y-7268760D01*
X11002010Y-7268758D01*
X11078758Y-7192010D01*
X11169004Y-7131710D01*
X11169005Y-7131709D01*
X11244389Y-7100484D01*
X11266000Y-7088933D01*
X11284941Y-7073388D01*
X11300487Y-7054446D01*
X11312038Y-7032835D01*
X11319151Y-7009386D01*
X11321553Y-6985000D01*
X11319151Y-6960614D01*
X11312038Y-6937165D01*
X11300487Y-6915554D01*
X11284942Y-6896613D01*
X11266000Y-6881067D01*
X11244389Y-6869516D01*
X11169005Y-6838291D01*
X11124188Y-6808345D01*
X11078758Y-6777990D01*
X11002010Y-6701242D01*
X10941710Y-6610996D01*
X10941709Y-6610995D01*
X10910484Y-6535611D01*
X10898933Y-6514000D01*
X10883388Y-6495059D01*
X10864446Y-6479513D01*
X10842835Y-6467962D01*
X10819386Y-6460849D01*
X10795000Y-6458447D01*
X10770614Y-6460849D01*
X10747165Y-6467962D01*
X10725554Y-6479513D01*
X10706613Y-6495058D01*
X10691067Y-6514000D01*
X10679516Y-6535611D01*
X10648291Y-6610995D01*
X10648290Y-6610996D01*
X10587990Y-6701242D01*
X10511242Y-6777990D01*
X10465812Y-6808345D01*
X10420995Y-6838291D01*
X10345611Y-6869516D01*
X10324000Y-6881067D01*
X10305059Y-6896612D01*
X10289513Y-6915554D01*
X10277962Y-6937165D01*
X10270849Y-6960614D01*
X10268447Y-6985000D01*
X10051553Y-6985000D01*
X10049151Y-6960614D01*
X10042038Y-6937165D01*
X10030487Y-6915554D01*
X10014942Y-6896613D01*
X9996000Y-6881067D01*
X9974389Y-6869516D01*
X9899005Y-6838291D01*
X9854188Y-6808345D01*
X9808758Y-6777990D01*
X9732010Y-6701242D01*
X9671710Y-6610996D01*
X9671709Y-6610995D01*
X9630174Y-6510721D01*
X9609000Y-6404270D01*
X9609000Y-6295730D01*
X9630174Y-6189279D01*
X9671709Y-6089005D01*
X9732009Y-5998760D01*
X9732010Y-5998758D01*
X9808758Y-5922010D01*
X9899004Y-5861710D01*
X9899005Y-5861709D01*
X9974389Y-5830484D01*
X9996000Y-5818933D01*
X10014941Y-5803388D01*
X10030487Y-5784446D01*
X10042038Y-5762835D01*
X10049151Y-5739386D01*
X10051553Y-5715000D01*
X10268447Y-5715000D01*
X10270849Y-5739386D01*
X10277962Y-5762835D01*
X10289513Y-5784446D01*
X10305058Y-5803387D01*
X10324000Y-5818933D01*
X10345611Y-5830484D01*
X10420995Y-5861709D01*
X10420996Y-5861710D01*
X10511242Y-5922010D01*
X10587990Y-5998758D01*
X10587991Y-5998760D01*
X10648291Y-6089005D01*
X10679516Y-6164389D01*
X10691067Y-6186000D01*
X10706612Y-6204941D01*
X10725554Y-6220487D01*
X10747165Y-6232038D01*
X10770614Y-6239151D01*
X10795000Y-6241553D01*
X10819386Y-6239151D01*
X10842835Y-6232038D01*
X10864446Y-6220487D01*
X10883387Y-6204942D01*
X10898933Y-6186000D01*
X10910484Y-6164389D01*
X10941709Y-6089005D01*
X11002009Y-5998760D01*
X11002010Y-5998758D01*
X11078758Y-5922010D01*
X11169004Y-5861710D01*
X11169005Y-5861709D01*
X11244389Y-5830484D01*
X11266000Y-5818933D01*
X11284941Y-5803388D01*
X11300487Y-5784446D01*
X11312038Y-5762835D01*
X11319151Y-5739386D01*
X11321553Y-5715000D01*
X11319151Y-5690614D01*
X11312038Y-5667165D01*
X11300487Y-5645554D01*
X11284942Y-5626613D01*
X11266000Y-5611067D01*
X11244389Y-5599516D01*
X11169005Y-5568291D01*
X11124188Y-5538345D01*
X11078758Y-5507990D01*
X11002010Y-5431242D01*
X10941710Y-5340996D01*
X10941709Y-5340995D01*
X10910484Y-5265611D01*
X10898933Y-5244000D01*
X10883388Y-5225059D01*
X10864446Y-5209513D01*
X10842835Y-5197962D01*
X10819386Y-5190849D01*
X10795000Y-5188447D01*
X10770614Y-5190849D01*
X10747165Y-5197962D01*
X10725554Y-5209513D01*
X10706613Y-5225058D01*
X10691067Y-5244000D01*
X10679516Y-5265611D01*
X10648291Y-5340995D01*
X10648290Y-5340996D01*
X10587990Y-5431242D01*
X10511242Y-5507990D01*
X10465812Y-5538345D01*
X10420995Y-5568291D01*
X10345611Y-5599516D01*
X10324000Y-5611067D01*
X10305059Y-5626612D01*
X10289513Y-5645554D01*
X10277962Y-5667165D01*
X10270849Y-5690614D01*
X10268447Y-5715000D01*
X10051553Y-5715000D01*
X10049151Y-5690614D01*
X10042038Y-5667165D01*
X10030487Y-5645554D01*
X10014942Y-5626613D01*
X9996000Y-5611067D01*
X9974389Y-5599516D01*
X9899005Y-5568291D01*
X9854188Y-5538345D01*
X9808758Y-5507990D01*
X9732010Y-5431242D01*
X9671710Y-5340996D01*
X9671709Y-5340995D01*
X9630174Y-5240721D01*
X9609000Y-5134270D01*
X9609000Y-5025730D01*
X9630174Y-4919279D01*
X9671709Y-4819005D01*
X9732009Y-4728760D01*
X9732010Y-4728758D01*
X9808758Y-4652010D01*
X9854188Y-4621655D01*
X9899005Y-4591709D01*
X9999279Y-4550174D01*
X10105730Y-4529000D01*
X10214270Y-4529000D01*
X10320721Y-4550174D01*
G37*
G36*
X-1900830Y-9726803D02*
G01*
X-1889125Y-9730354D01*
X-1878335Y-9736121D01*
X-1868881Y-9743881D01*
X-1861121Y-9753335D01*
X-1855354Y-9764125D01*
X-1851803Y-9775830D01*
X-1850000Y-9794138D01*
X-1850000Y-10157862D01*
X-1851803Y-10176170D01*
X-1855354Y-10187875D01*
X-1861121Y-10198665D01*
X-1868881Y-10208119D01*
X-1878335Y-10215879D01*
X-1889125Y-10221646D01*
X-1900830Y-10225197D01*
X-1919138Y-10227000D01*
X-3382862Y-10227000D01*
X-3401170Y-10225197D01*
X-3412875Y-10221646D01*
X-3423665Y-10215879D01*
X-3433119Y-10208119D01*
X-3440879Y-10198665D01*
X-3446646Y-10187875D01*
X-3450197Y-10176170D01*
X-3452000Y-10157862D01*
X-3452000Y-9794138D01*
X-3450197Y-9775830D01*
X-3446646Y-9764125D01*
X-3440879Y-9753335D01*
X-3433119Y-9743881D01*
X-3423665Y-9736121D01*
X-3412875Y-9730354D01*
X-3401170Y-9726803D01*
X-3382862Y-9725000D01*
X-1919138Y-9725000D01*
X-1900830Y-9726803D01*
G37*
G36*
X6449170Y-9726803D02*
G01*
X6460875Y-9730354D01*
X6471665Y-9736121D01*
X6481119Y-9743881D01*
X6488879Y-9753335D01*
X6494646Y-9764125D01*
X6498197Y-9775830D01*
X6500000Y-9794138D01*
X6500000Y-10157862D01*
X6498197Y-10176170D01*
X6494646Y-10187875D01*
X6488879Y-10198665D01*
X6481119Y-10208119D01*
X6471665Y-10215879D01*
X6460875Y-10221646D01*
X6449170Y-10225197D01*
X6430862Y-10227000D01*
X4967138Y-10227000D01*
X4948830Y-10225197D01*
X4937125Y-10221646D01*
X4926335Y-10215879D01*
X4916881Y-10208119D01*
X4909121Y-10198665D01*
X4903354Y-10187875D01*
X4899803Y-10176170D01*
X4898000Y-10157862D01*
X4898000Y-9794138D01*
X4899803Y-9775830D01*
X4903354Y-9764125D01*
X4909121Y-9753335D01*
X4916881Y-9743881D01*
X4926335Y-9736121D01*
X4937125Y-9730354D01*
X4948830Y-9726803D01*
X4967138Y-9725000D01*
X6430862Y-9725000D01*
X6449170Y-9726803D01*
G37*
G36*
X-1900830Y-8926803D02*
G01*
X-1889125Y-8930354D01*
X-1878335Y-8936121D01*
X-1868881Y-8943881D01*
X-1861121Y-8953335D01*
X-1855354Y-8964125D01*
X-1851803Y-8975830D01*
X-1850000Y-8994138D01*
X-1850000Y-9357862D01*
X-1851803Y-9376170D01*
X-1855354Y-9387875D01*
X-1861121Y-9398665D01*
X-1868881Y-9408119D01*
X-1878335Y-9415879D01*
X-1889125Y-9421646D01*
X-1900830Y-9425197D01*
X-1919138Y-9427000D01*
X-3382862Y-9427000D01*
X-3401170Y-9425197D01*
X-3412875Y-9421646D01*
X-3423665Y-9415879D01*
X-3433119Y-9408119D01*
X-3440879Y-9398665D01*
X-3446646Y-9387875D01*
X-3450197Y-9376170D01*
X-3452000Y-9357862D01*
X-3452000Y-8994138D01*
X-3450197Y-8975830D01*
X-3446646Y-8964125D01*
X-3440879Y-8953335D01*
X-3433119Y-8943881D01*
X-3423665Y-8936121D01*
X-3412875Y-8930354D01*
X-3401170Y-8926803D01*
X-3382862Y-8925000D01*
X-1919138Y-8925000D01*
X-1900830Y-8926803D01*
G37*
G36*
X6449170Y-8926803D02*
G01*
X6460875Y-8930354D01*
X6471665Y-8936121D01*
X6481119Y-8943881D01*
X6488879Y-8953335D01*
X6494646Y-8964125D01*
X6498197Y-8975830D01*
X6500000Y-8994138D01*
X6500000Y-9357862D01*
X6498197Y-9376170D01*
X6494646Y-9387875D01*
X6488879Y-9398665D01*
X6481119Y-9408119D01*
X6471665Y-9415879D01*
X6460875Y-9421646D01*
X6449170Y-9425197D01*
X6430862Y-9427000D01*
X4967138Y-9427000D01*
X4948830Y-9425197D01*
X4937125Y-9421646D01*
X4926335Y-9415879D01*
X4916881Y-9408119D01*
X4909121Y-9398665D01*
X4903354Y-9387875D01*
X4899803Y-9376170D01*
X4898000Y-9357862D01*
X4898000Y-8994138D01*
X4899803Y-8975830D01*
X4903354Y-8964125D01*
X4909121Y-8953335D01*
X4916881Y-8943881D01*
X4926335Y-8936121D01*
X4937125Y-8930354D01*
X4948830Y-8926803D01*
X4967138Y-8925000D01*
X6430862Y-8925000D01*
X6449170Y-8926803D01*
G37*
G36*
X-6415501Y-7878445D02*
G01*
X-6378005Y-7889820D01*
X-6343446Y-7908292D01*
X-6313153Y-7933153D01*
X-6288292Y-7963446D01*
X-6269820Y-7998005D01*
X-6258445Y-8035501D01*
X-6254000Y-8080638D01*
X-6254000Y-8719362D01*
X-6258445Y-8764499D01*
X-6269820Y-8801995D01*
X-6288292Y-8836554D01*
X-6313153Y-8866847D01*
X-6343446Y-8891708D01*
X-6378005Y-8910180D01*
X-6415501Y-8921555D01*
X-6460638Y-8926000D01*
X-7199362Y-8926000D01*
X-7244499Y-8921555D01*
X-7281995Y-8910180D01*
X-7316554Y-8891708D01*
X-7346847Y-8866847D01*
X-7371708Y-8836554D01*
X-7390180Y-8801995D01*
X-7401555Y-8764499D01*
X-7406000Y-8719362D01*
X-7406000Y-8080638D01*
X-7401555Y-8035501D01*
X-7390180Y-7998005D01*
X-7371708Y-7963446D01*
X-7346847Y-7933153D01*
X-7316554Y-7908292D01*
X-7281995Y-7889820D01*
X-7244499Y-7878445D01*
X-7199362Y-7874000D01*
X-6460638Y-7874000D01*
X-6415501Y-7878445D01*
G37*
G36*
X-4665501Y-7878445D02*
G01*
X-4628005Y-7889820D01*
X-4593446Y-7908292D01*
X-4563153Y-7933153D01*
X-4538292Y-7963446D01*
X-4519820Y-7998005D01*
X-4508445Y-8035501D01*
X-4504000Y-8080638D01*
X-4504000Y-8719362D01*
X-4508445Y-8764499D01*
X-4519820Y-8801995D01*
X-4538292Y-8836554D01*
X-4563153Y-8866847D01*
X-4593446Y-8891708D01*
X-4628005Y-8910180D01*
X-4665501Y-8921555D01*
X-4710638Y-8926000D01*
X-5449362Y-8926000D01*
X-5494499Y-8921555D01*
X-5531995Y-8910180D01*
X-5566554Y-8891708D01*
X-5596847Y-8866847D01*
X-5621708Y-8836554D01*
X-5640180Y-8801995D01*
X-5651555Y-8764499D01*
X-5656000Y-8719362D01*
X-5656000Y-8080638D01*
X-5651555Y-8035501D01*
X-5640180Y-7998005D01*
X-5621708Y-7963446D01*
X-5596847Y-7933153D01*
X-5566554Y-7908292D01*
X-5531995Y-7889820D01*
X-5494499Y-7878445D01*
X-5449362Y-7874000D01*
X-4710638Y-7874000D01*
X-4665501Y-7878445D01*
G37*
G36*
X6449170Y-8126803D02*
G01*
X6460875Y-8130354D01*
X6471665Y-8136121D01*
X6481119Y-8143881D01*
X6488879Y-8153335D01*
X6494646Y-8164125D01*
X6498197Y-8175830D01*
X6500000Y-8194138D01*
X6500000Y-8557862D01*
X6498197Y-8576170D01*
X6494646Y-8587875D01*
X6488879Y-8598665D01*
X6481119Y-8608119D01*
X6471665Y-8615879D01*
X6460875Y-8621646D01*
X6449170Y-8625197D01*
X6430862Y-8627000D01*
X4967138Y-8627000D01*
X4948830Y-8625197D01*
X4937125Y-8621646D01*
X4926335Y-8615879D01*
X4916881Y-8608119D01*
X4909121Y-8598665D01*
X4903354Y-8587875D01*
X4899803Y-8576170D01*
X4898000Y-8557862D01*
X4898000Y-8194138D01*
X4899803Y-8175830D01*
X4903354Y-8164125D01*
X4909121Y-8153335D01*
X4916881Y-8143881D01*
X4926335Y-8136121D01*
X4937125Y-8130354D01*
X4948830Y-8126803D01*
X4967138Y-8125000D01*
X6430862Y-8125000D01*
X6449170Y-8126803D01*
G37*
G36*
X-1900830Y-8126803D02*
G01*
X-1889125Y-8130354D01*
X-1878335Y-8136121D01*
X-1868881Y-8143881D01*
X-1861121Y-8153335D01*
X-1855354Y-8164125D01*
X-1851803Y-8175830D01*
X-1850000Y-8194138D01*
X-1850000Y-8557862D01*
X-1851803Y-8576170D01*
X-1855354Y-8587875D01*
X-1861121Y-8598665D01*
X-1868881Y-8608119D01*
X-1878335Y-8615879D01*
X-1889125Y-8621646D01*
X-1900830Y-8625197D01*
X-1919138Y-8627000D01*
X-3382862Y-8627000D01*
X-3401170Y-8625197D01*
X-3412875Y-8621646D01*
X-3423665Y-8615879D01*
X-3433119Y-8608119D01*
X-3440879Y-8598665D01*
X-3446646Y-8587875D01*
X-3450197Y-8576170D01*
X-3452000Y-8557862D01*
X-3452000Y-8194138D01*
X-3450197Y-8175830D01*
X-3446646Y-8164125D01*
X-3440879Y-8153335D01*
X-3433119Y-8143881D01*
X-3423665Y-8136121D01*
X-3412875Y-8130354D01*
X-3401170Y-8126803D01*
X-3382862Y-8125000D01*
X-1919138Y-8125000D01*
X-1900830Y-8126803D01*
G37*
G36*
X4524170Y-6201803D02*
G01*
X4535875Y-6205354D01*
X4546665Y-6211121D01*
X4556119Y-6218881D01*
X4563879Y-6228335D01*
X4569646Y-6239125D01*
X4573197Y-6250830D01*
X4575000Y-6269138D01*
X4575000Y-7732862D01*
X4573197Y-7751170D01*
X4569646Y-7762875D01*
X4563879Y-7773665D01*
X4556119Y-7783119D01*
X4546665Y-7790879D01*
X4535875Y-7796646D01*
X4524170Y-7800197D01*
X4505862Y-7802000D01*
X4142138Y-7802000D01*
X4123830Y-7800197D01*
X4112125Y-7796646D01*
X4101335Y-7790879D01*
X4091881Y-7783119D01*
X4084121Y-7773665D01*
X4078354Y-7762875D01*
X4074803Y-7751170D01*
X4073000Y-7732862D01*
X4073000Y-6269138D01*
X4074803Y-6250830D01*
X4078354Y-6239125D01*
X4084121Y-6228335D01*
X4091881Y-6218881D01*
X4101335Y-6211121D01*
X4112125Y-6205354D01*
X4123830Y-6201803D01*
X4142138Y-6200000D01*
X4505862Y-6200000D01*
X4524170Y-6201803D01*
G37*
G36*
X3724170Y-6201803D02*
G01*
X3735875Y-6205354D01*
X3746665Y-6211121D01*
X3756119Y-6218881D01*
X3763879Y-6228335D01*
X3769646Y-6239125D01*
X3773197Y-6250830D01*
X3775000Y-6269138D01*
X3775000Y-7732862D01*
X3773197Y-7751170D01*
X3769646Y-7762875D01*
X3763879Y-7773665D01*
X3756119Y-7783119D01*
X3746665Y-7790879D01*
X3735875Y-7796646D01*
X3724170Y-7800197D01*
X3705862Y-7802000D01*
X3342138Y-7802000D01*
X3323830Y-7800197D01*
X3312125Y-7796646D01*
X3301335Y-7790879D01*
X3291881Y-7783119D01*
X3284121Y-7773665D01*
X3278354Y-7762875D01*
X3274803Y-7751170D01*
X3273000Y-7732862D01*
X3273000Y-6269138D01*
X3274803Y-6250830D01*
X3278354Y-6239125D01*
X3284121Y-6228335D01*
X3291881Y-6218881D01*
X3301335Y-6211121D01*
X3312125Y-6205354D01*
X3323830Y-6201803D01*
X3342138Y-6200000D01*
X3705862Y-6200000D01*
X3724170Y-6201803D01*
G37*
G36*
X2924170Y-6201803D02*
G01*
X2935875Y-6205354D01*
X2946665Y-6211121D01*
X2956119Y-6218881D01*
X2963879Y-6228335D01*
X2969646Y-6239125D01*
X2973197Y-6250830D01*
X2975000Y-6269138D01*
X2975000Y-7732862D01*
X2973197Y-7751170D01*
X2969646Y-7762875D01*
X2963879Y-7773665D01*
X2956119Y-7783119D01*
X2946665Y-7790879D01*
X2935875Y-7796646D01*
X2924170Y-7800197D01*
X2905862Y-7802000D01*
X2542138Y-7802000D01*
X2523830Y-7800197D01*
X2512125Y-7796646D01*
X2501335Y-7790879D01*
X2491881Y-7783119D01*
X2484121Y-7773665D01*
X2478354Y-7762875D01*
X2474803Y-7751170D01*
X2473000Y-7732862D01*
X2473000Y-6269138D01*
X2474803Y-6250830D01*
X2478354Y-6239125D01*
X2484121Y-6228335D01*
X2491881Y-6218881D01*
X2501335Y-6211121D01*
X2512125Y-6205354D01*
X2523830Y-6201803D01*
X2542138Y-6200000D01*
X2905862Y-6200000D01*
X2924170Y-6201803D01*
G37*
G36*
X2124170Y-6201803D02*
G01*
X2135875Y-6205354D01*
X2146665Y-6211121D01*
X2156119Y-6218881D01*
X2163879Y-6228335D01*
X2169646Y-6239125D01*
X2173197Y-6250830D01*
X2175000Y-6269138D01*
X2175000Y-7732862D01*
X2173197Y-7751170D01*
X2169646Y-7762875D01*
X2163879Y-7773665D01*
X2156119Y-7783119D01*
X2146665Y-7790879D01*
X2135875Y-7796646D01*
X2124170Y-7800197D01*
X2105862Y-7802000D01*
X1742138Y-7802000D01*
X1723830Y-7800197D01*
X1712125Y-7796646D01*
X1701335Y-7790879D01*
X1691881Y-7783119D01*
X1684121Y-7773665D01*
X1678354Y-7762875D01*
X1674803Y-7751170D01*
X1673000Y-7732862D01*
X1673000Y-6269138D01*
X1674803Y-6250830D01*
X1678354Y-6239125D01*
X1684121Y-6228335D01*
X1691881Y-6218881D01*
X1701335Y-6211121D01*
X1712125Y-6205354D01*
X1723830Y-6201803D01*
X1742138Y-6200000D01*
X2105862Y-6200000D01*
X2124170Y-6201803D01*
G37*
G36*
X1324170Y-6201803D02*
G01*
X1335875Y-6205354D01*
X1346665Y-6211121D01*
X1356119Y-6218881D01*
X1363879Y-6228335D01*
X1369646Y-6239125D01*
X1373197Y-6250830D01*
X1375000Y-6269138D01*
X1375000Y-7732862D01*
X1373197Y-7751170D01*
X1369646Y-7762875D01*
X1363879Y-7773665D01*
X1356119Y-7783119D01*
X1346665Y-7790879D01*
X1335875Y-7796646D01*
X1324170Y-7800197D01*
X1305862Y-7802000D01*
X942138Y-7802000D01*
X923830Y-7800197D01*
X912125Y-7796646D01*
X901335Y-7790879D01*
X891881Y-7783119D01*
X884121Y-7773665D01*
X878354Y-7762875D01*
X874803Y-7751170D01*
X873000Y-7732862D01*
X873000Y-6269138D01*
X874803Y-6250830D01*
X878354Y-6239125D01*
X884121Y-6228335D01*
X891881Y-6218881D01*
X901335Y-6211121D01*
X912125Y-6205354D01*
X923830Y-6201803D01*
X942138Y-6200000D01*
X1305862Y-6200000D01*
X1324170Y-6201803D01*
G37*
G36*
X524170Y-6201803D02*
G01*
X535875Y-6205354D01*
X546665Y-6211121D01*
X556119Y-6218881D01*
X563879Y-6228335D01*
X569646Y-6239125D01*
X573197Y-6250830D01*
X575000Y-6269138D01*
X575000Y-7732862D01*
X573197Y-7751170D01*
X569646Y-7762875D01*
X563879Y-7773665D01*
X556119Y-7783119D01*
X546665Y-7790879D01*
X535875Y-7796646D01*
X524170Y-7800197D01*
X505862Y-7802000D01*
X142138Y-7802000D01*
X123830Y-7800197D01*
X112125Y-7796646D01*
X101335Y-7790879D01*
X91881Y-7783119D01*
X84121Y-7773665D01*
X78354Y-7762875D01*
X74803Y-7751170D01*
X73000Y-7732862D01*
X73000Y-6269138D01*
X74803Y-6250830D01*
X78354Y-6239125D01*
X84121Y-6228335D01*
X91881Y-6218881D01*
X101335Y-6211121D01*
X112125Y-6205354D01*
X123830Y-6201803D01*
X142138Y-6200000D01*
X505862Y-6200000D01*
X524170Y-6201803D01*
G37*
G36*
X-275830Y-6201803D02*
G01*
X-264125Y-6205354D01*
X-253335Y-6211121D01*
X-243881Y-6218881D01*
X-236121Y-6228335D01*
X-230354Y-6239125D01*
X-226803Y-6250830D01*
X-225000Y-6269138D01*
X-225000Y-7732862D01*
X-226803Y-7751170D01*
X-230354Y-7762875D01*
X-236121Y-7773665D01*
X-243881Y-7783119D01*
X-253335Y-7790879D01*
X-264125Y-7796646D01*
X-275830Y-7800197D01*
X-294138Y-7802000D01*
X-657862Y-7802000D01*
X-676170Y-7800197D01*
X-687875Y-7796646D01*
X-698665Y-7790879D01*
X-708119Y-7783119D01*
X-715879Y-7773665D01*
X-721646Y-7762875D01*
X-725197Y-7751170D01*
X-727000Y-7732862D01*
X-727000Y-6269138D01*
X-725197Y-6250830D01*
X-721646Y-6239125D01*
X-715879Y-6228335D01*
X-708119Y-6218881D01*
X-698665Y-6211121D01*
X-687875Y-6205354D01*
X-676170Y-6201803D01*
X-657862Y-6200000D01*
X-294138Y-6200000D01*
X-275830Y-6201803D01*
G37*
G36*
X-1075830Y-6201803D02*
G01*
X-1064125Y-6205354D01*
X-1053335Y-6211121D01*
X-1043881Y-6218881D01*
X-1036121Y-6228335D01*
X-1030354Y-6239125D01*
X-1026803Y-6250830D01*
X-1025000Y-6269138D01*
X-1025000Y-7732862D01*
X-1026803Y-7751170D01*
X-1030354Y-7762875D01*
X-1036121Y-7773665D01*
X-1043881Y-7783119D01*
X-1053335Y-7790879D01*
X-1064125Y-7796646D01*
X-1075830Y-7800197D01*
X-1094138Y-7802000D01*
X-1457862Y-7802000D01*
X-1476170Y-7800197D01*
X-1487875Y-7796646D01*
X-1498665Y-7790879D01*
X-1508119Y-7783119D01*
X-1515879Y-7773665D01*
X-1521646Y-7762875D01*
X-1525197Y-7751170D01*
X-1527000Y-7732862D01*
X-1527000Y-6269138D01*
X-1525197Y-6250830D01*
X-1521646Y-6239125D01*
X-1515879Y-6228335D01*
X-1508119Y-6218881D01*
X-1498665Y-6211121D01*
X-1487875Y-6205354D01*
X-1476170Y-6201803D01*
X-1457862Y-6200000D01*
X-1094138Y-6200000D01*
X-1075830Y-6201803D01*
G37*
G36*
X-4665501Y-5978445D02*
G01*
X-4628005Y-5989820D01*
X-4593446Y-6008292D01*
X-4563153Y-6033153D01*
X-4538292Y-6063446D01*
X-4519820Y-6098005D01*
X-4508445Y-6135501D01*
X-4504000Y-6180638D01*
X-4504000Y-6819362D01*
X-4508445Y-6864499D01*
X-4519820Y-6901995D01*
X-4538292Y-6936554D01*
X-4563153Y-6966847D01*
X-4593446Y-6991708D01*
X-4628005Y-7010180D01*
X-4665501Y-7021555D01*
X-4710638Y-7026000D01*
X-5449362Y-7026000D01*
X-5494499Y-7021555D01*
X-5531995Y-7010180D01*
X-5566554Y-6991708D01*
X-5596847Y-6966847D01*
X-5621708Y-6936554D01*
X-5640180Y-6901995D01*
X-5651555Y-6864499D01*
X-5656000Y-6819362D01*
X-5656000Y-6180638D01*
X-5651555Y-6135501D01*
X-5640180Y-6098005D01*
X-5621708Y-6063446D01*
X-5596847Y-6033153D01*
X-5566554Y-6008292D01*
X-5531995Y-5989820D01*
X-5494499Y-5978445D01*
X-5449362Y-5974000D01*
X-4710638Y-5974000D01*
X-4665501Y-5978445D01*
G37*
G36*
X-6415501Y-5978445D02*
G01*
X-6378005Y-5989820D01*
X-6343446Y-6008292D01*
X-6313153Y-6033153D01*
X-6288292Y-6063446D01*
X-6269820Y-6098005D01*
X-6258445Y-6135501D01*
X-6254000Y-6180638D01*
X-6254000Y-6819362D01*
X-6258445Y-6864499D01*
X-6269820Y-6901995D01*
X-6288292Y-6936554D01*
X-6313153Y-6966847D01*
X-6343446Y-6991708D01*
X-6378005Y-7010180D01*
X-6415501Y-7021555D01*
X-6460638Y-7026000D01*
X-7199362Y-7026000D01*
X-7244499Y-7021555D01*
X-7281995Y-7010180D01*
X-7316554Y-6991708D01*
X-7346847Y-6966847D01*
X-7371708Y-6936554D01*
X-7390180Y-6901995D01*
X-7401555Y-6864499D01*
X-7406000Y-6819362D01*
X-7406000Y-6180638D01*
X-7401555Y-6135501D01*
X-7390180Y-6098005D01*
X-7371708Y-6063446D01*
X-7346847Y-6033153D01*
X-7316554Y-6008292D01*
X-7281995Y-5989820D01*
X-7244499Y-5978445D01*
X-7199362Y-5974000D01*
X-6460638Y-5974000D01*
X-6415501Y-5978445D01*
G37*
G36*
X8008015Y-2956973D02*
G01*
X8111879Y-2988479D01*
X8121504Y-2993624D01*
X8207600Y-3039643D01*
X8291501Y-3108499D01*
X8360357Y-3192400D01*
X8396995Y-3260945D01*
X8411521Y-3288121D01*
X8443027Y-3391985D01*
X8451000Y-3472933D01*
X8451000Y-4527067D01*
X8443027Y-4608015D01*
X8411521Y-4711879D01*
X8360356Y-4807600D01*
X8291501Y-4891501D01*
X8238567Y-4934942D01*
X8207599Y-4960357D01*
X8155907Y-4987987D01*
X8111878Y-5011521D01*
X8008014Y-5043027D01*
X7900000Y-5053666D01*
X7791985Y-5043027D01*
X7688121Y-5011521D01*
X7644093Y-4987987D01*
X7592401Y-4960357D01*
X7561433Y-4934942D01*
X7508499Y-4891501D01*
X7439644Y-4807600D01*
X7388479Y-4711878D01*
X7384615Y-4699139D01*
X7375239Y-4676503D01*
X7361625Y-4656129D01*
X7344298Y-4638802D01*
X7323923Y-4625188D01*
X7301285Y-4615811D01*
X7277251Y-4611031D01*
X7252747Y-4611031D01*
X7228714Y-4615812D01*
X7206075Y-4625189D01*
X7185701Y-4638803D01*
X7168374Y-4656130D01*
X7154760Y-4676505D01*
X7145388Y-4699131D01*
X7141521Y-4711879D01*
X7090356Y-4807600D01*
X7021501Y-4891501D01*
X6968567Y-4934942D01*
X6937599Y-4960357D01*
X6885907Y-4987987D01*
X6841878Y-5011521D01*
X6738014Y-5043027D01*
X6630000Y-5053666D01*
X6521985Y-5043027D01*
X6418121Y-5011521D01*
X6374093Y-4987987D01*
X6322401Y-4960357D01*
X6291433Y-4934942D01*
X6238499Y-4891501D01*
X6169644Y-4807600D01*
X6118479Y-4711878D01*
X6114615Y-4699139D01*
X6105239Y-4676503D01*
X6091625Y-4656129D01*
X6074298Y-4638802D01*
X6053923Y-4625188D01*
X6031285Y-4615811D01*
X6007251Y-4611031D01*
X5982747Y-4611031D01*
X5958714Y-4615812D01*
X5936075Y-4625189D01*
X5915701Y-4638803D01*
X5898374Y-4656130D01*
X5884760Y-4676505D01*
X5875388Y-4699131D01*
X5871521Y-4711879D01*
X5820356Y-4807600D01*
X5751501Y-4891501D01*
X5698567Y-4934942D01*
X5667599Y-4960357D01*
X5615907Y-4987987D01*
X5571878Y-5011521D01*
X5468014Y-5043027D01*
X5360000Y-5053666D01*
X5251985Y-5043027D01*
X5148121Y-5011521D01*
X5104093Y-4987987D01*
X5052401Y-4960357D01*
X5021433Y-4934942D01*
X4968499Y-4891501D01*
X4899644Y-4807600D01*
X4874736Y-4761000D01*
X4857502Y-4728758D01*
X4848479Y-4711878D01*
X4816973Y-4608014D01*
X4809000Y-4527066D01*
X4809001Y-3472933D01*
X4816974Y-3391985D01*
X4848480Y-3288121D01*
X4863006Y-3260945D01*
X4899644Y-3192400D01*
X4968500Y-3108499D01*
X5052401Y-3039643D01*
X5138497Y-2993624D01*
X5148122Y-2988479D01*
X5251986Y-2956973D01*
X5360000Y-2946334D01*
X5468015Y-2956973D01*
X5571879Y-2988479D01*
X5581504Y-2993624D01*
X5667600Y-3039643D01*
X5751501Y-3108499D01*
X5820357Y-3192400D01*
X5855269Y-3257717D01*
X5871521Y-3288121D01*
X5875387Y-3300866D01*
X5884763Y-3323499D01*
X5898377Y-3343873D01*
X5915704Y-3361200D01*
X5936079Y-3374813D01*
X5958718Y-3384190D01*
X5982751Y-3388970D01*
X6007256Y-3388970D01*
X6031289Y-3384189D01*
X6053927Y-3374811D01*
X6074301Y-3361197D01*
X6091628Y-3343870D01*
X6105241Y-3323495D01*
X6114614Y-3300865D01*
X6118480Y-3288121D01*
X6134732Y-3257717D01*
X6169644Y-3192400D01*
X6238500Y-3108499D01*
X6322401Y-3039643D01*
X6408497Y-2993624D01*
X6418122Y-2988479D01*
X6521986Y-2956973D01*
X6630000Y-2946334D01*
X6738015Y-2956973D01*
X6841879Y-2988479D01*
X6851504Y-2993624D01*
X6937600Y-3039643D01*
X7021501Y-3108499D01*
X7090357Y-3192400D01*
X7125269Y-3257717D01*
X7141521Y-3288121D01*
X7145387Y-3300866D01*
X7154763Y-3323499D01*
X7168377Y-3343873D01*
X7185704Y-3361200D01*
X7206079Y-3374813D01*
X7228718Y-3384190D01*
X7252751Y-3388970D01*
X7277256Y-3388970D01*
X7301289Y-3384189D01*
X7323927Y-3374811D01*
X7344301Y-3361197D01*
X7361628Y-3343870D01*
X7375241Y-3323495D01*
X7384614Y-3300865D01*
X7388480Y-3288121D01*
X7404732Y-3257717D01*
X7439644Y-3192400D01*
X7508500Y-3108499D01*
X7592401Y-3039643D01*
X7678497Y-2993624D01*
X7688122Y-2988479D01*
X7791986Y-2956973D01*
X7900000Y-2946334D01*
X8008015Y-2956973D01*
G37*
G36*
X-9419000Y-4761000D02*
G01*
X-11221000Y-4761000D01*
X-11221000Y-2959000D01*
X-9419000Y-2959000D01*
X-9419000Y-4761000D01*
G37*
G36*
X-7666488Y-2963927D02*
G01*
X-7517188Y-2993624D01*
X-7353216Y-3061544D01*
X-7205646Y-3160147D01*
X-7080147Y-3285646D01*
X-6981544Y-3433216D01*
X-6913624Y-3597188D01*
X-6879000Y-3771259D01*
X-6879000Y-3948741D01*
X-6913624Y-4122812D01*
X-6981544Y-4286784D01*
X-7080147Y-4434354D01*
X-7205646Y-4559853D01*
X-7353216Y-4658456D01*
X-7517188Y-4726376D01*
X-7666488Y-4756073D01*
X-7691258Y-4761000D01*
X-7868742Y-4761000D01*
X-7893512Y-4756073D01*
X-8042812Y-4726376D01*
X-8206784Y-4658456D01*
X-8354354Y-4559853D01*
X-8479853Y-4434354D01*
X-8578456Y-4286784D01*
X-8646376Y-4122812D01*
X-8681000Y-3948741D01*
X-8681000Y-3771259D01*
X-8646376Y-3597188D01*
X-8578456Y-3433216D01*
X-8479853Y-3285646D01*
X-8354354Y-3160147D01*
X-8206784Y-3061544D01*
X-8042812Y-2993624D01*
X-7893512Y-2963927D01*
X-7868742Y-2959000D01*
X-7691258Y-2959000D01*
X-7666488Y-2963927D01*
G37*
G36*
X-5126488Y-2963927D02*
G01*
X-4977188Y-2993624D01*
X-4813216Y-3061544D01*
X-4665646Y-3160147D01*
X-4540147Y-3285646D01*
X-4441544Y-3433216D01*
X-4373624Y-3597188D01*
X-4339000Y-3771259D01*
X-4339000Y-3948741D01*
X-4373624Y-4122812D01*
X-4441544Y-4286784D01*
X-4540147Y-4434354D01*
X-4665646Y-4559853D01*
X-4813216Y-4658456D01*
X-4977188Y-4726376D01*
X-5126488Y-4756073D01*
X-5151258Y-4761000D01*
X-5328742Y-4761000D01*
X-5353512Y-4756073D01*
X-5502812Y-4726376D01*
X-5666784Y-4658456D01*
X-5814354Y-4559853D01*
X-5939853Y-4434354D01*
X-6038456Y-4286784D01*
X-6106376Y-4122812D01*
X-6141000Y-3948741D01*
X-6141000Y-3771259D01*
X-6106376Y-3597188D01*
X-6038456Y-3433216D01*
X-5939853Y-3285646D01*
X-5814354Y-3160147D01*
X-5666784Y-3061544D01*
X-5502812Y-2993624D01*
X-5353512Y-2963927D01*
X-5328742Y-2959000D01*
X-5151258Y-2959000D01*
X-5126488Y-2963927D01*
G37*
G36*
X-2586488Y-2963927D02*
G01*
X-2437188Y-2993624D01*
X-2273216Y-3061544D01*
X-2125646Y-3160147D01*
X-2000147Y-3285646D01*
X-1901544Y-3433216D01*
X-1833624Y-3597188D01*
X-1799000Y-3771259D01*
X-1799000Y-3948741D01*
X-1833624Y-4122812D01*
X-1901544Y-4286784D01*
X-2000147Y-4434354D01*
X-2125646Y-4559853D01*
X-2273216Y-4658456D01*
X-2437188Y-4726376D01*
X-2586488Y-4756073D01*
X-2611258Y-4761000D01*
X-2788742Y-4761000D01*
X-2813512Y-4756073D01*
X-2962812Y-4726376D01*
X-3126784Y-4658456D01*
X-3274354Y-4559853D01*
X-3399853Y-4434354D01*
X-3498456Y-4286784D01*
X-3566376Y-4122812D01*
X-3601000Y-3948741D01*
X-3601000Y-3771259D01*
X-3566376Y-3597188D01*
X-3498456Y-3433216D01*
X-3399853Y-3285646D01*
X-3274354Y-3160147D01*
X-3126784Y-3061544D01*
X-2962812Y-2993624D01*
X-2813512Y-2963927D01*
X-2788742Y-2959000D01*
X-2611258Y-2959000D01*
X-2586488Y-2963927D01*
G37*
G36*
X-46488Y-2963927D02*
G01*
X102812Y-2993624D01*
X266784Y-3061544D01*
X414354Y-3160147D01*
X539853Y-3285646D01*
X638456Y-3433216D01*
X706376Y-3597188D01*
X741000Y-3771259D01*
X741000Y-3948741D01*
X706376Y-4122812D01*
X638456Y-4286784D01*
X539853Y-4434354D01*
X414354Y-4559853D01*
X266784Y-4658456D01*
X102812Y-4726376D01*
X-46488Y-4756073D01*
X-71258Y-4761000D01*
X-248742Y-4761000D01*
X-273512Y-4756073D01*
X-422812Y-4726376D01*
X-586784Y-4658456D01*
X-734354Y-4559853D01*
X-859853Y-4434354D01*
X-958456Y-4286784D01*
X-1026376Y-4122812D01*
X-1061000Y-3948741D01*
X-1061000Y-3771259D01*
X-1026376Y-3597188D01*
X-958456Y-3433216D01*
X-859853Y-3285646D01*
X-734354Y-3160147D01*
X-586784Y-3061544D01*
X-422812Y-2993624D01*
X-273512Y-2963927D01*
X-248742Y-2959000D01*
X-71258Y-2959000D01*
X-46488Y-2963927D01*
G37*
G36*
X7733512Y-373927D02*
G01*
X7882812Y-403624D01*
X8046784Y-471544D01*
X8194354Y-570147D01*
X8319853Y-695646D01*
X8418456Y-843216D01*
X8486376Y-1007188D01*
X8521000Y-1181259D01*
X8521000Y-1358741D01*
X8486376Y-1532812D01*
X8418456Y-1696784D01*
X8319853Y-1844354D01*
X8194354Y-1969853D01*
X8046784Y-2068456D01*
X7882812Y-2136376D01*
X7733512Y-2166073D01*
X7708742Y-2171000D01*
X7531258Y-2171000D01*
X7506488Y-2166073D01*
X7357188Y-2136376D01*
X7193216Y-2068456D01*
X7045646Y-1969853D01*
X6920147Y-1844354D01*
X6821544Y-1696784D01*
X6753624Y-1532812D01*
X6719000Y-1358741D01*
X6719000Y-1181259D01*
X6753624Y-1007188D01*
X6821544Y-843216D01*
X6920147Y-695646D01*
X7045646Y-570147D01*
X7193216Y-471544D01*
X7357188Y-403624D01*
X7506488Y-373927D01*
X7531258Y-369000D01*
X7708742Y-369000D01*
X7733512Y-373927D01*
G37*
G36*
X5193512Y-373927D02*
G01*
X5342812Y-403624D01*
X5506784Y-471544D01*
X5654354Y-570147D01*
X5779853Y-695646D01*
X5878456Y-843216D01*
X5946376Y-1007188D01*
X5981000Y-1181259D01*
X5981000Y-1358741D01*
X5946376Y-1532812D01*
X5878456Y-1696784D01*
X5779853Y-1844354D01*
X5654354Y-1969853D01*
X5506784Y-2068456D01*
X5342812Y-2136376D01*
X5193512Y-2166073D01*
X5168742Y-2171000D01*
X4991258Y-2171000D01*
X4966488Y-2166073D01*
X4817188Y-2136376D01*
X4653216Y-2068456D01*
X4505646Y-1969853D01*
X4380147Y-1844354D01*
X4281544Y-1696784D01*
X4213624Y-1532812D01*
X4179000Y-1358741D01*
X4179000Y-1181259D01*
X4213624Y-1007188D01*
X4281544Y-843216D01*
X4380147Y-695646D01*
X4505646Y-570147D01*
X4653216Y-471544D01*
X4817188Y-403624D01*
X4966488Y-373927D01*
X4991258Y-369000D01*
X5168742Y-369000D01*
X5193512Y-373927D01*
G37*
G36*
X2653512Y-373927D02*
G01*
X2802812Y-403624D01*
X2966784Y-471544D01*
X3114354Y-570147D01*
X3239853Y-695646D01*
X3338456Y-843216D01*
X3406376Y-1007188D01*
X3441000Y-1181259D01*
X3441000Y-1358741D01*
X3406376Y-1532812D01*
X3338456Y-1696784D01*
X3239853Y-1844354D01*
X3114354Y-1969853D01*
X2966784Y-2068456D01*
X2802812Y-2136376D01*
X2653512Y-2166073D01*
X2628742Y-2171000D01*
X2451258Y-2171000D01*
X2426488Y-2166073D01*
X2277188Y-2136376D01*
X2113216Y-2068456D01*
X1965646Y-1969853D01*
X1840147Y-1844354D01*
X1741544Y-1696784D01*
X1673624Y-1532812D01*
X1639000Y-1358741D01*
X1639000Y-1181259D01*
X1673624Y-1007188D01*
X1741544Y-843216D01*
X1840147Y-695646D01*
X1965646Y-570147D01*
X2113216Y-471544D01*
X2277188Y-403624D01*
X2426488Y-373927D01*
X2451258Y-369000D01*
X2628742Y-369000D01*
X2653512Y-373927D01*
G37*
G36*
X113512Y-373927D02*
G01*
X262812Y-403624D01*
X426784Y-471544D01*
X574354Y-570147D01*
X699853Y-695646D01*
X798456Y-843216D01*
X866376Y-1007188D01*
X901000Y-1181259D01*
X901000Y-1358741D01*
X866376Y-1532812D01*
X798456Y-1696784D01*
X699853Y-1844354D01*
X574354Y-1969853D01*
X426784Y-2068456D01*
X262812Y-2136376D01*
X113512Y-2166073D01*
X88742Y-2171000D01*
X-88742Y-2171000D01*
X-113512Y-2166073D01*
X-262812Y-2136376D01*
X-426784Y-2068456D01*
X-574354Y-1969853D01*
X-699853Y-1844354D01*
X-798456Y-1696784D01*
X-866376Y-1532812D01*
X-901000Y-1358741D01*
X-901000Y-1181259D01*
X-866376Y-1007188D01*
X-798456Y-843216D01*
X-699853Y-695646D01*
X-574354Y-570147D01*
X-426784Y-471544D01*
X-262812Y-403624D01*
X-113512Y-373927D01*
X-88742Y-369000D01*
X88742Y-369000D01*
X113512Y-373927D01*
G37*
G36*
X-2426488Y-373927D02*
G01*
X-2277188Y-403624D01*
X-2113216Y-471544D01*
X-1965646Y-570147D01*
X-1840147Y-695646D01*
X-1741544Y-843216D01*
X-1673624Y-1007188D01*
X-1639000Y-1181259D01*
X-1639000Y-1358741D01*
X-1673624Y-1532812D01*
X-1741544Y-1696784D01*
X-1840147Y-1844354D01*
X-1965646Y-1969853D01*
X-2113216Y-2068456D01*
X-2277188Y-2136376D01*
X-2426488Y-2166073D01*
X-2451258Y-2171000D01*
X-2628742Y-2171000D01*
X-2653512Y-2166073D01*
X-2802812Y-2136376D01*
X-2966784Y-2068456D01*
X-3114354Y-1969853D01*
X-3239853Y-1844354D01*
X-3338456Y-1696784D01*
X-3406376Y-1532812D01*
X-3441000Y-1358741D01*
X-3441000Y-1181259D01*
X-3406376Y-1007188D01*
X-3338456Y-843216D01*
X-3239853Y-695646D01*
X-3114354Y-570147D01*
X-2966784Y-471544D01*
X-2802812Y-403624D01*
X-2653512Y-373927D01*
X-2628742Y-369000D01*
X-2451258Y-369000D01*
X-2426488Y-373927D01*
G37*
G36*
X-4966488Y-373927D02*
G01*
X-4817188Y-403624D01*
X-4653216Y-471544D01*
X-4505646Y-570147D01*
X-4380147Y-695646D01*
X-4281544Y-843216D01*
X-4213624Y-1007188D01*
X-4179000Y-1181259D01*
X-4179000Y-1358741D01*
X-4213624Y-1532812D01*
X-4281544Y-1696784D01*
X-4380147Y-1844354D01*
X-4505646Y-1969853D01*
X-4653216Y-2068456D01*
X-4817188Y-2136376D01*
X-4966488Y-2166073D01*
X-4991258Y-2171000D01*
X-5168742Y-2171000D01*
X-5193512Y-2166073D01*
X-5342812Y-2136376D01*
X-5506784Y-2068456D01*
X-5654354Y-1969853D01*
X-5779853Y-1844354D01*
X-5878456Y-1696784D01*
X-5946376Y-1532812D01*
X-5981000Y-1358741D01*
X-5981000Y-1181259D01*
X-5946376Y-1007188D01*
X-5878456Y-843216D01*
X-5779853Y-695646D01*
X-5654354Y-570147D01*
X-5506784Y-471544D01*
X-5342812Y-403624D01*
X-5193512Y-373927D01*
X-5168742Y-369000D01*
X-4991258Y-369000D01*
X-4966488Y-373927D01*
G37*
G36*
X-6719000Y-2171000D02*
G01*
X-8521000Y-2171000D01*
X-8521000Y-369000D01*
X-6719000Y-369000D01*
X-6719000Y-2171000D01*
G37*
M02*
