G04 #@! TF.GenerationSoftware,KiCad,Pcbnew,(5.1.5-0-10_14)*
G04 #@! TF.CreationDate,2020-06-21T17:24:19+09:00*
G04 #@! TF.ProjectId,EnvMon,456e764d-6f6e-42e6-9b69-6361645f7063,1.0*
G04 #@! TF.SameCoordinates,Original*
G04 #@! TF.FileFunction,Soldermask,Top*
G04 #@! TF.FilePolarity,Negative*
%FSLAX46Y46*%
G04 Gerber Fmt 4.6, Leading zero omitted, Abs format (unit mm)*
G04 Created by KiCad (PCBNEW (5.1.5-0-10_14)) date 2020-06-21 17:24:19*
%MOMM*%
%LPD*%
G04 APERTURE LIST*
%ADD10C,0.100000*%
G04 APERTURE END LIST*
D10*
G36*
X-2680488Y-32453927D02*
G01*
X-2531188Y-32483624D01*
X-2367216Y-32551544D01*
X-2219646Y-32650147D01*
X-2094147Y-32775646D01*
X-1995544Y-32923216D01*
X-1927624Y-33087188D01*
X-1893000Y-33261259D01*
X-1893000Y-33438741D01*
X-1927624Y-33612812D01*
X-1995544Y-33776784D01*
X-2094147Y-33924354D01*
X-2219646Y-34049853D01*
X-2367216Y-34148456D01*
X-2531188Y-34216376D01*
X-2680488Y-34246073D01*
X-2705258Y-34251000D01*
X-2882742Y-34251000D01*
X-2907512Y-34246073D01*
X-3056812Y-34216376D01*
X-3220784Y-34148456D01*
X-3368354Y-34049853D01*
X-3493853Y-33924354D01*
X-3592456Y-33776784D01*
X-3660376Y-33612812D01*
X-3695000Y-33438741D01*
X-3695000Y-33261259D01*
X-3660376Y-33087188D01*
X-3592456Y-32923216D01*
X-3493853Y-32775646D01*
X-3368354Y-32650147D01*
X-3220784Y-32551544D01*
X-3056812Y-32483624D01*
X-2907512Y-32453927D01*
X-2882742Y-32449000D01*
X-2705258Y-32449000D01*
X-2680488Y-32453927D01*
G37*
G36*
X-5220488Y-32453927D02*
G01*
X-5071188Y-32483624D01*
X-4907216Y-32551544D01*
X-4759646Y-32650147D01*
X-4634147Y-32775646D01*
X-4535544Y-32923216D01*
X-4467624Y-33087188D01*
X-4433000Y-33261259D01*
X-4433000Y-33438741D01*
X-4467624Y-33612812D01*
X-4535544Y-33776784D01*
X-4634147Y-33924354D01*
X-4759646Y-34049853D01*
X-4907216Y-34148456D01*
X-5071188Y-34216376D01*
X-5220488Y-34246073D01*
X-5245258Y-34251000D01*
X-5422742Y-34251000D01*
X-5447512Y-34246073D01*
X-5596812Y-34216376D01*
X-5760784Y-34148456D01*
X-5908354Y-34049853D01*
X-6033853Y-33924354D01*
X-6132456Y-33776784D01*
X-6200376Y-33612812D01*
X-6235000Y-33438741D01*
X-6235000Y-33261259D01*
X-6200376Y-33087188D01*
X-6132456Y-32923216D01*
X-6033853Y-32775646D01*
X-5908354Y-32650147D01*
X-5760784Y-32551544D01*
X-5596812Y-32483624D01*
X-5447512Y-32453927D01*
X-5422742Y-32449000D01*
X-5245258Y-32449000D01*
X-5220488Y-32453927D01*
G37*
G36*
X-7760488Y-32453927D02*
G01*
X-7611188Y-32483624D01*
X-7447216Y-32551544D01*
X-7299646Y-32650147D01*
X-7174147Y-32775646D01*
X-7075544Y-32923216D01*
X-7007624Y-33087188D01*
X-6973000Y-33261259D01*
X-6973000Y-33438741D01*
X-7007624Y-33612812D01*
X-7075544Y-33776784D01*
X-7174147Y-33924354D01*
X-7299646Y-34049853D01*
X-7447216Y-34148456D01*
X-7611188Y-34216376D01*
X-7760488Y-34246073D01*
X-7785258Y-34251000D01*
X-7962742Y-34251000D01*
X-7987512Y-34246073D01*
X-8136812Y-34216376D01*
X-8300784Y-34148456D01*
X-8448354Y-34049853D01*
X-8573853Y-33924354D01*
X-8672456Y-33776784D01*
X-8740376Y-33612812D01*
X-8775000Y-33438741D01*
X-8775000Y-33261259D01*
X-8740376Y-33087188D01*
X-8672456Y-32923216D01*
X-8573853Y-32775646D01*
X-8448354Y-32650147D01*
X-8300784Y-32551544D01*
X-8136812Y-32483624D01*
X-7987512Y-32453927D01*
X-7962742Y-32449000D01*
X-7785258Y-32449000D01*
X-7760488Y-32453927D01*
G37*
G36*
X-9513000Y-34251000D02*
G01*
X-11315000Y-34251000D01*
X-11315000Y-32449000D01*
X-9513000Y-32449000D01*
X-9513000Y-34251000D01*
G37*
G36*
X9378014Y-31956973D02*
G01*
X9481878Y-31988479D01*
X9525907Y-32012013D01*
X9577599Y-32039643D01*
X9577601Y-32039644D01*
X9577600Y-32039644D01*
X9661501Y-32108499D01*
X9730356Y-32192400D01*
X9781521Y-32288121D01*
X9813027Y-32391985D01*
X9821000Y-32472933D01*
X9821000Y-33527067D01*
X9813027Y-33608015D01*
X9781521Y-33711879D01*
X9781520Y-33711880D01*
X9781519Y-33711882D01*
X9730357Y-33807600D01*
X9661501Y-33891501D01*
X9577600Y-33960357D01*
X9509055Y-33996995D01*
X9481879Y-34011521D01*
X9378015Y-34043027D01*
X9270000Y-34053666D01*
X9161986Y-34043027D01*
X9058122Y-34011521D01*
X9030946Y-33996995D01*
X8962401Y-33960357D01*
X8878500Y-33891501D01*
X8809644Y-33807600D01*
X8758481Y-33711880D01*
X8758480Y-33711879D01*
X8754614Y-33699135D01*
X8745241Y-33676505D01*
X8731628Y-33656130D01*
X8714301Y-33638803D01*
X8693927Y-33625189D01*
X8671288Y-33615811D01*
X8647255Y-33611030D01*
X8622751Y-33611030D01*
X8598718Y-33615810D01*
X8576079Y-33625187D01*
X8555704Y-33638800D01*
X8538377Y-33656127D01*
X8524763Y-33676501D01*
X8515387Y-33699134D01*
X8511521Y-33711879D01*
X8511520Y-33711880D01*
X8460357Y-33807600D01*
X8391501Y-33891501D01*
X8307600Y-33960357D01*
X8239055Y-33996995D01*
X8211879Y-34011521D01*
X8108015Y-34043027D01*
X8000000Y-34053666D01*
X7891986Y-34043027D01*
X7788122Y-34011521D01*
X7760946Y-33996995D01*
X7692401Y-33960357D01*
X7608500Y-33891501D01*
X7539644Y-33807600D01*
X7488481Y-33711880D01*
X7488480Y-33711879D01*
X7484614Y-33699135D01*
X7475241Y-33676505D01*
X7461628Y-33656130D01*
X7444301Y-33638803D01*
X7423927Y-33625189D01*
X7401288Y-33615811D01*
X7377255Y-33611030D01*
X7352751Y-33611030D01*
X7328718Y-33615810D01*
X7306079Y-33625187D01*
X7285704Y-33638800D01*
X7268377Y-33656127D01*
X7254763Y-33676501D01*
X7245387Y-33699134D01*
X7241521Y-33711879D01*
X7241520Y-33711880D01*
X7190357Y-33807600D01*
X7121501Y-33891501D01*
X7037600Y-33960357D01*
X6969055Y-33996995D01*
X6941879Y-34011521D01*
X6838015Y-34043027D01*
X6730000Y-34053666D01*
X6621986Y-34043027D01*
X6518122Y-34011521D01*
X6490946Y-33996995D01*
X6422401Y-33960357D01*
X6338500Y-33891501D01*
X6269644Y-33807600D01*
X6218482Y-33711882D01*
X6218481Y-33711880D01*
X6218480Y-33711879D01*
X6186974Y-33608015D01*
X6179001Y-33527067D01*
X6179000Y-32472934D01*
X6186973Y-32391986D01*
X6218479Y-32288122D01*
X6269644Y-32192400D01*
X6338499Y-32108499D01*
X6422400Y-32039644D01*
X6422399Y-32039644D01*
X6422401Y-32039643D01*
X6474093Y-32012013D01*
X6518121Y-31988479D01*
X6621985Y-31956973D01*
X6730000Y-31946334D01*
X6838014Y-31956973D01*
X6941878Y-31988479D01*
X6985907Y-32012013D01*
X7037599Y-32039643D01*
X7037601Y-32039644D01*
X7037600Y-32039644D01*
X7121501Y-32108499D01*
X7190356Y-32192400D01*
X7241521Y-32288121D01*
X7245388Y-32300869D01*
X7254760Y-32323496D01*
X7268374Y-32343870D01*
X7285701Y-32361197D01*
X7306075Y-32374811D01*
X7328714Y-32384188D01*
X7352747Y-32388969D01*
X7377251Y-32388969D01*
X7401285Y-32384189D01*
X7423924Y-32374812D01*
X7444298Y-32361198D01*
X7461625Y-32343871D01*
X7475239Y-32323497D01*
X7484616Y-32300858D01*
X7488479Y-32288123D01*
X7488479Y-32288122D01*
X7539644Y-32192400D01*
X7608499Y-32108499D01*
X7692400Y-32039644D01*
X7692399Y-32039644D01*
X7692401Y-32039643D01*
X7744093Y-32012013D01*
X7788121Y-31988479D01*
X7891985Y-31956973D01*
X8000000Y-31946334D01*
X8108014Y-31956973D01*
X8211878Y-31988479D01*
X8255907Y-32012013D01*
X8307599Y-32039643D01*
X8307601Y-32039644D01*
X8307600Y-32039644D01*
X8391501Y-32108499D01*
X8460356Y-32192400D01*
X8511521Y-32288121D01*
X8515388Y-32300869D01*
X8524760Y-32323496D01*
X8538374Y-32343870D01*
X8555701Y-32361197D01*
X8576075Y-32374811D01*
X8598714Y-32384188D01*
X8622747Y-32388969D01*
X8647251Y-32388969D01*
X8671285Y-32384189D01*
X8693924Y-32374812D01*
X8714298Y-32361198D01*
X8731625Y-32343871D01*
X8745239Y-32323497D01*
X8754616Y-32300858D01*
X8758479Y-32288123D01*
X8758479Y-32288122D01*
X8809644Y-32192400D01*
X8878499Y-32108499D01*
X8962400Y-32039644D01*
X8962399Y-32039644D01*
X8962401Y-32039643D01*
X9014093Y-32012013D01*
X9058121Y-31988479D01*
X9161985Y-31956973D01*
X9270000Y-31946334D01*
X9378014Y-31956973D01*
G37*
G36*
X10273512Y-27043927D02*
G01*
X10422812Y-27073624D01*
X10586784Y-27141544D01*
X10734354Y-27240147D01*
X10859853Y-27365646D01*
X10958456Y-27513216D01*
X11026376Y-27677188D01*
X11061000Y-27851259D01*
X11061000Y-28028741D01*
X11026376Y-28202812D01*
X10958456Y-28366784D01*
X10859853Y-28514354D01*
X10734354Y-28639853D01*
X10586784Y-28738456D01*
X10422812Y-28806376D01*
X10273512Y-28836073D01*
X10248742Y-28841000D01*
X10071258Y-28841000D01*
X10046488Y-28836073D01*
X9897188Y-28806376D01*
X9733216Y-28738456D01*
X9585646Y-28639853D01*
X9460147Y-28514354D01*
X9361544Y-28366784D01*
X9293624Y-28202812D01*
X9259000Y-28028741D01*
X9259000Y-27851259D01*
X9293624Y-27677188D01*
X9361544Y-27513216D01*
X9460147Y-27365646D01*
X9585646Y-27240147D01*
X9733216Y-27141544D01*
X9897188Y-27073624D01*
X10046488Y-27043927D01*
X10071258Y-27039000D01*
X10248742Y-27039000D01*
X10273512Y-27043927D01*
G37*
G36*
X10273512Y-24503927D02*
G01*
X10422812Y-24533624D01*
X10586784Y-24601544D01*
X10734354Y-24700147D01*
X10859853Y-24825646D01*
X10958456Y-24973216D01*
X11026376Y-25137188D01*
X11061000Y-25311259D01*
X11061000Y-25488741D01*
X11026376Y-25662812D01*
X10958456Y-25826784D01*
X10859853Y-25974354D01*
X10734354Y-26099853D01*
X10586784Y-26198456D01*
X10422812Y-26266376D01*
X10273512Y-26296073D01*
X10248742Y-26301000D01*
X10071258Y-26301000D01*
X10046488Y-26296073D01*
X9897188Y-26266376D01*
X9733216Y-26198456D01*
X9585646Y-26099853D01*
X9460147Y-25974354D01*
X9361544Y-25826784D01*
X9293624Y-25662812D01*
X9259000Y-25488741D01*
X9259000Y-25311259D01*
X9293624Y-25137188D01*
X9361544Y-24973216D01*
X9460147Y-24825646D01*
X9585646Y-24700147D01*
X9733216Y-24601544D01*
X9897188Y-24533624D01*
X10046488Y-24503927D01*
X10071258Y-24499000D01*
X10248742Y-24499000D01*
X10273512Y-24503927D01*
G37*
G36*
X7114499Y-23778445D02*
G01*
X7151995Y-23789820D01*
X7186554Y-23808292D01*
X7216847Y-23833153D01*
X7241708Y-23863446D01*
X7260180Y-23898005D01*
X7271555Y-23935501D01*
X7276000Y-23980638D01*
X7276000Y-24619362D01*
X7271555Y-24664499D01*
X7260180Y-24701995D01*
X7241708Y-24736554D01*
X7216847Y-24766847D01*
X7186554Y-24791708D01*
X7151995Y-24810180D01*
X7114499Y-24821555D01*
X7069362Y-24826000D01*
X6330638Y-24826000D01*
X6285501Y-24821555D01*
X6248005Y-24810180D01*
X6213446Y-24791708D01*
X6183153Y-24766847D01*
X6158292Y-24736554D01*
X6139820Y-24701995D01*
X6128445Y-24664499D01*
X6124000Y-24619362D01*
X6124000Y-23980638D01*
X6128445Y-23935501D01*
X6139820Y-23898005D01*
X6158292Y-23863446D01*
X6183153Y-23833153D01*
X6213446Y-23808292D01*
X6248005Y-23789820D01*
X6285501Y-23778445D01*
X6330638Y-23774000D01*
X7069362Y-23774000D01*
X7114499Y-23778445D01*
G37*
G36*
X5364499Y-23778445D02*
G01*
X5401995Y-23789820D01*
X5436554Y-23808292D01*
X5466847Y-23833153D01*
X5491708Y-23863446D01*
X5510180Y-23898005D01*
X5521555Y-23935501D01*
X5526000Y-23980638D01*
X5526000Y-24619362D01*
X5521555Y-24664499D01*
X5510180Y-24701995D01*
X5491708Y-24736554D01*
X5466847Y-24766847D01*
X5436554Y-24791708D01*
X5401995Y-24810180D01*
X5364499Y-24821555D01*
X5319362Y-24826000D01*
X4580638Y-24826000D01*
X4535501Y-24821555D01*
X4498005Y-24810180D01*
X4463446Y-24791708D01*
X4433153Y-24766847D01*
X4408292Y-24736554D01*
X4389820Y-24701995D01*
X4378445Y-24664499D01*
X4374000Y-24619362D01*
X4374000Y-23980638D01*
X4378445Y-23935501D01*
X4389820Y-23898005D01*
X4408292Y-23863446D01*
X4433153Y-23833153D01*
X4463446Y-23808292D01*
X4498005Y-23789820D01*
X4535501Y-23778445D01*
X4580638Y-23774000D01*
X5319362Y-23774000D01*
X5364499Y-23778445D01*
G37*
G36*
X-199830Y-22875803D02*
G01*
X-188125Y-22879354D01*
X-177335Y-22885121D01*
X-167881Y-22892881D01*
X-160121Y-22902335D01*
X-154354Y-22913125D01*
X-150803Y-22924830D01*
X-149000Y-22943138D01*
X-149000Y-24406862D01*
X-150803Y-24425170D01*
X-154354Y-24436875D01*
X-160121Y-24447665D01*
X-167881Y-24457119D01*
X-177335Y-24464879D01*
X-188125Y-24470646D01*
X-199830Y-24474197D01*
X-218138Y-24476000D01*
X-581862Y-24476000D01*
X-600170Y-24474197D01*
X-611875Y-24470646D01*
X-622665Y-24464879D01*
X-632119Y-24457119D01*
X-639879Y-24447665D01*
X-645646Y-24436875D01*
X-649197Y-24425170D01*
X-651000Y-24406862D01*
X-651000Y-22943138D01*
X-649197Y-22924830D01*
X-645646Y-22913125D01*
X-639879Y-22902335D01*
X-632119Y-22892881D01*
X-622665Y-22885121D01*
X-611875Y-22879354D01*
X-600170Y-22875803D01*
X-581862Y-22874000D01*
X-218138Y-22874000D01*
X-199830Y-22875803D01*
G37*
G36*
X600170Y-22875803D02*
G01*
X611875Y-22879354D01*
X622665Y-22885121D01*
X632119Y-22892881D01*
X639879Y-22902335D01*
X645646Y-22913125D01*
X649197Y-22924830D01*
X651000Y-22943138D01*
X651000Y-24406862D01*
X649197Y-24425170D01*
X645646Y-24436875D01*
X639879Y-24447665D01*
X632119Y-24457119D01*
X622665Y-24464879D01*
X611875Y-24470646D01*
X600170Y-24474197D01*
X581862Y-24476000D01*
X218138Y-24476000D01*
X199830Y-24474197D01*
X188125Y-24470646D01*
X177335Y-24464879D01*
X167881Y-24457119D01*
X160121Y-24447665D01*
X154354Y-24436875D01*
X150803Y-24425170D01*
X149000Y-24406862D01*
X149000Y-22943138D01*
X150803Y-22924830D01*
X154354Y-22913125D01*
X160121Y-22902335D01*
X167881Y-22892881D01*
X177335Y-22885121D01*
X188125Y-22879354D01*
X199830Y-22875803D01*
X218138Y-22874000D01*
X581862Y-22874000D01*
X600170Y-22875803D01*
G37*
G36*
X1400170Y-22875803D02*
G01*
X1411875Y-22879354D01*
X1422665Y-22885121D01*
X1432119Y-22892881D01*
X1439879Y-22902335D01*
X1445646Y-22913125D01*
X1449197Y-22924830D01*
X1451000Y-22943138D01*
X1451000Y-24406862D01*
X1449197Y-24425170D01*
X1445646Y-24436875D01*
X1439879Y-24447665D01*
X1432119Y-24457119D01*
X1422665Y-24464879D01*
X1411875Y-24470646D01*
X1400170Y-24474197D01*
X1381862Y-24476000D01*
X1018138Y-24476000D01*
X999830Y-24474197D01*
X988125Y-24470646D01*
X977335Y-24464879D01*
X967881Y-24457119D01*
X960121Y-24447665D01*
X954354Y-24436875D01*
X950803Y-24425170D01*
X949000Y-24406862D01*
X949000Y-22943138D01*
X950803Y-22924830D01*
X954354Y-22913125D01*
X960121Y-22902335D01*
X967881Y-22892881D01*
X977335Y-22885121D01*
X988125Y-22879354D01*
X999830Y-22875803D01*
X1018138Y-22874000D01*
X1381862Y-22874000D01*
X1400170Y-22875803D01*
G37*
G36*
X3000170Y-22875803D02*
G01*
X3011875Y-22879354D01*
X3022665Y-22885121D01*
X3032119Y-22892881D01*
X3039879Y-22902335D01*
X3045646Y-22913125D01*
X3049197Y-22924830D01*
X3051000Y-22943138D01*
X3051000Y-24406862D01*
X3049197Y-24425170D01*
X3045646Y-24436875D01*
X3039879Y-24447665D01*
X3032119Y-24457119D01*
X3022665Y-24464879D01*
X3011875Y-24470646D01*
X3000170Y-24474197D01*
X2981862Y-24476000D01*
X2618138Y-24476000D01*
X2599830Y-24474197D01*
X2588125Y-24470646D01*
X2577335Y-24464879D01*
X2567881Y-24457119D01*
X2560121Y-24447665D01*
X2554354Y-24436875D01*
X2550803Y-24425170D01*
X2549000Y-24406862D01*
X2549000Y-22943138D01*
X2550803Y-22924830D01*
X2554354Y-22913125D01*
X2560121Y-22902335D01*
X2567881Y-22892881D01*
X2577335Y-22885121D01*
X2588125Y-22879354D01*
X2599830Y-22875803D01*
X2618138Y-22874000D01*
X2981862Y-22874000D01*
X3000170Y-22875803D01*
G37*
G36*
X2200170Y-22875803D02*
G01*
X2211875Y-22879354D01*
X2222665Y-22885121D01*
X2232119Y-22892881D01*
X2239879Y-22902335D01*
X2245646Y-22913125D01*
X2249197Y-22924830D01*
X2251000Y-22943138D01*
X2251000Y-24406862D01*
X2249197Y-24425170D01*
X2245646Y-24436875D01*
X2239879Y-24447665D01*
X2232119Y-24457119D01*
X2222665Y-24464879D01*
X2211875Y-24470646D01*
X2200170Y-24474197D01*
X2181862Y-24476000D01*
X1818138Y-24476000D01*
X1799830Y-24474197D01*
X1788125Y-24470646D01*
X1777335Y-24464879D01*
X1767881Y-24457119D01*
X1760121Y-24447665D01*
X1754354Y-24436875D01*
X1750803Y-24425170D01*
X1749000Y-24406862D01*
X1749000Y-22943138D01*
X1750803Y-22924830D01*
X1754354Y-22913125D01*
X1760121Y-22902335D01*
X1767881Y-22892881D01*
X1777335Y-22885121D01*
X1788125Y-22879354D01*
X1799830Y-22875803D01*
X1818138Y-22874000D01*
X2181862Y-22874000D01*
X2200170Y-22875803D01*
G37*
G36*
X-999830Y-22875803D02*
G01*
X-988125Y-22879354D01*
X-977335Y-22885121D01*
X-967881Y-22892881D01*
X-960121Y-22902335D01*
X-954354Y-22913125D01*
X-950803Y-22924830D01*
X-949000Y-22943138D01*
X-949000Y-24406862D01*
X-950803Y-24425170D01*
X-954354Y-24436875D01*
X-960121Y-24447665D01*
X-967881Y-24457119D01*
X-977335Y-24464879D01*
X-988125Y-24470646D01*
X-999830Y-24474197D01*
X-1018138Y-24476000D01*
X-1381862Y-24476000D01*
X-1400170Y-24474197D01*
X-1411875Y-24470646D01*
X-1422665Y-24464879D01*
X-1432119Y-24457119D01*
X-1439879Y-24447665D01*
X-1445646Y-24436875D01*
X-1449197Y-24425170D01*
X-1451000Y-24406862D01*
X-1451000Y-22943138D01*
X-1449197Y-22924830D01*
X-1445646Y-22913125D01*
X-1439879Y-22902335D01*
X-1432119Y-22892881D01*
X-1422665Y-22885121D01*
X-1411875Y-22879354D01*
X-1400170Y-22875803D01*
X-1381862Y-22874000D01*
X-1018138Y-22874000D01*
X-999830Y-22875803D01*
G37*
G36*
X-1799830Y-22875803D02*
G01*
X-1788125Y-22879354D01*
X-1777335Y-22885121D01*
X-1767881Y-22892881D01*
X-1760121Y-22902335D01*
X-1754354Y-22913125D01*
X-1750803Y-22924830D01*
X-1749000Y-22943138D01*
X-1749000Y-24406862D01*
X-1750803Y-24425170D01*
X-1754354Y-24436875D01*
X-1760121Y-24447665D01*
X-1767881Y-24457119D01*
X-1777335Y-24464879D01*
X-1788125Y-24470646D01*
X-1799830Y-24474197D01*
X-1818138Y-24476000D01*
X-2181862Y-24476000D01*
X-2200170Y-24474197D01*
X-2211875Y-24470646D01*
X-2222665Y-24464879D01*
X-2232119Y-24457119D01*
X-2239879Y-24447665D01*
X-2245646Y-24436875D01*
X-2249197Y-24425170D01*
X-2251000Y-24406862D01*
X-2251000Y-22943138D01*
X-2249197Y-22924830D01*
X-2245646Y-22913125D01*
X-2239879Y-22902335D01*
X-2232119Y-22892881D01*
X-2222665Y-22885121D01*
X-2211875Y-22879354D01*
X-2200170Y-22875803D01*
X-2181862Y-22874000D01*
X-1818138Y-22874000D01*
X-1799830Y-22875803D01*
G37*
G36*
X-2599830Y-22875803D02*
G01*
X-2588125Y-22879354D01*
X-2577335Y-22885121D01*
X-2567881Y-22892881D01*
X-2560121Y-22902335D01*
X-2554354Y-22913125D01*
X-2550803Y-22924830D01*
X-2549000Y-22943138D01*
X-2549000Y-24406862D01*
X-2550803Y-24425170D01*
X-2554354Y-24436875D01*
X-2560121Y-24447665D01*
X-2567881Y-24457119D01*
X-2577335Y-24464879D01*
X-2588125Y-24470646D01*
X-2599830Y-24474197D01*
X-2618138Y-24476000D01*
X-2981862Y-24476000D01*
X-3000170Y-24474197D01*
X-3011875Y-24470646D01*
X-3022665Y-24464879D01*
X-3032119Y-24457119D01*
X-3039879Y-24447665D01*
X-3045646Y-24436875D01*
X-3049197Y-24425170D01*
X-3051000Y-24406862D01*
X-3051000Y-22943138D01*
X-3049197Y-22924830D01*
X-3045646Y-22913125D01*
X-3039879Y-22902335D01*
X-3032119Y-22892881D01*
X-3022665Y-22885121D01*
X-3011875Y-22879354D01*
X-3000170Y-22875803D01*
X-2981862Y-22874000D01*
X-2618138Y-22874000D01*
X-2599830Y-22875803D01*
G37*
G36*
X10273512Y-21963927D02*
G01*
X10422812Y-21993624D01*
X10586784Y-22061544D01*
X10734354Y-22160147D01*
X10859853Y-22285646D01*
X10958456Y-22433216D01*
X11026376Y-22597188D01*
X11061000Y-22771259D01*
X11061000Y-22948741D01*
X11026376Y-23122812D01*
X10958456Y-23286784D01*
X10859853Y-23434354D01*
X10734354Y-23559853D01*
X10586784Y-23658456D01*
X10422812Y-23726376D01*
X10273512Y-23756073D01*
X10248742Y-23761000D01*
X10071258Y-23761000D01*
X10046488Y-23756073D01*
X9897188Y-23726376D01*
X9733216Y-23658456D01*
X9585646Y-23559853D01*
X9460147Y-23434354D01*
X9361544Y-23286784D01*
X9293624Y-23122812D01*
X9259000Y-22948741D01*
X9259000Y-22771259D01*
X9293624Y-22597188D01*
X9361544Y-22433216D01*
X9460147Y-22285646D01*
X9585646Y-22160147D01*
X9733216Y-22061544D01*
X9897188Y-21993624D01*
X10046488Y-21963927D01*
X10071258Y-21959000D01*
X10248742Y-21959000D01*
X10273512Y-21963927D01*
G37*
G36*
X4925170Y-22050803D02*
G01*
X4936875Y-22054354D01*
X4947665Y-22060121D01*
X4957119Y-22067881D01*
X4964879Y-22077335D01*
X4970646Y-22088125D01*
X4974197Y-22099830D01*
X4976000Y-22118138D01*
X4976000Y-22481862D01*
X4974197Y-22500170D01*
X4970646Y-22511875D01*
X4964879Y-22522665D01*
X4957119Y-22532119D01*
X4947665Y-22539879D01*
X4936875Y-22545646D01*
X4925170Y-22549197D01*
X4906862Y-22551000D01*
X3443138Y-22551000D01*
X3424830Y-22549197D01*
X3413125Y-22545646D01*
X3402335Y-22539879D01*
X3392881Y-22532119D01*
X3385121Y-22522665D01*
X3379354Y-22511875D01*
X3375803Y-22500170D01*
X3374000Y-22481862D01*
X3374000Y-22118138D01*
X3375803Y-22099830D01*
X3379354Y-22088125D01*
X3385121Y-22077335D01*
X3392881Y-22067881D01*
X3402335Y-22060121D01*
X3413125Y-22054354D01*
X3424830Y-22050803D01*
X3443138Y-22049000D01*
X4906862Y-22049000D01*
X4925170Y-22050803D01*
G37*
G36*
X-3424830Y-22050803D02*
G01*
X-3413125Y-22054354D01*
X-3402335Y-22060121D01*
X-3392881Y-22067881D01*
X-3385121Y-22077335D01*
X-3379354Y-22088125D01*
X-3375803Y-22099830D01*
X-3374000Y-22118138D01*
X-3374000Y-22481862D01*
X-3375803Y-22500170D01*
X-3379354Y-22511875D01*
X-3385121Y-22522665D01*
X-3392881Y-22532119D01*
X-3402335Y-22539879D01*
X-3413125Y-22545646D01*
X-3424830Y-22549197D01*
X-3443138Y-22551000D01*
X-4906862Y-22551000D01*
X-4925170Y-22549197D01*
X-4936875Y-22545646D01*
X-4947665Y-22539879D01*
X-4957119Y-22532119D01*
X-4964879Y-22522665D01*
X-4970646Y-22511875D01*
X-4974197Y-22500170D01*
X-4976000Y-22481862D01*
X-4976000Y-22118138D01*
X-4974197Y-22099830D01*
X-4970646Y-22088125D01*
X-4964879Y-22077335D01*
X-4957119Y-22067881D01*
X-4947665Y-22060121D01*
X-4936875Y-22054354D01*
X-4925170Y-22050803D01*
X-4906862Y-22049000D01*
X-3443138Y-22049000D01*
X-3424830Y-22050803D01*
G37*
G36*
X-3424830Y-21250803D02*
G01*
X-3413125Y-21254354D01*
X-3402335Y-21260121D01*
X-3392881Y-21267881D01*
X-3385121Y-21277335D01*
X-3379354Y-21288125D01*
X-3375803Y-21299830D01*
X-3374000Y-21318138D01*
X-3374000Y-21681862D01*
X-3375803Y-21700170D01*
X-3379354Y-21711875D01*
X-3385121Y-21722665D01*
X-3392881Y-21732119D01*
X-3402335Y-21739879D01*
X-3413125Y-21745646D01*
X-3424830Y-21749197D01*
X-3443138Y-21751000D01*
X-4906862Y-21751000D01*
X-4925170Y-21749197D01*
X-4936875Y-21745646D01*
X-4947665Y-21739879D01*
X-4957119Y-21732119D01*
X-4964879Y-21722665D01*
X-4970646Y-21711875D01*
X-4974197Y-21700170D01*
X-4976000Y-21681862D01*
X-4976000Y-21318138D01*
X-4974197Y-21299830D01*
X-4970646Y-21288125D01*
X-4964879Y-21277335D01*
X-4957119Y-21267881D01*
X-4947665Y-21260121D01*
X-4936875Y-21254354D01*
X-4925170Y-21250803D01*
X-4906862Y-21249000D01*
X-3443138Y-21249000D01*
X-3424830Y-21250803D01*
G37*
G36*
X4925170Y-21250803D02*
G01*
X4936875Y-21254354D01*
X4947665Y-21260121D01*
X4957119Y-21267881D01*
X4964879Y-21277335D01*
X4970646Y-21288125D01*
X4974197Y-21299830D01*
X4976000Y-21318138D01*
X4976000Y-21681862D01*
X4974197Y-21700170D01*
X4970646Y-21711875D01*
X4964879Y-21722665D01*
X4957119Y-21732119D01*
X4947665Y-21739879D01*
X4936875Y-21745646D01*
X4925170Y-21749197D01*
X4906862Y-21751000D01*
X3443138Y-21751000D01*
X3424830Y-21749197D01*
X3413125Y-21745646D01*
X3402335Y-21739879D01*
X3392881Y-21732119D01*
X3385121Y-21722665D01*
X3379354Y-21711875D01*
X3375803Y-21700170D01*
X3374000Y-21681862D01*
X3374000Y-21318138D01*
X3375803Y-21299830D01*
X3379354Y-21288125D01*
X3385121Y-21277335D01*
X3392881Y-21267881D01*
X3402335Y-21260121D01*
X3413125Y-21254354D01*
X3424830Y-21250803D01*
X3443138Y-21249000D01*
X4906862Y-21249000D01*
X4925170Y-21250803D01*
G37*
G36*
X10273512Y-19423927D02*
G01*
X10422812Y-19453624D01*
X10586784Y-19521544D01*
X10734354Y-19620147D01*
X10859853Y-19745646D01*
X10958456Y-19893216D01*
X11026376Y-20057188D01*
X11061000Y-20231259D01*
X11061000Y-20408741D01*
X11026376Y-20582812D01*
X10958456Y-20746784D01*
X10859853Y-20894354D01*
X10734354Y-21019853D01*
X10586784Y-21118456D01*
X10422812Y-21186376D01*
X10273512Y-21216073D01*
X10248742Y-21221000D01*
X10071258Y-21221000D01*
X10046488Y-21216073D01*
X9897188Y-21186376D01*
X9733216Y-21118456D01*
X9585646Y-21019853D01*
X9460147Y-20894354D01*
X9361544Y-20746784D01*
X9293624Y-20582812D01*
X9259000Y-20408741D01*
X9259000Y-20231259D01*
X9293624Y-20057188D01*
X9361544Y-19893216D01*
X9460147Y-19745646D01*
X9585646Y-19620147D01*
X9733216Y-19521544D01*
X9897188Y-19453624D01*
X10046488Y-19423927D01*
X10071258Y-19419000D01*
X10248742Y-19419000D01*
X10273512Y-19423927D01*
G37*
G36*
X-3424830Y-20450803D02*
G01*
X-3413125Y-20454354D01*
X-3402335Y-20460121D01*
X-3392881Y-20467881D01*
X-3385121Y-20477335D01*
X-3379354Y-20488125D01*
X-3375803Y-20499830D01*
X-3374000Y-20518138D01*
X-3374000Y-20881862D01*
X-3375803Y-20900170D01*
X-3379354Y-20911875D01*
X-3385121Y-20922665D01*
X-3392881Y-20932119D01*
X-3402335Y-20939879D01*
X-3413125Y-20945646D01*
X-3424830Y-20949197D01*
X-3443138Y-20951000D01*
X-4906862Y-20951000D01*
X-4925170Y-20949197D01*
X-4936875Y-20945646D01*
X-4947665Y-20939879D01*
X-4957119Y-20932119D01*
X-4964879Y-20922665D01*
X-4970646Y-20911875D01*
X-4974197Y-20900170D01*
X-4976000Y-20881862D01*
X-4976000Y-20518138D01*
X-4974197Y-20499830D01*
X-4970646Y-20488125D01*
X-4964879Y-20477335D01*
X-4957119Y-20467881D01*
X-4947665Y-20460121D01*
X-4936875Y-20454354D01*
X-4925170Y-20450803D01*
X-4906862Y-20449000D01*
X-3443138Y-20449000D01*
X-3424830Y-20450803D01*
G37*
G36*
X4925170Y-20450803D02*
G01*
X4936875Y-20454354D01*
X4947665Y-20460121D01*
X4957119Y-20467881D01*
X4964879Y-20477335D01*
X4970646Y-20488125D01*
X4974197Y-20499830D01*
X4976000Y-20518138D01*
X4976000Y-20881862D01*
X4974197Y-20900170D01*
X4970646Y-20911875D01*
X4964879Y-20922665D01*
X4957119Y-20932119D01*
X4947665Y-20939879D01*
X4936875Y-20945646D01*
X4925170Y-20949197D01*
X4906862Y-20951000D01*
X3443138Y-20951000D01*
X3424830Y-20949197D01*
X3413125Y-20945646D01*
X3402335Y-20939879D01*
X3392881Y-20932119D01*
X3385121Y-20922665D01*
X3379354Y-20911875D01*
X3375803Y-20900170D01*
X3374000Y-20881862D01*
X3374000Y-20518138D01*
X3375803Y-20499830D01*
X3379354Y-20488125D01*
X3385121Y-20477335D01*
X3392881Y-20467881D01*
X3402335Y-20460121D01*
X3413125Y-20454354D01*
X3424830Y-20450803D01*
X3443138Y-20449000D01*
X4906862Y-20449000D01*
X4925170Y-20450803D01*
G37*
G36*
X-3424830Y-19650803D02*
G01*
X-3413125Y-19654354D01*
X-3402335Y-19660121D01*
X-3392881Y-19667881D01*
X-3385121Y-19677335D01*
X-3379354Y-19688125D01*
X-3375803Y-19699830D01*
X-3374000Y-19718138D01*
X-3374000Y-20081862D01*
X-3375803Y-20100170D01*
X-3379354Y-20111875D01*
X-3385121Y-20122665D01*
X-3392881Y-20132119D01*
X-3402335Y-20139879D01*
X-3413125Y-20145646D01*
X-3424830Y-20149197D01*
X-3443138Y-20151000D01*
X-4906862Y-20151000D01*
X-4925170Y-20149197D01*
X-4936875Y-20145646D01*
X-4947665Y-20139879D01*
X-4957119Y-20132119D01*
X-4964879Y-20122665D01*
X-4970646Y-20111875D01*
X-4974197Y-20100170D01*
X-4976000Y-20081862D01*
X-4976000Y-19718138D01*
X-4974197Y-19699830D01*
X-4970646Y-19688125D01*
X-4964879Y-19677335D01*
X-4957119Y-19667881D01*
X-4947665Y-19660121D01*
X-4936875Y-19654354D01*
X-4925170Y-19650803D01*
X-4906862Y-19649000D01*
X-3443138Y-19649000D01*
X-3424830Y-19650803D01*
G37*
G36*
X4925170Y-19650803D02*
G01*
X4936875Y-19654354D01*
X4947665Y-19660121D01*
X4957119Y-19667881D01*
X4964879Y-19677335D01*
X4970646Y-19688125D01*
X4974197Y-19699830D01*
X4976000Y-19718138D01*
X4976000Y-20081862D01*
X4974197Y-20100170D01*
X4970646Y-20111875D01*
X4964879Y-20122665D01*
X4957119Y-20132119D01*
X4947665Y-20139879D01*
X4936875Y-20145646D01*
X4925170Y-20149197D01*
X4906862Y-20151000D01*
X3443138Y-20151000D01*
X3424830Y-20149197D01*
X3413125Y-20145646D01*
X3402335Y-20139879D01*
X3392881Y-20132119D01*
X3385121Y-20122665D01*
X3379354Y-20111875D01*
X3375803Y-20100170D01*
X3374000Y-20081862D01*
X3374000Y-19718138D01*
X3375803Y-19699830D01*
X3379354Y-19688125D01*
X3385121Y-19677335D01*
X3392881Y-19667881D01*
X3402335Y-19660121D01*
X3413125Y-19654354D01*
X3424830Y-19650803D01*
X3443138Y-19649000D01*
X4906862Y-19649000D01*
X4925170Y-19650803D01*
G37*
G36*
X-3424830Y-18850803D02*
G01*
X-3413125Y-18854354D01*
X-3402335Y-18860121D01*
X-3392881Y-18867881D01*
X-3385121Y-18877335D01*
X-3379354Y-18888125D01*
X-3375803Y-18899830D01*
X-3374000Y-18918138D01*
X-3374000Y-19281862D01*
X-3375803Y-19300170D01*
X-3379354Y-19311875D01*
X-3385121Y-19322665D01*
X-3392881Y-19332119D01*
X-3402335Y-19339879D01*
X-3413125Y-19345646D01*
X-3424830Y-19349197D01*
X-3443138Y-19351000D01*
X-4906862Y-19351000D01*
X-4925170Y-19349197D01*
X-4936875Y-19345646D01*
X-4947665Y-19339879D01*
X-4957119Y-19332119D01*
X-4964879Y-19322665D01*
X-4970646Y-19311875D01*
X-4974197Y-19300170D01*
X-4976000Y-19281862D01*
X-4976000Y-18918138D01*
X-4974197Y-18899830D01*
X-4970646Y-18888125D01*
X-4964879Y-18877335D01*
X-4957119Y-18867881D01*
X-4947665Y-18860121D01*
X-4936875Y-18854354D01*
X-4925170Y-18850803D01*
X-4906862Y-18849000D01*
X-3443138Y-18849000D01*
X-3424830Y-18850803D01*
G37*
G36*
X4925170Y-18850803D02*
G01*
X4936875Y-18854354D01*
X4947665Y-18860121D01*
X4957119Y-18867881D01*
X4964879Y-18877335D01*
X4970646Y-18888125D01*
X4974197Y-18899830D01*
X4976000Y-18918138D01*
X4976000Y-19281862D01*
X4974197Y-19300170D01*
X4970646Y-19311875D01*
X4964879Y-19322665D01*
X4957119Y-19332119D01*
X4947665Y-19339879D01*
X4936875Y-19345646D01*
X4925170Y-19349197D01*
X4906862Y-19351000D01*
X3443138Y-19351000D01*
X3424830Y-19349197D01*
X3413125Y-19345646D01*
X3402335Y-19339879D01*
X3392881Y-19332119D01*
X3385121Y-19322665D01*
X3379354Y-19311875D01*
X3375803Y-19300170D01*
X3374000Y-19281862D01*
X3374000Y-18918138D01*
X3375803Y-18899830D01*
X3379354Y-18888125D01*
X3385121Y-18877335D01*
X3392881Y-18867881D01*
X3402335Y-18860121D01*
X3413125Y-18854354D01*
X3424830Y-18850803D01*
X3443138Y-18849000D01*
X4906862Y-18849000D01*
X4925170Y-18850803D01*
G37*
G36*
X10263130Y-16881862D02*
G01*
X10422812Y-16913624D01*
X10586784Y-16981544D01*
X10734354Y-17080147D01*
X10859853Y-17205646D01*
X10958456Y-17353216D01*
X11026376Y-17517188D01*
X11061000Y-17691259D01*
X11061000Y-17868741D01*
X11026376Y-18042812D01*
X10958456Y-18206784D01*
X10859853Y-18354354D01*
X10734354Y-18479853D01*
X10586784Y-18578456D01*
X10422812Y-18646376D01*
X10273512Y-18676073D01*
X10248742Y-18681000D01*
X10071258Y-18681000D01*
X10046488Y-18676073D01*
X9897188Y-18646376D01*
X9733216Y-18578456D01*
X9585646Y-18479853D01*
X9460147Y-18354354D01*
X9361544Y-18206784D01*
X9293624Y-18042812D01*
X9259000Y-17868741D01*
X9259000Y-17691259D01*
X9293624Y-17517188D01*
X9361544Y-17353216D01*
X9460147Y-17205646D01*
X9585646Y-17080147D01*
X9733216Y-16981544D01*
X9897188Y-16913624D01*
X10056870Y-16881862D01*
X10071258Y-16879000D01*
X10248742Y-16879000D01*
X10263130Y-16881862D01*
G37*
G36*
X-3424830Y-18050803D02*
G01*
X-3413125Y-18054354D01*
X-3402335Y-18060121D01*
X-3392881Y-18067881D01*
X-3385121Y-18077335D01*
X-3379354Y-18088125D01*
X-3375803Y-18099830D01*
X-3374000Y-18118138D01*
X-3374000Y-18481862D01*
X-3375803Y-18500170D01*
X-3379354Y-18511875D01*
X-3385121Y-18522665D01*
X-3392881Y-18532119D01*
X-3402335Y-18539879D01*
X-3413125Y-18545646D01*
X-3424830Y-18549197D01*
X-3443138Y-18551000D01*
X-4906862Y-18551000D01*
X-4925170Y-18549197D01*
X-4936875Y-18545646D01*
X-4947665Y-18539879D01*
X-4957119Y-18532119D01*
X-4964879Y-18522665D01*
X-4970646Y-18511875D01*
X-4974197Y-18500170D01*
X-4976000Y-18481862D01*
X-4976000Y-18118138D01*
X-4974197Y-18099830D01*
X-4970646Y-18088125D01*
X-4964879Y-18077335D01*
X-4957119Y-18067881D01*
X-4947665Y-18060121D01*
X-4936875Y-18054354D01*
X-4925170Y-18050803D01*
X-4906862Y-18049000D01*
X-3443138Y-18049000D01*
X-3424830Y-18050803D01*
G37*
G36*
X4925170Y-18050803D02*
G01*
X4936875Y-18054354D01*
X4947665Y-18060121D01*
X4957119Y-18067881D01*
X4964879Y-18077335D01*
X4970646Y-18088125D01*
X4974197Y-18099830D01*
X4976000Y-18118138D01*
X4976000Y-18481862D01*
X4974197Y-18500170D01*
X4970646Y-18511875D01*
X4964879Y-18522665D01*
X4957119Y-18532119D01*
X4947665Y-18539879D01*
X4936875Y-18545646D01*
X4925170Y-18549197D01*
X4906862Y-18551000D01*
X3443138Y-18551000D01*
X3424830Y-18549197D01*
X3413125Y-18545646D01*
X3402335Y-18539879D01*
X3392881Y-18532119D01*
X3385121Y-18522665D01*
X3379354Y-18511875D01*
X3375803Y-18500170D01*
X3374000Y-18481862D01*
X3374000Y-18118138D01*
X3375803Y-18099830D01*
X3379354Y-18088125D01*
X3385121Y-18077335D01*
X3392881Y-18067881D01*
X3402335Y-18060121D01*
X3413125Y-18054354D01*
X3424830Y-18050803D01*
X3443138Y-18049000D01*
X4906862Y-18049000D01*
X4925170Y-18050803D01*
G37*
G36*
X4925170Y-17250803D02*
G01*
X4936875Y-17254354D01*
X4947665Y-17260121D01*
X4957119Y-17267881D01*
X4964879Y-17277335D01*
X4970646Y-17288125D01*
X4974197Y-17299830D01*
X4976000Y-17318138D01*
X4976000Y-17681862D01*
X4974197Y-17700170D01*
X4970646Y-17711875D01*
X4964879Y-17722665D01*
X4957119Y-17732119D01*
X4947665Y-17739879D01*
X4936875Y-17745646D01*
X4925170Y-17749197D01*
X4906862Y-17751000D01*
X3443138Y-17751000D01*
X3424830Y-17749197D01*
X3413125Y-17745646D01*
X3402335Y-17739879D01*
X3392881Y-17732119D01*
X3385121Y-17722665D01*
X3379354Y-17711875D01*
X3375803Y-17700170D01*
X3374000Y-17681862D01*
X3374000Y-17318138D01*
X3375803Y-17299830D01*
X3379354Y-17288125D01*
X3385121Y-17277335D01*
X3392881Y-17267881D01*
X3402335Y-17260121D01*
X3413125Y-17254354D01*
X3424830Y-17250803D01*
X3443138Y-17249000D01*
X4906862Y-17249000D01*
X4925170Y-17250803D01*
G37*
G36*
X-3424830Y-17250803D02*
G01*
X-3413125Y-17254354D01*
X-3402335Y-17260121D01*
X-3392881Y-17267881D01*
X-3385121Y-17277335D01*
X-3379354Y-17288125D01*
X-3375803Y-17299830D01*
X-3374000Y-17318138D01*
X-3374000Y-17681862D01*
X-3375803Y-17700170D01*
X-3379354Y-17711875D01*
X-3385121Y-17722665D01*
X-3392881Y-17732119D01*
X-3402335Y-17739879D01*
X-3413125Y-17745646D01*
X-3424830Y-17749197D01*
X-3443138Y-17751000D01*
X-4906862Y-17751000D01*
X-4925170Y-17749197D01*
X-4936875Y-17745646D01*
X-4947665Y-17739879D01*
X-4957119Y-17732119D01*
X-4964879Y-17722665D01*
X-4970646Y-17711875D01*
X-4974197Y-17700170D01*
X-4976000Y-17681862D01*
X-4976000Y-17318138D01*
X-4974197Y-17299830D01*
X-4970646Y-17288125D01*
X-4964879Y-17277335D01*
X-4957119Y-17267881D01*
X-4947665Y-17260121D01*
X-4936875Y-17254354D01*
X-4925170Y-17250803D01*
X-4906862Y-17249000D01*
X-3443138Y-17249000D01*
X-3424830Y-17250803D01*
G37*
G36*
X4925170Y-16450803D02*
G01*
X4936875Y-16454354D01*
X4947665Y-16460121D01*
X4957119Y-16467881D01*
X4964879Y-16477335D01*
X4970646Y-16488125D01*
X4974197Y-16499830D01*
X4976000Y-16518138D01*
X4976000Y-16881862D01*
X4974197Y-16900170D01*
X4970646Y-16911875D01*
X4964879Y-16922665D01*
X4957119Y-16932119D01*
X4947665Y-16939879D01*
X4936875Y-16945646D01*
X4925170Y-16949197D01*
X4906862Y-16951000D01*
X3443138Y-16951000D01*
X3424830Y-16949197D01*
X3413125Y-16945646D01*
X3402335Y-16939879D01*
X3392881Y-16932119D01*
X3385121Y-16922665D01*
X3379354Y-16911875D01*
X3375803Y-16900170D01*
X3374000Y-16881862D01*
X3374000Y-16518138D01*
X3375803Y-16499830D01*
X3379354Y-16488125D01*
X3385121Y-16477335D01*
X3392881Y-16467881D01*
X3402335Y-16460121D01*
X3413125Y-16454354D01*
X3424830Y-16450803D01*
X3443138Y-16449000D01*
X4906862Y-16449000D01*
X4925170Y-16450803D01*
G37*
G36*
X-3424830Y-16450803D02*
G01*
X-3413125Y-16454354D01*
X-3402335Y-16460121D01*
X-3392881Y-16467881D01*
X-3385121Y-16477335D01*
X-3379354Y-16488125D01*
X-3375803Y-16499830D01*
X-3374000Y-16518138D01*
X-3374000Y-16881862D01*
X-3375803Y-16900170D01*
X-3379354Y-16911875D01*
X-3385121Y-16922665D01*
X-3392881Y-16932119D01*
X-3402335Y-16939879D01*
X-3413125Y-16945646D01*
X-3424830Y-16949197D01*
X-3443138Y-16951000D01*
X-4906862Y-16951000D01*
X-4925170Y-16949197D01*
X-4936875Y-16945646D01*
X-4947665Y-16939879D01*
X-4957119Y-16932119D01*
X-4964879Y-16922665D01*
X-4970646Y-16911875D01*
X-4974197Y-16900170D01*
X-4976000Y-16881862D01*
X-4976000Y-16518138D01*
X-4974197Y-16499830D01*
X-4970646Y-16488125D01*
X-4964879Y-16477335D01*
X-4957119Y-16467881D01*
X-4947665Y-16460121D01*
X-4936875Y-16454354D01*
X-4925170Y-16450803D01*
X-4906862Y-16449000D01*
X-3443138Y-16449000D01*
X-3424830Y-16450803D01*
G37*
G36*
X11061000Y-16141000D02*
G01*
X9259000Y-16141000D01*
X9259000Y-14339000D01*
X11061000Y-14339000D01*
X11061000Y-16141000D01*
G37*
G36*
X-2599830Y-14525803D02*
G01*
X-2588125Y-14529354D01*
X-2577335Y-14535121D01*
X-2567881Y-14542881D01*
X-2560121Y-14552335D01*
X-2554354Y-14563125D01*
X-2550803Y-14574830D01*
X-2549000Y-14593138D01*
X-2549000Y-16056862D01*
X-2550803Y-16075170D01*
X-2554354Y-16086875D01*
X-2560121Y-16097665D01*
X-2567881Y-16107119D01*
X-2577335Y-16114879D01*
X-2588125Y-16120646D01*
X-2599830Y-16124197D01*
X-2618138Y-16126000D01*
X-2981862Y-16126000D01*
X-3000170Y-16124197D01*
X-3011875Y-16120646D01*
X-3022665Y-16114879D01*
X-3032119Y-16107119D01*
X-3039879Y-16097665D01*
X-3045646Y-16086875D01*
X-3049197Y-16075170D01*
X-3051000Y-16056862D01*
X-3051000Y-14593138D01*
X-3049197Y-14574830D01*
X-3045646Y-14563125D01*
X-3039879Y-14552335D01*
X-3032119Y-14542881D01*
X-3022665Y-14535121D01*
X-3011875Y-14529354D01*
X-3000170Y-14525803D01*
X-2981862Y-14524000D01*
X-2618138Y-14524000D01*
X-2599830Y-14525803D01*
G37*
G36*
X3000170Y-14525803D02*
G01*
X3011875Y-14529354D01*
X3022665Y-14535121D01*
X3032119Y-14542881D01*
X3039879Y-14552335D01*
X3045646Y-14563125D01*
X3049197Y-14574830D01*
X3051000Y-14593138D01*
X3051000Y-16056862D01*
X3049197Y-16075170D01*
X3045646Y-16086875D01*
X3039879Y-16097665D01*
X3032119Y-16107119D01*
X3022665Y-16114879D01*
X3011875Y-16120646D01*
X3000170Y-16124197D01*
X2981862Y-16126000D01*
X2618138Y-16126000D01*
X2599830Y-16124197D01*
X2588125Y-16120646D01*
X2577335Y-16114879D01*
X2567881Y-16107119D01*
X2560121Y-16097665D01*
X2554354Y-16086875D01*
X2550803Y-16075170D01*
X2549000Y-16056862D01*
X2549000Y-14593138D01*
X2550803Y-14574830D01*
X2554354Y-14563125D01*
X2560121Y-14552335D01*
X2567881Y-14542881D01*
X2577335Y-14535121D01*
X2588125Y-14529354D01*
X2599830Y-14525803D01*
X2618138Y-14524000D01*
X2981862Y-14524000D01*
X3000170Y-14525803D01*
G37*
G36*
X2200170Y-14525803D02*
G01*
X2211875Y-14529354D01*
X2222665Y-14535121D01*
X2232119Y-14542881D01*
X2239879Y-14552335D01*
X2245646Y-14563125D01*
X2249197Y-14574830D01*
X2251000Y-14593138D01*
X2251000Y-16056862D01*
X2249197Y-16075170D01*
X2245646Y-16086875D01*
X2239879Y-16097665D01*
X2232119Y-16107119D01*
X2222665Y-16114879D01*
X2211875Y-16120646D01*
X2200170Y-16124197D01*
X2181862Y-16126000D01*
X1818138Y-16126000D01*
X1799830Y-16124197D01*
X1788125Y-16120646D01*
X1777335Y-16114879D01*
X1767881Y-16107119D01*
X1760121Y-16097665D01*
X1754354Y-16086875D01*
X1750803Y-16075170D01*
X1749000Y-16056862D01*
X1749000Y-14593138D01*
X1750803Y-14574830D01*
X1754354Y-14563125D01*
X1760121Y-14552335D01*
X1767881Y-14542881D01*
X1777335Y-14535121D01*
X1788125Y-14529354D01*
X1799830Y-14525803D01*
X1818138Y-14524000D01*
X2181862Y-14524000D01*
X2200170Y-14525803D01*
G37*
G36*
X1400170Y-14525803D02*
G01*
X1411875Y-14529354D01*
X1422665Y-14535121D01*
X1432119Y-14542881D01*
X1439879Y-14552335D01*
X1445646Y-14563125D01*
X1449197Y-14574830D01*
X1451000Y-14593138D01*
X1451000Y-16056862D01*
X1449197Y-16075170D01*
X1445646Y-16086875D01*
X1439879Y-16097665D01*
X1432119Y-16107119D01*
X1422665Y-16114879D01*
X1411875Y-16120646D01*
X1400170Y-16124197D01*
X1381862Y-16126000D01*
X1018138Y-16126000D01*
X999830Y-16124197D01*
X988125Y-16120646D01*
X977335Y-16114879D01*
X967881Y-16107119D01*
X960121Y-16097665D01*
X954354Y-16086875D01*
X950803Y-16075170D01*
X949000Y-16056862D01*
X949000Y-14593138D01*
X950803Y-14574830D01*
X954354Y-14563125D01*
X960121Y-14552335D01*
X967881Y-14542881D01*
X977335Y-14535121D01*
X988125Y-14529354D01*
X999830Y-14525803D01*
X1018138Y-14524000D01*
X1381862Y-14524000D01*
X1400170Y-14525803D01*
G37*
G36*
X600170Y-14525803D02*
G01*
X611875Y-14529354D01*
X622665Y-14535121D01*
X632119Y-14542881D01*
X639879Y-14552335D01*
X645646Y-14563125D01*
X649197Y-14574830D01*
X651000Y-14593138D01*
X651000Y-16056862D01*
X649197Y-16075170D01*
X645646Y-16086875D01*
X639879Y-16097665D01*
X632119Y-16107119D01*
X622665Y-16114879D01*
X611875Y-16120646D01*
X600170Y-16124197D01*
X581862Y-16126000D01*
X218138Y-16126000D01*
X199830Y-16124197D01*
X188125Y-16120646D01*
X177335Y-16114879D01*
X167881Y-16107119D01*
X160121Y-16097665D01*
X154354Y-16086875D01*
X150803Y-16075170D01*
X149000Y-16056862D01*
X149000Y-14593138D01*
X150803Y-14574830D01*
X154354Y-14563125D01*
X160121Y-14552335D01*
X167881Y-14542881D01*
X177335Y-14535121D01*
X188125Y-14529354D01*
X199830Y-14525803D01*
X218138Y-14524000D01*
X581862Y-14524000D01*
X600170Y-14525803D01*
G37*
G36*
X-199830Y-14525803D02*
G01*
X-188125Y-14529354D01*
X-177335Y-14535121D01*
X-167881Y-14542881D01*
X-160121Y-14552335D01*
X-154354Y-14563125D01*
X-150803Y-14574830D01*
X-149000Y-14593138D01*
X-149000Y-16056862D01*
X-150803Y-16075170D01*
X-154354Y-16086875D01*
X-160121Y-16097665D01*
X-167881Y-16107119D01*
X-177335Y-16114879D01*
X-188125Y-16120646D01*
X-199830Y-16124197D01*
X-218138Y-16126000D01*
X-581862Y-16126000D01*
X-600170Y-16124197D01*
X-611875Y-16120646D01*
X-622665Y-16114879D01*
X-632119Y-16107119D01*
X-639879Y-16097665D01*
X-645646Y-16086875D01*
X-649197Y-16075170D01*
X-651000Y-16056862D01*
X-651000Y-14593138D01*
X-649197Y-14574830D01*
X-645646Y-14563125D01*
X-639879Y-14552335D01*
X-632119Y-14542881D01*
X-622665Y-14535121D01*
X-611875Y-14529354D01*
X-600170Y-14525803D01*
X-581862Y-14524000D01*
X-218138Y-14524000D01*
X-199830Y-14525803D01*
G37*
G36*
X-999830Y-14525803D02*
G01*
X-988125Y-14529354D01*
X-977335Y-14535121D01*
X-967881Y-14542881D01*
X-960121Y-14552335D01*
X-954354Y-14563125D01*
X-950803Y-14574830D01*
X-949000Y-14593138D01*
X-949000Y-16056862D01*
X-950803Y-16075170D01*
X-954354Y-16086875D01*
X-960121Y-16097665D01*
X-967881Y-16107119D01*
X-977335Y-16114879D01*
X-988125Y-16120646D01*
X-999830Y-16124197D01*
X-1018138Y-16126000D01*
X-1381862Y-16126000D01*
X-1400170Y-16124197D01*
X-1411875Y-16120646D01*
X-1422665Y-16114879D01*
X-1432119Y-16107119D01*
X-1439879Y-16097665D01*
X-1445646Y-16086875D01*
X-1449197Y-16075170D01*
X-1451000Y-16056862D01*
X-1451000Y-14593138D01*
X-1449197Y-14574830D01*
X-1445646Y-14563125D01*
X-1439879Y-14552335D01*
X-1432119Y-14542881D01*
X-1422665Y-14535121D01*
X-1411875Y-14529354D01*
X-1400170Y-14525803D01*
X-1381862Y-14524000D01*
X-1018138Y-14524000D01*
X-999830Y-14525803D01*
G37*
G36*
X-1799830Y-14525803D02*
G01*
X-1788125Y-14529354D01*
X-1777335Y-14535121D01*
X-1767881Y-14542881D01*
X-1760121Y-14552335D01*
X-1754354Y-14563125D01*
X-1750803Y-14574830D01*
X-1749000Y-14593138D01*
X-1749000Y-16056862D01*
X-1750803Y-16075170D01*
X-1754354Y-16086875D01*
X-1760121Y-16097665D01*
X-1767881Y-16107119D01*
X-1777335Y-16114879D01*
X-1788125Y-16120646D01*
X-1799830Y-16124197D01*
X-1818138Y-16126000D01*
X-2181862Y-16126000D01*
X-2200170Y-16124197D01*
X-2211875Y-16120646D01*
X-2222665Y-16114879D01*
X-2232119Y-16107119D01*
X-2239879Y-16097665D01*
X-2245646Y-16086875D01*
X-2249197Y-16075170D01*
X-2251000Y-16056862D01*
X-2251000Y-14593138D01*
X-2249197Y-14574830D01*
X-2245646Y-14563125D01*
X-2239879Y-14552335D01*
X-2232119Y-14542881D01*
X-2222665Y-14535121D01*
X-2211875Y-14529354D01*
X-2200170Y-14525803D01*
X-2181862Y-14524000D01*
X-1818138Y-14524000D01*
X-1799830Y-14525803D01*
G37*
G36*
X-6160501Y-14178445D02*
G01*
X-6123005Y-14189820D01*
X-6088446Y-14208292D01*
X-6058153Y-14233153D01*
X-6033292Y-14263446D01*
X-6014820Y-14298005D01*
X-6003445Y-14335501D01*
X-5999000Y-14380638D01*
X-5999000Y-15019362D01*
X-6003445Y-15064499D01*
X-6014820Y-15101995D01*
X-6033292Y-15136554D01*
X-6058153Y-15166847D01*
X-6088446Y-15191708D01*
X-6123005Y-15210180D01*
X-6160501Y-15221555D01*
X-6205638Y-15226000D01*
X-6944362Y-15226000D01*
X-6989499Y-15221555D01*
X-7026995Y-15210180D01*
X-7061554Y-15191708D01*
X-7091847Y-15166847D01*
X-7116708Y-15136554D01*
X-7135180Y-15101995D01*
X-7146555Y-15064499D01*
X-7151000Y-15019362D01*
X-7151000Y-14380638D01*
X-7146555Y-14335501D01*
X-7135180Y-14298005D01*
X-7116708Y-14263446D01*
X-7091847Y-14233153D01*
X-7061554Y-14208292D01*
X-7026995Y-14189820D01*
X-6989499Y-14178445D01*
X-6944362Y-14174000D01*
X-6205638Y-14174000D01*
X-6160501Y-14178445D01*
G37*
G36*
X-4410501Y-14178445D02*
G01*
X-4373005Y-14189820D01*
X-4338446Y-14208292D01*
X-4308153Y-14233153D01*
X-4283292Y-14263446D01*
X-4264820Y-14298005D01*
X-4253445Y-14335501D01*
X-4249000Y-14380638D01*
X-4249000Y-15019362D01*
X-4253445Y-15064499D01*
X-4264820Y-15101995D01*
X-4283292Y-15136554D01*
X-4308153Y-15166847D01*
X-4338446Y-15191708D01*
X-4373005Y-15210180D01*
X-4410501Y-15221555D01*
X-4455638Y-15226000D01*
X-5194362Y-15226000D01*
X-5239499Y-15221555D01*
X-5276995Y-15210180D01*
X-5311554Y-15191708D01*
X-5341847Y-15166847D01*
X-5366708Y-15136554D01*
X-5385180Y-15101995D01*
X-5396555Y-15064499D01*
X-5401000Y-15019362D01*
X-5401000Y-14380638D01*
X-5396555Y-14335501D01*
X-5385180Y-14298005D01*
X-5366708Y-14263446D01*
X-5341847Y-14233153D01*
X-5311554Y-14208292D01*
X-5276995Y-14189820D01*
X-5239499Y-14178445D01*
X-5194362Y-14174000D01*
X-4455638Y-14174000D01*
X-4410501Y-14178445D01*
G37*
G36*
X-1635501Y-11428445D02*
G01*
X-1598005Y-11439820D01*
X-1563446Y-11458292D01*
X-1533153Y-11483153D01*
X-1508292Y-11513446D01*
X-1489820Y-11548005D01*
X-1478445Y-11585501D01*
X-1474000Y-11630638D01*
X-1474000Y-12369362D01*
X-1478445Y-12414499D01*
X-1489820Y-12451995D01*
X-1508292Y-12486554D01*
X-1533153Y-12516847D01*
X-1563446Y-12541708D01*
X-1598005Y-12560180D01*
X-1635501Y-12571555D01*
X-1680638Y-12576000D01*
X-2319362Y-12576000D01*
X-2364499Y-12571555D01*
X-2401995Y-12560180D01*
X-2436554Y-12541708D01*
X-2466847Y-12516847D01*
X-2491708Y-12486554D01*
X-2510180Y-12451995D01*
X-2521555Y-12414499D01*
X-2526000Y-12369362D01*
X-2526000Y-11630638D01*
X-2521555Y-11585501D01*
X-2510180Y-11548005D01*
X-2491708Y-11513446D01*
X-2466847Y-11483153D01*
X-2436554Y-11458292D01*
X-2401995Y-11439820D01*
X-2364499Y-11428445D01*
X-2319362Y-11424000D01*
X-1680638Y-11424000D01*
X-1635501Y-11428445D01*
G37*
G36*
X-1635501Y-9678445D02*
G01*
X-1598005Y-9689820D01*
X-1563446Y-9708292D01*
X-1533153Y-9733153D01*
X-1508292Y-9763446D01*
X-1489820Y-9798005D01*
X-1478445Y-9835501D01*
X-1474000Y-9880638D01*
X-1474000Y-10619362D01*
X-1478445Y-10664499D01*
X-1489820Y-10701995D01*
X-1508292Y-10736554D01*
X-1533153Y-10766847D01*
X-1563446Y-10791708D01*
X-1598005Y-10810180D01*
X-1635501Y-10821555D01*
X-1680638Y-10826000D01*
X-2319362Y-10826000D01*
X-2364499Y-10821555D01*
X-2401995Y-10810180D01*
X-2436554Y-10791708D01*
X-2466847Y-10766847D01*
X-2491708Y-10736554D01*
X-2510180Y-10701995D01*
X-2521555Y-10664499D01*
X-2526000Y-10619362D01*
X-2526000Y-9880638D01*
X-2521555Y-9835501D01*
X-2510180Y-9798005D01*
X-2491708Y-9763446D01*
X-2466847Y-9733153D01*
X-2436554Y-9708292D01*
X-2401995Y-9689820D01*
X-2364499Y-9678445D01*
X-2319362Y-9674000D01*
X-1680638Y-9674000D01*
X-1635501Y-9678445D01*
G37*
G36*
X10320721Y-4550174D02*
G01*
X10420995Y-4591709D01*
X10465812Y-4621655D01*
X10511242Y-4652010D01*
X10587990Y-4728758D01*
X10587991Y-4728760D01*
X10648291Y-4819005D01*
X10679516Y-4894389D01*
X10691067Y-4916000D01*
X10706612Y-4934941D01*
X10725554Y-4950487D01*
X10747165Y-4962038D01*
X10770614Y-4969151D01*
X10795000Y-4971553D01*
X10819386Y-4969151D01*
X10842835Y-4962038D01*
X10864446Y-4950487D01*
X10883387Y-4934942D01*
X10898933Y-4916000D01*
X10910484Y-4894389D01*
X10941709Y-4819005D01*
X11002009Y-4728760D01*
X11002010Y-4728758D01*
X11078758Y-4652010D01*
X11124188Y-4621655D01*
X11169005Y-4591709D01*
X11269279Y-4550174D01*
X11375730Y-4529000D01*
X11484270Y-4529000D01*
X11590721Y-4550174D01*
X11690995Y-4591709D01*
X11735812Y-4621655D01*
X11781242Y-4652010D01*
X11857990Y-4728758D01*
X11857991Y-4728760D01*
X11918291Y-4819005D01*
X11959826Y-4919279D01*
X11981000Y-5025730D01*
X11981000Y-5134270D01*
X11959826Y-5240721D01*
X11918291Y-5340995D01*
X11918290Y-5340996D01*
X11857990Y-5431242D01*
X11781242Y-5507990D01*
X11735812Y-5538345D01*
X11690995Y-5568291D01*
X11615611Y-5599516D01*
X11594000Y-5611067D01*
X11575059Y-5626612D01*
X11559513Y-5645554D01*
X11547962Y-5667165D01*
X11540849Y-5690614D01*
X11538447Y-5715000D01*
X11540849Y-5739386D01*
X11547962Y-5762835D01*
X11559513Y-5784446D01*
X11575058Y-5803387D01*
X11594000Y-5818933D01*
X11615611Y-5830484D01*
X11690995Y-5861709D01*
X11690996Y-5861710D01*
X11781242Y-5922010D01*
X11857990Y-5998758D01*
X11857991Y-5998760D01*
X11918291Y-6089005D01*
X11959826Y-6189279D01*
X11981000Y-6295730D01*
X11981000Y-6404270D01*
X11959826Y-6510721D01*
X11918291Y-6610995D01*
X11918290Y-6610996D01*
X11857990Y-6701242D01*
X11781242Y-6777990D01*
X11735812Y-6808345D01*
X11690995Y-6838291D01*
X11615611Y-6869516D01*
X11594000Y-6881067D01*
X11575059Y-6896612D01*
X11559513Y-6915554D01*
X11547962Y-6937165D01*
X11540849Y-6960614D01*
X11538447Y-6985000D01*
X11540849Y-7009386D01*
X11547962Y-7032835D01*
X11559513Y-7054446D01*
X11575058Y-7073387D01*
X11594000Y-7088933D01*
X11615611Y-7100484D01*
X11690995Y-7131709D01*
X11690996Y-7131710D01*
X11781242Y-7192010D01*
X11857990Y-7268758D01*
X11857991Y-7268760D01*
X11918291Y-7359005D01*
X11959826Y-7459279D01*
X11981000Y-7565730D01*
X11981000Y-7674270D01*
X11959826Y-7780721D01*
X11918291Y-7880995D01*
X11918290Y-7880996D01*
X11857990Y-7971242D01*
X11781242Y-8047990D01*
X11735812Y-8078345D01*
X11690995Y-8108291D01*
X11615611Y-8139516D01*
X11594000Y-8151067D01*
X11575059Y-8166612D01*
X11559513Y-8185554D01*
X11547962Y-8207165D01*
X11540849Y-8230614D01*
X11538447Y-8255000D01*
X11540849Y-8279386D01*
X11547962Y-8302835D01*
X11559513Y-8324446D01*
X11575058Y-8343387D01*
X11594000Y-8358933D01*
X11615611Y-8370484D01*
X11690995Y-8401709D01*
X11690996Y-8401710D01*
X11781242Y-8462010D01*
X11857990Y-8538758D01*
X11857991Y-8538760D01*
X11918291Y-8629005D01*
X11959826Y-8729279D01*
X11981000Y-8835730D01*
X11981000Y-8944270D01*
X11959826Y-9050721D01*
X11918291Y-9150995D01*
X11918290Y-9150996D01*
X11857990Y-9241242D01*
X11781242Y-9317990D01*
X11735812Y-9348345D01*
X11690995Y-9378291D01*
X11615611Y-9409516D01*
X11594000Y-9421067D01*
X11575059Y-9436612D01*
X11559513Y-9455554D01*
X11547962Y-9477165D01*
X11540849Y-9500614D01*
X11538447Y-9525000D01*
X11540849Y-9549386D01*
X11547962Y-9572835D01*
X11559513Y-9594446D01*
X11575058Y-9613387D01*
X11594000Y-9628933D01*
X11615611Y-9640484D01*
X11690995Y-9671709D01*
X11701076Y-9678445D01*
X11781242Y-9732010D01*
X11857990Y-9808758D01*
X11857991Y-9808760D01*
X11918291Y-9899005D01*
X11959826Y-9999279D01*
X11981000Y-10105730D01*
X11981000Y-10214270D01*
X11959826Y-10320721D01*
X11918291Y-10420995D01*
X11918290Y-10420996D01*
X11857990Y-10511242D01*
X11781242Y-10587990D01*
X11735812Y-10618345D01*
X11690995Y-10648291D01*
X11590721Y-10689826D01*
X11484270Y-10711000D01*
X11375730Y-10711000D01*
X11269279Y-10689826D01*
X11169005Y-10648291D01*
X11124188Y-10618345D01*
X11078758Y-10587990D01*
X11002010Y-10511242D01*
X10981012Y-10479816D01*
X10939932Y-10418336D01*
X10924386Y-10399394D01*
X10905444Y-10383849D01*
X10883833Y-10372298D01*
X10860385Y-10365185D01*
X10835998Y-10362783D01*
X10811612Y-10365185D01*
X10788163Y-10372298D01*
X10766553Y-10383849D01*
X10747611Y-10399395D01*
X10732066Y-10418337D01*
X10720515Y-10439948D01*
X10713402Y-10463396D01*
X10711000Y-10487782D01*
X10711000Y-10711000D01*
X9609000Y-10711000D01*
X9609000Y-9609000D01*
X9832218Y-9609000D01*
X9856604Y-9606598D01*
X9880053Y-9599485D01*
X9901664Y-9587934D01*
X9920606Y-9572389D01*
X9936151Y-9553447D01*
X9947702Y-9531836D01*
X9954815Y-9508387D01*
X9957216Y-9484002D01*
X10362783Y-9484002D01*
X10365185Y-9508388D01*
X10372298Y-9531837D01*
X10383849Y-9553447D01*
X10399395Y-9572389D01*
X10418337Y-9587934D01*
X10439948Y-9599485D01*
X10463396Y-9606598D01*
X10487782Y-9609000D01*
X10711000Y-9609000D01*
X10711000Y-9832218D01*
X10713402Y-9856604D01*
X10720515Y-9880053D01*
X10732066Y-9901664D01*
X10747611Y-9920606D01*
X10766553Y-9936151D01*
X10788164Y-9947702D01*
X10811613Y-9954815D01*
X10835999Y-9957217D01*
X10860385Y-9954815D01*
X10883834Y-9947702D01*
X10905445Y-9936151D01*
X10924387Y-9920606D01*
X10939932Y-9901664D01*
X11002009Y-9808760D01*
X11002010Y-9808758D01*
X11078758Y-9732010D01*
X11158924Y-9678445D01*
X11169005Y-9671709D01*
X11244389Y-9640484D01*
X11266000Y-9628933D01*
X11284941Y-9613388D01*
X11300487Y-9594446D01*
X11312038Y-9572835D01*
X11319151Y-9549386D01*
X11321553Y-9525000D01*
X11319151Y-9500614D01*
X11312038Y-9477165D01*
X11300487Y-9455554D01*
X11284942Y-9436613D01*
X11266000Y-9421067D01*
X11244389Y-9409516D01*
X11169005Y-9378291D01*
X11124188Y-9348345D01*
X11078758Y-9317990D01*
X11002010Y-9241242D01*
X10941710Y-9150996D01*
X10941709Y-9150995D01*
X10910484Y-9075611D01*
X10898933Y-9054000D01*
X10883388Y-9035059D01*
X10864446Y-9019513D01*
X10842835Y-9007962D01*
X10819386Y-9000849D01*
X10795000Y-8998447D01*
X10770614Y-9000849D01*
X10747165Y-9007962D01*
X10725554Y-9019513D01*
X10706613Y-9035058D01*
X10691067Y-9054000D01*
X10679516Y-9075611D01*
X10648291Y-9150995D01*
X10648290Y-9150996D01*
X10587990Y-9241242D01*
X10511242Y-9317990D01*
X10479816Y-9338988D01*
X10418336Y-9380068D01*
X10399394Y-9395614D01*
X10383849Y-9414556D01*
X10372298Y-9436167D01*
X10365185Y-9459615D01*
X10362783Y-9484002D01*
X9957216Y-9484002D01*
X9957217Y-9484001D01*
X9954815Y-9459615D01*
X9947702Y-9436166D01*
X9936151Y-9414555D01*
X9920606Y-9395613D01*
X9901664Y-9380068D01*
X9840184Y-9338988D01*
X9808758Y-9317990D01*
X9732010Y-9241242D01*
X9671710Y-9150996D01*
X9671709Y-9150995D01*
X9630174Y-9050721D01*
X9609000Y-8944270D01*
X9609000Y-8835730D01*
X9630174Y-8729279D01*
X9671709Y-8629005D01*
X9732009Y-8538760D01*
X9732010Y-8538758D01*
X9808758Y-8462010D01*
X9899004Y-8401710D01*
X9899005Y-8401709D01*
X9974389Y-8370484D01*
X9996000Y-8358933D01*
X10014941Y-8343388D01*
X10030487Y-8324446D01*
X10042038Y-8302835D01*
X10049151Y-8279386D01*
X10051553Y-8255000D01*
X10268447Y-8255000D01*
X10270849Y-8279386D01*
X10277962Y-8302835D01*
X10289513Y-8324446D01*
X10305058Y-8343387D01*
X10324000Y-8358933D01*
X10345611Y-8370484D01*
X10420995Y-8401709D01*
X10420996Y-8401710D01*
X10511242Y-8462010D01*
X10587990Y-8538758D01*
X10587991Y-8538760D01*
X10648291Y-8629005D01*
X10679516Y-8704389D01*
X10691067Y-8726000D01*
X10706612Y-8744941D01*
X10725554Y-8760487D01*
X10747165Y-8772038D01*
X10770614Y-8779151D01*
X10795000Y-8781553D01*
X10819386Y-8779151D01*
X10842835Y-8772038D01*
X10864446Y-8760487D01*
X10883387Y-8744942D01*
X10898933Y-8726000D01*
X10910484Y-8704389D01*
X10941709Y-8629005D01*
X11002009Y-8538760D01*
X11002010Y-8538758D01*
X11078758Y-8462010D01*
X11169004Y-8401710D01*
X11169005Y-8401709D01*
X11244389Y-8370484D01*
X11266000Y-8358933D01*
X11284941Y-8343388D01*
X11300487Y-8324446D01*
X11312038Y-8302835D01*
X11319151Y-8279386D01*
X11321553Y-8255000D01*
X11319151Y-8230614D01*
X11312038Y-8207165D01*
X11300487Y-8185554D01*
X11284942Y-8166613D01*
X11266000Y-8151067D01*
X11244389Y-8139516D01*
X11169005Y-8108291D01*
X11124188Y-8078345D01*
X11078758Y-8047990D01*
X11002010Y-7971242D01*
X10941710Y-7880996D01*
X10941709Y-7880995D01*
X10910484Y-7805611D01*
X10898933Y-7784000D01*
X10883388Y-7765059D01*
X10864446Y-7749513D01*
X10842835Y-7737962D01*
X10819386Y-7730849D01*
X10795000Y-7728447D01*
X10770614Y-7730849D01*
X10747165Y-7737962D01*
X10725554Y-7749513D01*
X10706613Y-7765058D01*
X10691067Y-7784000D01*
X10679516Y-7805611D01*
X10648291Y-7880995D01*
X10648290Y-7880996D01*
X10587990Y-7971242D01*
X10511242Y-8047990D01*
X10465812Y-8078345D01*
X10420995Y-8108291D01*
X10345611Y-8139516D01*
X10324000Y-8151067D01*
X10305059Y-8166612D01*
X10289513Y-8185554D01*
X10277962Y-8207165D01*
X10270849Y-8230614D01*
X10268447Y-8255000D01*
X10051553Y-8255000D01*
X10049151Y-8230614D01*
X10042038Y-8207165D01*
X10030487Y-8185554D01*
X10014942Y-8166613D01*
X9996000Y-8151067D01*
X9974389Y-8139516D01*
X9899005Y-8108291D01*
X9854188Y-8078345D01*
X9808758Y-8047990D01*
X9732010Y-7971242D01*
X9671710Y-7880996D01*
X9671709Y-7880995D01*
X9630174Y-7780721D01*
X9609000Y-7674270D01*
X9609000Y-7565730D01*
X9630174Y-7459279D01*
X9671709Y-7359005D01*
X9732009Y-7268760D01*
X9732010Y-7268758D01*
X9808758Y-7192010D01*
X9899004Y-7131710D01*
X9899005Y-7131709D01*
X9974389Y-7100484D01*
X9996000Y-7088933D01*
X10014941Y-7073388D01*
X10030487Y-7054446D01*
X10042038Y-7032835D01*
X10049151Y-7009386D01*
X10051553Y-6985000D01*
X10268447Y-6985000D01*
X10270849Y-7009386D01*
X10277962Y-7032835D01*
X10289513Y-7054446D01*
X10305058Y-7073387D01*
X10324000Y-7088933D01*
X10345611Y-7100484D01*
X10420995Y-7131709D01*
X10420996Y-7131710D01*
X10511242Y-7192010D01*
X10587990Y-7268758D01*
X10587991Y-7268760D01*
X10648291Y-7359005D01*
X10679516Y-7434389D01*
X10691067Y-7456000D01*
X10706612Y-7474941D01*
X10725554Y-7490487D01*
X10747165Y-7502038D01*
X10770614Y-7509151D01*
X10795000Y-7511553D01*
X10819386Y-7509151D01*
X10842835Y-7502038D01*
X10864446Y-7490487D01*
X10883387Y-7474942D01*
X10898933Y-7456000D01*
X10910484Y-7434389D01*
X10941709Y-7359005D01*
X11002009Y-7268760D01*
X11002010Y-7268758D01*
X11078758Y-7192010D01*
X11169004Y-7131710D01*
X11169005Y-7131709D01*
X11244389Y-7100484D01*
X11266000Y-7088933D01*
X11284941Y-7073388D01*
X11300487Y-7054446D01*
X11312038Y-7032835D01*
X11319151Y-7009386D01*
X11321553Y-6985000D01*
X11319151Y-6960614D01*
X11312038Y-6937165D01*
X11300487Y-6915554D01*
X11284942Y-6896613D01*
X11266000Y-6881067D01*
X11244389Y-6869516D01*
X11169005Y-6838291D01*
X11124188Y-6808345D01*
X11078758Y-6777990D01*
X11002010Y-6701242D01*
X10941710Y-6610996D01*
X10941709Y-6610995D01*
X10910484Y-6535611D01*
X10898933Y-6514000D01*
X10883388Y-6495059D01*
X10864446Y-6479513D01*
X10842835Y-6467962D01*
X10819386Y-6460849D01*
X10795000Y-6458447D01*
X10770614Y-6460849D01*
X10747165Y-6467962D01*
X10725554Y-6479513D01*
X10706613Y-6495058D01*
X10691067Y-6514000D01*
X10679516Y-6535611D01*
X10648291Y-6610995D01*
X10648290Y-6610996D01*
X10587990Y-6701242D01*
X10511242Y-6777990D01*
X10465812Y-6808345D01*
X10420995Y-6838291D01*
X10345611Y-6869516D01*
X10324000Y-6881067D01*
X10305059Y-6896612D01*
X10289513Y-6915554D01*
X10277962Y-6937165D01*
X10270849Y-6960614D01*
X10268447Y-6985000D01*
X10051553Y-6985000D01*
X10049151Y-6960614D01*
X10042038Y-6937165D01*
X10030487Y-6915554D01*
X10014942Y-6896613D01*
X9996000Y-6881067D01*
X9974389Y-6869516D01*
X9899005Y-6838291D01*
X9854188Y-6808345D01*
X9808758Y-6777990D01*
X9732010Y-6701242D01*
X9671710Y-6610996D01*
X9671709Y-6610995D01*
X9630174Y-6510721D01*
X9609000Y-6404270D01*
X9609000Y-6295730D01*
X9630174Y-6189279D01*
X9671709Y-6089005D01*
X9732009Y-5998760D01*
X9732010Y-5998758D01*
X9808758Y-5922010D01*
X9899004Y-5861710D01*
X9899005Y-5861709D01*
X9974389Y-5830484D01*
X9996000Y-5818933D01*
X10014941Y-5803388D01*
X10030487Y-5784446D01*
X10042038Y-5762835D01*
X10049151Y-5739386D01*
X10051553Y-5715000D01*
X10268447Y-5715000D01*
X10270849Y-5739386D01*
X10277962Y-5762835D01*
X10289513Y-5784446D01*
X10305058Y-5803387D01*
X10324000Y-5818933D01*
X10345611Y-5830484D01*
X10420995Y-5861709D01*
X10420996Y-5861710D01*
X10511242Y-5922010D01*
X10587990Y-5998758D01*
X10587991Y-5998760D01*
X10648291Y-6089005D01*
X10679516Y-6164389D01*
X10691067Y-6186000D01*
X10706612Y-6204941D01*
X10725554Y-6220487D01*
X10747165Y-6232038D01*
X10770614Y-6239151D01*
X10795000Y-6241553D01*
X10819386Y-6239151D01*
X10842835Y-6232038D01*
X10864446Y-6220487D01*
X10883387Y-6204942D01*
X10898933Y-6186000D01*
X10910484Y-6164389D01*
X10941709Y-6089005D01*
X11002009Y-5998760D01*
X11002010Y-5998758D01*
X11078758Y-5922010D01*
X11169004Y-5861710D01*
X11169005Y-5861709D01*
X11244389Y-5830484D01*
X11266000Y-5818933D01*
X11284941Y-5803388D01*
X11300487Y-5784446D01*
X11312038Y-5762835D01*
X11319151Y-5739386D01*
X11321553Y-5715000D01*
X11319151Y-5690614D01*
X11312038Y-5667165D01*
X11300487Y-5645554D01*
X11284942Y-5626613D01*
X11266000Y-5611067D01*
X11244389Y-5599516D01*
X11169005Y-5568291D01*
X11124188Y-5538345D01*
X11078758Y-5507990D01*
X11002010Y-5431242D01*
X10941710Y-5340996D01*
X10941709Y-5340995D01*
X10910484Y-5265611D01*
X10898933Y-5244000D01*
X10883388Y-5225059D01*
X10864446Y-5209513D01*
X10842835Y-5197962D01*
X10819386Y-5190849D01*
X10795000Y-5188447D01*
X10770614Y-5190849D01*
X10747165Y-5197962D01*
X10725554Y-5209513D01*
X10706613Y-5225058D01*
X10691067Y-5244000D01*
X10679516Y-5265611D01*
X10648291Y-5340995D01*
X10648290Y-5340996D01*
X10587990Y-5431242D01*
X10511242Y-5507990D01*
X10465812Y-5538345D01*
X10420995Y-5568291D01*
X10345611Y-5599516D01*
X10324000Y-5611067D01*
X10305059Y-5626612D01*
X10289513Y-5645554D01*
X10277962Y-5667165D01*
X10270849Y-5690614D01*
X10268447Y-5715000D01*
X10051553Y-5715000D01*
X10049151Y-5690614D01*
X10042038Y-5667165D01*
X10030487Y-5645554D01*
X10014942Y-5626613D01*
X9996000Y-5611067D01*
X9974389Y-5599516D01*
X9899005Y-5568291D01*
X9854188Y-5538345D01*
X9808758Y-5507990D01*
X9732010Y-5431242D01*
X9671710Y-5340996D01*
X9671709Y-5340995D01*
X9630174Y-5240721D01*
X9609000Y-5134270D01*
X9609000Y-5025730D01*
X9630174Y-4919279D01*
X9671709Y-4819005D01*
X9732009Y-4728760D01*
X9732010Y-4728758D01*
X9808758Y-4652010D01*
X9854188Y-4621655D01*
X9899005Y-4591709D01*
X9999279Y-4550174D01*
X10105730Y-4529000D01*
X10214270Y-4529000D01*
X10320721Y-4550174D01*
G37*
G36*
X-140488Y-2913927D02*
G01*
X8812Y-2943624D01*
X172784Y-3011544D01*
X320354Y-3110147D01*
X445853Y-3235646D01*
X544456Y-3383216D01*
X612376Y-3547188D01*
X647000Y-3721259D01*
X647000Y-3898741D01*
X612376Y-4072812D01*
X544456Y-4236784D01*
X445853Y-4384354D01*
X320354Y-4509853D01*
X172784Y-4608456D01*
X8812Y-4676376D01*
X-140488Y-4706073D01*
X-165258Y-4711000D01*
X-342742Y-4711000D01*
X-367512Y-4706073D01*
X-516812Y-4676376D01*
X-680784Y-4608456D01*
X-828354Y-4509853D01*
X-953853Y-4384354D01*
X-1052456Y-4236784D01*
X-1120376Y-4072812D01*
X-1155000Y-3898741D01*
X-1155000Y-3721259D01*
X-1120376Y-3547188D01*
X-1052456Y-3383216D01*
X-953853Y-3235646D01*
X-828354Y-3110147D01*
X-680784Y-3011544D01*
X-516812Y-2943624D01*
X-367512Y-2913927D01*
X-342742Y-2909000D01*
X-165258Y-2909000D01*
X-140488Y-2913927D01*
G37*
G36*
X-5220488Y-2913927D02*
G01*
X-5071188Y-2943624D01*
X-4907216Y-3011544D01*
X-4759646Y-3110147D01*
X-4634147Y-3235646D01*
X-4535544Y-3383216D01*
X-4467624Y-3547188D01*
X-4433000Y-3721259D01*
X-4433000Y-3898741D01*
X-4467624Y-4072812D01*
X-4535544Y-4236784D01*
X-4634147Y-4384354D01*
X-4759646Y-4509853D01*
X-4907216Y-4608456D01*
X-5071188Y-4676376D01*
X-5220488Y-4706073D01*
X-5245258Y-4711000D01*
X-5422742Y-4711000D01*
X-5447512Y-4706073D01*
X-5596812Y-4676376D01*
X-5760784Y-4608456D01*
X-5908354Y-4509853D01*
X-6033853Y-4384354D01*
X-6132456Y-4236784D01*
X-6200376Y-4072812D01*
X-6235000Y-3898741D01*
X-6235000Y-3721259D01*
X-6200376Y-3547188D01*
X-6132456Y-3383216D01*
X-6033853Y-3235646D01*
X-5908354Y-3110147D01*
X-5760784Y-3011544D01*
X-5596812Y-2943624D01*
X-5447512Y-2913927D01*
X-5422742Y-2909000D01*
X-5245258Y-2909000D01*
X-5220488Y-2913927D01*
G37*
G36*
X-7760488Y-2913927D02*
G01*
X-7611188Y-2943624D01*
X-7447216Y-3011544D01*
X-7299646Y-3110147D01*
X-7174147Y-3235646D01*
X-7075544Y-3383216D01*
X-7007624Y-3547188D01*
X-6973000Y-3721259D01*
X-6973000Y-3898741D01*
X-7007624Y-4072812D01*
X-7075544Y-4236784D01*
X-7174147Y-4384354D01*
X-7299646Y-4509853D01*
X-7447216Y-4608456D01*
X-7611188Y-4676376D01*
X-7760488Y-4706073D01*
X-7785258Y-4711000D01*
X-7962742Y-4711000D01*
X-7987512Y-4706073D01*
X-8136812Y-4676376D01*
X-8300784Y-4608456D01*
X-8448354Y-4509853D01*
X-8573853Y-4384354D01*
X-8672456Y-4236784D01*
X-8740376Y-4072812D01*
X-8775000Y-3898741D01*
X-8775000Y-3721259D01*
X-8740376Y-3547188D01*
X-8672456Y-3383216D01*
X-8573853Y-3235646D01*
X-8448354Y-3110147D01*
X-8300784Y-3011544D01*
X-8136812Y-2943624D01*
X-7987512Y-2913927D01*
X-7962742Y-2909000D01*
X-7785258Y-2909000D01*
X-7760488Y-2913927D01*
G37*
G36*
X-2680488Y-2913927D02*
G01*
X-2531188Y-2943624D01*
X-2367216Y-3011544D01*
X-2219646Y-3110147D01*
X-2094147Y-3235646D01*
X-1995544Y-3383216D01*
X-1927624Y-3547188D01*
X-1893000Y-3721259D01*
X-1893000Y-3898741D01*
X-1927624Y-4072812D01*
X-1995544Y-4236784D01*
X-2094147Y-4384354D01*
X-2219646Y-4509853D01*
X-2367216Y-4608456D01*
X-2531188Y-4676376D01*
X-2680488Y-4706073D01*
X-2705258Y-4711000D01*
X-2882742Y-4711000D01*
X-2907512Y-4706073D01*
X-3056812Y-4676376D01*
X-3220784Y-4608456D01*
X-3368354Y-4509853D01*
X-3493853Y-4384354D01*
X-3592456Y-4236784D01*
X-3660376Y-4072812D01*
X-3695000Y-3898741D01*
X-3695000Y-3721259D01*
X-3660376Y-3547188D01*
X-3592456Y-3383216D01*
X-3493853Y-3235646D01*
X-3368354Y-3110147D01*
X-3220784Y-3011544D01*
X-3056812Y-2943624D01*
X-2907512Y-2913927D01*
X-2882742Y-2909000D01*
X-2705258Y-2909000D01*
X-2680488Y-2913927D01*
G37*
G36*
X-9513000Y-4711000D02*
G01*
X-11315000Y-4711000D01*
X-11315000Y-2909000D01*
X-9513000Y-2909000D01*
X-9513000Y-4711000D01*
G37*
G36*
X7733512Y-373927D02*
G01*
X7882812Y-403624D01*
X8046784Y-471544D01*
X8194354Y-570147D01*
X8319853Y-695646D01*
X8418456Y-843216D01*
X8486376Y-1007188D01*
X8521000Y-1181259D01*
X8521000Y-1358741D01*
X8486376Y-1532812D01*
X8418456Y-1696784D01*
X8319853Y-1844354D01*
X8194354Y-1969853D01*
X8046784Y-2068456D01*
X7882812Y-2136376D01*
X7733512Y-2166073D01*
X7708742Y-2171000D01*
X7531258Y-2171000D01*
X7506488Y-2166073D01*
X7357188Y-2136376D01*
X7193216Y-2068456D01*
X7045646Y-1969853D01*
X6920147Y-1844354D01*
X6821544Y-1696784D01*
X6753624Y-1532812D01*
X6719000Y-1358741D01*
X6719000Y-1181259D01*
X6753624Y-1007188D01*
X6821544Y-843216D01*
X6920147Y-695646D01*
X7045646Y-570147D01*
X7193216Y-471544D01*
X7357188Y-403624D01*
X7506488Y-373927D01*
X7531258Y-369000D01*
X7708742Y-369000D01*
X7733512Y-373927D01*
G37*
G36*
X5193512Y-373927D02*
G01*
X5342812Y-403624D01*
X5506784Y-471544D01*
X5654354Y-570147D01*
X5779853Y-695646D01*
X5878456Y-843216D01*
X5946376Y-1007188D01*
X5981000Y-1181259D01*
X5981000Y-1358741D01*
X5946376Y-1532812D01*
X5878456Y-1696784D01*
X5779853Y-1844354D01*
X5654354Y-1969853D01*
X5506784Y-2068456D01*
X5342812Y-2136376D01*
X5193512Y-2166073D01*
X5168742Y-2171000D01*
X4991258Y-2171000D01*
X4966488Y-2166073D01*
X4817188Y-2136376D01*
X4653216Y-2068456D01*
X4505646Y-1969853D01*
X4380147Y-1844354D01*
X4281544Y-1696784D01*
X4213624Y-1532812D01*
X4179000Y-1358741D01*
X4179000Y-1181259D01*
X4213624Y-1007188D01*
X4281544Y-843216D01*
X4380147Y-695646D01*
X4505646Y-570147D01*
X4653216Y-471544D01*
X4817188Y-403624D01*
X4966488Y-373927D01*
X4991258Y-369000D01*
X5168742Y-369000D01*
X5193512Y-373927D01*
G37*
G36*
X2653512Y-373927D02*
G01*
X2802812Y-403624D01*
X2966784Y-471544D01*
X3114354Y-570147D01*
X3239853Y-695646D01*
X3338456Y-843216D01*
X3406376Y-1007188D01*
X3441000Y-1181259D01*
X3441000Y-1358741D01*
X3406376Y-1532812D01*
X3338456Y-1696784D01*
X3239853Y-1844354D01*
X3114354Y-1969853D01*
X2966784Y-2068456D01*
X2802812Y-2136376D01*
X2653512Y-2166073D01*
X2628742Y-2171000D01*
X2451258Y-2171000D01*
X2426488Y-2166073D01*
X2277188Y-2136376D01*
X2113216Y-2068456D01*
X1965646Y-1969853D01*
X1840147Y-1844354D01*
X1741544Y-1696784D01*
X1673624Y-1532812D01*
X1639000Y-1358741D01*
X1639000Y-1181259D01*
X1673624Y-1007188D01*
X1741544Y-843216D01*
X1840147Y-695646D01*
X1965646Y-570147D01*
X2113216Y-471544D01*
X2277188Y-403624D01*
X2426488Y-373927D01*
X2451258Y-369000D01*
X2628742Y-369000D01*
X2653512Y-373927D01*
G37*
G36*
X113512Y-373927D02*
G01*
X262812Y-403624D01*
X426784Y-471544D01*
X574354Y-570147D01*
X699853Y-695646D01*
X798456Y-843216D01*
X866376Y-1007188D01*
X901000Y-1181259D01*
X901000Y-1358741D01*
X866376Y-1532812D01*
X798456Y-1696784D01*
X699853Y-1844354D01*
X574354Y-1969853D01*
X426784Y-2068456D01*
X262812Y-2136376D01*
X113512Y-2166073D01*
X88742Y-2171000D01*
X-88742Y-2171000D01*
X-113512Y-2166073D01*
X-262812Y-2136376D01*
X-426784Y-2068456D01*
X-574354Y-1969853D01*
X-699853Y-1844354D01*
X-798456Y-1696784D01*
X-866376Y-1532812D01*
X-901000Y-1358741D01*
X-901000Y-1181259D01*
X-866376Y-1007188D01*
X-798456Y-843216D01*
X-699853Y-695646D01*
X-574354Y-570147D01*
X-426784Y-471544D01*
X-262812Y-403624D01*
X-113512Y-373927D01*
X-88742Y-369000D01*
X88742Y-369000D01*
X113512Y-373927D01*
G37*
G36*
X-2426488Y-373927D02*
G01*
X-2277188Y-403624D01*
X-2113216Y-471544D01*
X-1965646Y-570147D01*
X-1840147Y-695646D01*
X-1741544Y-843216D01*
X-1673624Y-1007188D01*
X-1639000Y-1181259D01*
X-1639000Y-1358741D01*
X-1673624Y-1532812D01*
X-1741544Y-1696784D01*
X-1840147Y-1844354D01*
X-1965646Y-1969853D01*
X-2113216Y-2068456D01*
X-2277188Y-2136376D01*
X-2426488Y-2166073D01*
X-2451258Y-2171000D01*
X-2628742Y-2171000D01*
X-2653512Y-2166073D01*
X-2802812Y-2136376D01*
X-2966784Y-2068456D01*
X-3114354Y-1969853D01*
X-3239853Y-1844354D01*
X-3338456Y-1696784D01*
X-3406376Y-1532812D01*
X-3441000Y-1358741D01*
X-3441000Y-1181259D01*
X-3406376Y-1007188D01*
X-3338456Y-843216D01*
X-3239853Y-695646D01*
X-3114354Y-570147D01*
X-2966784Y-471544D01*
X-2802812Y-403624D01*
X-2653512Y-373927D01*
X-2628742Y-369000D01*
X-2451258Y-369000D01*
X-2426488Y-373927D01*
G37*
G36*
X-4966488Y-373927D02*
G01*
X-4817188Y-403624D01*
X-4653216Y-471544D01*
X-4505646Y-570147D01*
X-4380147Y-695646D01*
X-4281544Y-843216D01*
X-4213624Y-1007188D01*
X-4179000Y-1181259D01*
X-4179000Y-1358741D01*
X-4213624Y-1532812D01*
X-4281544Y-1696784D01*
X-4380147Y-1844354D01*
X-4505646Y-1969853D01*
X-4653216Y-2068456D01*
X-4817188Y-2136376D01*
X-4966488Y-2166073D01*
X-4991258Y-2171000D01*
X-5168742Y-2171000D01*
X-5193512Y-2166073D01*
X-5342812Y-2136376D01*
X-5506784Y-2068456D01*
X-5654354Y-1969853D01*
X-5779853Y-1844354D01*
X-5878456Y-1696784D01*
X-5946376Y-1532812D01*
X-5981000Y-1358741D01*
X-5981000Y-1181259D01*
X-5946376Y-1007188D01*
X-5878456Y-843216D01*
X-5779853Y-695646D01*
X-5654354Y-570147D01*
X-5506784Y-471544D01*
X-5342812Y-403624D01*
X-5193512Y-373927D01*
X-5168742Y-369000D01*
X-4991258Y-369000D01*
X-4966488Y-373927D01*
G37*
G36*
X-6719000Y-2171000D02*
G01*
X-8521000Y-2171000D01*
X-8521000Y-369000D01*
X-6719000Y-369000D01*
X-6719000Y-2171000D01*
G37*
M02*
