G04 #@! TF.GenerationSoftware,KiCad,Pcbnew,(5.1.5-0-10_14)*
G04 #@! TF.CreationDate,2021-01-17T15:25:25+09:00*
G04 #@! TF.ProjectId,EnvMon,456e764d-6f6e-42e6-9b69-6361645f7063,2.1*
G04 #@! TF.SameCoordinates,Original*
G04 #@! TF.FileFunction,Soldermask,Bot*
G04 #@! TF.FilePolarity,Negative*
%FSLAX46Y46*%
G04 Gerber Fmt 4.6, Leading zero omitted, Abs format (unit mm)*
G04 Created by KiCad (PCBNEW (5.1.5-0-10_14)) date 2021-01-17 15:25:25*
%MOMM*%
%LPD*%
G04 APERTURE LIST*
%ADD10C,0.100000*%
G04 APERTURE END LIST*
D10*
G36*
X-2586488Y-32503927D02*
G01*
X-2437188Y-32533624D01*
X-2273216Y-32601544D01*
X-2125646Y-32700147D01*
X-2000147Y-32825646D01*
X-1901544Y-32973216D01*
X-1833624Y-33137188D01*
X-1799000Y-33311259D01*
X-1799000Y-33488741D01*
X-1833624Y-33662812D01*
X-1901544Y-33826784D01*
X-2000147Y-33974354D01*
X-2125646Y-34099853D01*
X-2273216Y-34198456D01*
X-2437188Y-34266376D01*
X-2586488Y-34296073D01*
X-2611258Y-34301000D01*
X-2788742Y-34301000D01*
X-2813512Y-34296073D01*
X-2962812Y-34266376D01*
X-3126784Y-34198456D01*
X-3274354Y-34099853D01*
X-3399853Y-33974354D01*
X-3498456Y-33826784D01*
X-3566376Y-33662812D01*
X-3601000Y-33488741D01*
X-3601000Y-33311259D01*
X-3566376Y-33137188D01*
X-3498456Y-32973216D01*
X-3399853Y-32825646D01*
X-3274354Y-32700147D01*
X-3126784Y-32601544D01*
X-2962812Y-32533624D01*
X-2813512Y-32503927D01*
X-2788742Y-32499000D01*
X-2611258Y-32499000D01*
X-2586488Y-32503927D01*
G37*
G36*
X-5126488Y-32503927D02*
G01*
X-4977188Y-32533624D01*
X-4813216Y-32601544D01*
X-4665646Y-32700147D01*
X-4540147Y-32825646D01*
X-4441544Y-32973216D01*
X-4373624Y-33137188D01*
X-4339000Y-33311259D01*
X-4339000Y-33488741D01*
X-4373624Y-33662812D01*
X-4441544Y-33826784D01*
X-4540147Y-33974354D01*
X-4665646Y-34099853D01*
X-4813216Y-34198456D01*
X-4977188Y-34266376D01*
X-5126488Y-34296073D01*
X-5151258Y-34301000D01*
X-5328742Y-34301000D01*
X-5353512Y-34296073D01*
X-5502812Y-34266376D01*
X-5666784Y-34198456D01*
X-5814354Y-34099853D01*
X-5939853Y-33974354D01*
X-6038456Y-33826784D01*
X-6106376Y-33662812D01*
X-6141000Y-33488741D01*
X-6141000Y-33311259D01*
X-6106376Y-33137188D01*
X-6038456Y-32973216D01*
X-5939853Y-32825646D01*
X-5814354Y-32700147D01*
X-5666784Y-32601544D01*
X-5502812Y-32533624D01*
X-5353512Y-32503927D01*
X-5328742Y-32499000D01*
X-5151258Y-32499000D01*
X-5126488Y-32503927D01*
G37*
G36*
X-7666488Y-32503927D02*
G01*
X-7517188Y-32533624D01*
X-7353216Y-32601544D01*
X-7205646Y-32700147D01*
X-7080147Y-32825646D01*
X-6981544Y-32973216D01*
X-6913624Y-33137188D01*
X-6879000Y-33311259D01*
X-6879000Y-33488741D01*
X-6913624Y-33662812D01*
X-6981544Y-33826784D01*
X-7080147Y-33974354D01*
X-7205646Y-34099853D01*
X-7353216Y-34198456D01*
X-7517188Y-34266376D01*
X-7666488Y-34296073D01*
X-7691258Y-34301000D01*
X-7868742Y-34301000D01*
X-7893512Y-34296073D01*
X-8042812Y-34266376D01*
X-8206784Y-34198456D01*
X-8354354Y-34099853D01*
X-8479853Y-33974354D01*
X-8578456Y-33826784D01*
X-8646376Y-33662812D01*
X-8681000Y-33488741D01*
X-8681000Y-33311259D01*
X-8646376Y-33137188D01*
X-8578456Y-32973216D01*
X-8479853Y-32825646D01*
X-8354354Y-32700147D01*
X-8206784Y-32601544D01*
X-8042812Y-32533624D01*
X-7893512Y-32503927D01*
X-7868742Y-32499000D01*
X-7691258Y-32499000D01*
X-7666488Y-32503927D01*
G37*
G36*
X-9419000Y-34301000D02*
G01*
X-11221000Y-34301000D01*
X-11221000Y-32499000D01*
X-9419000Y-32499000D01*
X-9419000Y-34301000D01*
G37*
G36*
X9378014Y-31956973D02*
G01*
X9481878Y-31988479D01*
X9525907Y-32012013D01*
X9577599Y-32039643D01*
X9577601Y-32039644D01*
X9577600Y-32039644D01*
X9661501Y-32108499D01*
X9730356Y-32192400D01*
X9781521Y-32288121D01*
X9813027Y-32391985D01*
X9821000Y-32472933D01*
X9821000Y-33527067D01*
X9813027Y-33608015D01*
X9781521Y-33711879D01*
X9781520Y-33711880D01*
X9781519Y-33711882D01*
X9730357Y-33807600D01*
X9661501Y-33891501D01*
X9577600Y-33960357D01*
X9509055Y-33996995D01*
X9481879Y-34011521D01*
X9378015Y-34043027D01*
X9270000Y-34053666D01*
X9161986Y-34043027D01*
X9058122Y-34011521D01*
X9030946Y-33996995D01*
X8962401Y-33960357D01*
X8878500Y-33891501D01*
X8809644Y-33807600D01*
X8758481Y-33711880D01*
X8758480Y-33711879D01*
X8754614Y-33699135D01*
X8745241Y-33676505D01*
X8731628Y-33656130D01*
X8714301Y-33638803D01*
X8693927Y-33625189D01*
X8671288Y-33615811D01*
X8647255Y-33611030D01*
X8622751Y-33611030D01*
X8598718Y-33615810D01*
X8576079Y-33625187D01*
X8555704Y-33638800D01*
X8538377Y-33656127D01*
X8524763Y-33676501D01*
X8515387Y-33699134D01*
X8511521Y-33711879D01*
X8511520Y-33711880D01*
X8460357Y-33807600D01*
X8391501Y-33891501D01*
X8307600Y-33960357D01*
X8239055Y-33996995D01*
X8211879Y-34011521D01*
X8108015Y-34043027D01*
X8000000Y-34053666D01*
X7891986Y-34043027D01*
X7788122Y-34011521D01*
X7760946Y-33996995D01*
X7692401Y-33960357D01*
X7608500Y-33891501D01*
X7539644Y-33807600D01*
X7488481Y-33711880D01*
X7488480Y-33711879D01*
X7484614Y-33699135D01*
X7475241Y-33676505D01*
X7461628Y-33656130D01*
X7444301Y-33638803D01*
X7423927Y-33625189D01*
X7401288Y-33615811D01*
X7377255Y-33611030D01*
X7352751Y-33611030D01*
X7328718Y-33615810D01*
X7306079Y-33625187D01*
X7285704Y-33638800D01*
X7268377Y-33656127D01*
X7254763Y-33676501D01*
X7245387Y-33699134D01*
X7241521Y-33711879D01*
X7241520Y-33711880D01*
X7190357Y-33807600D01*
X7121501Y-33891501D01*
X7037600Y-33960357D01*
X6969055Y-33996995D01*
X6941879Y-34011521D01*
X6838015Y-34043027D01*
X6730000Y-34053666D01*
X6621986Y-34043027D01*
X6518122Y-34011521D01*
X6490946Y-33996995D01*
X6422401Y-33960357D01*
X6338500Y-33891501D01*
X6269644Y-33807600D01*
X6218482Y-33711882D01*
X6218481Y-33711880D01*
X6218480Y-33711879D01*
X6186974Y-33608015D01*
X6179001Y-33527067D01*
X6179000Y-32472934D01*
X6186973Y-32391986D01*
X6218479Y-32288122D01*
X6269644Y-32192400D01*
X6338499Y-32108499D01*
X6422400Y-32039644D01*
X6422399Y-32039644D01*
X6422401Y-32039643D01*
X6474093Y-32012013D01*
X6518121Y-31988479D01*
X6621985Y-31956973D01*
X6730000Y-31946334D01*
X6838014Y-31956973D01*
X6941878Y-31988479D01*
X6985907Y-32012013D01*
X7037599Y-32039643D01*
X7037601Y-32039644D01*
X7037600Y-32039644D01*
X7121501Y-32108499D01*
X7190356Y-32192400D01*
X7241521Y-32288121D01*
X7245388Y-32300869D01*
X7254760Y-32323496D01*
X7268374Y-32343870D01*
X7285701Y-32361197D01*
X7306075Y-32374811D01*
X7328714Y-32384188D01*
X7352747Y-32388969D01*
X7377251Y-32388969D01*
X7401285Y-32384189D01*
X7423924Y-32374812D01*
X7444298Y-32361198D01*
X7461625Y-32343871D01*
X7475239Y-32323497D01*
X7484616Y-32300858D01*
X7488479Y-32288123D01*
X7488479Y-32288122D01*
X7539644Y-32192400D01*
X7608499Y-32108499D01*
X7692400Y-32039644D01*
X7692399Y-32039644D01*
X7692401Y-32039643D01*
X7744093Y-32012013D01*
X7788121Y-31988479D01*
X7891985Y-31956973D01*
X8000000Y-31946334D01*
X8108014Y-31956973D01*
X8211878Y-31988479D01*
X8255907Y-32012013D01*
X8307599Y-32039643D01*
X8307601Y-32039644D01*
X8307600Y-32039644D01*
X8391501Y-32108499D01*
X8460356Y-32192400D01*
X8511521Y-32288121D01*
X8515388Y-32300869D01*
X8524760Y-32323496D01*
X8538374Y-32343870D01*
X8555701Y-32361197D01*
X8576075Y-32374811D01*
X8598714Y-32384188D01*
X8622747Y-32388969D01*
X8647251Y-32388969D01*
X8671285Y-32384189D01*
X8693924Y-32374812D01*
X8714298Y-32361198D01*
X8731625Y-32343871D01*
X8745239Y-32323497D01*
X8754616Y-32300858D01*
X8758479Y-32288123D01*
X8758479Y-32288122D01*
X8809644Y-32192400D01*
X8878499Y-32108499D01*
X8962400Y-32039644D01*
X8962399Y-32039644D01*
X8962401Y-32039643D01*
X9014093Y-32012013D01*
X9058121Y-31988479D01*
X9161985Y-31956973D01*
X9270000Y-31946334D01*
X9378014Y-31956973D01*
G37*
G36*
X10273512Y-27043927D02*
G01*
X10422812Y-27073624D01*
X10586784Y-27141544D01*
X10734354Y-27240147D01*
X10859853Y-27365646D01*
X10958456Y-27513216D01*
X11026376Y-27677188D01*
X11061000Y-27851259D01*
X11061000Y-28028741D01*
X11026376Y-28202812D01*
X10958456Y-28366784D01*
X10859853Y-28514354D01*
X10734354Y-28639853D01*
X10586784Y-28738456D01*
X10422812Y-28806376D01*
X10273512Y-28836073D01*
X10248742Y-28841000D01*
X10071258Y-28841000D01*
X10046488Y-28836073D01*
X9897188Y-28806376D01*
X9733216Y-28738456D01*
X9585646Y-28639853D01*
X9460147Y-28514354D01*
X9361544Y-28366784D01*
X9293624Y-28202812D01*
X9259000Y-28028741D01*
X9259000Y-27851259D01*
X9293624Y-27677188D01*
X9361544Y-27513216D01*
X9460147Y-27365646D01*
X9585646Y-27240147D01*
X9733216Y-27141544D01*
X9897188Y-27073624D01*
X10046488Y-27043927D01*
X10071258Y-27039000D01*
X10248742Y-27039000D01*
X10273512Y-27043927D01*
G37*
G36*
X10273512Y-24503927D02*
G01*
X10422812Y-24533624D01*
X10586784Y-24601544D01*
X10734354Y-24700147D01*
X10859853Y-24825646D01*
X10958456Y-24973216D01*
X11026376Y-25137188D01*
X11061000Y-25311259D01*
X11061000Y-25488741D01*
X11026376Y-25662812D01*
X10958456Y-25826784D01*
X10859853Y-25974354D01*
X10734354Y-26099853D01*
X10586784Y-26198456D01*
X10422812Y-26266376D01*
X10273512Y-26296073D01*
X10248742Y-26301000D01*
X10071258Y-26301000D01*
X10046488Y-26296073D01*
X9897188Y-26266376D01*
X9733216Y-26198456D01*
X9585646Y-26099853D01*
X9460147Y-25974354D01*
X9361544Y-25826784D01*
X9293624Y-25662812D01*
X9259000Y-25488741D01*
X9259000Y-25311259D01*
X9293624Y-25137188D01*
X9361544Y-24973216D01*
X9460147Y-24825646D01*
X9585646Y-24700147D01*
X9733216Y-24601544D01*
X9897188Y-24533624D01*
X10046488Y-24503927D01*
X10071258Y-24499000D01*
X10248742Y-24499000D01*
X10273512Y-24503927D01*
G37*
G36*
X10273512Y-21963927D02*
G01*
X10422812Y-21993624D01*
X10586784Y-22061544D01*
X10734354Y-22160147D01*
X10859853Y-22285646D01*
X10958456Y-22433216D01*
X11026376Y-22597188D01*
X11061000Y-22771259D01*
X11061000Y-22948741D01*
X11026376Y-23122812D01*
X10958456Y-23286784D01*
X10859853Y-23434354D01*
X10734354Y-23559853D01*
X10586784Y-23658456D01*
X10422812Y-23726376D01*
X10273512Y-23756073D01*
X10248742Y-23761000D01*
X10071258Y-23761000D01*
X10046488Y-23756073D01*
X9897188Y-23726376D01*
X9733216Y-23658456D01*
X9585646Y-23559853D01*
X9460147Y-23434354D01*
X9361544Y-23286784D01*
X9293624Y-23122812D01*
X9259000Y-22948741D01*
X9259000Y-22771259D01*
X9293624Y-22597188D01*
X9361544Y-22433216D01*
X9460147Y-22285646D01*
X9585646Y-22160147D01*
X9733216Y-22061544D01*
X9897188Y-21993624D01*
X10046488Y-21963927D01*
X10071258Y-21959000D01*
X10248742Y-21959000D01*
X10273512Y-21963927D01*
G37*
G36*
X10273512Y-19423927D02*
G01*
X10422812Y-19453624D01*
X10586784Y-19521544D01*
X10734354Y-19620147D01*
X10859853Y-19745646D01*
X10958456Y-19893216D01*
X11026376Y-20057188D01*
X11061000Y-20231259D01*
X11061000Y-20408741D01*
X11026376Y-20582812D01*
X10958456Y-20746784D01*
X10859853Y-20894354D01*
X10734354Y-21019853D01*
X10586784Y-21118456D01*
X10422812Y-21186376D01*
X10273512Y-21216073D01*
X10248742Y-21221000D01*
X10071258Y-21221000D01*
X10046488Y-21216073D01*
X9897188Y-21186376D01*
X9733216Y-21118456D01*
X9585646Y-21019853D01*
X9460147Y-20894354D01*
X9361544Y-20746784D01*
X9293624Y-20582812D01*
X9259000Y-20408741D01*
X9259000Y-20231259D01*
X9293624Y-20057188D01*
X9361544Y-19893216D01*
X9460147Y-19745646D01*
X9585646Y-19620147D01*
X9733216Y-19521544D01*
X9897188Y-19453624D01*
X10046488Y-19423927D01*
X10071258Y-19419000D01*
X10248742Y-19419000D01*
X10273512Y-19423927D01*
G37*
G36*
X10273512Y-16883927D02*
G01*
X10422812Y-16913624D01*
X10586784Y-16981544D01*
X10734354Y-17080147D01*
X10859853Y-17205646D01*
X10958456Y-17353216D01*
X11026376Y-17517188D01*
X11061000Y-17691259D01*
X11061000Y-17868741D01*
X11026376Y-18042812D01*
X10958456Y-18206784D01*
X10859853Y-18354354D01*
X10734354Y-18479853D01*
X10586784Y-18578456D01*
X10422812Y-18646376D01*
X10273512Y-18676073D01*
X10248742Y-18681000D01*
X10071258Y-18681000D01*
X10046488Y-18676073D01*
X9897188Y-18646376D01*
X9733216Y-18578456D01*
X9585646Y-18479853D01*
X9460147Y-18354354D01*
X9361544Y-18206784D01*
X9293624Y-18042812D01*
X9259000Y-17868741D01*
X9259000Y-17691259D01*
X9293624Y-17517188D01*
X9361544Y-17353216D01*
X9460147Y-17205646D01*
X9585646Y-17080147D01*
X9733216Y-16981544D01*
X9897188Y-16913624D01*
X10046488Y-16883927D01*
X10071258Y-16879000D01*
X10248742Y-16879000D01*
X10273512Y-16883927D01*
G37*
G36*
X11061000Y-16141000D02*
G01*
X9259000Y-16141000D01*
X9259000Y-14339000D01*
X11061000Y-14339000D01*
X11061000Y-16141000D01*
G37*
G36*
X10320721Y-4550174D02*
G01*
X10420995Y-4591709D01*
X10465812Y-4621655D01*
X10511242Y-4652010D01*
X10587990Y-4728758D01*
X10587991Y-4728760D01*
X10648291Y-4819005D01*
X10679516Y-4894389D01*
X10691067Y-4916000D01*
X10706612Y-4934941D01*
X10725554Y-4950487D01*
X10747165Y-4962038D01*
X10770614Y-4969151D01*
X10795000Y-4971553D01*
X10819386Y-4969151D01*
X10842835Y-4962038D01*
X10864446Y-4950487D01*
X10883387Y-4934942D01*
X10898933Y-4916000D01*
X10910484Y-4894389D01*
X10941709Y-4819005D01*
X11002009Y-4728760D01*
X11002010Y-4728758D01*
X11078758Y-4652010D01*
X11124188Y-4621655D01*
X11169005Y-4591709D01*
X11269279Y-4550174D01*
X11375730Y-4529000D01*
X11484270Y-4529000D01*
X11590721Y-4550174D01*
X11690995Y-4591709D01*
X11735812Y-4621655D01*
X11781242Y-4652010D01*
X11857990Y-4728758D01*
X11857991Y-4728760D01*
X11918291Y-4819005D01*
X11959826Y-4919279D01*
X11981000Y-5025730D01*
X11981000Y-5134270D01*
X11959826Y-5240721D01*
X11918291Y-5340995D01*
X11918290Y-5340996D01*
X11857990Y-5431242D01*
X11781242Y-5507990D01*
X11735812Y-5538345D01*
X11690995Y-5568291D01*
X11615611Y-5599516D01*
X11594000Y-5611067D01*
X11575059Y-5626612D01*
X11559513Y-5645554D01*
X11547962Y-5667165D01*
X11540849Y-5690614D01*
X11538447Y-5715000D01*
X11540849Y-5739386D01*
X11547962Y-5762835D01*
X11559513Y-5784446D01*
X11575058Y-5803387D01*
X11594000Y-5818933D01*
X11615611Y-5830484D01*
X11690995Y-5861709D01*
X11690996Y-5861710D01*
X11781242Y-5922010D01*
X11857990Y-5998758D01*
X11857991Y-5998760D01*
X11918291Y-6089005D01*
X11959826Y-6189279D01*
X11981000Y-6295730D01*
X11981000Y-6404270D01*
X11959826Y-6510721D01*
X11918291Y-6610995D01*
X11918290Y-6610996D01*
X11857990Y-6701242D01*
X11781242Y-6777990D01*
X11735812Y-6808345D01*
X11690995Y-6838291D01*
X11615611Y-6869516D01*
X11594000Y-6881067D01*
X11575059Y-6896612D01*
X11559513Y-6915554D01*
X11547962Y-6937165D01*
X11540849Y-6960614D01*
X11538447Y-6985000D01*
X11540849Y-7009386D01*
X11547962Y-7032835D01*
X11559513Y-7054446D01*
X11575058Y-7073387D01*
X11594000Y-7088933D01*
X11615611Y-7100484D01*
X11690995Y-7131709D01*
X11690996Y-7131710D01*
X11781242Y-7192010D01*
X11857990Y-7268758D01*
X11857991Y-7268760D01*
X11918291Y-7359005D01*
X11959826Y-7459279D01*
X11981000Y-7565730D01*
X11981000Y-7674270D01*
X11959826Y-7780721D01*
X11918291Y-7880995D01*
X11918290Y-7880996D01*
X11857990Y-7971242D01*
X11781242Y-8047990D01*
X11735812Y-8078345D01*
X11690995Y-8108291D01*
X11615611Y-8139516D01*
X11594000Y-8151067D01*
X11575059Y-8166612D01*
X11559513Y-8185554D01*
X11547962Y-8207165D01*
X11540849Y-8230614D01*
X11538447Y-8255000D01*
X11540849Y-8279386D01*
X11547962Y-8302835D01*
X11559513Y-8324446D01*
X11575058Y-8343387D01*
X11594000Y-8358933D01*
X11615611Y-8370484D01*
X11690995Y-8401709D01*
X11690996Y-8401710D01*
X11781242Y-8462010D01*
X11857990Y-8538758D01*
X11857991Y-8538760D01*
X11918291Y-8629005D01*
X11959826Y-8729279D01*
X11981000Y-8835730D01*
X11981000Y-8944270D01*
X11959826Y-9050721D01*
X11918291Y-9150995D01*
X11918290Y-9150996D01*
X11857990Y-9241242D01*
X11781242Y-9317990D01*
X11735812Y-9348345D01*
X11690995Y-9378291D01*
X11615611Y-9409516D01*
X11594000Y-9421067D01*
X11575059Y-9436612D01*
X11559513Y-9455554D01*
X11547962Y-9477165D01*
X11540849Y-9500614D01*
X11538447Y-9525000D01*
X11540849Y-9549386D01*
X11547962Y-9572835D01*
X11559513Y-9594446D01*
X11575058Y-9613387D01*
X11594000Y-9628933D01*
X11615611Y-9640484D01*
X11690995Y-9671709D01*
X11690996Y-9671710D01*
X11781242Y-9732010D01*
X11857990Y-9808758D01*
X11857991Y-9808760D01*
X11918291Y-9899005D01*
X11959826Y-9999279D01*
X11981000Y-10105730D01*
X11981000Y-10214270D01*
X11959826Y-10320721D01*
X11918291Y-10420995D01*
X11918290Y-10420996D01*
X11857990Y-10511242D01*
X11781242Y-10587990D01*
X11735812Y-10618345D01*
X11690995Y-10648291D01*
X11590721Y-10689826D01*
X11484270Y-10711000D01*
X11375730Y-10711000D01*
X11269279Y-10689826D01*
X11169005Y-10648291D01*
X11124188Y-10618345D01*
X11078758Y-10587990D01*
X11002010Y-10511242D01*
X10981012Y-10479816D01*
X10939932Y-10418336D01*
X10924386Y-10399394D01*
X10905444Y-10383849D01*
X10883833Y-10372298D01*
X10860385Y-10365185D01*
X10835998Y-10362783D01*
X10811612Y-10365185D01*
X10788163Y-10372298D01*
X10766553Y-10383849D01*
X10747611Y-10399395D01*
X10732066Y-10418337D01*
X10720515Y-10439948D01*
X10713402Y-10463396D01*
X10711000Y-10487782D01*
X10711000Y-10711000D01*
X9609000Y-10711000D01*
X9609000Y-9609000D01*
X9832218Y-9609000D01*
X9856604Y-9606598D01*
X9880053Y-9599485D01*
X9901664Y-9587934D01*
X9920606Y-9572389D01*
X9936151Y-9553447D01*
X9947702Y-9531836D01*
X9954815Y-9508387D01*
X9957216Y-9484002D01*
X10362783Y-9484002D01*
X10365185Y-9508388D01*
X10372298Y-9531837D01*
X10383849Y-9553447D01*
X10399395Y-9572389D01*
X10418337Y-9587934D01*
X10439948Y-9599485D01*
X10463396Y-9606598D01*
X10487782Y-9609000D01*
X10711000Y-9609000D01*
X10711000Y-9832218D01*
X10713402Y-9856604D01*
X10720515Y-9880053D01*
X10732066Y-9901664D01*
X10747611Y-9920606D01*
X10766553Y-9936151D01*
X10788164Y-9947702D01*
X10811613Y-9954815D01*
X10835999Y-9957217D01*
X10860385Y-9954815D01*
X10883834Y-9947702D01*
X10905445Y-9936151D01*
X10924387Y-9920606D01*
X10939932Y-9901664D01*
X11002009Y-9808760D01*
X11002010Y-9808758D01*
X11078758Y-9732010D01*
X11169004Y-9671710D01*
X11169005Y-9671709D01*
X11244389Y-9640484D01*
X11266000Y-9628933D01*
X11284941Y-9613388D01*
X11300487Y-9594446D01*
X11312038Y-9572835D01*
X11319151Y-9549386D01*
X11321553Y-9525000D01*
X11319151Y-9500614D01*
X11312038Y-9477165D01*
X11300487Y-9455554D01*
X11284942Y-9436613D01*
X11266000Y-9421067D01*
X11244389Y-9409516D01*
X11169005Y-9378291D01*
X11124188Y-9348345D01*
X11078758Y-9317990D01*
X11002010Y-9241242D01*
X10941710Y-9150996D01*
X10941709Y-9150995D01*
X10910484Y-9075611D01*
X10898933Y-9054000D01*
X10883388Y-9035059D01*
X10864446Y-9019513D01*
X10842835Y-9007962D01*
X10819386Y-9000849D01*
X10795000Y-8998447D01*
X10770614Y-9000849D01*
X10747165Y-9007962D01*
X10725554Y-9019513D01*
X10706613Y-9035058D01*
X10691067Y-9054000D01*
X10679516Y-9075611D01*
X10648291Y-9150995D01*
X10648290Y-9150996D01*
X10587990Y-9241242D01*
X10511242Y-9317990D01*
X10479816Y-9338988D01*
X10418336Y-9380068D01*
X10399394Y-9395614D01*
X10383849Y-9414556D01*
X10372298Y-9436167D01*
X10365185Y-9459615D01*
X10362783Y-9484002D01*
X9957216Y-9484002D01*
X9957217Y-9484001D01*
X9954815Y-9459615D01*
X9947702Y-9436166D01*
X9936151Y-9414555D01*
X9920606Y-9395613D01*
X9901664Y-9380068D01*
X9840184Y-9338988D01*
X9808758Y-9317990D01*
X9732010Y-9241242D01*
X9671710Y-9150996D01*
X9671709Y-9150995D01*
X9630174Y-9050721D01*
X9609000Y-8944270D01*
X9609000Y-8835730D01*
X9630174Y-8729279D01*
X9671709Y-8629005D01*
X9732009Y-8538760D01*
X9732010Y-8538758D01*
X9808758Y-8462010D01*
X9899004Y-8401710D01*
X9899005Y-8401709D01*
X9974389Y-8370484D01*
X9996000Y-8358933D01*
X10014941Y-8343388D01*
X10030487Y-8324446D01*
X10042038Y-8302835D01*
X10049151Y-8279386D01*
X10051553Y-8255000D01*
X10268447Y-8255000D01*
X10270849Y-8279386D01*
X10277962Y-8302835D01*
X10289513Y-8324446D01*
X10305058Y-8343387D01*
X10324000Y-8358933D01*
X10345611Y-8370484D01*
X10420995Y-8401709D01*
X10420996Y-8401710D01*
X10511242Y-8462010D01*
X10587990Y-8538758D01*
X10587991Y-8538760D01*
X10648291Y-8629005D01*
X10679516Y-8704389D01*
X10691067Y-8726000D01*
X10706612Y-8744941D01*
X10725554Y-8760487D01*
X10747165Y-8772038D01*
X10770614Y-8779151D01*
X10795000Y-8781553D01*
X10819386Y-8779151D01*
X10842835Y-8772038D01*
X10864446Y-8760487D01*
X10883387Y-8744942D01*
X10898933Y-8726000D01*
X10910484Y-8704389D01*
X10941709Y-8629005D01*
X11002009Y-8538760D01*
X11002010Y-8538758D01*
X11078758Y-8462010D01*
X11169004Y-8401710D01*
X11169005Y-8401709D01*
X11244389Y-8370484D01*
X11266000Y-8358933D01*
X11284941Y-8343388D01*
X11300487Y-8324446D01*
X11312038Y-8302835D01*
X11319151Y-8279386D01*
X11321553Y-8255000D01*
X11319151Y-8230614D01*
X11312038Y-8207165D01*
X11300487Y-8185554D01*
X11284942Y-8166613D01*
X11266000Y-8151067D01*
X11244389Y-8139516D01*
X11169005Y-8108291D01*
X11124188Y-8078345D01*
X11078758Y-8047990D01*
X11002010Y-7971242D01*
X10941710Y-7880996D01*
X10941709Y-7880995D01*
X10910484Y-7805611D01*
X10898933Y-7784000D01*
X10883388Y-7765059D01*
X10864446Y-7749513D01*
X10842835Y-7737962D01*
X10819386Y-7730849D01*
X10795000Y-7728447D01*
X10770614Y-7730849D01*
X10747165Y-7737962D01*
X10725554Y-7749513D01*
X10706613Y-7765058D01*
X10691067Y-7784000D01*
X10679516Y-7805611D01*
X10648291Y-7880995D01*
X10648290Y-7880996D01*
X10587990Y-7971242D01*
X10511242Y-8047990D01*
X10465812Y-8078345D01*
X10420995Y-8108291D01*
X10345611Y-8139516D01*
X10324000Y-8151067D01*
X10305059Y-8166612D01*
X10289513Y-8185554D01*
X10277962Y-8207165D01*
X10270849Y-8230614D01*
X10268447Y-8255000D01*
X10051553Y-8255000D01*
X10049151Y-8230614D01*
X10042038Y-8207165D01*
X10030487Y-8185554D01*
X10014942Y-8166613D01*
X9996000Y-8151067D01*
X9974389Y-8139516D01*
X9899005Y-8108291D01*
X9854188Y-8078345D01*
X9808758Y-8047990D01*
X9732010Y-7971242D01*
X9671710Y-7880996D01*
X9671709Y-7880995D01*
X9630174Y-7780721D01*
X9609000Y-7674270D01*
X9609000Y-7565730D01*
X9630174Y-7459279D01*
X9671709Y-7359005D01*
X9732009Y-7268760D01*
X9732010Y-7268758D01*
X9808758Y-7192010D01*
X9899004Y-7131710D01*
X9899005Y-7131709D01*
X9974389Y-7100484D01*
X9996000Y-7088933D01*
X10014941Y-7073388D01*
X10030487Y-7054446D01*
X10042038Y-7032835D01*
X10049151Y-7009386D01*
X10051553Y-6985000D01*
X10268447Y-6985000D01*
X10270849Y-7009386D01*
X10277962Y-7032835D01*
X10289513Y-7054446D01*
X10305058Y-7073387D01*
X10324000Y-7088933D01*
X10345611Y-7100484D01*
X10420995Y-7131709D01*
X10420996Y-7131710D01*
X10511242Y-7192010D01*
X10587990Y-7268758D01*
X10587991Y-7268760D01*
X10648291Y-7359005D01*
X10679516Y-7434389D01*
X10691067Y-7456000D01*
X10706612Y-7474941D01*
X10725554Y-7490487D01*
X10747165Y-7502038D01*
X10770614Y-7509151D01*
X10795000Y-7511553D01*
X10819386Y-7509151D01*
X10842835Y-7502038D01*
X10864446Y-7490487D01*
X10883387Y-7474942D01*
X10898933Y-7456000D01*
X10910484Y-7434389D01*
X10941709Y-7359005D01*
X11002009Y-7268760D01*
X11002010Y-7268758D01*
X11078758Y-7192010D01*
X11169004Y-7131710D01*
X11169005Y-7131709D01*
X11244389Y-7100484D01*
X11266000Y-7088933D01*
X11284941Y-7073388D01*
X11300487Y-7054446D01*
X11312038Y-7032835D01*
X11319151Y-7009386D01*
X11321553Y-6985000D01*
X11319151Y-6960614D01*
X11312038Y-6937165D01*
X11300487Y-6915554D01*
X11284942Y-6896613D01*
X11266000Y-6881067D01*
X11244389Y-6869516D01*
X11169005Y-6838291D01*
X11124188Y-6808345D01*
X11078758Y-6777990D01*
X11002010Y-6701242D01*
X10941710Y-6610996D01*
X10941709Y-6610995D01*
X10910484Y-6535611D01*
X10898933Y-6514000D01*
X10883388Y-6495059D01*
X10864446Y-6479513D01*
X10842835Y-6467962D01*
X10819386Y-6460849D01*
X10795000Y-6458447D01*
X10770614Y-6460849D01*
X10747165Y-6467962D01*
X10725554Y-6479513D01*
X10706613Y-6495058D01*
X10691067Y-6514000D01*
X10679516Y-6535611D01*
X10648291Y-6610995D01*
X10648290Y-6610996D01*
X10587990Y-6701242D01*
X10511242Y-6777990D01*
X10465812Y-6808345D01*
X10420995Y-6838291D01*
X10345611Y-6869516D01*
X10324000Y-6881067D01*
X10305059Y-6896612D01*
X10289513Y-6915554D01*
X10277962Y-6937165D01*
X10270849Y-6960614D01*
X10268447Y-6985000D01*
X10051553Y-6985000D01*
X10049151Y-6960614D01*
X10042038Y-6937165D01*
X10030487Y-6915554D01*
X10014942Y-6896613D01*
X9996000Y-6881067D01*
X9974389Y-6869516D01*
X9899005Y-6838291D01*
X9854188Y-6808345D01*
X9808758Y-6777990D01*
X9732010Y-6701242D01*
X9671710Y-6610996D01*
X9671709Y-6610995D01*
X9630174Y-6510721D01*
X9609000Y-6404270D01*
X9609000Y-6295730D01*
X9630174Y-6189279D01*
X9671709Y-6089005D01*
X9732009Y-5998760D01*
X9732010Y-5998758D01*
X9808758Y-5922010D01*
X9899004Y-5861710D01*
X9899005Y-5861709D01*
X9974389Y-5830484D01*
X9996000Y-5818933D01*
X10014941Y-5803388D01*
X10030487Y-5784446D01*
X10042038Y-5762835D01*
X10049151Y-5739386D01*
X10051553Y-5715000D01*
X10268447Y-5715000D01*
X10270849Y-5739386D01*
X10277962Y-5762835D01*
X10289513Y-5784446D01*
X10305058Y-5803387D01*
X10324000Y-5818933D01*
X10345611Y-5830484D01*
X10420995Y-5861709D01*
X10420996Y-5861710D01*
X10511242Y-5922010D01*
X10587990Y-5998758D01*
X10587991Y-5998760D01*
X10648291Y-6089005D01*
X10679516Y-6164389D01*
X10691067Y-6186000D01*
X10706612Y-6204941D01*
X10725554Y-6220487D01*
X10747165Y-6232038D01*
X10770614Y-6239151D01*
X10795000Y-6241553D01*
X10819386Y-6239151D01*
X10842835Y-6232038D01*
X10864446Y-6220487D01*
X10883387Y-6204942D01*
X10898933Y-6186000D01*
X10910484Y-6164389D01*
X10941709Y-6089005D01*
X11002009Y-5998760D01*
X11002010Y-5998758D01*
X11078758Y-5922010D01*
X11169004Y-5861710D01*
X11169005Y-5861709D01*
X11244389Y-5830484D01*
X11266000Y-5818933D01*
X11284941Y-5803388D01*
X11300487Y-5784446D01*
X11312038Y-5762835D01*
X11319151Y-5739386D01*
X11321553Y-5715000D01*
X11319151Y-5690614D01*
X11312038Y-5667165D01*
X11300487Y-5645554D01*
X11284942Y-5626613D01*
X11266000Y-5611067D01*
X11244389Y-5599516D01*
X11169005Y-5568291D01*
X11124188Y-5538345D01*
X11078758Y-5507990D01*
X11002010Y-5431242D01*
X10941710Y-5340996D01*
X10941709Y-5340995D01*
X10910484Y-5265611D01*
X10898933Y-5244000D01*
X10883388Y-5225059D01*
X10864446Y-5209513D01*
X10842835Y-5197962D01*
X10819386Y-5190849D01*
X10795000Y-5188447D01*
X10770614Y-5190849D01*
X10747165Y-5197962D01*
X10725554Y-5209513D01*
X10706613Y-5225058D01*
X10691067Y-5244000D01*
X10679516Y-5265611D01*
X10648291Y-5340995D01*
X10648290Y-5340996D01*
X10587990Y-5431242D01*
X10511242Y-5507990D01*
X10465812Y-5538345D01*
X10420995Y-5568291D01*
X10345611Y-5599516D01*
X10324000Y-5611067D01*
X10305059Y-5626612D01*
X10289513Y-5645554D01*
X10277962Y-5667165D01*
X10270849Y-5690614D01*
X10268447Y-5715000D01*
X10051553Y-5715000D01*
X10049151Y-5690614D01*
X10042038Y-5667165D01*
X10030487Y-5645554D01*
X10014942Y-5626613D01*
X9996000Y-5611067D01*
X9974389Y-5599516D01*
X9899005Y-5568291D01*
X9854188Y-5538345D01*
X9808758Y-5507990D01*
X9732010Y-5431242D01*
X9671710Y-5340996D01*
X9671709Y-5340995D01*
X9630174Y-5240721D01*
X9609000Y-5134270D01*
X9609000Y-5025730D01*
X9630174Y-4919279D01*
X9671709Y-4819005D01*
X9732009Y-4728760D01*
X9732010Y-4728758D01*
X9808758Y-4652010D01*
X9854188Y-4621655D01*
X9899005Y-4591709D01*
X9999279Y-4550174D01*
X10105730Y-4529000D01*
X10214270Y-4529000D01*
X10320721Y-4550174D01*
G37*
G36*
X8008015Y-2956973D02*
G01*
X8111879Y-2988479D01*
X8121504Y-2993624D01*
X8207600Y-3039643D01*
X8291501Y-3108499D01*
X8360357Y-3192400D01*
X8396995Y-3260945D01*
X8411521Y-3288121D01*
X8443027Y-3391985D01*
X8451000Y-3472933D01*
X8451000Y-4527067D01*
X8443027Y-4608015D01*
X8411521Y-4711879D01*
X8360356Y-4807600D01*
X8291501Y-4891501D01*
X8238567Y-4934942D01*
X8207599Y-4960357D01*
X8155907Y-4987987D01*
X8111878Y-5011521D01*
X8008014Y-5043027D01*
X7900000Y-5053666D01*
X7791985Y-5043027D01*
X7688121Y-5011521D01*
X7644093Y-4987987D01*
X7592401Y-4960357D01*
X7561433Y-4934942D01*
X7508499Y-4891501D01*
X7439644Y-4807600D01*
X7388479Y-4711878D01*
X7384615Y-4699139D01*
X7375239Y-4676503D01*
X7361625Y-4656129D01*
X7344298Y-4638802D01*
X7323923Y-4625188D01*
X7301285Y-4615811D01*
X7277251Y-4611031D01*
X7252747Y-4611031D01*
X7228714Y-4615812D01*
X7206075Y-4625189D01*
X7185701Y-4638803D01*
X7168374Y-4656130D01*
X7154760Y-4676505D01*
X7145388Y-4699131D01*
X7141521Y-4711879D01*
X7090356Y-4807600D01*
X7021501Y-4891501D01*
X6968567Y-4934942D01*
X6937599Y-4960357D01*
X6885907Y-4987987D01*
X6841878Y-5011521D01*
X6738014Y-5043027D01*
X6630000Y-5053666D01*
X6521985Y-5043027D01*
X6418121Y-5011521D01*
X6374093Y-4987987D01*
X6322401Y-4960357D01*
X6291433Y-4934942D01*
X6238499Y-4891501D01*
X6169644Y-4807600D01*
X6118479Y-4711878D01*
X6114615Y-4699139D01*
X6105239Y-4676503D01*
X6091625Y-4656129D01*
X6074298Y-4638802D01*
X6053923Y-4625188D01*
X6031285Y-4615811D01*
X6007251Y-4611031D01*
X5982747Y-4611031D01*
X5958714Y-4615812D01*
X5936075Y-4625189D01*
X5915701Y-4638803D01*
X5898374Y-4656130D01*
X5884760Y-4676505D01*
X5875388Y-4699131D01*
X5871521Y-4711879D01*
X5820356Y-4807600D01*
X5751501Y-4891501D01*
X5698567Y-4934942D01*
X5667599Y-4960357D01*
X5615907Y-4987987D01*
X5571878Y-5011521D01*
X5468014Y-5043027D01*
X5360000Y-5053666D01*
X5251985Y-5043027D01*
X5148121Y-5011521D01*
X5104093Y-4987987D01*
X5052401Y-4960357D01*
X5021433Y-4934942D01*
X4968499Y-4891501D01*
X4899644Y-4807600D01*
X4874736Y-4761000D01*
X4857502Y-4728758D01*
X4848479Y-4711878D01*
X4816973Y-4608014D01*
X4809000Y-4527066D01*
X4809001Y-3472933D01*
X4816974Y-3391985D01*
X4848480Y-3288121D01*
X4863006Y-3260945D01*
X4899644Y-3192400D01*
X4968500Y-3108499D01*
X5052401Y-3039643D01*
X5138497Y-2993624D01*
X5148122Y-2988479D01*
X5251986Y-2956973D01*
X5360000Y-2946334D01*
X5468015Y-2956973D01*
X5571879Y-2988479D01*
X5581504Y-2993624D01*
X5667600Y-3039643D01*
X5751501Y-3108499D01*
X5820357Y-3192400D01*
X5855269Y-3257717D01*
X5871521Y-3288121D01*
X5875387Y-3300866D01*
X5884763Y-3323499D01*
X5898377Y-3343873D01*
X5915704Y-3361200D01*
X5936079Y-3374813D01*
X5958718Y-3384190D01*
X5982751Y-3388970D01*
X6007256Y-3388970D01*
X6031289Y-3384189D01*
X6053927Y-3374811D01*
X6074301Y-3361197D01*
X6091628Y-3343870D01*
X6105241Y-3323495D01*
X6114614Y-3300865D01*
X6118480Y-3288121D01*
X6134732Y-3257717D01*
X6169644Y-3192400D01*
X6238500Y-3108499D01*
X6322401Y-3039643D01*
X6408497Y-2993624D01*
X6418122Y-2988479D01*
X6521986Y-2956973D01*
X6630000Y-2946334D01*
X6738015Y-2956973D01*
X6841879Y-2988479D01*
X6851504Y-2993624D01*
X6937600Y-3039643D01*
X7021501Y-3108499D01*
X7090357Y-3192400D01*
X7125269Y-3257717D01*
X7141521Y-3288121D01*
X7145387Y-3300866D01*
X7154763Y-3323499D01*
X7168377Y-3343873D01*
X7185704Y-3361200D01*
X7206079Y-3374813D01*
X7228718Y-3384190D01*
X7252751Y-3388970D01*
X7277256Y-3388970D01*
X7301289Y-3384189D01*
X7323927Y-3374811D01*
X7344301Y-3361197D01*
X7361628Y-3343870D01*
X7375241Y-3323495D01*
X7384614Y-3300865D01*
X7388480Y-3288121D01*
X7404732Y-3257717D01*
X7439644Y-3192400D01*
X7508500Y-3108499D01*
X7592401Y-3039643D01*
X7678497Y-2993624D01*
X7688122Y-2988479D01*
X7791986Y-2956973D01*
X7900000Y-2946334D01*
X8008015Y-2956973D01*
G37*
G36*
X-9419000Y-4761000D02*
G01*
X-11221000Y-4761000D01*
X-11221000Y-2959000D01*
X-9419000Y-2959000D01*
X-9419000Y-4761000D01*
G37*
G36*
X-7666488Y-2963927D02*
G01*
X-7517188Y-2993624D01*
X-7353216Y-3061544D01*
X-7205646Y-3160147D01*
X-7080147Y-3285646D01*
X-6981544Y-3433216D01*
X-6913624Y-3597188D01*
X-6879000Y-3771259D01*
X-6879000Y-3948741D01*
X-6913624Y-4122812D01*
X-6981544Y-4286784D01*
X-7080147Y-4434354D01*
X-7205646Y-4559853D01*
X-7353216Y-4658456D01*
X-7517188Y-4726376D01*
X-7666488Y-4756073D01*
X-7691258Y-4761000D01*
X-7868742Y-4761000D01*
X-7893512Y-4756073D01*
X-8042812Y-4726376D01*
X-8206784Y-4658456D01*
X-8354354Y-4559853D01*
X-8479853Y-4434354D01*
X-8578456Y-4286784D01*
X-8646376Y-4122812D01*
X-8681000Y-3948741D01*
X-8681000Y-3771259D01*
X-8646376Y-3597188D01*
X-8578456Y-3433216D01*
X-8479853Y-3285646D01*
X-8354354Y-3160147D01*
X-8206784Y-3061544D01*
X-8042812Y-2993624D01*
X-7893512Y-2963927D01*
X-7868742Y-2959000D01*
X-7691258Y-2959000D01*
X-7666488Y-2963927D01*
G37*
G36*
X-5126488Y-2963927D02*
G01*
X-4977188Y-2993624D01*
X-4813216Y-3061544D01*
X-4665646Y-3160147D01*
X-4540147Y-3285646D01*
X-4441544Y-3433216D01*
X-4373624Y-3597188D01*
X-4339000Y-3771259D01*
X-4339000Y-3948741D01*
X-4373624Y-4122812D01*
X-4441544Y-4286784D01*
X-4540147Y-4434354D01*
X-4665646Y-4559853D01*
X-4813216Y-4658456D01*
X-4977188Y-4726376D01*
X-5126488Y-4756073D01*
X-5151258Y-4761000D01*
X-5328742Y-4761000D01*
X-5353512Y-4756073D01*
X-5502812Y-4726376D01*
X-5666784Y-4658456D01*
X-5814354Y-4559853D01*
X-5939853Y-4434354D01*
X-6038456Y-4286784D01*
X-6106376Y-4122812D01*
X-6141000Y-3948741D01*
X-6141000Y-3771259D01*
X-6106376Y-3597188D01*
X-6038456Y-3433216D01*
X-5939853Y-3285646D01*
X-5814354Y-3160147D01*
X-5666784Y-3061544D01*
X-5502812Y-2993624D01*
X-5353512Y-2963927D01*
X-5328742Y-2959000D01*
X-5151258Y-2959000D01*
X-5126488Y-2963927D01*
G37*
G36*
X-2586488Y-2963927D02*
G01*
X-2437188Y-2993624D01*
X-2273216Y-3061544D01*
X-2125646Y-3160147D01*
X-2000147Y-3285646D01*
X-1901544Y-3433216D01*
X-1833624Y-3597188D01*
X-1799000Y-3771259D01*
X-1799000Y-3948741D01*
X-1833624Y-4122812D01*
X-1901544Y-4286784D01*
X-2000147Y-4434354D01*
X-2125646Y-4559853D01*
X-2273216Y-4658456D01*
X-2437188Y-4726376D01*
X-2586488Y-4756073D01*
X-2611258Y-4761000D01*
X-2788742Y-4761000D01*
X-2813512Y-4756073D01*
X-2962812Y-4726376D01*
X-3126784Y-4658456D01*
X-3274354Y-4559853D01*
X-3399853Y-4434354D01*
X-3498456Y-4286784D01*
X-3566376Y-4122812D01*
X-3601000Y-3948741D01*
X-3601000Y-3771259D01*
X-3566376Y-3597188D01*
X-3498456Y-3433216D01*
X-3399853Y-3285646D01*
X-3274354Y-3160147D01*
X-3126784Y-3061544D01*
X-2962812Y-2993624D01*
X-2813512Y-2963927D01*
X-2788742Y-2959000D01*
X-2611258Y-2959000D01*
X-2586488Y-2963927D01*
G37*
G36*
X-46488Y-2963927D02*
G01*
X102812Y-2993624D01*
X266784Y-3061544D01*
X414354Y-3160147D01*
X539853Y-3285646D01*
X638456Y-3433216D01*
X706376Y-3597188D01*
X741000Y-3771259D01*
X741000Y-3948741D01*
X706376Y-4122812D01*
X638456Y-4286784D01*
X539853Y-4434354D01*
X414354Y-4559853D01*
X266784Y-4658456D01*
X102812Y-4726376D01*
X-46488Y-4756073D01*
X-71258Y-4761000D01*
X-248742Y-4761000D01*
X-273512Y-4756073D01*
X-422812Y-4726376D01*
X-586784Y-4658456D01*
X-734354Y-4559853D01*
X-859853Y-4434354D01*
X-958456Y-4286784D01*
X-1026376Y-4122812D01*
X-1061000Y-3948741D01*
X-1061000Y-3771259D01*
X-1026376Y-3597188D01*
X-958456Y-3433216D01*
X-859853Y-3285646D01*
X-734354Y-3160147D01*
X-586784Y-3061544D01*
X-422812Y-2993624D01*
X-273512Y-2963927D01*
X-248742Y-2959000D01*
X-71258Y-2959000D01*
X-46488Y-2963927D01*
G37*
G36*
X113512Y-373927D02*
G01*
X262812Y-403624D01*
X426784Y-471544D01*
X574354Y-570147D01*
X699853Y-695646D01*
X798456Y-843216D01*
X866376Y-1007188D01*
X901000Y-1181259D01*
X901000Y-1358741D01*
X866376Y-1532812D01*
X798456Y-1696784D01*
X699853Y-1844354D01*
X574354Y-1969853D01*
X426784Y-2068456D01*
X262812Y-2136376D01*
X113512Y-2166073D01*
X88742Y-2171000D01*
X-88742Y-2171000D01*
X-113512Y-2166073D01*
X-262812Y-2136376D01*
X-426784Y-2068456D01*
X-574354Y-1969853D01*
X-699853Y-1844354D01*
X-798456Y-1696784D01*
X-866376Y-1532812D01*
X-901000Y-1358741D01*
X-901000Y-1181259D01*
X-866376Y-1007188D01*
X-798456Y-843216D01*
X-699853Y-695646D01*
X-574354Y-570147D01*
X-426784Y-471544D01*
X-262812Y-403624D01*
X-113512Y-373927D01*
X-88742Y-369000D01*
X88742Y-369000D01*
X113512Y-373927D01*
G37*
G36*
X-2426488Y-373927D02*
G01*
X-2277188Y-403624D01*
X-2113216Y-471544D01*
X-1965646Y-570147D01*
X-1840147Y-695646D01*
X-1741544Y-843216D01*
X-1673624Y-1007188D01*
X-1639000Y-1181259D01*
X-1639000Y-1358741D01*
X-1673624Y-1532812D01*
X-1741544Y-1696784D01*
X-1840147Y-1844354D01*
X-1965646Y-1969853D01*
X-2113216Y-2068456D01*
X-2277188Y-2136376D01*
X-2426488Y-2166073D01*
X-2451258Y-2171000D01*
X-2628742Y-2171000D01*
X-2653512Y-2166073D01*
X-2802812Y-2136376D01*
X-2966784Y-2068456D01*
X-3114354Y-1969853D01*
X-3239853Y-1844354D01*
X-3338456Y-1696784D01*
X-3406376Y-1532812D01*
X-3441000Y-1358741D01*
X-3441000Y-1181259D01*
X-3406376Y-1007188D01*
X-3338456Y-843216D01*
X-3239853Y-695646D01*
X-3114354Y-570147D01*
X-2966784Y-471544D01*
X-2802812Y-403624D01*
X-2653512Y-373927D01*
X-2628742Y-369000D01*
X-2451258Y-369000D01*
X-2426488Y-373927D01*
G37*
G36*
X-4966488Y-373927D02*
G01*
X-4817188Y-403624D01*
X-4653216Y-471544D01*
X-4505646Y-570147D01*
X-4380147Y-695646D01*
X-4281544Y-843216D01*
X-4213624Y-1007188D01*
X-4179000Y-1181259D01*
X-4179000Y-1358741D01*
X-4213624Y-1532812D01*
X-4281544Y-1696784D01*
X-4380147Y-1844354D01*
X-4505646Y-1969853D01*
X-4653216Y-2068456D01*
X-4817188Y-2136376D01*
X-4966488Y-2166073D01*
X-4991258Y-2171000D01*
X-5168742Y-2171000D01*
X-5193512Y-2166073D01*
X-5342812Y-2136376D01*
X-5506784Y-2068456D01*
X-5654354Y-1969853D01*
X-5779853Y-1844354D01*
X-5878456Y-1696784D01*
X-5946376Y-1532812D01*
X-5981000Y-1358741D01*
X-5981000Y-1181259D01*
X-5946376Y-1007188D01*
X-5878456Y-843216D01*
X-5779853Y-695646D01*
X-5654354Y-570147D01*
X-5506784Y-471544D01*
X-5342812Y-403624D01*
X-5193512Y-373927D01*
X-5168742Y-369000D01*
X-4991258Y-369000D01*
X-4966488Y-373927D01*
G37*
G36*
X7733512Y-373927D02*
G01*
X7882812Y-403624D01*
X8046784Y-471544D01*
X8194354Y-570147D01*
X8319853Y-695646D01*
X8418456Y-843216D01*
X8486376Y-1007188D01*
X8521000Y-1181259D01*
X8521000Y-1358741D01*
X8486376Y-1532812D01*
X8418456Y-1696784D01*
X8319853Y-1844354D01*
X8194354Y-1969853D01*
X8046784Y-2068456D01*
X7882812Y-2136376D01*
X7733512Y-2166073D01*
X7708742Y-2171000D01*
X7531258Y-2171000D01*
X7506488Y-2166073D01*
X7357188Y-2136376D01*
X7193216Y-2068456D01*
X7045646Y-1969853D01*
X6920147Y-1844354D01*
X6821544Y-1696784D01*
X6753624Y-1532812D01*
X6719000Y-1358741D01*
X6719000Y-1181259D01*
X6753624Y-1007188D01*
X6821544Y-843216D01*
X6920147Y-695646D01*
X7045646Y-570147D01*
X7193216Y-471544D01*
X7357188Y-403624D01*
X7506488Y-373927D01*
X7531258Y-369000D01*
X7708742Y-369000D01*
X7733512Y-373927D01*
G37*
G36*
X5193512Y-373927D02*
G01*
X5342812Y-403624D01*
X5506784Y-471544D01*
X5654354Y-570147D01*
X5779853Y-695646D01*
X5878456Y-843216D01*
X5946376Y-1007188D01*
X5981000Y-1181259D01*
X5981000Y-1358741D01*
X5946376Y-1532812D01*
X5878456Y-1696784D01*
X5779853Y-1844354D01*
X5654354Y-1969853D01*
X5506784Y-2068456D01*
X5342812Y-2136376D01*
X5193512Y-2166073D01*
X5168742Y-2171000D01*
X4991258Y-2171000D01*
X4966488Y-2166073D01*
X4817188Y-2136376D01*
X4653216Y-2068456D01*
X4505646Y-1969853D01*
X4380147Y-1844354D01*
X4281544Y-1696784D01*
X4213624Y-1532812D01*
X4179000Y-1358741D01*
X4179000Y-1181259D01*
X4213624Y-1007188D01*
X4281544Y-843216D01*
X4380147Y-695646D01*
X4505646Y-570147D01*
X4653216Y-471544D01*
X4817188Y-403624D01*
X4966488Y-373927D01*
X4991258Y-369000D01*
X5168742Y-369000D01*
X5193512Y-373927D01*
G37*
G36*
X2653512Y-373927D02*
G01*
X2802812Y-403624D01*
X2966784Y-471544D01*
X3114354Y-570147D01*
X3239853Y-695646D01*
X3338456Y-843216D01*
X3406376Y-1007188D01*
X3441000Y-1181259D01*
X3441000Y-1358741D01*
X3406376Y-1532812D01*
X3338456Y-1696784D01*
X3239853Y-1844354D01*
X3114354Y-1969853D01*
X2966784Y-2068456D01*
X2802812Y-2136376D01*
X2653512Y-2166073D01*
X2628742Y-2171000D01*
X2451258Y-2171000D01*
X2426488Y-2166073D01*
X2277188Y-2136376D01*
X2113216Y-2068456D01*
X1965646Y-1969853D01*
X1840147Y-1844354D01*
X1741544Y-1696784D01*
X1673624Y-1532812D01*
X1639000Y-1358741D01*
X1639000Y-1181259D01*
X1673624Y-1007188D01*
X1741544Y-843216D01*
X1840147Y-695646D01*
X1965646Y-570147D01*
X2113216Y-471544D01*
X2277188Y-403624D01*
X2426488Y-373927D01*
X2451258Y-369000D01*
X2628742Y-369000D01*
X2653512Y-373927D01*
G37*
G36*
X-6719000Y-2171000D02*
G01*
X-8521000Y-2171000D01*
X-8521000Y-369000D01*
X-6719000Y-369000D01*
X-6719000Y-2171000D01*
G37*
M02*
