G04 #@! TF.GenerationSoftware,KiCad,Pcbnew,(5.1.5-0-10_14)*
G04 #@! TF.CreationDate,2020-10-11T20:42:09+09:00*
G04 #@! TF.ProjectId,EnvMon,456e764d-6f6e-42e6-9b69-6361645f7063,2.0*
G04 #@! TF.SameCoordinates,Original*
G04 #@! TF.FileFunction,Legend,Top*
G04 #@! TF.FilePolarity,Positive*
%FSLAX46Y46*%
G04 Gerber Fmt 4.6, Leading zero omitted, Abs format (unit mm)*
G04 Created by KiCad (PCBNEW (5.1.5-0-10_14)) date 2020-10-11 20:42:09*
%MOMM*%
%LPD*%
G04 APERTURE LIST*
%ADD10C,0.120000*%
%ADD11C,0.200000*%
%ADD12C,0.150000*%
G04 APERTURE END LIST*
D10*
X6603733Y-15910000D02*
X6946267Y-15910000D01*
X6603733Y-14890000D02*
X6946267Y-14890000D01*
X-5783733Y-7890000D02*
X-6126267Y-7890000D01*
X-5783733Y-8910000D02*
X-6126267Y-8910000D01*
D11*
X-3776000Y-8376000D02*
G75*
G03X-3776000Y-8376000I-100000J0D01*
G01*
D10*
X-5783733Y-5990000D02*
X-6126267Y-5990000D01*
X-5783733Y-7010000D02*
X-6126267Y-7010000D01*
X-4128733Y-16210000D02*
X-4471267Y-16210000D01*
X-4128733Y-15190000D02*
X-4471267Y-15190000D01*
X-12575000Y-14535000D02*
X-10115000Y-14535000D01*
X-10115000Y-14535000D02*
X-10115000Y-13065000D01*
X-10115000Y-13065000D02*
X-12575000Y-13065000D01*
X-8196267Y-15190000D02*
X-7853733Y-15190000D01*
X-8196267Y-16210000D02*
X-7853733Y-16210000D01*
X-8196267Y-14310000D02*
X-7853733Y-14310000D01*
X-8196267Y-13290000D02*
X-7853733Y-13290000D01*
X-11946267Y-15190000D02*
X-11603733Y-15190000D01*
X-11946267Y-16210000D02*
X-11603733Y-16210000D01*
X-5404000Y-30072000D02*
X-13504000Y-30072000D01*
X-13504000Y-30072000D02*
X-13504000Y-18372000D01*
X-13504000Y-18372000D02*
X-5404000Y-18372000D01*
X4196000Y-18372000D02*
X5396000Y-18372000D01*
X6196000Y-19172000D02*
X6196000Y-20572000D01*
X4196000Y-30072000D02*
X5396000Y-30072000D01*
X6196000Y-29272000D02*
X6196000Y-27872000D01*
D12*
X6583333Y-17257142D02*
X6535714Y-17304761D01*
X6392857Y-17352380D01*
X6297619Y-17352380D01*
X6154761Y-17304761D01*
X6059523Y-17209523D01*
X6011904Y-17114285D01*
X5964285Y-16923809D01*
X5964285Y-16780952D01*
X6011904Y-16590476D01*
X6059523Y-16495238D01*
X6154761Y-16400000D01*
X6297619Y-16352380D01*
X6392857Y-16352380D01*
X6535714Y-16400000D01*
X6583333Y-16447619D01*
X6964285Y-16447619D02*
X7011904Y-16400000D01*
X7107142Y-16352380D01*
X7345238Y-16352380D01*
X7440476Y-16400000D01*
X7488095Y-16447619D01*
X7535714Y-16542857D01*
X7535714Y-16638095D01*
X7488095Y-16780952D01*
X6916666Y-17352380D01*
X7535714Y-17352380D01*
X-8766666Y-8757142D02*
X-8814285Y-8804761D01*
X-8957142Y-8852380D01*
X-9052380Y-8852380D01*
X-9195238Y-8804761D01*
X-9290476Y-8709523D01*
X-9338095Y-8614285D01*
X-9385714Y-8423809D01*
X-9385714Y-8280952D01*
X-9338095Y-8090476D01*
X-9290476Y-7995238D01*
X-9195238Y-7900000D01*
X-9052380Y-7852380D01*
X-8957142Y-7852380D01*
X-8814285Y-7900000D01*
X-8766666Y-7947619D01*
X-7814285Y-8852380D02*
X-8385714Y-8852380D01*
X-8100000Y-8852380D02*
X-8100000Y-7852380D01*
X-8195238Y-7995238D01*
X-8290476Y-8090476D01*
X-8385714Y-8138095D01*
X1504761Y-2752380D02*
X2076190Y-2752380D01*
X1790476Y-3752380D02*
X1790476Y-2752380D01*
X2742857Y-3228571D02*
X2409523Y-3228571D01*
X2409523Y-3752380D02*
X2409523Y-2752380D01*
X2885714Y-2752380D01*
X3123809Y-2752380D02*
X3695238Y-2752380D01*
X3409523Y-3752380D02*
X3409523Y-2752380D01*
X762095Y-4728380D02*
X762095Y-5537904D01*
X809714Y-5633142D01*
X857333Y-5680761D01*
X952571Y-5728380D01*
X1143047Y-5728380D01*
X1238285Y-5680761D01*
X1285904Y-5633142D01*
X1333523Y-5537904D01*
X1333523Y-4728380D01*
X2333523Y-5728380D02*
X1762095Y-5728380D01*
X2047809Y-5728380D02*
X2047809Y-4728380D01*
X1952571Y-4871238D01*
X1857333Y-4966476D01*
X1762095Y-5014095D01*
X9708095Y-34768928D02*
X9708095Y-34387976D01*
X9327142Y-34349880D01*
X9365238Y-34387976D01*
X9403333Y-34464166D01*
X9403333Y-34654642D01*
X9365238Y-34730833D01*
X9327142Y-34768928D01*
X9250952Y-34807023D01*
X9060476Y-34807023D01*
X8984285Y-34768928D01*
X8946190Y-34730833D01*
X8908095Y-34654642D01*
X8908095Y-34464166D01*
X8946190Y-34387976D01*
X8984285Y-34349880D01*
X9708095Y-35035595D02*
X8908095Y-35302261D01*
X9708095Y-35568928D01*
X7142695Y-34311785D02*
X7142695Y-34807023D01*
X6837933Y-34540357D01*
X6837933Y-34654642D01*
X6799838Y-34730833D01*
X6761742Y-34768928D01*
X6685552Y-34807023D01*
X6495076Y-34807023D01*
X6418885Y-34768928D01*
X6380790Y-34730833D01*
X6342695Y-34654642D01*
X6342695Y-34426071D01*
X6380790Y-34349880D01*
X6418885Y-34311785D01*
X6418885Y-35149880D02*
X6380790Y-35187976D01*
X6342695Y-35149880D01*
X6380790Y-35111785D01*
X6418885Y-35149880D01*
X6342695Y-35149880D01*
X7142695Y-35454642D02*
X7142695Y-35949880D01*
X6837933Y-35683214D01*
X6837933Y-35797500D01*
X6799838Y-35873690D01*
X6761742Y-35911785D01*
X6685552Y-35949880D01*
X6495076Y-35949880D01*
X6418885Y-35911785D01*
X6380790Y-35873690D01*
X6342695Y-35797500D01*
X6342695Y-35568928D01*
X6380790Y-35492738D01*
X6418885Y-35454642D01*
X7142695Y-36178452D02*
X6342695Y-36445119D01*
X7142695Y-36711785D01*
X8374600Y-34807023D02*
X8412695Y-34730833D01*
X8412695Y-34616547D01*
X8374600Y-34502261D01*
X8298409Y-34426071D01*
X8222219Y-34387976D01*
X8069838Y-34349880D01*
X7955552Y-34349880D01*
X7803171Y-34387976D01*
X7726980Y-34426071D01*
X7650790Y-34502261D01*
X7612695Y-34616547D01*
X7612695Y-34692738D01*
X7650790Y-34807023D01*
X7688885Y-34845119D01*
X7955552Y-34845119D01*
X7955552Y-34692738D01*
X7612695Y-35187976D02*
X8412695Y-35187976D01*
X7612695Y-35645119D01*
X8412695Y-35645119D01*
X7612695Y-36026071D02*
X8412695Y-36026071D01*
X8412695Y-36216547D01*
X8374600Y-36330833D01*
X8298409Y-36407023D01*
X8222219Y-36445119D01*
X8069838Y-36483214D01*
X7955552Y-36483214D01*
X7803171Y-36445119D01*
X7726980Y-36407023D01*
X7650790Y-36330833D01*
X7612695Y-36216547D01*
X7612695Y-36026071D01*
X-8766666Y-6952380D02*
X-9100000Y-6476190D01*
X-9338095Y-6952380D02*
X-9338095Y-5952380D01*
X-8957142Y-5952380D01*
X-8861904Y-6000000D01*
X-8814285Y-6047619D01*
X-8766666Y-6142857D01*
X-8766666Y-6285714D01*
X-8814285Y-6380952D01*
X-8861904Y-6428571D01*
X-8957142Y-6476190D01*
X-9338095Y-6476190D01*
X-7814285Y-6952380D02*
X-8385714Y-6952380D01*
X-8100000Y-6952380D02*
X-8100000Y-5952380D01*
X-8195238Y-6095238D01*
X-8290476Y-6190476D01*
X-8385714Y-6238095D01*
X-4466666Y-17487142D02*
X-4514285Y-17534761D01*
X-4657142Y-17582380D01*
X-4752380Y-17582380D01*
X-4895238Y-17534761D01*
X-4990476Y-17439523D01*
X-5038095Y-17344285D01*
X-5085714Y-17153809D01*
X-5085714Y-17010952D01*
X-5038095Y-16820476D01*
X-4990476Y-16725238D01*
X-4895238Y-16630000D01*
X-4752380Y-16582380D01*
X-4657142Y-16582380D01*
X-4514285Y-16630000D01*
X-4466666Y-16677619D01*
X-4133333Y-16582380D02*
X-3514285Y-16582380D01*
X-3847619Y-16963333D01*
X-3704761Y-16963333D01*
X-3609523Y-17010952D01*
X-3561904Y-17058571D01*
X-3514285Y-17153809D01*
X-3514285Y-17391904D01*
X-3561904Y-17487142D01*
X-3609523Y-17534761D01*
X-3704761Y-17582380D01*
X-3990476Y-17582380D01*
X-4085714Y-17534761D01*
X-4133333Y-17487142D01*
X-12513095Y-12852380D02*
X-12513095Y-11852380D01*
X-12275000Y-11852380D01*
X-12132142Y-11900000D01*
X-12036904Y-11995238D01*
X-11989285Y-12090476D01*
X-11941666Y-12280952D01*
X-11941666Y-12423809D01*
X-11989285Y-12614285D01*
X-12036904Y-12709523D01*
X-12132142Y-12804761D01*
X-12275000Y-12852380D01*
X-12513095Y-12852380D01*
X-10989285Y-12852380D02*
X-11560714Y-12852380D01*
X-11275000Y-12852380D02*
X-11275000Y-11852380D01*
X-11370238Y-11995238D01*
X-11465476Y-12090476D01*
X-11560714Y-12138095D01*
X-8191666Y-17552380D02*
X-8525000Y-17076190D01*
X-8763095Y-17552380D02*
X-8763095Y-16552380D01*
X-8382142Y-16552380D01*
X-8286904Y-16600000D01*
X-8239285Y-16647619D01*
X-8191666Y-16742857D01*
X-8191666Y-16885714D01*
X-8239285Y-16980952D01*
X-8286904Y-17028571D01*
X-8382142Y-17076190D01*
X-8763095Y-17076190D01*
X-7810714Y-16647619D02*
X-7763095Y-16600000D01*
X-7667857Y-16552380D01*
X-7429761Y-16552380D01*
X-7334523Y-16600000D01*
X-7286904Y-16647619D01*
X-7239285Y-16742857D01*
X-7239285Y-16838095D01*
X-7286904Y-16980952D01*
X-7858333Y-17552380D01*
X-7239285Y-17552380D01*
X-8191666Y-12852380D02*
X-8525000Y-12376190D01*
X-8763095Y-12852380D02*
X-8763095Y-11852380D01*
X-8382142Y-11852380D01*
X-8286904Y-11900000D01*
X-8239285Y-11947619D01*
X-8191666Y-12042857D01*
X-8191666Y-12185714D01*
X-8239285Y-12280952D01*
X-8286904Y-12328571D01*
X-8382142Y-12376190D01*
X-8763095Y-12376190D01*
X-7858333Y-11852380D02*
X-7239285Y-11852380D01*
X-7572619Y-12233333D01*
X-7429761Y-12233333D01*
X-7334523Y-12280952D01*
X-7286904Y-12328571D01*
X-7239285Y-12423809D01*
X-7239285Y-12661904D01*
X-7286904Y-12757142D01*
X-7334523Y-12804761D01*
X-7429761Y-12852380D01*
X-7715476Y-12852380D01*
X-7810714Y-12804761D01*
X-7858333Y-12757142D01*
X-11941666Y-17652380D02*
X-12275000Y-17176190D01*
X-12513095Y-17652380D02*
X-12513095Y-16652380D01*
X-12132142Y-16652380D01*
X-12036904Y-16700000D01*
X-11989285Y-16747619D01*
X-11941666Y-16842857D01*
X-11941666Y-16985714D01*
X-11989285Y-17080952D01*
X-12036904Y-17128571D01*
X-12132142Y-17176190D01*
X-12513095Y-17176190D01*
X-11084523Y-16985714D02*
X-11084523Y-17652380D01*
X-11322619Y-16604761D02*
X-11560714Y-17319047D01*
X-10941666Y-17319047D01*
X5000000Y-6892976D02*
X4961904Y-6969166D01*
X4961904Y-7083452D01*
X5000000Y-7197738D01*
X5076190Y-7273928D01*
X5152380Y-7312023D01*
X5304761Y-7350119D01*
X5419047Y-7350119D01*
X5571428Y-7312023D01*
X5647619Y-7273928D01*
X5723809Y-7197738D01*
X5761904Y-7083452D01*
X5761904Y-7007261D01*
X5723809Y-6892976D01*
X5685714Y-6854880D01*
X5419047Y-6854880D01*
X5419047Y-7007261D01*
X5761904Y-6512023D02*
X4961904Y-6512023D01*
X5761904Y-6054880D01*
X4961904Y-6054880D01*
X5761904Y-5673928D02*
X4961904Y-5673928D01*
X4961904Y-5483452D01*
X5000000Y-5369166D01*
X5076190Y-5292976D01*
X5152380Y-5254880D01*
X5304761Y-5216785D01*
X5419047Y-5216785D01*
X5571428Y-5254880D01*
X5647619Y-5292976D01*
X5723809Y-5369166D01*
X5761904Y-5483452D01*
X5761904Y-5673928D01*
X6953809Y-6750119D02*
X6991904Y-6635833D01*
X6991904Y-6445357D01*
X6953809Y-6369166D01*
X6915714Y-6331071D01*
X6839523Y-6292976D01*
X6763333Y-6292976D01*
X6687142Y-6331071D01*
X6649047Y-6369166D01*
X6610952Y-6445357D01*
X6572857Y-6597738D01*
X6534761Y-6673928D01*
X6496666Y-6712023D01*
X6420476Y-6750119D01*
X6344285Y-6750119D01*
X6268095Y-6712023D01*
X6230000Y-6673928D01*
X6191904Y-6597738D01*
X6191904Y-6407261D01*
X6230000Y-6292976D01*
X6191904Y-6026309D02*
X6991904Y-5835833D01*
X6420476Y-5683452D01*
X6991904Y-5531071D01*
X6191904Y-5340595D01*
X7491904Y-7326309D02*
X8291904Y-7059642D01*
X7491904Y-6792976D01*
X8291904Y-6526309D02*
X7491904Y-6526309D01*
X7491904Y-6335833D01*
X7530000Y-6221547D01*
X7606190Y-6145357D01*
X7682380Y-6107261D01*
X7834761Y-6069166D01*
X7949047Y-6069166D01*
X8101428Y-6107261D01*
X8177619Y-6145357D01*
X8253809Y-6221547D01*
X8291904Y-6335833D01*
X8291904Y-6526309D01*
X8291904Y-5726309D02*
X7491904Y-5726309D01*
X7491904Y-5535833D01*
X7530000Y-5421547D01*
X7606190Y-5345357D01*
X7682380Y-5307261D01*
X7834761Y-5269166D01*
X7949047Y-5269166D01*
X8101428Y-5307261D01*
X8177619Y-5345357D01*
X8253809Y-5421547D01*
X8291904Y-5535833D01*
X8291904Y-5726309D01*
X-1351619Y-25133904D02*
X-542095Y-25133904D01*
X-446857Y-25086285D01*
X-399238Y-25038666D01*
X-351619Y-24943428D01*
X-351619Y-24752952D01*
X-399238Y-24657714D01*
X-446857Y-24610095D01*
X-542095Y-24562476D01*
X-1351619Y-24562476D01*
X-1256380Y-24133904D02*
X-1304000Y-24086285D01*
X-1351619Y-23991047D01*
X-1351619Y-23752952D01*
X-1304000Y-23657714D01*
X-1256380Y-23610095D01*
X-1161142Y-23562476D01*
X-1065904Y-23562476D01*
X-923047Y-23610095D01*
X-351619Y-24181523D01*
X-351619Y-23562476D01*
M02*
