G04 #@! TF.GenerationSoftware,KiCad,Pcbnew,(5.1.5-0-10_14)*
G04 #@! TF.CreationDate,2020-06-21T17:24:19+09:00*
G04 #@! TF.ProjectId,EnvMon,456e764d-6f6e-42e6-9b69-6361645f7063,1.0*
G04 #@! TF.SameCoordinates,Original*
G04 #@! TF.FileFunction,Paste,Top*
G04 #@! TF.FilePolarity,Positive*
%FSLAX46Y46*%
G04 Gerber Fmt 4.6, Leading zero omitted, Abs format (unit mm)*
G04 Created by KiCad (PCBNEW (5.1.5-0-10_14)) date 2020-06-21 17:24:19*
%MOMM*%
%LPD*%
G04 APERTURE LIST*
%ADD10C,0.100000*%
G04 APERTURE END LIST*
D10*
G36*
X7010779Y-23826144D02*
G01*
X7033834Y-23829563D01*
X7056443Y-23835227D01*
X7078387Y-23843079D01*
X7099457Y-23853044D01*
X7119448Y-23865026D01*
X7138168Y-23878910D01*
X7155438Y-23894562D01*
X7171090Y-23911832D01*
X7184974Y-23930552D01*
X7196956Y-23950543D01*
X7206921Y-23971613D01*
X7214773Y-23993557D01*
X7220437Y-24016166D01*
X7223856Y-24039221D01*
X7225000Y-24062500D01*
X7225000Y-24537500D01*
X7223856Y-24560779D01*
X7220437Y-24583834D01*
X7214773Y-24606443D01*
X7206921Y-24628387D01*
X7196956Y-24649457D01*
X7184974Y-24669448D01*
X7171090Y-24688168D01*
X7155438Y-24705438D01*
X7138168Y-24721090D01*
X7119448Y-24734974D01*
X7099457Y-24746956D01*
X7078387Y-24756921D01*
X7056443Y-24764773D01*
X7033834Y-24770437D01*
X7010779Y-24773856D01*
X6987500Y-24775000D01*
X6412500Y-24775000D01*
X6389221Y-24773856D01*
X6366166Y-24770437D01*
X6343557Y-24764773D01*
X6321613Y-24756921D01*
X6300543Y-24746956D01*
X6280552Y-24734974D01*
X6261832Y-24721090D01*
X6244562Y-24705438D01*
X6228910Y-24688168D01*
X6215026Y-24669448D01*
X6203044Y-24649457D01*
X6193079Y-24628387D01*
X6185227Y-24606443D01*
X6179563Y-24583834D01*
X6176144Y-24560779D01*
X6175000Y-24537500D01*
X6175000Y-24062500D01*
X6176144Y-24039221D01*
X6179563Y-24016166D01*
X6185227Y-23993557D01*
X6193079Y-23971613D01*
X6203044Y-23950543D01*
X6215026Y-23930552D01*
X6228910Y-23911832D01*
X6244562Y-23894562D01*
X6261832Y-23878910D01*
X6280552Y-23865026D01*
X6300543Y-23853044D01*
X6321613Y-23843079D01*
X6343557Y-23835227D01*
X6366166Y-23829563D01*
X6389221Y-23826144D01*
X6412500Y-23825000D01*
X6987500Y-23825000D01*
X7010779Y-23826144D01*
G37*
G36*
X5260779Y-23826144D02*
G01*
X5283834Y-23829563D01*
X5306443Y-23835227D01*
X5328387Y-23843079D01*
X5349457Y-23853044D01*
X5369448Y-23865026D01*
X5388168Y-23878910D01*
X5405438Y-23894562D01*
X5421090Y-23911832D01*
X5434974Y-23930552D01*
X5446956Y-23950543D01*
X5456921Y-23971613D01*
X5464773Y-23993557D01*
X5470437Y-24016166D01*
X5473856Y-24039221D01*
X5475000Y-24062500D01*
X5475000Y-24537500D01*
X5473856Y-24560779D01*
X5470437Y-24583834D01*
X5464773Y-24606443D01*
X5456921Y-24628387D01*
X5446956Y-24649457D01*
X5434974Y-24669448D01*
X5421090Y-24688168D01*
X5405438Y-24705438D01*
X5388168Y-24721090D01*
X5369448Y-24734974D01*
X5349457Y-24746956D01*
X5328387Y-24756921D01*
X5306443Y-24764773D01*
X5283834Y-24770437D01*
X5260779Y-24773856D01*
X5237500Y-24775000D01*
X4662500Y-24775000D01*
X4639221Y-24773856D01*
X4616166Y-24770437D01*
X4593557Y-24764773D01*
X4571613Y-24756921D01*
X4550543Y-24746956D01*
X4530552Y-24734974D01*
X4511832Y-24721090D01*
X4494562Y-24705438D01*
X4478910Y-24688168D01*
X4465026Y-24669448D01*
X4453044Y-24649457D01*
X4443079Y-24628387D01*
X4435227Y-24606443D01*
X4429563Y-24583834D01*
X4426144Y-24560779D01*
X4425000Y-24537500D01*
X4425000Y-24062500D01*
X4426144Y-24039221D01*
X4429563Y-24016166D01*
X4435227Y-23993557D01*
X4443079Y-23971613D01*
X4453044Y-23950543D01*
X4465026Y-23930552D01*
X4478910Y-23911832D01*
X4494562Y-23894562D01*
X4511832Y-23878910D01*
X4530552Y-23865026D01*
X4550543Y-23853044D01*
X4571613Y-23843079D01*
X4593557Y-23835227D01*
X4616166Y-23829563D01*
X4639221Y-23826144D01*
X4662500Y-23825000D01*
X5237500Y-23825000D01*
X5260779Y-23826144D01*
G37*
G36*
X-6264221Y-14226144D02*
G01*
X-6241166Y-14229563D01*
X-6218557Y-14235227D01*
X-6196613Y-14243079D01*
X-6175543Y-14253044D01*
X-6155552Y-14265026D01*
X-6136832Y-14278910D01*
X-6119562Y-14294562D01*
X-6103910Y-14311832D01*
X-6090026Y-14330552D01*
X-6078044Y-14350543D01*
X-6068079Y-14371613D01*
X-6060227Y-14393557D01*
X-6054563Y-14416166D01*
X-6051144Y-14439221D01*
X-6050000Y-14462500D01*
X-6050000Y-14937500D01*
X-6051144Y-14960779D01*
X-6054563Y-14983834D01*
X-6060227Y-15006443D01*
X-6068079Y-15028387D01*
X-6078044Y-15049457D01*
X-6090026Y-15069448D01*
X-6103910Y-15088168D01*
X-6119562Y-15105438D01*
X-6136832Y-15121090D01*
X-6155552Y-15134974D01*
X-6175543Y-15146956D01*
X-6196613Y-15156921D01*
X-6218557Y-15164773D01*
X-6241166Y-15170437D01*
X-6264221Y-15173856D01*
X-6287500Y-15175000D01*
X-6862500Y-15175000D01*
X-6885779Y-15173856D01*
X-6908834Y-15170437D01*
X-6931443Y-15164773D01*
X-6953387Y-15156921D01*
X-6974457Y-15146956D01*
X-6994448Y-15134974D01*
X-7013168Y-15121090D01*
X-7030438Y-15105438D01*
X-7046090Y-15088168D01*
X-7059974Y-15069448D01*
X-7071956Y-15049457D01*
X-7081921Y-15028387D01*
X-7089773Y-15006443D01*
X-7095437Y-14983834D01*
X-7098856Y-14960779D01*
X-7100000Y-14937500D01*
X-7100000Y-14462500D01*
X-7098856Y-14439221D01*
X-7095437Y-14416166D01*
X-7089773Y-14393557D01*
X-7081921Y-14371613D01*
X-7071956Y-14350543D01*
X-7059974Y-14330552D01*
X-7046090Y-14311832D01*
X-7030438Y-14294562D01*
X-7013168Y-14278910D01*
X-6994448Y-14265026D01*
X-6974457Y-14253044D01*
X-6953387Y-14243079D01*
X-6931443Y-14235227D01*
X-6908834Y-14229563D01*
X-6885779Y-14226144D01*
X-6862500Y-14225000D01*
X-6287500Y-14225000D01*
X-6264221Y-14226144D01*
G37*
G36*
X-4514221Y-14226144D02*
G01*
X-4491166Y-14229563D01*
X-4468557Y-14235227D01*
X-4446613Y-14243079D01*
X-4425543Y-14253044D01*
X-4405552Y-14265026D01*
X-4386832Y-14278910D01*
X-4369562Y-14294562D01*
X-4353910Y-14311832D01*
X-4340026Y-14330552D01*
X-4328044Y-14350543D01*
X-4318079Y-14371613D01*
X-4310227Y-14393557D01*
X-4304563Y-14416166D01*
X-4301144Y-14439221D01*
X-4300000Y-14462500D01*
X-4300000Y-14937500D01*
X-4301144Y-14960779D01*
X-4304563Y-14983834D01*
X-4310227Y-15006443D01*
X-4318079Y-15028387D01*
X-4328044Y-15049457D01*
X-4340026Y-15069448D01*
X-4353910Y-15088168D01*
X-4369562Y-15105438D01*
X-4386832Y-15121090D01*
X-4405552Y-15134974D01*
X-4425543Y-15146956D01*
X-4446613Y-15156921D01*
X-4468557Y-15164773D01*
X-4491166Y-15170437D01*
X-4514221Y-15173856D01*
X-4537500Y-15175000D01*
X-5112500Y-15175000D01*
X-5135779Y-15173856D01*
X-5158834Y-15170437D01*
X-5181443Y-15164773D01*
X-5203387Y-15156921D01*
X-5224457Y-15146956D01*
X-5244448Y-15134974D01*
X-5263168Y-15121090D01*
X-5280438Y-15105438D01*
X-5296090Y-15088168D01*
X-5309974Y-15069448D01*
X-5321956Y-15049457D01*
X-5331921Y-15028387D01*
X-5339773Y-15006443D01*
X-5345437Y-14983834D01*
X-5348856Y-14960779D01*
X-5350000Y-14937500D01*
X-5350000Y-14462500D01*
X-5348856Y-14439221D01*
X-5345437Y-14416166D01*
X-5339773Y-14393557D01*
X-5331921Y-14371613D01*
X-5321956Y-14350543D01*
X-5309974Y-14330552D01*
X-5296090Y-14311832D01*
X-5280438Y-14294562D01*
X-5263168Y-14278910D01*
X-5244448Y-14265026D01*
X-5224457Y-14253044D01*
X-5203387Y-14243079D01*
X-5181443Y-14235227D01*
X-5158834Y-14229563D01*
X-5135779Y-14226144D01*
X-5112500Y-14225000D01*
X-4537500Y-14225000D01*
X-4514221Y-14226144D01*
G37*
G36*
X-2690198Y-14575482D02*
G01*
X-2680491Y-14576921D01*
X-2670972Y-14579306D01*
X-2661732Y-14582612D01*
X-2652860Y-14586808D01*
X-2644443Y-14591853D01*
X-2636561Y-14597699D01*
X-2629289Y-14604289D01*
X-2622699Y-14611561D01*
X-2616853Y-14619443D01*
X-2611808Y-14627860D01*
X-2607612Y-14636732D01*
X-2604306Y-14645972D01*
X-2601921Y-14655491D01*
X-2600482Y-14665198D01*
X-2600000Y-14675000D01*
X-2600000Y-15975000D01*
X-2600482Y-15984802D01*
X-2601921Y-15994509D01*
X-2604306Y-16004028D01*
X-2607612Y-16013268D01*
X-2611808Y-16022140D01*
X-2616853Y-16030557D01*
X-2622699Y-16038439D01*
X-2629289Y-16045711D01*
X-2636561Y-16052301D01*
X-2644443Y-16058147D01*
X-2652860Y-16063192D01*
X-2661732Y-16067388D01*
X-2670972Y-16070694D01*
X-2680491Y-16073079D01*
X-2690198Y-16074518D01*
X-2700000Y-16075000D01*
X-2900000Y-16075000D01*
X-2909802Y-16074518D01*
X-2919509Y-16073079D01*
X-2929028Y-16070694D01*
X-2938268Y-16067388D01*
X-2947140Y-16063192D01*
X-2955557Y-16058147D01*
X-2963439Y-16052301D01*
X-2970711Y-16045711D01*
X-2977301Y-16038439D01*
X-2983147Y-16030557D01*
X-2988192Y-16022140D01*
X-2992388Y-16013268D01*
X-2995694Y-16004028D01*
X-2998079Y-15994509D01*
X-2999518Y-15984802D01*
X-3000000Y-15975000D01*
X-3000000Y-14675000D01*
X-2999518Y-14665198D01*
X-2998079Y-14655491D01*
X-2995694Y-14645972D01*
X-2992388Y-14636732D01*
X-2988192Y-14627860D01*
X-2983147Y-14619443D01*
X-2977301Y-14611561D01*
X-2970711Y-14604289D01*
X-2963439Y-14597699D01*
X-2955557Y-14591853D01*
X-2947140Y-14586808D01*
X-2938268Y-14582612D01*
X-2929028Y-14579306D01*
X-2919509Y-14576921D01*
X-2909802Y-14575482D01*
X-2900000Y-14575000D01*
X-2700000Y-14575000D01*
X-2690198Y-14575482D01*
G37*
G36*
X-1890198Y-14575482D02*
G01*
X-1880491Y-14576921D01*
X-1870972Y-14579306D01*
X-1861732Y-14582612D01*
X-1852860Y-14586808D01*
X-1844443Y-14591853D01*
X-1836561Y-14597699D01*
X-1829289Y-14604289D01*
X-1822699Y-14611561D01*
X-1816853Y-14619443D01*
X-1811808Y-14627860D01*
X-1807612Y-14636732D01*
X-1804306Y-14645972D01*
X-1801921Y-14655491D01*
X-1800482Y-14665198D01*
X-1800000Y-14675000D01*
X-1800000Y-15975000D01*
X-1800482Y-15984802D01*
X-1801921Y-15994509D01*
X-1804306Y-16004028D01*
X-1807612Y-16013268D01*
X-1811808Y-16022140D01*
X-1816853Y-16030557D01*
X-1822699Y-16038439D01*
X-1829289Y-16045711D01*
X-1836561Y-16052301D01*
X-1844443Y-16058147D01*
X-1852860Y-16063192D01*
X-1861732Y-16067388D01*
X-1870972Y-16070694D01*
X-1880491Y-16073079D01*
X-1890198Y-16074518D01*
X-1900000Y-16075000D01*
X-2100000Y-16075000D01*
X-2109802Y-16074518D01*
X-2119509Y-16073079D01*
X-2129028Y-16070694D01*
X-2138268Y-16067388D01*
X-2147140Y-16063192D01*
X-2155557Y-16058147D01*
X-2163439Y-16052301D01*
X-2170711Y-16045711D01*
X-2177301Y-16038439D01*
X-2183147Y-16030557D01*
X-2188192Y-16022140D01*
X-2192388Y-16013268D01*
X-2195694Y-16004028D01*
X-2198079Y-15994509D01*
X-2199518Y-15984802D01*
X-2200000Y-15975000D01*
X-2200000Y-14675000D01*
X-2199518Y-14665198D01*
X-2198079Y-14655491D01*
X-2195694Y-14645972D01*
X-2192388Y-14636732D01*
X-2188192Y-14627860D01*
X-2183147Y-14619443D01*
X-2177301Y-14611561D01*
X-2170711Y-14604289D01*
X-2163439Y-14597699D01*
X-2155557Y-14591853D01*
X-2147140Y-14586808D01*
X-2138268Y-14582612D01*
X-2129028Y-14579306D01*
X-2119509Y-14576921D01*
X-2109802Y-14575482D01*
X-2100000Y-14575000D01*
X-1900000Y-14575000D01*
X-1890198Y-14575482D01*
G37*
G36*
X-1090198Y-14575482D02*
G01*
X-1080491Y-14576921D01*
X-1070972Y-14579306D01*
X-1061732Y-14582612D01*
X-1052860Y-14586808D01*
X-1044443Y-14591853D01*
X-1036561Y-14597699D01*
X-1029289Y-14604289D01*
X-1022699Y-14611561D01*
X-1016853Y-14619443D01*
X-1011808Y-14627860D01*
X-1007612Y-14636732D01*
X-1004306Y-14645972D01*
X-1001921Y-14655491D01*
X-1000482Y-14665198D01*
X-1000000Y-14675000D01*
X-1000000Y-15975000D01*
X-1000482Y-15984802D01*
X-1001921Y-15994509D01*
X-1004306Y-16004028D01*
X-1007612Y-16013268D01*
X-1011808Y-16022140D01*
X-1016853Y-16030557D01*
X-1022699Y-16038439D01*
X-1029289Y-16045711D01*
X-1036561Y-16052301D01*
X-1044443Y-16058147D01*
X-1052860Y-16063192D01*
X-1061732Y-16067388D01*
X-1070972Y-16070694D01*
X-1080491Y-16073079D01*
X-1090198Y-16074518D01*
X-1100000Y-16075000D01*
X-1300000Y-16075000D01*
X-1309802Y-16074518D01*
X-1319509Y-16073079D01*
X-1329028Y-16070694D01*
X-1338268Y-16067388D01*
X-1347140Y-16063192D01*
X-1355557Y-16058147D01*
X-1363439Y-16052301D01*
X-1370711Y-16045711D01*
X-1377301Y-16038439D01*
X-1383147Y-16030557D01*
X-1388192Y-16022140D01*
X-1392388Y-16013268D01*
X-1395694Y-16004028D01*
X-1398079Y-15994509D01*
X-1399518Y-15984802D01*
X-1400000Y-15975000D01*
X-1400000Y-14675000D01*
X-1399518Y-14665198D01*
X-1398079Y-14655491D01*
X-1395694Y-14645972D01*
X-1392388Y-14636732D01*
X-1388192Y-14627860D01*
X-1383147Y-14619443D01*
X-1377301Y-14611561D01*
X-1370711Y-14604289D01*
X-1363439Y-14597699D01*
X-1355557Y-14591853D01*
X-1347140Y-14586808D01*
X-1338268Y-14582612D01*
X-1329028Y-14579306D01*
X-1319509Y-14576921D01*
X-1309802Y-14575482D01*
X-1300000Y-14575000D01*
X-1100000Y-14575000D01*
X-1090198Y-14575482D01*
G37*
G36*
X-290198Y-14575482D02*
G01*
X-280491Y-14576921D01*
X-270972Y-14579306D01*
X-261732Y-14582612D01*
X-252860Y-14586808D01*
X-244443Y-14591853D01*
X-236561Y-14597699D01*
X-229289Y-14604289D01*
X-222699Y-14611561D01*
X-216853Y-14619443D01*
X-211808Y-14627860D01*
X-207612Y-14636732D01*
X-204306Y-14645972D01*
X-201921Y-14655491D01*
X-200482Y-14665198D01*
X-200000Y-14675000D01*
X-200000Y-15975000D01*
X-200482Y-15984802D01*
X-201921Y-15994509D01*
X-204306Y-16004028D01*
X-207612Y-16013268D01*
X-211808Y-16022140D01*
X-216853Y-16030557D01*
X-222699Y-16038439D01*
X-229289Y-16045711D01*
X-236561Y-16052301D01*
X-244443Y-16058147D01*
X-252860Y-16063192D01*
X-261732Y-16067388D01*
X-270972Y-16070694D01*
X-280491Y-16073079D01*
X-290198Y-16074518D01*
X-300000Y-16075000D01*
X-500000Y-16075000D01*
X-509802Y-16074518D01*
X-519509Y-16073079D01*
X-529028Y-16070694D01*
X-538268Y-16067388D01*
X-547140Y-16063192D01*
X-555557Y-16058147D01*
X-563439Y-16052301D01*
X-570711Y-16045711D01*
X-577301Y-16038439D01*
X-583147Y-16030557D01*
X-588192Y-16022140D01*
X-592388Y-16013268D01*
X-595694Y-16004028D01*
X-598079Y-15994509D01*
X-599518Y-15984802D01*
X-600000Y-15975000D01*
X-600000Y-14675000D01*
X-599518Y-14665198D01*
X-598079Y-14655491D01*
X-595694Y-14645972D01*
X-592388Y-14636732D01*
X-588192Y-14627860D01*
X-583147Y-14619443D01*
X-577301Y-14611561D01*
X-570711Y-14604289D01*
X-563439Y-14597699D01*
X-555557Y-14591853D01*
X-547140Y-14586808D01*
X-538268Y-14582612D01*
X-529028Y-14579306D01*
X-519509Y-14576921D01*
X-509802Y-14575482D01*
X-500000Y-14575000D01*
X-300000Y-14575000D01*
X-290198Y-14575482D01*
G37*
G36*
X509802Y-14575482D02*
G01*
X519509Y-14576921D01*
X529028Y-14579306D01*
X538268Y-14582612D01*
X547140Y-14586808D01*
X555557Y-14591853D01*
X563439Y-14597699D01*
X570711Y-14604289D01*
X577301Y-14611561D01*
X583147Y-14619443D01*
X588192Y-14627860D01*
X592388Y-14636732D01*
X595694Y-14645972D01*
X598079Y-14655491D01*
X599518Y-14665198D01*
X600000Y-14675000D01*
X600000Y-15975000D01*
X599518Y-15984802D01*
X598079Y-15994509D01*
X595694Y-16004028D01*
X592388Y-16013268D01*
X588192Y-16022140D01*
X583147Y-16030557D01*
X577301Y-16038439D01*
X570711Y-16045711D01*
X563439Y-16052301D01*
X555557Y-16058147D01*
X547140Y-16063192D01*
X538268Y-16067388D01*
X529028Y-16070694D01*
X519509Y-16073079D01*
X509802Y-16074518D01*
X500000Y-16075000D01*
X300000Y-16075000D01*
X290198Y-16074518D01*
X280491Y-16073079D01*
X270972Y-16070694D01*
X261732Y-16067388D01*
X252860Y-16063192D01*
X244443Y-16058147D01*
X236561Y-16052301D01*
X229289Y-16045711D01*
X222699Y-16038439D01*
X216853Y-16030557D01*
X211808Y-16022140D01*
X207612Y-16013268D01*
X204306Y-16004028D01*
X201921Y-15994509D01*
X200482Y-15984802D01*
X200000Y-15975000D01*
X200000Y-14675000D01*
X200482Y-14665198D01*
X201921Y-14655491D01*
X204306Y-14645972D01*
X207612Y-14636732D01*
X211808Y-14627860D01*
X216853Y-14619443D01*
X222699Y-14611561D01*
X229289Y-14604289D01*
X236561Y-14597699D01*
X244443Y-14591853D01*
X252860Y-14586808D01*
X261732Y-14582612D01*
X270972Y-14579306D01*
X280491Y-14576921D01*
X290198Y-14575482D01*
X300000Y-14575000D01*
X500000Y-14575000D01*
X509802Y-14575482D01*
G37*
G36*
X1309802Y-14575482D02*
G01*
X1319509Y-14576921D01*
X1329028Y-14579306D01*
X1338268Y-14582612D01*
X1347140Y-14586808D01*
X1355557Y-14591853D01*
X1363439Y-14597699D01*
X1370711Y-14604289D01*
X1377301Y-14611561D01*
X1383147Y-14619443D01*
X1388192Y-14627860D01*
X1392388Y-14636732D01*
X1395694Y-14645972D01*
X1398079Y-14655491D01*
X1399518Y-14665198D01*
X1400000Y-14675000D01*
X1400000Y-15975000D01*
X1399518Y-15984802D01*
X1398079Y-15994509D01*
X1395694Y-16004028D01*
X1392388Y-16013268D01*
X1388192Y-16022140D01*
X1383147Y-16030557D01*
X1377301Y-16038439D01*
X1370711Y-16045711D01*
X1363439Y-16052301D01*
X1355557Y-16058147D01*
X1347140Y-16063192D01*
X1338268Y-16067388D01*
X1329028Y-16070694D01*
X1319509Y-16073079D01*
X1309802Y-16074518D01*
X1300000Y-16075000D01*
X1100000Y-16075000D01*
X1090198Y-16074518D01*
X1080491Y-16073079D01*
X1070972Y-16070694D01*
X1061732Y-16067388D01*
X1052860Y-16063192D01*
X1044443Y-16058147D01*
X1036561Y-16052301D01*
X1029289Y-16045711D01*
X1022699Y-16038439D01*
X1016853Y-16030557D01*
X1011808Y-16022140D01*
X1007612Y-16013268D01*
X1004306Y-16004028D01*
X1001921Y-15994509D01*
X1000482Y-15984802D01*
X1000000Y-15975000D01*
X1000000Y-14675000D01*
X1000482Y-14665198D01*
X1001921Y-14655491D01*
X1004306Y-14645972D01*
X1007612Y-14636732D01*
X1011808Y-14627860D01*
X1016853Y-14619443D01*
X1022699Y-14611561D01*
X1029289Y-14604289D01*
X1036561Y-14597699D01*
X1044443Y-14591853D01*
X1052860Y-14586808D01*
X1061732Y-14582612D01*
X1070972Y-14579306D01*
X1080491Y-14576921D01*
X1090198Y-14575482D01*
X1100000Y-14575000D01*
X1300000Y-14575000D01*
X1309802Y-14575482D01*
G37*
G36*
X2109802Y-14575482D02*
G01*
X2119509Y-14576921D01*
X2129028Y-14579306D01*
X2138268Y-14582612D01*
X2147140Y-14586808D01*
X2155557Y-14591853D01*
X2163439Y-14597699D01*
X2170711Y-14604289D01*
X2177301Y-14611561D01*
X2183147Y-14619443D01*
X2188192Y-14627860D01*
X2192388Y-14636732D01*
X2195694Y-14645972D01*
X2198079Y-14655491D01*
X2199518Y-14665198D01*
X2200000Y-14675000D01*
X2200000Y-15975000D01*
X2199518Y-15984802D01*
X2198079Y-15994509D01*
X2195694Y-16004028D01*
X2192388Y-16013268D01*
X2188192Y-16022140D01*
X2183147Y-16030557D01*
X2177301Y-16038439D01*
X2170711Y-16045711D01*
X2163439Y-16052301D01*
X2155557Y-16058147D01*
X2147140Y-16063192D01*
X2138268Y-16067388D01*
X2129028Y-16070694D01*
X2119509Y-16073079D01*
X2109802Y-16074518D01*
X2100000Y-16075000D01*
X1900000Y-16075000D01*
X1890198Y-16074518D01*
X1880491Y-16073079D01*
X1870972Y-16070694D01*
X1861732Y-16067388D01*
X1852860Y-16063192D01*
X1844443Y-16058147D01*
X1836561Y-16052301D01*
X1829289Y-16045711D01*
X1822699Y-16038439D01*
X1816853Y-16030557D01*
X1811808Y-16022140D01*
X1807612Y-16013268D01*
X1804306Y-16004028D01*
X1801921Y-15994509D01*
X1800482Y-15984802D01*
X1800000Y-15975000D01*
X1800000Y-14675000D01*
X1800482Y-14665198D01*
X1801921Y-14655491D01*
X1804306Y-14645972D01*
X1807612Y-14636732D01*
X1811808Y-14627860D01*
X1816853Y-14619443D01*
X1822699Y-14611561D01*
X1829289Y-14604289D01*
X1836561Y-14597699D01*
X1844443Y-14591853D01*
X1852860Y-14586808D01*
X1861732Y-14582612D01*
X1870972Y-14579306D01*
X1880491Y-14576921D01*
X1890198Y-14575482D01*
X1900000Y-14575000D01*
X2100000Y-14575000D01*
X2109802Y-14575482D01*
G37*
G36*
X2909802Y-14575482D02*
G01*
X2919509Y-14576921D01*
X2929028Y-14579306D01*
X2938268Y-14582612D01*
X2947140Y-14586808D01*
X2955557Y-14591853D01*
X2963439Y-14597699D01*
X2970711Y-14604289D01*
X2977301Y-14611561D01*
X2983147Y-14619443D01*
X2988192Y-14627860D01*
X2992388Y-14636732D01*
X2995694Y-14645972D01*
X2998079Y-14655491D01*
X2999518Y-14665198D01*
X3000000Y-14675000D01*
X3000000Y-15975000D01*
X2999518Y-15984802D01*
X2998079Y-15994509D01*
X2995694Y-16004028D01*
X2992388Y-16013268D01*
X2988192Y-16022140D01*
X2983147Y-16030557D01*
X2977301Y-16038439D01*
X2970711Y-16045711D01*
X2963439Y-16052301D01*
X2955557Y-16058147D01*
X2947140Y-16063192D01*
X2938268Y-16067388D01*
X2929028Y-16070694D01*
X2919509Y-16073079D01*
X2909802Y-16074518D01*
X2900000Y-16075000D01*
X2700000Y-16075000D01*
X2690198Y-16074518D01*
X2680491Y-16073079D01*
X2670972Y-16070694D01*
X2661732Y-16067388D01*
X2652860Y-16063192D01*
X2644443Y-16058147D01*
X2636561Y-16052301D01*
X2629289Y-16045711D01*
X2622699Y-16038439D01*
X2616853Y-16030557D01*
X2611808Y-16022140D01*
X2607612Y-16013268D01*
X2604306Y-16004028D01*
X2601921Y-15994509D01*
X2600482Y-15984802D01*
X2600000Y-15975000D01*
X2600000Y-14675000D01*
X2600482Y-14665198D01*
X2601921Y-14655491D01*
X2604306Y-14645972D01*
X2607612Y-14636732D01*
X2611808Y-14627860D01*
X2616853Y-14619443D01*
X2622699Y-14611561D01*
X2629289Y-14604289D01*
X2636561Y-14597699D01*
X2644443Y-14591853D01*
X2652860Y-14586808D01*
X2661732Y-14582612D01*
X2670972Y-14579306D01*
X2680491Y-14576921D01*
X2690198Y-14575482D01*
X2700000Y-14575000D01*
X2900000Y-14575000D01*
X2909802Y-14575482D01*
G37*
G36*
X4834802Y-16500482D02*
G01*
X4844509Y-16501921D01*
X4854028Y-16504306D01*
X4863268Y-16507612D01*
X4872140Y-16511808D01*
X4880557Y-16516853D01*
X4888439Y-16522699D01*
X4895711Y-16529289D01*
X4902301Y-16536561D01*
X4908147Y-16544443D01*
X4913192Y-16552860D01*
X4917388Y-16561732D01*
X4920694Y-16570972D01*
X4923079Y-16580491D01*
X4924518Y-16590198D01*
X4925000Y-16600000D01*
X4925000Y-16800000D01*
X4924518Y-16809802D01*
X4923079Y-16819509D01*
X4920694Y-16829028D01*
X4917388Y-16838268D01*
X4913192Y-16847140D01*
X4908147Y-16855557D01*
X4902301Y-16863439D01*
X4895711Y-16870711D01*
X4888439Y-16877301D01*
X4880557Y-16883147D01*
X4872140Y-16888192D01*
X4863268Y-16892388D01*
X4854028Y-16895694D01*
X4844509Y-16898079D01*
X4834802Y-16899518D01*
X4825000Y-16900000D01*
X3525000Y-16900000D01*
X3515198Y-16899518D01*
X3505491Y-16898079D01*
X3495972Y-16895694D01*
X3486732Y-16892388D01*
X3477860Y-16888192D01*
X3469443Y-16883147D01*
X3461561Y-16877301D01*
X3454289Y-16870711D01*
X3447699Y-16863439D01*
X3441853Y-16855557D01*
X3436808Y-16847140D01*
X3432612Y-16838268D01*
X3429306Y-16829028D01*
X3426921Y-16819509D01*
X3425482Y-16809802D01*
X3425000Y-16800000D01*
X3425000Y-16600000D01*
X3425482Y-16590198D01*
X3426921Y-16580491D01*
X3429306Y-16570972D01*
X3432612Y-16561732D01*
X3436808Y-16552860D01*
X3441853Y-16544443D01*
X3447699Y-16536561D01*
X3454289Y-16529289D01*
X3461561Y-16522699D01*
X3469443Y-16516853D01*
X3477860Y-16511808D01*
X3486732Y-16507612D01*
X3495972Y-16504306D01*
X3505491Y-16501921D01*
X3515198Y-16500482D01*
X3525000Y-16500000D01*
X4825000Y-16500000D01*
X4834802Y-16500482D01*
G37*
G36*
X4834802Y-17300482D02*
G01*
X4844509Y-17301921D01*
X4854028Y-17304306D01*
X4863268Y-17307612D01*
X4872140Y-17311808D01*
X4880557Y-17316853D01*
X4888439Y-17322699D01*
X4895711Y-17329289D01*
X4902301Y-17336561D01*
X4908147Y-17344443D01*
X4913192Y-17352860D01*
X4917388Y-17361732D01*
X4920694Y-17370972D01*
X4923079Y-17380491D01*
X4924518Y-17390198D01*
X4925000Y-17400000D01*
X4925000Y-17600000D01*
X4924518Y-17609802D01*
X4923079Y-17619509D01*
X4920694Y-17629028D01*
X4917388Y-17638268D01*
X4913192Y-17647140D01*
X4908147Y-17655557D01*
X4902301Y-17663439D01*
X4895711Y-17670711D01*
X4888439Y-17677301D01*
X4880557Y-17683147D01*
X4872140Y-17688192D01*
X4863268Y-17692388D01*
X4854028Y-17695694D01*
X4844509Y-17698079D01*
X4834802Y-17699518D01*
X4825000Y-17700000D01*
X3525000Y-17700000D01*
X3515198Y-17699518D01*
X3505491Y-17698079D01*
X3495972Y-17695694D01*
X3486732Y-17692388D01*
X3477860Y-17688192D01*
X3469443Y-17683147D01*
X3461561Y-17677301D01*
X3454289Y-17670711D01*
X3447699Y-17663439D01*
X3441853Y-17655557D01*
X3436808Y-17647140D01*
X3432612Y-17638268D01*
X3429306Y-17629028D01*
X3426921Y-17619509D01*
X3425482Y-17609802D01*
X3425000Y-17600000D01*
X3425000Y-17400000D01*
X3425482Y-17390198D01*
X3426921Y-17380491D01*
X3429306Y-17370972D01*
X3432612Y-17361732D01*
X3436808Y-17352860D01*
X3441853Y-17344443D01*
X3447699Y-17336561D01*
X3454289Y-17329289D01*
X3461561Y-17322699D01*
X3469443Y-17316853D01*
X3477860Y-17311808D01*
X3486732Y-17307612D01*
X3495972Y-17304306D01*
X3505491Y-17301921D01*
X3515198Y-17300482D01*
X3525000Y-17300000D01*
X4825000Y-17300000D01*
X4834802Y-17300482D01*
G37*
G36*
X4834802Y-18100482D02*
G01*
X4844509Y-18101921D01*
X4854028Y-18104306D01*
X4863268Y-18107612D01*
X4872140Y-18111808D01*
X4880557Y-18116853D01*
X4888439Y-18122699D01*
X4895711Y-18129289D01*
X4902301Y-18136561D01*
X4908147Y-18144443D01*
X4913192Y-18152860D01*
X4917388Y-18161732D01*
X4920694Y-18170972D01*
X4923079Y-18180491D01*
X4924518Y-18190198D01*
X4925000Y-18200000D01*
X4925000Y-18400000D01*
X4924518Y-18409802D01*
X4923079Y-18419509D01*
X4920694Y-18429028D01*
X4917388Y-18438268D01*
X4913192Y-18447140D01*
X4908147Y-18455557D01*
X4902301Y-18463439D01*
X4895711Y-18470711D01*
X4888439Y-18477301D01*
X4880557Y-18483147D01*
X4872140Y-18488192D01*
X4863268Y-18492388D01*
X4854028Y-18495694D01*
X4844509Y-18498079D01*
X4834802Y-18499518D01*
X4825000Y-18500000D01*
X3525000Y-18500000D01*
X3515198Y-18499518D01*
X3505491Y-18498079D01*
X3495972Y-18495694D01*
X3486732Y-18492388D01*
X3477860Y-18488192D01*
X3469443Y-18483147D01*
X3461561Y-18477301D01*
X3454289Y-18470711D01*
X3447699Y-18463439D01*
X3441853Y-18455557D01*
X3436808Y-18447140D01*
X3432612Y-18438268D01*
X3429306Y-18429028D01*
X3426921Y-18419509D01*
X3425482Y-18409802D01*
X3425000Y-18400000D01*
X3425000Y-18200000D01*
X3425482Y-18190198D01*
X3426921Y-18180491D01*
X3429306Y-18170972D01*
X3432612Y-18161732D01*
X3436808Y-18152860D01*
X3441853Y-18144443D01*
X3447699Y-18136561D01*
X3454289Y-18129289D01*
X3461561Y-18122699D01*
X3469443Y-18116853D01*
X3477860Y-18111808D01*
X3486732Y-18107612D01*
X3495972Y-18104306D01*
X3505491Y-18101921D01*
X3515198Y-18100482D01*
X3525000Y-18100000D01*
X4825000Y-18100000D01*
X4834802Y-18100482D01*
G37*
G36*
X4834802Y-18900482D02*
G01*
X4844509Y-18901921D01*
X4854028Y-18904306D01*
X4863268Y-18907612D01*
X4872140Y-18911808D01*
X4880557Y-18916853D01*
X4888439Y-18922699D01*
X4895711Y-18929289D01*
X4902301Y-18936561D01*
X4908147Y-18944443D01*
X4913192Y-18952860D01*
X4917388Y-18961732D01*
X4920694Y-18970972D01*
X4923079Y-18980491D01*
X4924518Y-18990198D01*
X4925000Y-19000000D01*
X4925000Y-19200000D01*
X4924518Y-19209802D01*
X4923079Y-19219509D01*
X4920694Y-19229028D01*
X4917388Y-19238268D01*
X4913192Y-19247140D01*
X4908147Y-19255557D01*
X4902301Y-19263439D01*
X4895711Y-19270711D01*
X4888439Y-19277301D01*
X4880557Y-19283147D01*
X4872140Y-19288192D01*
X4863268Y-19292388D01*
X4854028Y-19295694D01*
X4844509Y-19298079D01*
X4834802Y-19299518D01*
X4825000Y-19300000D01*
X3525000Y-19300000D01*
X3515198Y-19299518D01*
X3505491Y-19298079D01*
X3495972Y-19295694D01*
X3486732Y-19292388D01*
X3477860Y-19288192D01*
X3469443Y-19283147D01*
X3461561Y-19277301D01*
X3454289Y-19270711D01*
X3447699Y-19263439D01*
X3441853Y-19255557D01*
X3436808Y-19247140D01*
X3432612Y-19238268D01*
X3429306Y-19229028D01*
X3426921Y-19219509D01*
X3425482Y-19209802D01*
X3425000Y-19200000D01*
X3425000Y-19000000D01*
X3425482Y-18990198D01*
X3426921Y-18980491D01*
X3429306Y-18970972D01*
X3432612Y-18961732D01*
X3436808Y-18952860D01*
X3441853Y-18944443D01*
X3447699Y-18936561D01*
X3454289Y-18929289D01*
X3461561Y-18922699D01*
X3469443Y-18916853D01*
X3477860Y-18911808D01*
X3486732Y-18907612D01*
X3495972Y-18904306D01*
X3505491Y-18901921D01*
X3515198Y-18900482D01*
X3525000Y-18900000D01*
X4825000Y-18900000D01*
X4834802Y-18900482D01*
G37*
G36*
X4834802Y-19700482D02*
G01*
X4844509Y-19701921D01*
X4854028Y-19704306D01*
X4863268Y-19707612D01*
X4872140Y-19711808D01*
X4880557Y-19716853D01*
X4888439Y-19722699D01*
X4895711Y-19729289D01*
X4902301Y-19736561D01*
X4908147Y-19744443D01*
X4913192Y-19752860D01*
X4917388Y-19761732D01*
X4920694Y-19770972D01*
X4923079Y-19780491D01*
X4924518Y-19790198D01*
X4925000Y-19800000D01*
X4925000Y-20000000D01*
X4924518Y-20009802D01*
X4923079Y-20019509D01*
X4920694Y-20029028D01*
X4917388Y-20038268D01*
X4913192Y-20047140D01*
X4908147Y-20055557D01*
X4902301Y-20063439D01*
X4895711Y-20070711D01*
X4888439Y-20077301D01*
X4880557Y-20083147D01*
X4872140Y-20088192D01*
X4863268Y-20092388D01*
X4854028Y-20095694D01*
X4844509Y-20098079D01*
X4834802Y-20099518D01*
X4825000Y-20100000D01*
X3525000Y-20100000D01*
X3515198Y-20099518D01*
X3505491Y-20098079D01*
X3495972Y-20095694D01*
X3486732Y-20092388D01*
X3477860Y-20088192D01*
X3469443Y-20083147D01*
X3461561Y-20077301D01*
X3454289Y-20070711D01*
X3447699Y-20063439D01*
X3441853Y-20055557D01*
X3436808Y-20047140D01*
X3432612Y-20038268D01*
X3429306Y-20029028D01*
X3426921Y-20019509D01*
X3425482Y-20009802D01*
X3425000Y-20000000D01*
X3425000Y-19800000D01*
X3425482Y-19790198D01*
X3426921Y-19780491D01*
X3429306Y-19770972D01*
X3432612Y-19761732D01*
X3436808Y-19752860D01*
X3441853Y-19744443D01*
X3447699Y-19736561D01*
X3454289Y-19729289D01*
X3461561Y-19722699D01*
X3469443Y-19716853D01*
X3477860Y-19711808D01*
X3486732Y-19707612D01*
X3495972Y-19704306D01*
X3505491Y-19701921D01*
X3515198Y-19700482D01*
X3525000Y-19700000D01*
X4825000Y-19700000D01*
X4834802Y-19700482D01*
G37*
G36*
X4834802Y-20500482D02*
G01*
X4844509Y-20501921D01*
X4854028Y-20504306D01*
X4863268Y-20507612D01*
X4872140Y-20511808D01*
X4880557Y-20516853D01*
X4888439Y-20522699D01*
X4895711Y-20529289D01*
X4902301Y-20536561D01*
X4908147Y-20544443D01*
X4913192Y-20552860D01*
X4917388Y-20561732D01*
X4920694Y-20570972D01*
X4923079Y-20580491D01*
X4924518Y-20590198D01*
X4925000Y-20600000D01*
X4925000Y-20800000D01*
X4924518Y-20809802D01*
X4923079Y-20819509D01*
X4920694Y-20829028D01*
X4917388Y-20838268D01*
X4913192Y-20847140D01*
X4908147Y-20855557D01*
X4902301Y-20863439D01*
X4895711Y-20870711D01*
X4888439Y-20877301D01*
X4880557Y-20883147D01*
X4872140Y-20888192D01*
X4863268Y-20892388D01*
X4854028Y-20895694D01*
X4844509Y-20898079D01*
X4834802Y-20899518D01*
X4825000Y-20900000D01*
X3525000Y-20900000D01*
X3515198Y-20899518D01*
X3505491Y-20898079D01*
X3495972Y-20895694D01*
X3486732Y-20892388D01*
X3477860Y-20888192D01*
X3469443Y-20883147D01*
X3461561Y-20877301D01*
X3454289Y-20870711D01*
X3447699Y-20863439D01*
X3441853Y-20855557D01*
X3436808Y-20847140D01*
X3432612Y-20838268D01*
X3429306Y-20829028D01*
X3426921Y-20819509D01*
X3425482Y-20809802D01*
X3425000Y-20800000D01*
X3425000Y-20600000D01*
X3425482Y-20590198D01*
X3426921Y-20580491D01*
X3429306Y-20570972D01*
X3432612Y-20561732D01*
X3436808Y-20552860D01*
X3441853Y-20544443D01*
X3447699Y-20536561D01*
X3454289Y-20529289D01*
X3461561Y-20522699D01*
X3469443Y-20516853D01*
X3477860Y-20511808D01*
X3486732Y-20507612D01*
X3495972Y-20504306D01*
X3505491Y-20501921D01*
X3515198Y-20500482D01*
X3525000Y-20500000D01*
X4825000Y-20500000D01*
X4834802Y-20500482D01*
G37*
G36*
X4834802Y-21300482D02*
G01*
X4844509Y-21301921D01*
X4854028Y-21304306D01*
X4863268Y-21307612D01*
X4872140Y-21311808D01*
X4880557Y-21316853D01*
X4888439Y-21322699D01*
X4895711Y-21329289D01*
X4902301Y-21336561D01*
X4908147Y-21344443D01*
X4913192Y-21352860D01*
X4917388Y-21361732D01*
X4920694Y-21370972D01*
X4923079Y-21380491D01*
X4924518Y-21390198D01*
X4925000Y-21400000D01*
X4925000Y-21600000D01*
X4924518Y-21609802D01*
X4923079Y-21619509D01*
X4920694Y-21629028D01*
X4917388Y-21638268D01*
X4913192Y-21647140D01*
X4908147Y-21655557D01*
X4902301Y-21663439D01*
X4895711Y-21670711D01*
X4888439Y-21677301D01*
X4880557Y-21683147D01*
X4872140Y-21688192D01*
X4863268Y-21692388D01*
X4854028Y-21695694D01*
X4844509Y-21698079D01*
X4834802Y-21699518D01*
X4825000Y-21700000D01*
X3525000Y-21700000D01*
X3515198Y-21699518D01*
X3505491Y-21698079D01*
X3495972Y-21695694D01*
X3486732Y-21692388D01*
X3477860Y-21688192D01*
X3469443Y-21683147D01*
X3461561Y-21677301D01*
X3454289Y-21670711D01*
X3447699Y-21663439D01*
X3441853Y-21655557D01*
X3436808Y-21647140D01*
X3432612Y-21638268D01*
X3429306Y-21629028D01*
X3426921Y-21619509D01*
X3425482Y-21609802D01*
X3425000Y-21600000D01*
X3425000Y-21400000D01*
X3425482Y-21390198D01*
X3426921Y-21380491D01*
X3429306Y-21370972D01*
X3432612Y-21361732D01*
X3436808Y-21352860D01*
X3441853Y-21344443D01*
X3447699Y-21336561D01*
X3454289Y-21329289D01*
X3461561Y-21322699D01*
X3469443Y-21316853D01*
X3477860Y-21311808D01*
X3486732Y-21307612D01*
X3495972Y-21304306D01*
X3505491Y-21301921D01*
X3515198Y-21300482D01*
X3525000Y-21300000D01*
X4825000Y-21300000D01*
X4834802Y-21300482D01*
G37*
G36*
X4834802Y-22100482D02*
G01*
X4844509Y-22101921D01*
X4854028Y-22104306D01*
X4863268Y-22107612D01*
X4872140Y-22111808D01*
X4880557Y-22116853D01*
X4888439Y-22122699D01*
X4895711Y-22129289D01*
X4902301Y-22136561D01*
X4908147Y-22144443D01*
X4913192Y-22152860D01*
X4917388Y-22161732D01*
X4920694Y-22170972D01*
X4923079Y-22180491D01*
X4924518Y-22190198D01*
X4925000Y-22200000D01*
X4925000Y-22400000D01*
X4924518Y-22409802D01*
X4923079Y-22419509D01*
X4920694Y-22429028D01*
X4917388Y-22438268D01*
X4913192Y-22447140D01*
X4908147Y-22455557D01*
X4902301Y-22463439D01*
X4895711Y-22470711D01*
X4888439Y-22477301D01*
X4880557Y-22483147D01*
X4872140Y-22488192D01*
X4863268Y-22492388D01*
X4854028Y-22495694D01*
X4844509Y-22498079D01*
X4834802Y-22499518D01*
X4825000Y-22500000D01*
X3525000Y-22500000D01*
X3515198Y-22499518D01*
X3505491Y-22498079D01*
X3495972Y-22495694D01*
X3486732Y-22492388D01*
X3477860Y-22488192D01*
X3469443Y-22483147D01*
X3461561Y-22477301D01*
X3454289Y-22470711D01*
X3447699Y-22463439D01*
X3441853Y-22455557D01*
X3436808Y-22447140D01*
X3432612Y-22438268D01*
X3429306Y-22429028D01*
X3426921Y-22419509D01*
X3425482Y-22409802D01*
X3425000Y-22400000D01*
X3425000Y-22200000D01*
X3425482Y-22190198D01*
X3426921Y-22180491D01*
X3429306Y-22170972D01*
X3432612Y-22161732D01*
X3436808Y-22152860D01*
X3441853Y-22144443D01*
X3447699Y-22136561D01*
X3454289Y-22129289D01*
X3461561Y-22122699D01*
X3469443Y-22116853D01*
X3477860Y-22111808D01*
X3486732Y-22107612D01*
X3495972Y-22104306D01*
X3505491Y-22101921D01*
X3515198Y-22100482D01*
X3525000Y-22100000D01*
X4825000Y-22100000D01*
X4834802Y-22100482D01*
G37*
G36*
X2909802Y-22925482D02*
G01*
X2919509Y-22926921D01*
X2929028Y-22929306D01*
X2938268Y-22932612D01*
X2947140Y-22936808D01*
X2955557Y-22941853D01*
X2963439Y-22947699D01*
X2970711Y-22954289D01*
X2977301Y-22961561D01*
X2983147Y-22969443D01*
X2988192Y-22977860D01*
X2992388Y-22986732D01*
X2995694Y-22995972D01*
X2998079Y-23005491D01*
X2999518Y-23015198D01*
X3000000Y-23025000D01*
X3000000Y-24325000D01*
X2999518Y-24334802D01*
X2998079Y-24344509D01*
X2995694Y-24354028D01*
X2992388Y-24363268D01*
X2988192Y-24372140D01*
X2983147Y-24380557D01*
X2977301Y-24388439D01*
X2970711Y-24395711D01*
X2963439Y-24402301D01*
X2955557Y-24408147D01*
X2947140Y-24413192D01*
X2938268Y-24417388D01*
X2929028Y-24420694D01*
X2919509Y-24423079D01*
X2909802Y-24424518D01*
X2900000Y-24425000D01*
X2700000Y-24425000D01*
X2690198Y-24424518D01*
X2680491Y-24423079D01*
X2670972Y-24420694D01*
X2661732Y-24417388D01*
X2652860Y-24413192D01*
X2644443Y-24408147D01*
X2636561Y-24402301D01*
X2629289Y-24395711D01*
X2622699Y-24388439D01*
X2616853Y-24380557D01*
X2611808Y-24372140D01*
X2607612Y-24363268D01*
X2604306Y-24354028D01*
X2601921Y-24344509D01*
X2600482Y-24334802D01*
X2600000Y-24325000D01*
X2600000Y-23025000D01*
X2600482Y-23015198D01*
X2601921Y-23005491D01*
X2604306Y-22995972D01*
X2607612Y-22986732D01*
X2611808Y-22977860D01*
X2616853Y-22969443D01*
X2622699Y-22961561D01*
X2629289Y-22954289D01*
X2636561Y-22947699D01*
X2644443Y-22941853D01*
X2652860Y-22936808D01*
X2661732Y-22932612D01*
X2670972Y-22929306D01*
X2680491Y-22926921D01*
X2690198Y-22925482D01*
X2700000Y-22925000D01*
X2900000Y-22925000D01*
X2909802Y-22925482D01*
G37*
G36*
X2109802Y-22925482D02*
G01*
X2119509Y-22926921D01*
X2129028Y-22929306D01*
X2138268Y-22932612D01*
X2147140Y-22936808D01*
X2155557Y-22941853D01*
X2163439Y-22947699D01*
X2170711Y-22954289D01*
X2177301Y-22961561D01*
X2183147Y-22969443D01*
X2188192Y-22977860D01*
X2192388Y-22986732D01*
X2195694Y-22995972D01*
X2198079Y-23005491D01*
X2199518Y-23015198D01*
X2200000Y-23025000D01*
X2200000Y-24325000D01*
X2199518Y-24334802D01*
X2198079Y-24344509D01*
X2195694Y-24354028D01*
X2192388Y-24363268D01*
X2188192Y-24372140D01*
X2183147Y-24380557D01*
X2177301Y-24388439D01*
X2170711Y-24395711D01*
X2163439Y-24402301D01*
X2155557Y-24408147D01*
X2147140Y-24413192D01*
X2138268Y-24417388D01*
X2129028Y-24420694D01*
X2119509Y-24423079D01*
X2109802Y-24424518D01*
X2100000Y-24425000D01*
X1900000Y-24425000D01*
X1890198Y-24424518D01*
X1880491Y-24423079D01*
X1870972Y-24420694D01*
X1861732Y-24417388D01*
X1852860Y-24413192D01*
X1844443Y-24408147D01*
X1836561Y-24402301D01*
X1829289Y-24395711D01*
X1822699Y-24388439D01*
X1816853Y-24380557D01*
X1811808Y-24372140D01*
X1807612Y-24363268D01*
X1804306Y-24354028D01*
X1801921Y-24344509D01*
X1800482Y-24334802D01*
X1800000Y-24325000D01*
X1800000Y-23025000D01*
X1800482Y-23015198D01*
X1801921Y-23005491D01*
X1804306Y-22995972D01*
X1807612Y-22986732D01*
X1811808Y-22977860D01*
X1816853Y-22969443D01*
X1822699Y-22961561D01*
X1829289Y-22954289D01*
X1836561Y-22947699D01*
X1844443Y-22941853D01*
X1852860Y-22936808D01*
X1861732Y-22932612D01*
X1870972Y-22929306D01*
X1880491Y-22926921D01*
X1890198Y-22925482D01*
X1900000Y-22925000D01*
X2100000Y-22925000D01*
X2109802Y-22925482D01*
G37*
G36*
X1309802Y-22925482D02*
G01*
X1319509Y-22926921D01*
X1329028Y-22929306D01*
X1338268Y-22932612D01*
X1347140Y-22936808D01*
X1355557Y-22941853D01*
X1363439Y-22947699D01*
X1370711Y-22954289D01*
X1377301Y-22961561D01*
X1383147Y-22969443D01*
X1388192Y-22977860D01*
X1392388Y-22986732D01*
X1395694Y-22995972D01*
X1398079Y-23005491D01*
X1399518Y-23015198D01*
X1400000Y-23025000D01*
X1400000Y-24325000D01*
X1399518Y-24334802D01*
X1398079Y-24344509D01*
X1395694Y-24354028D01*
X1392388Y-24363268D01*
X1388192Y-24372140D01*
X1383147Y-24380557D01*
X1377301Y-24388439D01*
X1370711Y-24395711D01*
X1363439Y-24402301D01*
X1355557Y-24408147D01*
X1347140Y-24413192D01*
X1338268Y-24417388D01*
X1329028Y-24420694D01*
X1319509Y-24423079D01*
X1309802Y-24424518D01*
X1300000Y-24425000D01*
X1100000Y-24425000D01*
X1090198Y-24424518D01*
X1080491Y-24423079D01*
X1070972Y-24420694D01*
X1061732Y-24417388D01*
X1052860Y-24413192D01*
X1044443Y-24408147D01*
X1036561Y-24402301D01*
X1029289Y-24395711D01*
X1022699Y-24388439D01*
X1016853Y-24380557D01*
X1011808Y-24372140D01*
X1007612Y-24363268D01*
X1004306Y-24354028D01*
X1001921Y-24344509D01*
X1000482Y-24334802D01*
X1000000Y-24325000D01*
X1000000Y-23025000D01*
X1000482Y-23015198D01*
X1001921Y-23005491D01*
X1004306Y-22995972D01*
X1007612Y-22986732D01*
X1011808Y-22977860D01*
X1016853Y-22969443D01*
X1022699Y-22961561D01*
X1029289Y-22954289D01*
X1036561Y-22947699D01*
X1044443Y-22941853D01*
X1052860Y-22936808D01*
X1061732Y-22932612D01*
X1070972Y-22929306D01*
X1080491Y-22926921D01*
X1090198Y-22925482D01*
X1100000Y-22925000D01*
X1300000Y-22925000D01*
X1309802Y-22925482D01*
G37*
G36*
X509802Y-22925482D02*
G01*
X519509Y-22926921D01*
X529028Y-22929306D01*
X538268Y-22932612D01*
X547140Y-22936808D01*
X555557Y-22941853D01*
X563439Y-22947699D01*
X570711Y-22954289D01*
X577301Y-22961561D01*
X583147Y-22969443D01*
X588192Y-22977860D01*
X592388Y-22986732D01*
X595694Y-22995972D01*
X598079Y-23005491D01*
X599518Y-23015198D01*
X600000Y-23025000D01*
X600000Y-24325000D01*
X599518Y-24334802D01*
X598079Y-24344509D01*
X595694Y-24354028D01*
X592388Y-24363268D01*
X588192Y-24372140D01*
X583147Y-24380557D01*
X577301Y-24388439D01*
X570711Y-24395711D01*
X563439Y-24402301D01*
X555557Y-24408147D01*
X547140Y-24413192D01*
X538268Y-24417388D01*
X529028Y-24420694D01*
X519509Y-24423079D01*
X509802Y-24424518D01*
X500000Y-24425000D01*
X300000Y-24425000D01*
X290198Y-24424518D01*
X280491Y-24423079D01*
X270972Y-24420694D01*
X261732Y-24417388D01*
X252860Y-24413192D01*
X244443Y-24408147D01*
X236561Y-24402301D01*
X229289Y-24395711D01*
X222699Y-24388439D01*
X216853Y-24380557D01*
X211808Y-24372140D01*
X207612Y-24363268D01*
X204306Y-24354028D01*
X201921Y-24344509D01*
X200482Y-24334802D01*
X200000Y-24325000D01*
X200000Y-23025000D01*
X200482Y-23015198D01*
X201921Y-23005491D01*
X204306Y-22995972D01*
X207612Y-22986732D01*
X211808Y-22977860D01*
X216853Y-22969443D01*
X222699Y-22961561D01*
X229289Y-22954289D01*
X236561Y-22947699D01*
X244443Y-22941853D01*
X252860Y-22936808D01*
X261732Y-22932612D01*
X270972Y-22929306D01*
X280491Y-22926921D01*
X290198Y-22925482D01*
X300000Y-22925000D01*
X500000Y-22925000D01*
X509802Y-22925482D01*
G37*
G36*
X-290198Y-22925482D02*
G01*
X-280491Y-22926921D01*
X-270972Y-22929306D01*
X-261732Y-22932612D01*
X-252860Y-22936808D01*
X-244443Y-22941853D01*
X-236561Y-22947699D01*
X-229289Y-22954289D01*
X-222699Y-22961561D01*
X-216853Y-22969443D01*
X-211808Y-22977860D01*
X-207612Y-22986732D01*
X-204306Y-22995972D01*
X-201921Y-23005491D01*
X-200482Y-23015198D01*
X-200000Y-23025000D01*
X-200000Y-24325000D01*
X-200482Y-24334802D01*
X-201921Y-24344509D01*
X-204306Y-24354028D01*
X-207612Y-24363268D01*
X-211808Y-24372140D01*
X-216853Y-24380557D01*
X-222699Y-24388439D01*
X-229289Y-24395711D01*
X-236561Y-24402301D01*
X-244443Y-24408147D01*
X-252860Y-24413192D01*
X-261732Y-24417388D01*
X-270972Y-24420694D01*
X-280491Y-24423079D01*
X-290198Y-24424518D01*
X-300000Y-24425000D01*
X-500000Y-24425000D01*
X-509802Y-24424518D01*
X-519509Y-24423079D01*
X-529028Y-24420694D01*
X-538268Y-24417388D01*
X-547140Y-24413192D01*
X-555557Y-24408147D01*
X-563439Y-24402301D01*
X-570711Y-24395711D01*
X-577301Y-24388439D01*
X-583147Y-24380557D01*
X-588192Y-24372140D01*
X-592388Y-24363268D01*
X-595694Y-24354028D01*
X-598079Y-24344509D01*
X-599518Y-24334802D01*
X-600000Y-24325000D01*
X-600000Y-23025000D01*
X-599518Y-23015198D01*
X-598079Y-23005491D01*
X-595694Y-22995972D01*
X-592388Y-22986732D01*
X-588192Y-22977860D01*
X-583147Y-22969443D01*
X-577301Y-22961561D01*
X-570711Y-22954289D01*
X-563439Y-22947699D01*
X-555557Y-22941853D01*
X-547140Y-22936808D01*
X-538268Y-22932612D01*
X-529028Y-22929306D01*
X-519509Y-22926921D01*
X-509802Y-22925482D01*
X-500000Y-22925000D01*
X-300000Y-22925000D01*
X-290198Y-22925482D01*
G37*
G36*
X-1090198Y-22925482D02*
G01*
X-1080491Y-22926921D01*
X-1070972Y-22929306D01*
X-1061732Y-22932612D01*
X-1052860Y-22936808D01*
X-1044443Y-22941853D01*
X-1036561Y-22947699D01*
X-1029289Y-22954289D01*
X-1022699Y-22961561D01*
X-1016853Y-22969443D01*
X-1011808Y-22977860D01*
X-1007612Y-22986732D01*
X-1004306Y-22995972D01*
X-1001921Y-23005491D01*
X-1000482Y-23015198D01*
X-1000000Y-23025000D01*
X-1000000Y-24325000D01*
X-1000482Y-24334802D01*
X-1001921Y-24344509D01*
X-1004306Y-24354028D01*
X-1007612Y-24363268D01*
X-1011808Y-24372140D01*
X-1016853Y-24380557D01*
X-1022699Y-24388439D01*
X-1029289Y-24395711D01*
X-1036561Y-24402301D01*
X-1044443Y-24408147D01*
X-1052860Y-24413192D01*
X-1061732Y-24417388D01*
X-1070972Y-24420694D01*
X-1080491Y-24423079D01*
X-1090198Y-24424518D01*
X-1100000Y-24425000D01*
X-1300000Y-24425000D01*
X-1309802Y-24424518D01*
X-1319509Y-24423079D01*
X-1329028Y-24420694D01*
X-1338268Y-24417388D01*
X-1347140Y-24413192D01*
X-1355557Y-24408147D01*
X-1363439Y-24402301D01*
X-1370711Y-24395711D01*
X-1377301Y-24388439D01*
X-1383147Y-24380557D01*
X-1388192Y-24372140D01*
X-1392388Y-24363268D01*
X-1395694Y-24354028D01*
X-1398079Y-24344509D01*
X-1399518Y-24334802D01*
X-1400000Y-24325000D01*
X-1400000Y-23025000D01*
X-1399518Y-23015198D01*
X-1398079Y-23005491D01*
X-1395694Y-22995972D01*
X-1392388Y-22986732D01*
X-1388192Y-22977860D01*
X-1383147Y-22969443D01*
X-1377301Y-22961561D01*
X-1370711Y-22954289D01*
X-1363439Y-22947699D01*
X-1355557Y-22941853D01*
X-1347140Y-22936808D01*
X-1338268Y-22932612D01*
X-1329028Y-22929306D01*
X-1319509Y-22926921D01*
X-1309802Y-22925482D01*
X-1300000Y-22925000D01*
X-1100000Y-22925000D01*
X-1090198Y-22925482D01*
G37*
G36*
X-1890198Y-22925482D02*
G01*
X-1880491Y-22926921D01*
X-1870972Y-22929306D01*
X-1861732Y-22932612D01*
X-1852860Y-22936808D01*
X-1844443Y-22941853D01*
X-1836561Y-22947699D01*
X-1829289Y-22954289D01*
X-1822699Y-22961561D01*
X-1816853Y-22969443D01*
X-1811808Y-22977860D01*
X-1807612Y-22986732D01*
X-1804306Y-22995972D01*
X-1801921Y-23005491D01*
X-1800482Y-23015198D01*
X-1800000Y-23025000D01*
X-1800000Y-24325000D01*
X-1800482Y-24334802D01*
X-1801921Y-24344509D01*
X-1804306Y-24354028D01*
X-1807612Y-24363268D01*
X-1811808Y-24372140D01*
X-1816853Y-24380557D01*
X-1822699Y-24388439D01*
X-1829289Y-24395711D01*
X-1836561Y-24402301D01*
X-1844443Y-24408147D01*
X-1852860Y-24413192D01*
X-1861732Y-24417388D01*
X-1870972Y-24420694D01*
X-1880491Y-24423079D01*
X-1890198Y-24424518D01*
X-1900000Y-24425000D01*
X-2100000Y-24425000D01*
X-2109802Y-24424518D01*
X-2119509Y-24423079D01*
X-2129028Y-24420694D01*
X-2138268Y-24417388D01*
X-2147140Y-24413192D01*
X-2155557Y-24408147D01*
X-2163439Y-24402301D01*
X-2170711Y-24395711D01*
X-2177301Y-24388439D01*
X-2183147Y-24380557D01*
X-2188192Y-24372140D01*
X-2192388Y-24363268D01*
X-2195694Y-24354028D01*
X-2198079Y-24344509D01*
X-2199518Y-24334802D01*
X-2200000Y-24325000D01*
X-2200000Y-23025000D01*
X-2199518Y-23015198D01*
X-2198079Y-23005491D01*
X-2195694Y-22995972D01*
X-2192388Y-22986732D01*
X-2188192Y-22977860D01*
X-2183147Y-22969443D01*
X-2177301Y-22961561D01*
X-2170711Y-22954289D01*
X-2163439Y-22947699D01*
X-2155557Y-22941853D01*
X-2147140Y-22936808D01*
X-2138268Y-22932612D01*
X-2129028Y-22929306D01*
X-2119509Y-22926921D01*
X-2109802Y-22925482D01*
X-2100000Y-22925000D01*
X-1900000Y-22925000D01*
X-1890198Y-22925482D01*
G37*
G36*
X-2690198Y-22925482D02*
G01*
X-2680491Y-22926921D01*
X-2670972Y-22929306D01*
X-2661732Y-22932612D01*
X-2652860Y-22936808D01*
X-2644443Y-22941853D01*
X-2636561Y-22947699D01*
X-2629289Y-22954289D01*
X-2622699Y-22961561D01*
X-2616853Y-22969443D01*
X-2611808Y-22977860D01*
X-2607612Y-22986732D01*
X-2604306Y-22995972D01*
X-2601921Y-23005491D01*
X-2600482Y-23015198D01*
X-2600000Y-23025000D01*
X-2600000Y-24325000D01*
X-2600482Y-24334802D01*
X-2601921Y-24344509D01*
X-2604306Y-24354028D01*
X-2607612Y-24363268D01*
X-2611808Y-24372140D01*
X-2616853Y-24380557D01*
X-2622699Y-24388439D01*
X-2629289Y-24395711D01*
X-2636561Y-24402301D01*
X-2644443Y-24408147D01*
X-2652860Y-24413192D01*
X-2661732Y-24417388D01*
X-2670972Y-24420694D01*
X-2680491Y-24423079D01*
X-2690198Y-24424518D01*
X-2700000Y-24425000D01*
X-2900000Y-24425000D01*
X-2909802Y-24424518D01*
X-2919509Y-24423079D01*
X-2929028Y-24420694D01*
X-2938268Y-24417388D01*
X-2947140Y-24413192D01*
X-2955557Y-24408147D01*
X-2963439Y-24402301D01*
X-2970711Y-24395711D01*
X-2977301Y-24388439D01*
X-2983147Y-24380557D01*
X-2988192Y-24372140D01*
X-2992388Y-24363268D01*
X-2995694Y-24354028D01*
X-2998079Y-24344509D01*
X-2999518Y-24334802D01*
X-3000000Y-24325000D01*
X-3000000Y-23025000D01*
X-2999518Y-23015198D01*
X-2998079Y-23005491D01*
X-2995694Y-22995972D01*
X-2992388Y-22986732D01*
X-2988192Y-22977860D01*
X-2983147Y-22969443D01*
X-2977301Y-22961561D01*
X-2970711Y-22954289D01*
X-2963439Y-22947699D01*
X-2955557Y-22941853D01*
X-2947140Y-22936808D01*
X-2938268Y-22932612D01*
X-2929028Y-22929306D01*
X-2919509Y-22926921D01*
X-2909802Y-22925482D01*
X-2900000Y-22925000D01*
X-2700000Y-22925000D01*
X-2690198Y-22925482D01*
G37*
G36*
X-3515198Y-22100482D02*
G01*
X-3505491Y-22101921D01*
X-3495972Y-22104306D01*
X-3486732Y-22107612D01*
X-3477860Y-22111808D01*
X-3469443Y-22116853D01*
X-3461561Y-22122699D01*
X-3454289Y-22129289D01*
X-3447699Y-22136561D01*
X-3441853Y-22144443D01*
X-3436808Y-22152860D01*
X-3432612Y-22161732D01*
X-3429306Y-22170972D01*
X-3426921Y-22180491D01*
X-3425482Y-22190198D01*
X-3425000Y-22200000D01*
X-3425000Y-22400000D01*
X-3425482Y-22409802D01*
X-3426921Y-22419509D01*
X-3429306Y-22429028D01*
X-3432612Y-22438268D01*
X-3436808Y-22447140D01*
X-3441853Y-22455557D01*
X-3447699Y-22463439D01*
X-3454289Y-22470711D01*
X-3461561Y-22477301D01*
X-3469443Y-22483147D01*
X-3477860Y-22488192D01*
X-3486732Y-22492388D01*
X-3495972Y-22495694D01*
X-3505491Y-22498079D01*
X-3515198Y-22499518D01*
X-3525000Y-22500000D01*
X-4825000Y-22500000D01*
X-4834802Y-22499518D01*
X-4844509Y-22498079D01*
X-4854028Y-22495694D01*
X-4863268Y-22492388D01*
X-4872140Y-22488192D01*
X-4880557Y-22483147D01*
X-4888439Y-22477301D01*
X-4895711Y-22470711D01*
X-4902301Y-22463439D01*
X-4908147Y-22455557D01*
X-4913192Y-22447140D01*
X-4917388Y-22438268D01*
X-4920694Y-22429028D01*
X-4923079Y-22419509D01*
X-4924518Y-22409802D01*
X-4925000Y-22400000D01*
X-4925000Y-22200000D01*
X-4924518Y-22190198D01*
X-4923079Y-22180491D01*
X-4920694Y-22170972D01*
X-4917388Y-22161732D01*
X-4913192Y-22152860D01*
X-4908147Y-22144443D01*
X-4902301Y-22136561D01*
X-4895711Y-22129289D01*
X-4888439Y-22122699D01*
X-4880557Y-22116853D01*
X-4872140Y-22111808D01*
X-4863268Y-22107612D01*
X-4854028Y-22104306D01*
X-4844509Y-22101921D01*
X-4834802Y-22100482D01*
X-4825000Y-22100000D01*
X-3525000Y-22100000D01*
X-3515198Y-22100482D01*
G37*
G36*
X-3515198Y-21300482D02*
G01*
X-3505491Y-21301921D01*
X-3495972Y-21304306D01*
X-3486732Y-21307612D01*
X-3477860Y-21311808D01*
X-3469443Y-21316853D01*
X-3461561Y-21322699D01*
X-3454289Y-21329289D01*
X-3447699Y-21336561D01*
X-3441853Y-21344443D01*
X-3436808Y-21352860D01*
X-3432612Y-21361732D01*
X-3429306Y-21370972D01*
X-3426921Y-21380491D01*
X-3425482Y-21390198D01*
X-3425000Y-21400000D01*
X-3425000Y-21600000D01*
X-3425482Y-21609802D01*
X-3426921Y-21619509D01*
X-3429306Y-21629028D01*
X-3432612Y-21638268D01*
X-3436808Y-21647140D01*
X-3441853Y-21655557D01*
X-3447699Y-21663439D01*
X-3454289Y-21670711D01*
X-3461561Y-21677301D01*
X-3469443Y-21683147D01*
X-3477860Y-21688192D01*
X-3486732Y-21692388D01*
X-3495972Y-21695694D01*
X-3505491Y-21698079D01*
X-3515198Y-21699518D01*
X-3525000Y-21700000D01*
X-4825000Y-21700000D01*
X-4834802Y-21699518D01*
X-4844509Y-21698079D01*
X-4854028Y-21695694D01*
X-4863268Y-21692388D01*
X-4872140Y-21688192D01*
X-4880557Y-21683147D01*
X-4888439Y-21677301D01*
X-4895711Y-21670711D01*
X-4902301Y-21663439D01*
X-4908147Y-21655557D01*
X-4913192Y-21647140D01*
X-4917388Y-21638268D01*
X-4920694Y-21629028D01*
X-4923079Y-21619509D01*
X-4924518Y-21609802D01*
X-4925000Y-21600000D01*
X-4925000Y-21400000D01*
X-4924518Y-21390198D01*
X-4923079Y-21380491D01*
X-4920694Y-21370972D01*
X-4917388Y-21361732D01*
X-4913192Y-21352860D01*
X-4908147Y-21344443D01*
X-4902301Y-21336561D01*
X-4895711Y-21329289D01*
X-4888439Y-21322699D01*
X-4880557Y-21316853D01*
X-4872140Y-21311808D01*
X-4863268Y-21307612D01*
X-4854028Y-21304306D01*
X-4844509Y-21301921D01*
X-4834802Y-21300482D01*
X-4825000Y-21300000D01*
X-3525000Y-21300000D01*
X-3515198Y-21300482D01*
G37*
G36*
X-3515198Y-20500482D02*
G01*
X-3505491Y-20501921D01*
X-3495972Y-20504306D01*
X-3486732Y-20507612D01*
X-3477860Y-20511808D01*
X-3469443Y-20516853D01*
X-3461561Y-20522699D01*
X-3454289Y-20529289D01*
X-3447699Y-20536561D01*
X-3441853Y-20544443D01*
X-3436808Y-20552860D01*
X-3432612Y-20561732D01*
X-3429306Y-20570972D01*
X-3426921Y-20580491D01*
X-3425482Y-20590198D01*
X-3425000Y-20600000D01*
X-3425000Y-20800000D01*
X-3425482Y-20809802D01*
X-3426921Y-20819509D01*
X-3429306Y-20829028D01*
X-3432612Y-20838268D01*
X-3436808Y-20847140D01*
X-3441853Y-20855557D01*
X-3447699Y-20863439D01*
X-3454289Y-20870711D01*
X-3461561Y-20877301D01*
X-3469443Y-20883147D01*
X-3477860Y-20888192D01*
X-3486732Y-20892388D01*
X-3495972Y-20895694D01*
X-3505491Y-20898079D01*
X-3515198Y-20899518D01*
X-3525000Y-20900000D01*
X-4825000Y-20900000D01*
X-4834802Y-20899518D01*
X-4844509Y-20898079D01*
X-4854028Y-20895694D01*
X-4863268Y-20892388D01*
X-4872140Y-20888192D01*
X-4880557Y-20883147D01*
X-4888439Y-20877301D01*
X-4895711Y-20870711D01*
X-4902301Y-20863439D01*
X-4908147Y-20855557D01*
X-4913192Y-20847140D01*
X-4917388Y-20838268D01*
X-4920694Y-20829028D01*
X-4923079Y-20819509D01*
X-4924518Y-20809802D01*
X-4925000Y-20800000D01*
X-4925000Y-20600000D01*
X-4924518Y-20590198D01*
X-4923079Y-20580491D01*
X-4920694Y-20570972D01*
X-4917388Y-20561732D01*
X-4913192Y-20552860D01*
X-4908147Y-20544443D01*
X-4902301Y-20536561D01*
X-4895711Y-20529289D01*
X-4888439Y-20522699D01*
X-4880557Y-20516853D01*
X-4872140Y-20511808D01*
X-4863268Y-20507612D01*
X-4854028Y-20504306D01*
X-4844509Y-20501921D01*
X-4834802Y-20500482D01*
X-4825000Y-20500000D01*
X-3525000Y-20500000D01*
X-3515198Y-20500482D01*
G37*
G36*
X-3515198Y-19700482D02*
G01*
X-3505491Y-19701921D01*
X-3495972Y-19704306D01*
X-3486732Y-19707612D01*
X-3477860Y-19711808D01*
X-3469443Y-19716853D01*
X-3461561Y-19722699D01*
X-3454289Y-19729289D01*
X-3447699Y-19736561D01*
X-3441853Y-19744443D01*
X-3436808Y-19752860D01*
X-3432612Y-19761732D01*
X-3429306Y-19770972D01*
X-3426921Y-19780491D01*
X-3425482Y-19790198D01*
X-3425000Y-19800000D01*
X-3425000Y-20000000D01*
X-3425482Y-20009802D01*
X-3426921Y-20019509D01*
X-3429306Y-20029028D01*
X-3432612Y-20038268D01*
X-3436808Y-20047140D01*
X-3441853Y-20055557D01*
X-3447699Y-20063439D01*
X-3454289Y-20070711D01*
X-3461561Y-20077301D01*
X-3469443Y-20083147D01*
X-3477860Y-20088192D01*
X-3486732Y-20092388D01*
X-3495972Y-20095694D01*
X-3505491Y-20098079D01*
X-3515198Y-20099518D01*
X-3525000Y-20100000D01*
X-4825000Y-20100000D01*
X-4834802Y-20099518D01*
X-4844509Y-20098079D01*
X-4854028Y-20095694D01*
X-4863268Y-20092388D01*
X-4872140Y-20088192D01*
X-4880557Y-20083147D01*
X-4888439Y-20077301D01*
X-4895711Y-20070711D01*
X-4902301Y-20063439D01*
X-4908147Y-20055557D01*
X-4913192Y-20047140D01*
X-4917388Y-20038268D01*
X-4920694Y-20029028D01*
X-4923079Y-20019509D01*
X-4924518Y-20009802D01*
X-4925000Y-20000000D01*
X-4925000Y-19800000D01*
X-4924518Y-19790198D01*
X-4923079Y-19780491D01*
X-4920694Y-19770972D01*
X-4917388Y-19761732D01*
X-4913192Y-19752860D01*
X-4908147Y-19744443D01*
X-4902301Y-19736561D01*
X-4895711Y-19729289D01*
X-4888439Y-19722699D01*
X-4880557Y-19716853D01*
X-4872140Y-19711808D01*
X-4863268Y-19707612D01*
X-4854028Y-19704306D01*
X-4844509Y-19701921D01*
X-4834802Y-19700482D01*
X-4825000Y-19700000D01*
X-3525000Y-19700000D01*
X-3515198Y-19700482D01*
G37*
G36*
X-3515198Y-18900482D02*
G01*
X-3505491Y-18901921D01*
X-3495972Y-18904306D01*
X-3486732Y-18907612D01*
X-3477860Y-18911808D01*
X-3469443Y-18916853D01*
X-3461561Y-18922699D01*
X-3454289Y-18929289D01*
X-3447699Y-18936561D01*
X-3441853Y-18944443D01*
X-3436808Y-18952860D01*
X-3432612Y-18961732D01*
X-3429306Y-18970972D01*
X-3426921Y-18980491D01*
X-3425482Y-18990198D01*
X-3425000Y-19000000D01*
X-3425000Y-19200000D01*
X-3425482Y-19209802D01*
X-3426921Y-19219509D01*
X-3429306Y-19229028D01*
X-3432612Y-19238268D01*
X-3436808Y-19247140D01*
X-3441853Y-19255557D01*
X-3447699Y-19263439D01*
X-3454289Y-19270711D01*
X-3461561Y-19277301D01*
X-3469443Y-19283147D01*
X-3477860Y-19288192D01*
X-3486732Y-19292388D01*
X-3495972Y-19295694D01*
X-3505491Y-19298079D01*
X-3515198Y-19299518D01*
X-3525000Y-19300000D01*
X-4825000Y-19300000D01*
X-4834802Y-19299518D01*
X-4844509Y-19298079D01*
X-4854028Y-19295694D01*
X-4863268Y-19292388D01*
X-4872140Y-19288192D01*
X-4880557Y-19283147D01*
X-4888439Y-19277301D01*
X-4895711Y-19270711D01*
X-4902301Y-19263439D01*
X-4908147Y-19255557D01*
X-4913192Y-19247140D01*
X-4917388Y-19238268D01*
X-4920694Y-19229028D01*
X-4923079Y-19219509D01*
X-4924518Y-19209802D01*
X-4925000Y-19200000D01*
X-4925000Y-19000000D01*
X-4924518Y-18990198D01*
X-4923079Y-18980491D01*
X-4920694Y-18970972D01*
X-4917388Y-18961732D01*
X-4913192Y-18952860D01*
X-4908147Y-18944443D01*
X-4902301Y-18936561D01*
X-4895711Y-18929289D01*
X-4888439Y-18922699D01*
X-4880557Y-18916853D01*
X-4872140Y-18911808D01*
X-4863268Y-18907612D01*
X-4854028Y-18904306D01*
X-4844509Y-18901921D01*
X-4834802Y-18900482D01*
X-4825000Y-18900000D01*
X-3525000Y-18900000D01*
X-3515198Y-18900482D01*
G37*
G36*
X-3515198Y-18100482D02*
G01*
X-3505491Y-18101921D01*
X-3495972Y-18104306D01*
X-3486732Y-18107612D01*
X-3477860Y-18111808D01*
X-3469443Y-18116853D01*
X-3461561Y-18122699D01*
X-3454289Y-18129289D01*
X-3447699Y-18136561D01*
X-3441853Y-18144443D01*
X-3436808Y-18152860D01*
X-3432612Y-18161732D01*
X-3429306Y-18170972D01*
X-3426921Y-18180491D01*
X-3425482Y-18190198D01*
X-3425000Y-18200000D01*
X-3425000Y-18400000D01*
X-3425482Y-18409802D01*
X-3426921Y-18419509D01*
X-3429306Y-18429028D01*
X-3432612Y-18438268D01*
X-3436808Y-18447140D01*
X-3441853Y-18455557D01*
X-3447699Y-18463439D01*
X-3454289Y-18470711D01*
X-3461561Y-18477301D01*
X-3469443Y-18483147D01*
X-3477860Y-18488192D01*
X-3486732Y-18492388D01*
X-3495972Y-18495694D01*
X-3505491Y-18498079D01*
X-3515198Y-18499518D01*
X-3525000Y-18500000D01*
X-4825000Y-18500000D01*
X-4834802Y-18499518D01*
X-4844509Y-18498079D01*
X-4854028Y-18495694D01*
X-4863268Y-18492388D01*
X-4872140Y-18488192D01*
X-4880557Y-18483147D01*
X-4888439Y-18477301D01*
X-4895711Y-18470711D01*
X-4902301Y-18463439D01*
X-4908147Y-18455557D01*
X-4913192Y-18447140D01*
X-4917388Y-18438268D01*
X-4920694Y-18429028D01*
X-4923079Y-18419509D01*
X-4924518Y-18409802D01*
X-4925000Y-18400000D01*
X-4925000Y-18200000D01*
X-4924518Y-18190198D01*
X-4923079Y-18180491D01*
X-4920694Y-18170972D01*
X-4917388Y-18161732D01*
X-4913192Y-18152860D01*
X-4908147Y-18144443D01*
X-4902301Y-18136561D01*
X-4895711Y-18129289D01*
X-4888439Y-18122699D01*
X-4880557Y-18116853D01*
X-4872140Y-18111808D01*
X-4863268Y-18107612D01*
X-4854028Y-18104306D01*
X-4844509Y-18101921D01*
X-4834802Y-18100482D01*
X-4825000Y-18100000D01*
X-3525000Y-18100000D01*
X-3515198Y-18100482D01*
G37*
G36*
X-3515198Y-17300482D02*
G01*
X-3505491Y-17301921D01*
X-3495972Y-17304306D01*
X-3486732Y-17307612D01*
X-3477860Y-17311808D01*
X-3469443Y-17316853D01*
X-3461561Y-17322699D01*
X-3454289Y-17329289D01*
X-3447699Y-17336561D01*
X-3441853Y-17344443D01*
X-3436808Y-17352860D01*
X-3432612Y-17361732D01*
X-3429306Y-17370972D01*
X-3426921Y-17380491D01*
X-3425482Y-17390198D01*
X-3425000Y-17400000D01*
X-3425000Y-17600000D01*
X-3425482Y-17609802D01*
X-3426921Y-17619509D01*
X-3429306Y-17629028D01*
X-3432612Y-17638268D01*
X-3436808Y-17647140D01*
X-3441853Y-17655557D01*
X-3447699Y-17663439D01*
X-3454289Y-17670711D01*
X-3461561Y-17677301D01*
X-3469443Y-17683147D01*
X-3477860Y-17688192D01*
X-3486732Y-17692388D01*
X-3495972Y-17695694D01*
X-3505491Y-17698079D01*
X-3515198Y-17699518D01*
X-3525000Y-17700000D01*
X-4825000Y-17700000D01*
X-4834802Y-17699518D01*
X-4844509Y-17698079D01*
X-4854028Y-17695694D01*
X-4863268Y-17692388D01*
X-4872140Y-17688192D01*
X-4880557Y-17683147D01*
X-4888439Y-17677301D01*
X-4895711Y-17670711D01*
X-4902301Y-17663439D01*
X-4908147Y-17655557D01*
X-4913192Y-17647140D01*
X-4917388Y-17638268D01*
X-4920694Y-17629028D01*
X-4923079Y-17619509D01*
X-4924518Y-17609802D01*
X-4925000Y-17600000D01*
X-4925000Y-17400000D01*
X-4924518Y-17390198D01*
X-4923079Y-17380491D01*
X-4920694Y-17370972D01*
X-4917388Y-17361732D01*
X-4913192Y-17352860D01*
X-4908147Y-17344443D01*
X-4902301Y-17336561D01*
X-4895711Y-17329289D01*
X-4888439Y-17322699D01*
X-4880557Y-17316853D01*
X-4872140Y-17311808D01*
X-4863268Y-17307612D01*
X-4854028Y-17304306D01*
X-4844509Y-17301921D01*
X-4834802Y-17300482D01*
X-4825000Y-17300000D01*
X-3525000Y-17300000D01*
X-3515198Y-17300482D01*
G37*
G36*
X-3515198Y-16500482D02*
G01*
X-3505491Y-16501921D01*
X-3495972Y-16504306D01*
X-3486732Y-16507612D01*
X-3477860Y-16511808D01*
X-3469443Y-16516853D01*
X-3461561Y-16522699D01*
X-3454289Y-16529289D01*
X-3447699Y-16536561D01*
X-3441853Y-16544443D01*
X-3436808Y-16552860D01*
X-3432612Y-16561732D01*
X-3429306Y-16570972D01*
X-3426921Y-16580491D01*
X-3425482Y-16590198D01*
X-3425000Y-16600000D01*
X-3425000Y-16800000D01*
X-3425482Y-16809802D01*
X-3426921Y-16819509D01*
X-3429306Y-16829028D01*
X-3432612Y-16838268D01*
X-3436808Y-16847140D01*
X-3441853Y-16855557D01*
X-3447699Y-16863439D01*
X-3454289Y-16870711D01*
X-3461561Y-16877301D01*
X-3469443Y-16883147D01*
X-3477860Y-16888192D01*
X-3486732Y-16892388D01*
X-3495972Y-16895694D01*
X-3505491Y-16898079D01*
X-3515198Y-16899518D01*
X-3525000Y-16900000D01*
X-4825000Y-16900000D01*
X-4834802Y-16899518D01*
X-4844509Y-16898079D01*
X-4854028Y-16895694D01*
X-4863268Y-16892388D01*
X-4872140Y-16888192D01*
X-4880557Y-16883147D01*
X-4888439Y-16877301D01*
X-4895711Y-16870711D01*
X-4902301Y-16863439D01*
X-4908147Y-16855557D01*
X-4913192Y-16847140D01*
X-4917388Y-16838268D01*
X-4920694Y-16829028D01*
X-4923079Y-16819509D01*
X-4924518Y-16809802D01*
X-4925000Y-16800000D01*
X-4925000Y-16600000D01*
X-4924518Y-16590198D01*
X-4923079Y-16580491D01*
X-4920694Y-16570972D01*
X-4917388Y-16561732D01*
X-4913192Y-16552860D01*
X-4908147Y-16544443D01*
X-4902301Y-16536561D01*
X-4895711Y-16529289D01*
X-4888439Y-16522699D01*
X-4880557Y-16516853D01*
X-4872140Y-16511808D01*
X-4863268Y-16507612D01*
X-4854028Y-16504306D01*
X-4844509Y-16501921D01*
X-4834802Y-16500482D01*
X-4825000Y-16500000D01*
X-3525000Y-16500000D01*
X-3515198Y-16500482D01*
G37*
G36*
X-1739221Y-9726144D02*
G01*
X-1716166Y-9729563D01*
X-1693557Y-9735227D01*
X-1671613Y-9743079D01*
X-1650543Y-9753044D01*
X-1630552Y-9765026D01*
X-1611832Y-9778910D01*
X-1594562Y-9794562D01*
X-1578910Y-9811832D01*
X-1565026Y-9830552D01*
X-1553044Y-9850543D01*
X-1543079Y-9871613D01*
X-1535227Y-9893557D01*
X-1529563Y-9916166D01*
X-1526144Y-9939221D01*
X-1525000Y-9962500D01*
X-1525000Y-10537500D01*
X-1526144Y-10560779D01*
X-1529563Y-10583834D01*
X-1535227Y-10606443D01*
X-1543079Y-10628387D01*
X-1553044Y-10649457D01*
X-1565026Y-10669448D01*
X-1578910Y-10688168D01*
X-1594562Y-10705438D01*
X-1611832Y-10721090D01*
X-1630552Y-10734974D01*
X-1650543Y-10746956D01*
X-1671613Y-10756921D01*
X-1693557Y-10764773D01*
X-1716166Y-10770437D01*
X-1739221Y-10773856D01*
X-1762500Y-10775000D01*
X-2237500Y-10775000D01*
X-2260779Y-10773856D01*
X-2283834Y-10770437D01*
X-2306443Y-10764773D01*
X-2328387Y-10756921D01*
X-2349457Y-10746956D01*
X-2369448Y-10734974D01*
X-2388168Y-10721090D01*
X-2405438Y-10705438D01*
X-2421090Y-10688168D01*
X-2434974Y-10669448D01*
X-2446956Y-10649457D01*
X-2456921Y-10628387D01*
X-2464773Y-10606443D01*
X-2470437Y-10583834D01*
X-2473856Y-10560779D01*
X-2475000Y-10537500D01*
X-2475000Y-9962500D01*
X-2473856Y-9939221D01*
X-2470437Y-9916166D01*
X-2464773Y-9893557D01*
X-2456921Y-9871613D01*
X-2446956Y-9850543D01*
X-2434974Y-9830552D01*
X-2421090Y-9811832D01*
X-2405438Y-9794562D01*
X-2388168Y-9778910D01*
X-2369448Y-9765026D01*
X-2349457Y-9753044D01*
X-2328387Y-9743079D01*
X-2306443Y-9735227D01*
X-2283834Y-9729563D01*
X-2260779Y-9726144D01*
X-2237500Y-9725000D01*
X-1762500Y-9725000D01*
X-1739221Y-9726144D01*
G37*
G36*
X-1739221Y-11476144D02*
G01*
X-1716166Y-11479563D01*
X-1693557Y-11485227D01*
X-1671613Y-11493079D01*
X-1650543Y-11503044D01*
X-1630552Y-11515026D01*
X-1611832Y-11528910D01*
X-1594562Y-11544562D01*
X-1578910Y-11561832D01*
X-1565026Y-11580552D01*
X-1553044Y-11600543D01*
X-1543079Y-11621613D01*
X-1535227Y-11643557D01*
X-1529563Y-11666166D01*
X-1526144Y-11689221D01*
X-1525000Y-11712500D01*
X-1525000Y-12287500D01*
X-1526144Y-12310779D01*
X-1529563Y-12333834D01*
X-1535227Y-12356443D01*
X-1543079Y-12378387D01*
X-1553044Y-12399457D01*
X-1565026Y-12419448D01*
X-1578910Y-12438168D01*
X-1594562Y-12455438D01*
X-1611832Y-12471090D01*
X-1630552Y-12484974D01*
X-1650543Y-12496956D01*
X-1671613Y-12506921D01*
X-1693557Y-12514773D01*
X-1716166Y-12520437D01*
X-1739221Y-12523856D01*
X-1762500Y-12525000D01*
X-2237500Y-12525000D01*
X-2260779Y-12523856D01*
X-2283834Y-12520437D01*
X-2306443Y-12514773D01*
X-2328387Y-12506921D01*
X-2349457Y-12496956D01*
X-2369448Y-12484974D01*
X-2388168Y-12471090D01*
X-2405438Y-12455438D01*
X-2421090Y-12438168D01*
X-2434974Y-12419448D01*
X-2446956Y-12399457D01*
X-2456921Y-12378387D01*
X-2464773Y-12356443D01*
X-2470437Y-12333834D01*
X-2473856Y-12310779D01*
X-2475000Y-12287500D01*
X-2475000Y-11712500D01*
X-2473856Y-11689221D01*
X-2470437Y-11666166D01*
X-2464773Y-11643557D01*
X-2456921Y-11621613D01*
X-2446956Y-11600543D01*
X-2434974Y-11580552D01*
X-2421090Y-11561832D01*
X-2405438Y-11544562D01*
X-2388168Y-11528910D01*
X-2369448Y-11515026D01*
X-2349457Y-11503044D01*
X-2328387Y-11493079D01*
X-2306443Y-11485227D01*
X-2283834Y-11479563D01*
X-2260779Y-11476144D01*
X-2237500Y-11475000D01*
X-1762500Y-11475000D01*
X-1739221Y-11476144D01*
G37*
M02*
