G04 #@! TF.GenerationSoftware,KiCad,Pcbnew,(5.1.5-0-10_14)*
G04 #@! TF.CreationDate,2020-06-21T17:24:19+09:00*
G04 #@! TF.ProjectId,EnvMon,456e764d-6f6e-42e6-9b69-6361645f7063,1.0*
G04 #@! TF.SameCoordinates,Original*
G04 #@! TF.FileFunction,Copper,L2,Bot*
G04 #@! TF.FilePolarity,Positive*
%FSLAX46Y46*%
G04 Gerber Fmt 4.6, Leading zero omitted, Abs format (unit mm)*
G04 Created by KiCad (PCBNEW (5.1.5-0-10_14)) date 2020-06-21 17:24:19*
%MOMM*%
%LPD*%
G04 APERTURE LIST*
%ADD10R,0.600000X0.600000*%
%ADD11O,1.700000X1.700000*%
%ADD12R,1.700000X1.700000*%
%ADD13O,1.000000X1.000000*%
%ADD14R,1.000000X1.000000*%
%ADD15O,1.000000X2.000000*%
%ADD16C,0.508000*%
%ADD17C,0.254000*%
G04 APERTURE END LIST*
D10*
X1270000Y-2500000D03*
X-1270000Y-2500000D03*
D11*
X10160000Y-27940000D03*
X10160000Y-25400000D03*
X10160000Y-22860000D03*
X10160000Y-20320000D03*
X10160000Y-17780000D03*
D12*
X10160000Y-15240000D03*
D13*
X11430000Y-5080000D03*
X10160000Y-5080000D03*
X11430000Y-6350000D03*
X10160000Y-6350000D03*
X11430000Y-7620000D03*
X10160000Y-7620000D03*
X11430000Y-8890000D03*
X10160000Y-8890000D03*
X11430000Y-10160000D03*
D14*
X10160000Y-10160000D03*
D12*
X-7620000Y-1270000D03*
D11*
X2540000Y-1270000D03*
X5080000Y-1270000D03*
X7620000Y-1270000D03*
X-5080000Y-1270000D03*
X-2540000Y-1270000D03*
X0Y-1270000D03*
D15*
X9270000Y-33000000D03*
X8000000Y-33000000D03*
X6730000Y-33000000D03*
D11*
X-254000Y-3810000D03*
X-2794000Y-3810000D03*
X-5334000Y-3810000D03*
X-7874000Y-3810000D03*
D12*
X-10414000Y-3810000D03*
X-10414000Y-33350000D03*
D11*
X-7874000Y-33350000D03*
X-5334000Y-33350000D03*
X-2794000Y-33350000D03*
D16*
X-6000000Y-21500000D03*
X4000000Y-8000000D03*
X-6750000Y-22300000D03*
X3250000Y-7250000D03*
X-2800000Y-25500000D03*
X2550000Y-6500000D03*
X-500000Y-9000000D03*
X400000Y-22000000D03*
X-1500000Y-9000000D03*
X-1200000Y-22000000D03*
X-400000Y-17750000D03*
X-1200000Y-17000000D03*
X6000000Y-5750000D03*
X7500000Y-5000000D03*
X7000000Y-10000000D03*
X5000000Y-9000000D03*
X2800000Y-12000000D03*
X2000000Y-12750000D03*
X1200000Y-13500000D03*
X-12000000Y-20700000D03*
D17*
X12260201Y-9013095D02*
X12260201Y-14243799D01*
X12137106Y-8890000D02*
X12260201Y-9013095D01*
X11264000Y-15240000D02*
X10160000Y-15240000D01*
X12260201Y-14243799D02*
X11264000Y-15240000D01*
X11430000Y-8890000D02*
X12137106Y-8890000D01*
X4000000Y-8000000D02*
X-4000000Y-8000000D01*
X-6000000Y-10000000D02*
X-6000000Y-21500000D01*
X-4000000Y-8000000D02*
X-6000000Y-10000000D01*
X-6750000Y-21940790D02*
X-6750000Y-22300000D01*
X-6750000Y-10103408D02*
X-6750000Y-21940790D01*
X-3896592Y-7250000D02*
X-6750000Y-10103408D01*
X3250000Y-7250000D02*
X-3896592Y-7250000D01*
X-3159210Y-25500000D02*
X-2800000Y-25500000D01*
X-4414618Y-25500000D02*
X-3159210Y-25500000D01*
X-7334201Y-22580417D02*
X-4414618Y-25500000D01*
X-7334201Y-10041017D02*
X-7334201Y-22580417D01*
X-3793184Y-6500000D02*
X-7334201Y-10041017D01*
X2550000Y-6500000D02*
X-3793184Y-6500000D01*
X146001Y-21746001D02*
X400000Y-22000000D01*
X-1784201Y-19815799D02*
X146001Y-21746001D01*
X-1784201Y-10284201D02*
X-1784201Y-19815799D01*
X-500000Y-9000000D02*
X-1784201Y-10284201D01*
X-2241411Y-20958589D02*
X-1453999Y-21746001D01*
X-1453999Y-21746001D02*
X-1200000Y-22000000D01*
X-2241411Y-9741412D02*
X-2241411Y-20958589D01*
X-1500000Y-9000000D02*
X-2241411Y-9741412D01*
X-30000Y-17750000D02*
X-400000Y-17750000D01*
X10160000Y-27940000D02*
X-30000Y-17750000D01*
X4300000Y-17000000D02*
X10160000Y-22860000D01*
X-1200000Y-17000000D02*
X4300000Y-17000000D01*
X-5934000Y-5750000D02*
X-7874000Y-3810000D01*
X6000000Y-5750000D02*
X-5934000Y-5750000D01*
X-4144000Y-5000000D02*
X-5334000Y-3810000D01*
X7500000Y-5000000D02*
X-4144000Y-5000000D01*
X7000000Y-7532894D02*
X7000000Y-9640790D01*
X7000000Y-9640790D02*
X7000000Y-10000000D01*
X9452894Y-5080000D02*
X7000000Y-7532894D01*
X10160000Y-5080000D02*
X9452894Y-5080000D01*
X12260201Y-6789799D02*
X11929999Y-7120001D01*
X12260201Y-4681503D02*
X12260201Y-6789799D01*
X11828497Y-4249799D02*
X12260201Y-4681503D01*
X9114819Y-4249799D02*
X11828497Y-4249799D01*
X11929999Y-7120001D02*
X11430000Y-7620000D01*
X5000000Y-8364618D02*
X9114819Y-4249799D01*
X5000000Y-9000000D02*
X5000000Y-8364618D01*
X9452894Y-7620000D02*
X7750000Y-9322894D01*
X10160000Y-7620000D02*
X9452894Y-7620000D01*
X3159210Y-12000000D02*
X2800000Y-12000000D01*
X5864618Y-12000000D02*
X3159210Y-12000000D01*
X7750000Y-10114618D02*
X5864618Y-12000000D01*
X7750000Y-9322894D02*
X7750000Y-10114618D01*
X9621210Y-8890000D02*
X10160000Y-8890000D01*
X5761210Y-12750000D02*
X9621210Y-8890000D01*
X2000000Y-12750000D02*
X5761210Y-12750000D01*
X1559210Y-13500000D02*
X1200000Y-13500000D01*
X6066000Y-13500000D02*
X1559210Y-13500000D01*
X9406000Y-10160000D02*
X6066000Y-13500000D01*
X10160000Y-10160000D02*
X9406000Y-10160000D01*
X-1824000Y-2500000D02*
X-1270000Y-2500000D01*
X-11398362Y-2500000D02*
X-1824000Y-2500000D01*
X-12000000Y-3101638D02*
X-11398362Y-2500000D01*
X-12000000Y-20700000D02*
X-12000000Y-3101638D01*
G36*
X-9105000Y-984250D02*
G01*
X-8946250Y-1143000D01*
X-7747000Y-1143000D01*
X-7747000Y-1123000D01*
X-7493000Y-1123000D01*
X-7493000Y-1143000D01*
X-7473000Y-1143000D01*
X-7473000Y-1397000D01*
X-7493000Y-1397000D01*
X-7493000Y-1417000D01*
X-7747000Y-1417000D01*
X-7747000Y-1397000D01*
X-8946250Y-1397000D01*
X-9105000Y-1555750D01*
X-9107099Y-1941200D01*
X-11370918Y-1941200D01*
X-11398362Y-1938497D01*
X-11507907Y-1949286D01*
X-11613240Y-1981239D01*
X-11710317Y-2033127D01*
X-11760367Y-2074202D01*
X-11795405Y-2102957D01*
X-11812901Y-2124276D01*
X-12375724Y-2687100D01*
X-12397042Y-2704595D01*
X-12414537Y-2725913D01*
X-12466872Y-2789684D01*
X-12518761Y-2886761D01*
X-12550713Y-2992094D01*
X-12561503Y-3101638D01*
X-12558799Y-3129090D01*
X-12558800Y-20301897D01*
X-12607748Y-20375152D01*
X-12659445Y-20499960D01*
X-12685800Y-20632455D01*
X-12685800Y-20767545D01*
X-12659445Y-20900040D01*
X-12607748Y-21024848D01*
X-12532695Y-21137172D01*
X-12437172Y-21232695D01*
X-12324848Y-21307748D01*
X-12200040Y-21359445D01*
X-12067545Y-21385800D01*
X-11932455Y-21385800D01*
X-11799960Y-21359445D01*
X-11675152Y-21307748D01*
X-11562828Y-21232695D01*
X-11467305Y-21137172D01*
X-11392252Y-21024848D01*
X-11340555Y-20900040D01*
X-11314200Y-20767545D01*
X-11314200Y-20632455D01*
X-11340555Y-20499960D01*
X-11392252Y-20375152D01*
X-11441200Y-20301897D01*
X-11441200Y-5054897D01*
X-11430042Y-5060861D01*
X-11348648Y-5085552D01*
X-11264000Y-5093889D01*
X-9564000Y-5093889D01*
X-9479352Y-5085552D01*
X-9397958Y-5060861D01*
X-9322944Y-5020766D01*
X-9257194Y-4966806D01*
X-9203234Y-4901056D01*
X-9163139Y-4826042D01*
X-9138448Y-4744648D01*
X-9130111Y-4660000D01*
X-9130111Y-4065393D01*
X-9106541Y-4183887D01*
X-9009916Y-4417160D01*
X-8869639Y-4627100D01*
X-8691100Y-4805639D01*
X-8481160Y-4945916D01*
X-8247887Y-5042541D01*
X-8000246Y-5091800D01*
X-7747754Y-5091800D01*
X-7500113Y-5042541D01*
X-7451753Y-5022509D01*
X-6348543Y-6125719D01*
X-6331043Y-6147043D01*
X-6245954Y-6216873D01*
X-6148878Y-6268761D01*
X-6043544Y-6300714D01*
X-5961444Y-6308800D01*
X-5961443Y-6308800D01*
X-5934001Y-6311503D01*
X-5906559Y-6308800D01*
X-4392246Y-6308800D01*
X-7709920Y-9626474D01*
X-7731244Y-9643974D01*
X-7801074Y-9729063D01*
X-7852962Y-9826140D01*
X-7884915Y-9931474D01*
X-7891060Y-9993865D01*
X-7895704Y-10041017D01*
X-7893001Y-10068459D01*
X-7893000Y-22552965D01*
X-7895704Y-22580417D01*
X-7884914Y-22689961D01*
X-7852962Y-22795294D01*
X-7823339Y-22850714D01*
X-7801073Y-22892371D01*
X-7731243Y-22977460D01*
X-7709925Y-22994955D01*
X-4829156Y-25875725D01*
X-4811661Y-25897043D01*
X-4726572Y-25966873D01*
X-4629496Y-26018761D01*
X-4524162Y-26050714D01*
X-4442062Y-26058800D01*
X-4442060Y-26058800D01*
X-4414618Y-26061503D01*
X-4387176Y-26058800D01*
X-3198103Y-26058800D01*
X-3124848Y-26107748D01*
X-3000040Y-26159445D01*
X-2867545Y-26185800D01*
X-2732455Y-26185800D01*
X-2599960Y-26159445D01*
X-2475152Y-26107748D01*
X-2362828Y-26032695D01*
X-2267305Y-25937172D01*
X-2192252Y-25824848D01*
X-2140555Y-25700040D01*
X-2114200Y-25567545D01*
X-2114200Y-25432455D01*
X-2140555Y-25299960D01*
X-2192252Y-25175152D01*
X-2267305Y-25062828D01*
X-2362828Y-24967305D01*
X-2475152Y-24892252D01*
X-2599960Y-24840555D01*
X-2732455Y-24814200D01*
X-2867545Y-24814200D01*
X-3000040Y-24840555D01*
X-3124848Y-24892252D01*
X-3198103Y-24941200D01*
X-4183155Y-24941200D01*
X-6302244Y-22822111D01*
X-6217305Y-22737172D01*
X-6142252Y-22624848D01*
X-6090555Y-22500040D01*
X-6064200Y-22367545D01*
X-6064200Y-22232455D01*
X-6073725Y-22184571D01*
X-6067545Y-22185800D01*
X-5932455Y-22185800D01*
X-5799960Y-22159445D01*
X-5675152Y-22107748D01*
X-5562828Y-22032695D01*
X-5467305Y-21937172D01*
X-5392252Y-21824848D01*
X-5340555Y-21700040D01*
X-5314200Y-21567545D01*
X-5314200Y-21432455D01*
X-5340555Y-21299960D01*
X-5392252Y-21175152D01*
X-5441200Y-21101897D01*
X-5441200Y-10231462D01*
X-3768537Y-8558800D01*
X-2028667Y-8558800D01*
X-2032695Y-8562828D01*
X-2107748Y-8675152D01*
X-2159445Y-8799960D01*
X-2176633Y-8886372D01*
X-2617130Y-9326869D01*
X-2638454Y-9344369D01*
X-2708284Y-9429458D01*
X-2760172Y-9526535D01*
X-2792125Y-9631869D01*
X-2798158Y-9693127D01*
X-2802914Y-9741412D01*
X-2800211Y-9768854D01*
X-2800210Y-20931137D01*
X-2802914Y-20958589D01*
X-2792124Y-21068133D01*
X-2760172Y-21173466D01*
X-2735961Y-21218761D01*
X-2708283Y-21270543D01*
X-2638453Y-21355632D01*
X-2617135Y-21373127D01*
X-1876633Y-22113630D01*
X-1859445Y-22200040D01*
X-1807748Y-22324848D01*
X-1732695Y-22437172D01*
X-1637172Y-22532695D01*
X-1524848Y-22607748D01*
X-1400040Y-22659445D01*
X-1267545Y-22685800D01*
X-1132455Y-22685800D01*
X-999960Y-22659445D01*
X-875152Y-22607748D01*
X-762828Y-22532695D01*
X-667305Y-22437172D01*
X-592252Y-22324848D01*
X-540555Y-22200040D01*
X-514200Y-22067545D01*
X-514200Y-21932455D01*
X-528202Y-21862060D01*
X-276633Y-22113630D01*
X-259445Y-22200040D01*
X-207748Y-22324848D01*
X-132695Y-22437172D01*
X-37172Y-22532695D01*
X75152Y-22607748D01*
X199960Y-22659445D01*
X332455Y-22685800D01*
X467545Y-22685800D01*
X600040Y-22659445D01*
X724848Y-22607748D01*
X837172Y-22532695D01*
X932695Y-22437172D01*
X1007748Y-22324848D01*
X1059445Y-22200040D01*
X1085800Y-22067545D01*
X1085800Y-21932455D01*
X1059445Y-21799960D01*
X1007748Y-21675152D01*
X932695Y-21562828D01*
X837172Y-21467305D01*
X724848Y-21392252D01*
X600040Y-21340555D01*
X513630Y-21323367D01*
X-1225401Y-19584337D01*
X-1225401Y-17685800D01*
X-1132455Y-17685800D01*
X-1084571Y-17676275D01*
X-1085800Y-17682455D01*
X-1085800Y-17817545D01*
X-1059445Y-17950040D01*
X-1007748Y-18074848D01*
X-932695Y-18187172D01*
X-837172Y-18282695D01*
X-724848Y-18357748D01*
X-600040Y-18409445D01*
X-467545Y-18435800D01*
X-332455Y-18435800D01*
X-199960Y-18409445D01*
X-172282Y-18397980D01*
X8947491Y-27517753D01*
X8927459Y-27566113D01*
X8878200Y-27813754D01*
X8878200Y-28066246D01*
X8927459Y-28313887D01*
X9024084Y-28547160D01*
X9164361Y-28757100D01*
X9342900Y-28935639D01*
X9552840Y-29075916D01*
X9786113Y-29172541D01*
X10033754Y-29221800D01*
X10286246Y-29221800D01*
X10533887Y-29172541D01*
X10767160Y-29075916D01*
X10977100Y-28935639D01*
X11155639Y-28757100D01*
X11295916Y-28547160D01*
X11392541Y-28313887D01*
X11441800Y-28066246D01*
X11441800Y-27813754D01*
X11392541Y-27566113D01*
X11295916Y-27332840D01*
X11155639Y-27122900D01*
X10977100Y-26944361D01*
X10767160Y-26804084D01*
X10700340Y-26776406D01*
X10791252Y-26744157D01*
X11041355Y-26595178D01*
X11257588Y-26400269D01*
X11431641Y-26166920D01*
X11556825Y-25904099D01*
X11601476Y-25756890D01*
X11480155Y-25527000D01*
X10287000Y-25527000D01*
X10287000Y-25547000D01*
X10033000Y-25547000D01*
X10033000Y-25527000D01*
X8839845Y-25527000D01*
X8735322Y-25725060D01*
X569062Y-17558800D01*
X4068538Y-17558800D01*
X8947491Y-22437753D01*
X8927459Y-22486113D01*
X8878200Y-22733754D01*
X8878200Y-22986246D01*
X8927459Y-23233887D01*
X9024084Y-23467160D01*
X9164361Y-23677100D01*
X9342900Y-23855639D01*
X9552840Y-23995916D01*
X9619660Y-24023594D01*
X9528748Y-24055843D01*
X9278645Y-24204822D01*
X9062412Y-24399731D01*
X8888359Y-24633080D01*
X8763175Y-24895901D01*
X8718524Y-25043110D01*
X8839845Y-25273000D01*
X10033000Y-25273000D01*
X10033000Y-25253000D01*
X10287000Y-25253000D01*
X10287000Y-25273000D01*
X11480155Y-25273000D01*
X11601476Y-25043110D01*
X11556825Y-24895901D01*
X11431641Y-24633080D01*
X11257588Y-24399731D01*
X11041355Y-24204822D01*
X10791252Y-24055843D01*
X10700340Y-24023594D01*
X10767160Y-23995916D01*
X10977100Y-23855639D01*
X11155639Y-23677100D01*
X11295916Y-23467160D01*
X11392541Y-23233887D01*
X11441800Y-22986246D01*
X11441800Y-22733754D01*
X11392541Y-22486113D01*
X11295916Y-22252840D01*
X11155639Y-22042900D01*
X10977100Y-21864361D01*
X10767160Y-21724084D01*
X10533887Y-21627459D01*
X10345568Y-21590000D01*
X10533887Y-21552541D01*
X10767160Y-21455916D01*
X10977100Y-21315639D01*
X11155639Y-21137100D01*
X11295916Y-20927160D01*
X11392541Y-20693887D01*
X11441800Y-20446246D01*
X11441800Y-20193754D01*
X11392541Y-19946113D01*
X11295916Y-19712840D01*
X11155639Y-19502900D01*
X10977100Y-19324361D01*
X10767160Y-19184084D01*
X10700340Y-19156406D01*
X10791252Y-19124157D01*
X11041355Y-18975178D01*
X11257588Y-18780269D01*
X11431641Y-18546920D01*
X11556825Y-18284099D01*
X11601476Y-18136890D01*
X11480155Y-17907000D01*
X10287000Y-17907000D01*
X10287000Y-17927000D01*
X10033000Y-17927000D01*
X10033000Y-17907000D01*
X8839845Y-17907000D01*
X8718524Y-18136890D01*
X8763175Y-18284099D01*
X8888359Y-18546920D01*
X9062412Y-18780269D01*
X9278645Y-18975178D01*
X9528748Y-19124157D01*
X9619660Y-19156406D01*
X9552840Y-19184084D01*
X9342900Y-19324361D01*
X9164361Y-19502900D01*
X9024084Y-19712840D01*
X8927459Y-19946113D01*
X8878200Y-20193754D01*
X8878200Y-20446246D01*
X8927459Y-20693887D01*
X9024084Y-20927160D01*
X9037499Y-20947237D01*
X4714543Y-16624281D01*
X4697043Y-16602957D01*
X4611954Y-16533127D01*
X4514878Y-16481239D01*
X4409544Y-16449286D01*
X4327444Y-16441200D01*
X4327442Y-16441200D01*
X4300000Y-16438497D01*
X4272558Y-16441200D01*
X-801897Y-16441200D01*
X-875152Y-16392252D01*
X-999960Y-16340555D01*
X-1132455Y-16314200D01*
X-1225401Y-16314200D01*
X-1225401Y-10515663D01*
X-386371Y-9676633D01*
X-299960Y-9659445D01*
X-175152Y-9607748D01*
X-62828Y-9532695D01*
X32695Y-9437172D01*
X107748Y-9324848D01*
X159445Y-9200040D01*
X185800Y-9067545D01*
X185800Y-8932455D01*
X159445Y-8799960D01*
X107748Y-8675152D01*
X32695Y-8562828D01*
X28667Y-8558800D01*
X3601897Y-8558800D01*
X3675152Y-8607748D01*
X3799960Y-8659445D01*
X3932455Y-8685800D01*
X4067545Y-8685800D01*
X4200040Y-8659445D01*
X4324848Y-8607748D01*
X4437172Y-8532695D01*
X4441200Y-8528667D01*
X4441200Y-8601897D01*
X4392252Y-8675152D01*
X4340555Y-8799960D01*
X4314200Y-8932455D01*
X4314200Y-9067545D01*
X4340555Y-9200040D01*
X4392252Y-9324848D01*
X4467305Y-9437172D01*
X4562828Y-9532695D01*
X4675152Y-9607748D01*
X4799960Y-9659445D01*
X4932455Y-9685800D01*
X5067545Y-9685800D01*
X5200040Y-9659445D01*
X5324848Y-9607748D01*
X5437172Y-9532695D01*
X5532695Y-9437172D01*
X5607748Y-9324848D01*
X5659445Y-9200040D01*
X5685800Y-9067545D01*
X5685800Y-8932455D01*
X5659445Y-8799960D01*
X5607748Y-8675152D01*
X5558800Y-8601897D01*
X5558800Y-8596080D01*
X6441200Y-7713680D01*
X6441201Y-9601895D01*
X6392252Y-9675152D01*
X6340555Y-9799960D01*
X6314200Y-9932455D01*
X6314200Y-10067545D01*
X6340555Y-10200040D01*
X6392252Y-10324848D01*
X6467305Y-10437172D01*
X6552244Y-10522111D01*
X5633156Y-11441200D01*
X3198103Y-11441200D01*
X3124848Y-11392252D01*
X3000040Y-11340555D01*
X2867545Y-11314200D01*
X2732455Y-11314200D01*
X2599960Y-11340555D01*
X2475152Y-11392252D01*
X2362828Y-11467305D01*
X2267305Y-11562828D01*
X2192252Y-11675152D01*
X2140555Y-11799960D01*
X2114200Y-11932455D01*
X2114200Y-12067545D01*
X2115429Y-12073725D01*
X2067545Y-12064200D01*
X1932455Y-12064200D01*
X1799960Y-12090555D01*
X1675152Y-12142252D01*
X1562828Y-12217305D01*
X1467305Y-12312828D01*
X1392252Y-12425152D01*
X1340555Y-12549960D01*
X1314200Y-12682455D01*
X1314200Y-12817545D01*
X1315429Y-12823725D01*
X1267545Y-12814200D01*
X1132455Y-12814200D01*
X999960Y-12840555D01*
X875152Y-12892252D01*
X762828Y-12967305D01*
X667305Y-13062828D01*
X592252Y-13175152D01*
X540555Y-13299960D01*
X514200Y-13432455D01*
X514200Y-13567545D01*
X540555Y-13700040D01*
X592252Y-13824848D01*
X667305Y-13937172D01*
X762828Y-14032695D01*
X875152Y-14107748D01*
X999960Y-14159445D01*
X1132455Y-14185800D01*
X1267545Y-14185800D01*
X1400040Y-14159445D01*
X1524848Y-14107748D01*
X1598103Y-14058800D01*
X6038558Y-14058800D01*
X6066000Y-14061503D01*
X6093442Y-14058800D01*
X6093444Y-14058800D01*
X6175544Y-14050714D01*
X6280878Y-14018761D01*
X6377954Y-13966873D01*
X6463043Y-13897043D01*
X6480543Y-13875719D01*
X9373111Y-10983151D01*
X9418944Y-11020766D01*
X9493958Y-11060861D01*
X9575352Y-11085552D01*
X9660000Y-11093889D01*
X10660000Y-11093889D01*
X10744648Y-11085552D01*
X10768689Y-11078259D01*
X10920471Y-11174210D01*
X11128124Y-11254126D01*
X11303000Y-11129129D01*
X11303000Y-10287000D01*
X11283000Y-10287000D01*
X11283000Y-10033000D01*
X11303000Y-10033000D01*
X11303000Y-10013000D01*
X11557000Y-10013000D01*
X11557000Y-10033000D01*
X11577000Y-10033000D01*
X11577000Y-10287000D01*
X11557000Y-10287000D01*
X11557000Y-11129129D01*
X11701401Y-11232344D01*
X11701402Y-14012335D01*
X11429229Y-14284508D01*
X11410861Y-14223958D01*
X11370766Y-14148944D01*
X11316806Y-14083194D01*
X11251056Y-14029234D01*
X11176042Y-13989139D01*
X11094648Y-13964448D01*
X11010000Y-13956111D01*
X9310000Y-13956111D01*
X9225352Y-13964448D01*
X9143958Y-13989139D01*
X9068944Y-14029234D01*
X9003194Y-14083194D01*
X8949234Y-14148944D01*
X8909139Y-14223958D01*
X8884448Y-14305352D01*
X8876111Y-14390000D01*
X8876111Y-16090000D01*
X8884448Y-16174648D01*
X8909139Y-16256042D01*
X8949234Y-16331056D01*
X9003194Y-16396806D01*
X9068944Y-16450766D01*
X9143958Y-16490861D01*
X9225352Y-16515552D01*
X9310000Y-16523889D01*
X9380938Y-16523889D01*
X9278645Y-16584822D01*
X9062412Y-16779731D01*
X8888359Y-17013080D01*
X8763175Y-17275901D01*
X8718524Y-17423110D01*
X8839845Y-17653000D01*
X10033000Y-17653000D01*
X10033000Y-17633000D01*
X10287000Y-17633000D01*
X10287000Y-17653000D01*
X11480155Y-17653000D01*
X11601476Y-17423110D01*
X11556825Y-17275901D01*
X11431641Y-17013080D01*
X11257588Y-16779731D01*
X11041355Y-16584822D01*
X10939062Y-16523889D01*
X11010000Y-16523889D01*
X11094648Y-16515552D01*
X11176042Y-16490861D01*
X11251056Y-16450766D01*
X11316806Y-16396806D01*
X11370766Y-16331056D01*
X11410861Y-16256042D01*
X11435552Y-16174648D01*
X11443889Y-16090000D01*
X11443889Y-15769375D01*
X11478878Y-15758761D01*
X11575954Y-15706873D01*
X11661043Y-15637043D01*
X11678543Y-15615719D01*
X12635926Y-14658337D01*
X12657244Y-14640842D01*
X12727074Y-14555753D01*
X12778962Y-14458677D01*
X12810915Y-14353343D01*
X12819001Y-14271243D01*
X12819001Y-14271241D01*
X12821704Y-14243799D01*
X12819001Y-14216357D01*
X12819001Y-9040539D01*
X12821704Y-9013095D01*
X12810915Y-8903550D01*
X12789055Y-8831490D01*
X12778962Y-8798217D01*
X12727074Y-8701141D01*
X12657244Y-8616052D01*
X12635920Y-8598552D01*
X12551649Y-8514281D01*
X12534149Y-8492957D01*
X12449060Y-8423127D01*
X12351984Y-8371239D01*
X12246650Y-8339286D01*
X12178186Y-8332543D01*
X12153777Y-8296012D01*
X12112765Y-8255000D01*
X12153777Y-8213988D01*
X12255751Y-8061373D01*
X12325992Y-7891796D01*
X12361800Y-7711774D01*
X12361800Y-7528226D01*
X12353544Y-7486718D01*
X12635920Y-7204342D01*
X12657244Y-7186842D01*
X12727074Y-7101753D01*
X12778962Y-7004677D01*
X12810915Y-6899343D01*
X12819001Y-6817243D01*
X12819001Y-6817242D01*
X12821704Y-6789800D01*
X12819001Y-6762358D01*
X12819001Y-4708947D01*
X12821704Y-4681503D01*
X12810915Y-4571958D01*
X12778962Y-4466625D01*
X12727074Y-4369548D01*
X12674738Y-4305777D01*
X12657244Y-4284460D01*
X12635925Y-4266964D01*
X12243039Y-3874079D01*
X12225540Y-3852756D01*
X12140451Y-3782926D01*
X12043375Y-3731038D01*
X11938041Y-3699085D01*
X11855941Y-3690999D01*
X11855939Y-3690999D01*
X11828497Y-3688296D01*
X11801055Y-3690999D01*
X9142261Y-3690999D01*
X9114819Y-3688296D01*
X9087377Y-3690999D01*
X9087375Y-3690999D01*
X9005275Y-3699085D01*
X8899941Y-3731038D01*
X8802864Y-3782926D01*
X8769875Y-3810000D01*
X8717776Y-3852756D01*
X8700281Y-3874074D01*
X8022111Y-4552244D01*
X7937172Y-4467305D01*
X7824848Y-4392252D01*
X7700040Y-4340555D01*
X7567545Y-4314200D01*
X7432455Y-4314200D01*
X7299960Y-4340555D01*
X7175152Y-4392252D01*
X7101897Y-4441200D01*
X865853Y-4441200D01*
X881916Y-4417160D01*
X978541Y-4183887D01*
X1027800Y-3936246D01*
X1027800Y-3683754D01*
X978563Y-3436226D01*
X984250Y-3435000D01*
X1143000Y-3276250D01*
X1143000Y-2627000D01*
X1123000Y-2627000D01*
X1123000Y-2373000D01*
X1143000Y-2373000D01*
X1143000Y-1860058D01*
X1232541Y-1643887D01*
X1270000Y-1455568D01*
X1307459Y-1643887D01*
X1397000Y-1860058D01*
X1397000Y-2373000D01*
X1417000Y-2373000D01*
X1417000Y-2627000D01*
X1397000Y-2627000D01*
X1397000Y-3276250D01*
X1555750Y-3435000D01*
X1570000Y-3438072D01*
X1694482Y-3425812D01*
X1814180Y-3389502D01*
X1924494Y-3330537D01*
X2021185Y-3251185D01*
X2100537Y-3154494D01*
X2159502Y-3044180D01*
X2195812Y-2924482D01*
X2208072Y-2800000D01*
X2205000Y-2785750D01*
X2046252Y-2627002D01*
X2205000Y-2627002D01*
X2205000Y-2510276D01*
X2413754Y-2551800D01*
X2666246Y-2551800D01*
X2913887Y-2502541D01*
X3147160Y-2405916D01*
X3357100Y-2265639D01*
X3535639Y-2087100D01*
X3675916Y-1877160D01*
X3772541Y-1643887D01*
X3810000Y-1455568D01*
X3847459Y-1643887D01*
X3944084Y-1877160D01*
X4084361Y-2087100D01*
X4262900Y-2265639D01*
X4472840Y-2405916D01*
X4706113Y-2502541D01*
X4953754Y-2551800D01*
X5206246Y-2551800D01*
X5453887Y-2502541D01*
X5687160Y-2405916D01*
X5897100Y-2265639D01*
X6075639Y-2087100D01*
X6215916Y-1877160D01*
X6312541Y-1643887D01*
X6350000Y-1455568D01*
X6387459Y-1643887D01*
X6484084Y-1877160D01*
X6624361Y-2087100D01*
X6802900Y-2265639D01*
X7012840Y-2405916D01*
X7246113Y-2502541D01*
X7493754Y-2551800D01*
X7746246Y-2551800D01*
X7993887Y-2502541D01*
X8227160Y-2405916D01*
X8437100Y-2265639D01*
X8615639Y-2087100D01*
X8755916Y-1877160D01*
X8852541Y-1643887D01*
X8901800Y-1396246D01*
X8901800Y-1143754D01*
X8852541Y-896113D01*
X8755916Y-662840D01*
X8618245Y-456800D01*
X13543200Y-456800D01*
X13543201Y-38543200D01*
X1956800Y-38543200D01*
X1956800Y-32454231D01*
X5798200Y-32454231D01*
X5798201Y-33545770D01*
X5811684Y-33682665D01*
X5864965Y-33858310D01*
X5951489Y-34020185D01*
X6067931Y-34162070D01*
X6209816Y-34278512D01*
X6371691Y-34365036D01*
X6547336Y-34418317D01*
X6730000Y-34436308D01*
X6912665Y-34418317D01*
X7088310Y-34365036D01*
X7198622Y-34306073D01*
X7287236Y-34392369D01*
X7475024Y-34514276D01*
X7698126Y-34594119D01*
X7873000Y-34467954D01*
X7873000Y-33127000D01*
X7853000Y-33127000D01*
X7853000Y-32873000D01*
X7873000Y-32873000D01*
X7873000Y-31532046D01*
X8127000Y-31532046D01*
X8127000Y-32873000D01*
X8147000Y-32873000D01*
X8147000Y-33127000D01*
X8127000Y-33127000D01*
X8127000Y-34467954D01*
X8301874Y-34594119D01*
X8524976Y-34514276D01*
X8712764Y-34392369D01*
X8801379Y-34306073D01*
X8911691Y-34365036D01*
X9087336Y-34418317D01*
X9270000Y-34436308D01*
X9452665Y-34418317D01*
X9628310Y-34365036D01*
X9790185Y-34278512D01*
X9932070Y-34162070D01*
X10048512Y-34020185D01*
X10135036Y-33858310D01*
X10188317Y-33682665D01*
X10201800Y-33545770D01*
X10201800Y-32454230D01*
X10188317Y-32317335D01*
X10135036Y-32141690D01*
X10048512Y-31979815D01*
X9932070Y-31837930D01*
X9790184Y-31721488D01*
X9628309Y-31634964D01*
X9452664Y-31581683D01*
X9270000Y-31563692D01*
X9087335Y-31581683D01*
X8911690Y-31634964D01*
X8801378Y-31693927D01*
X8712764Y-31607631D01*
X8524976Y-31485724D01*
X8301874Y-31405881D01*
X8127000Y-31532046D01*
X7873000Y-31532046D01*
X7698126Y-31405881D01*
X7475024Y-31485724D01*
X7287236Y-31607631D01*
X7198621Y-31693927D01*
X7088309Y-31634964D01*
X6912664Y-31581683D01*
X6730000Y-31563692D01*
X6547335Y-31581683D01*
X6371690Y-31634964D01*
X6209815Y-31721488D01*
X6067930Y-31837930D01*
X5951488Y-31979816D01*
X5864964Y-32141691D01*
X5811683Y-32317336D01*
X5798200Y-32454231D01*
X1956800Y-32454231D01*
X1956800Y-31022438D01*
X1959010Y-31000000D01*
X1950190Y-30910452D01*
X1924070Y-30824344D01*
X1881653Y-30744988D01*
X1824569Y-30675431D01*
X1755012Y-30618347D01*
X1675656Y-30575930D01*
X1589548Y-30549810D01*
X1522438Y-30543200D01*
X1500000Y-30540990D01*
X1477562Y-30543200D01*
X-1477562Y-30543200D01*
X-1500000Y-30540990D01*
X-1522438Y-30543200D01*
X-1589548Y-30549810D01*
X-1675656Y-30575930D01*
X-1755012Y-30618347D01*
X-1824569Y-30675431D01*
X-1881653Y-30744988D01*
X-1924070Y-30824344D01*
X-1950190Y-30910452D01*
X-1959010Y-31000000D01*
X-1956800Y-31022438D01*
X-1956800Y-32374461D01*
X-1976900Y-32354361D01*
X-2186840Y-32214084D01*
X-2420113Y-32117459D01*
X-2667754Y-32068200D01*
X-2920246Y-32068200D01*
X-3167887Y-32117459D01*
X-3401160Y-32214084D01*
X-3611100Y-32354361D01*
X-3789639Y-32532900D01*
X-3929916Y-32742840D01*
X-4026541Y-32976113D01*
X-4064000Y-33164432D01*
X-4101459Y-32976113D01*
X-4198084Y-32742840D01*
X-4338361Y-32532900D01*
X-4516900Y-32354361D01*
X-4726840Y-32214084D01*
X-4960113Y-32117459D01*
X-5207754Y-32068200D01*
X-5460246Y-32068200D01*
X-5707887Y-32117459D01*
X-5941160Y-32214084D01*
X-6151100Y-32354361D01*
X-6329639Y-32532900D01*
X-6469916Y-32742840D01*
X-6497594Y-32809660D01*
X-6529843Y-32718748D01*
X-6678822Y-32468645D01*
X-6873731Y-32252412D01*
X-7107080Y-32078359D01*
X-7369901Y-31953175D01*
X-7517110Y-31908524D01*
X-7747000Y-32029845D01*
X-7747000Y-33223000D01*
X-7727000Y-33223000D01*
X-7727000Y-33477000D01*
X-7747000Y-33477000D01*
X-7747000Y-34670155D01*
X-7517110Y-34791476D01*
X-7369901Y-34746825D01*
X-7107080Y-34621641D01*
X-6873731Y-34447588D01*
X-6678822Y-34231355D01*
X-6529843Y-33981252D01*
X-6497594Y-33890340D01*
X-6469916Y-33957160D01*
X-6329639Y-34167100D01*
X-6151100Y-34345639D01*
X-5941160Y-34485916D01*
X-5707887Y-34582541D01*
X-5460246Y-34631800D01*
X-5207754Y-34631800D01*
X-4960113Y-34582541D01*
X-4726840Y-34485916D01*
X-4516900Y-34345639D01*
X-4338361Y-34167100D01*
X-4198084Y-33957160D01*
X-4101459Y-33723887D01*
X-4064000Y-33535568D01*
X-4026541Y-33723887D01*
X-3929916Y-33957160D01*
X-3789639Y-34167100D01*
X-3611100Y-34345639D01*
X-3401160Y-34485916D01*
X-3167887Y-34582541D01*
X-2920246Y-34631800D01*
X-2667754Y-34631800D01*
X-2420113Y-34582541D01*
X-2186840Y-34485916D01*
X-1976900Y-34345639D01*
X-1956800Y-34325539D01*
X-1956799Y-38543200D01*
X-13543200Y-38543200D01*
X-13543200Y-32500000D01*
X-11697889Y-32500000D01*
X-11697889Y-34200000D01*
X-11689552Y-34284648D01*
X-11664861Y-34366042D01*
X-11624766Y-34441056D01*
X-11570806Y-34506806D01*
X-11505056Y-34560766D01*
X-11430042Y-34600861D01*
X-11348648Y-34625552D01*
X-11264000Y-34633889D01*
X-9564000Y-34633889D01*
X-9479352Y-34625552D01*
X-9397958Y-34600861D01*
X-9322944Y-34560766D01*
X-9257194Y-34506806D01*
X-9203234Y-34441056D01*
X-9163139Y-34366042D01*
X-9138448Y-34284648D01*
X-9130111Y-34200000D01*
X-9130111Y-34129062D01*
X-9069178Y-34231355D01*
X-8874269Y-34447588D01*
X-8640920Y-34621641D01*
X-8378099Y-34746825D01*
X-8230890Y-34791476D01*
X-8001000Y-34670155D01*
X-8001000Y-33477000D01*
X-8021000Y-33477000D01*
X-8021000Y-33223000D01*
X-8001000Y-33223000D01*
X-8001000Y-32029845D01*
X-8230890Y-31908524D01*
X-8378099Y-31953175D01*
X-8640920Y-32078359D01*
X-8874269Y-32252412D01*
X-9069178Y-32468645D01*
X-9130111Y-32570938D01*
X-9130111Y-32500000D01*
X-9138448Y-32415352D01*
X-9163139Y-32333958D01*
X-9203234Y-32258944D01*
X-9257194Y-32193194D01*
X-9322944Y-32139234D01*
X-9397958Y-32099139D01*
X-9479352Y-32074448D01*
X-9564000Y-32066111D01*
X-11264000Y-32066111D01*
X-11348648Y-32074448D01*
X-11430042Y-32099139D01*
X-11505056Y-32139234D01*
X-11570806Y-32193194D01*
X-11624766Y-32258944D01*
X-11664861Y-32333958D01*
X-11689552Y-32415352D01*
X-11697889Y-32500000D01*
X-13543200Y-32500000D01*
X-13543200Y-456800D01*
X-9107872Y-456800D01*
X-9105000Y-984250D01*
G37*
X-9105000Y-984250D02*
X-8946250Y-1143000D01*
X-7747000Y-1143000D01*
X-7747000Y-1123000D01*
X-7493000Y-1123000D01*
X-7493000Y-1143000D01*
X-7473000Y-1143000D01*
X-7473000Y-1397000D01*
X-7493000Y-1397000D01*
X-7493000Y-1417000D01*
X-7747000Y-1417000D01*
X-7747000Y-1397000D01*
X-8946250Y-1397000D01*
X-9105000Y-1555750D01*
X-9107099Y-1941200D01*
X-11370918Y-1941200D01*
X-11398362Y-1938497D01*
X-11507907Y-1949286D01*
X-11613240Y-1981239D01*
X-11710317Y-2033127D01*
X-11760367Y-2074202D01*
X-11795405Y-2102957D01*
X-11812901Y-2124276D01*
X-12375724Y-2687100D01*
X-12397042Y-2704595D01*
X-12414537Y-2725913D01*
X-12466872Y-2789684D01*
X-12518761Y-2886761D01*
X-12550713Y-2992094D01*
X-12561503Y-3101638D01*
X-12558799Y-3129090D01*
X-12558800Y-20301897D01*
X-12607748Y-20375152D01*
X-12659445Y-20499960D01*
X-12685800Y-20632455D01*
X-12685800Y-20767545D01*
X-12659445Y-20900040D01*
X-12607748Y-21024848D01*
X-12532695Y-21137172D01*
X-12437172Y-21232695D01*
X-12324848Y-21307748D01*
X-12200040Y-21359445D01*
X-12067545Y-21385800D01*
X-11932455Y-21385800D01*
X-11799960Y-21359445D01*
X-11675152Y-21307748D01*
X-11562828Y-21232695D01*
X-11467305Y-21137172D01*
X-11392252Y-21024848D01*
X-11340555Y-20900040D01*
X-11314200Y-20767545D01*
X-11314200Y-20632455D01*
X-11340555Y-20499960D01*
X-11392252Y-20375152D01*
X-11441200Y-20301897D01*
X-11441200Y-5054897D01*
X-11430042Y-5060861D01*
X-11348648Y-5085552D01*
X-11264000Y-5093889D01*
X-9564000Y-5093889D01*
X-9479352Y-5085552D01*
X-9397958Y-5060861D01*
X-9322944Y-5020766D01*
X-9257194Y-4966806D01*
X-9203234Y-4901056D01*
X-9163139Y-4826042D01*
X-9138448Y-4744648D01*
X-9130111Y-4660000D01*
X-9130111Y-4065393D01*
X-9106541Y-4183887D01*
X-9009916Y-4417160D01*
X-8869639Y-4627100D01*
X-8691100Y-4805639D01*
X-8481160Y-4945916D01*
X-8247887Y-5042541D01*
X-8000246Y-5091800D01*
X-7747754Y-5091800D01*
X-7500113Y-5042541D01*
X-7451753Y-5022509D01*
X-6348543Y-6125719D01*
X-6331043Y-6147043D01*
X-6245954Y-6216873D01*
X-6148878Y-6268761D01*
X-6043544Y-6300714D01*
X-5961444Y-6308800D01*
X-5961443Y-6308800D01*
X-5934001Y-6311503D01*
X-5906559Y-6308800D01*
X-4392246Y-6308800D01*
X-7709920Y-9626474D01*
X-7731244Y-9643974D01*
X-7801074Y-9729063D01*
X-7852962Y-9826140D01*
X-7884915Y-9931474D01*
X-7891060Y-9993865D01*
X-7895704Y-10041017D01*
X-7893001Y-10068459D01*
X-7893000Y-22552965D01*
X-7895704Y-22580417D01*
X-7884914Y-22689961D01*
X-7852962Y-22795294D01*
X-7823339Y-22850714D01*
X-7801073Y-22892371D01*
X-7731243Y-22977460D01*
X-7709925Y-22994955D01*
X-4829156Y-25875725D01*
X-4811661Y-25897043D01*
X-4726572Y-25966873D01*
X-4629496Y-26018761D01*
X-4524162Y-26050714D01*
X-4442062Y-26058800D01*
X-4442060Y-26058800D01*
X-4414618Y-26061503D01*
X-4387176Y-26058800D01*
X-3198103Y-26058800D01*
X-3124848Y-26107748D01*
X-3000040Y-26159445D01*
X-2867545Y-26185800D01*
X-2732455Y-26185800D01*
X-2599960Y-26159445D01*
X-2475152Y-26107748D01*
X-2362828Y-26032695D01*
X-2267305Y-25937172D01*
X-2192252Y-25824848D01*
X-2140555Y-25700040D01*
X-2114200Y-25567545D01*
X-2114200Y-25432455D01*
X-2140555Y-25299960D01*
X-2192252Y-25175152D01*
X-2267305Y-25062828D01*
X-2362828Y-24967305D01*
X-2475152Y-24892252D01*
X-2599960Y-24840555D01*
X-2732455Y-24814200D01*
X-2867545Y-24814200D01*
X-3000040Y-24840555D01*
X-3124848Y-24892252D01*
X-3198103Y-24941200D01*
X-4183155Y-24941200D01*
X-6302244Y-22822111D01*
X-6217305Y-22737172D01*
X-6142252Y-22624848D01*
X-6090555Y-22500040D01*
X-6064200Y-22367545D01*
X-6064200Y-22232455D01*
X-6073725Y-22184571D01*
X-6067545Y-22185800D01*
X-5932455Y-22185800D01*
X-5799960Y-22159445D01*
X-5675152Y-22107748D01*
X-5562828Y-22032695D01*
X-5467305Y-21937172D01*
X-5392252Y-21824848D01*
X-5340555Y-21700040D01*
X-5314200Y-21567545D01*
X-5314200Y-21432455D01*
X-5340555Y-21299960D01*
X-5392252Y-21175152D01*
X-5441200Y-21101897D01*
X-5441200Y-10231462D01*
X-3768537Y-8558800D01*
X-2028667Y-8558800D01*
X-2032695Y-8562828D01*
X-2107748Y-8675152D01*
X-2159445Y-8799960D01*
X-2176633Y-8886372D01*
X-2617130Y-9326869D01*
X-2638454Y-9344369D01*
X-2708284Y-9429458D01*
X-2760172Y-9526535D01*
X-2792125Y-9631869D01*
X-2798158Y-9693127D01*
X-2802914Y-9741412D01*
X-2800211Y-9768854D01*
X-2800210Y-20931137D01*
X-2802914Y-20958589D01*
X-2792124Y-21068133D01*
X-2760172Y-21173466D01*
X-2735961Y-21218761D01*
X-2708283Y-21270543D01*
X-2638453Y-21355632D01*
X-2617135Y-21373127D01*
X-1876633Y-22113630D01*
X-1859445Y-22200040D01*
X-1807748Y-22324848D01*
X-1732695Y-22437172D01*
X-1637172Y-22532695D01*
X-1524848Y-22607748D01*
X-1400040Y-22659445D01*
X-1267545Y-22685800D01*
X-1132455Y-22685800D01*
X-999960Y-22659445D01*
X-875152Y-22607748D01*
X-762828Y-22532695D01*
X-667305Y-22437172D01*
X-592252Y-22324848D01*
X-540555Y-22200040D01*
X-514200Y-22067545D01*
X-514200Y-21932455D01*
X-528202Y-21862060D01*
X-276633Y-22113630D01*
X-259445Y-22200040D01*
X-207748Y-22324848D01*
X-132695Y-22437172D01*
X-37172Y-22532695D01*
X75152Y-22607748D01*
X199960Y-22659445D01*
X332455Y-22685800D01*
X467545Y-22685800D01*
X600040Y-22659445D01*
X724848Y-22607748D01*
X837172Y-22532695D01*
X932695Y-22437172D01*
X1007748Y-22324848D01*
X1059445Y-22200040D01*
X1085800Y-22067545D01*
X1085800Y-21932455D01*
X1059445Y-21799960D01*
X1007748Y-21675152D01*
X932695Y-21562828D01*
X837172Y-21467305D01*
X724848Y-21392252D01*
X600040Y-21340555D01*
X513630Y-21323367D01*
X-1225401Y-19584337D01*
X-1225401Y-17685800D01*
X-1132455Y-17685800D01*
X-1084571Y-17676275D01*
X-1085800Y-17682455D01*
X-1085800Y-17817545D01*
X-1059445Y-17950040D01*
X-1007748Y-18074848D01*
X-932695Y-18187172D01*
X-837172Y-18282695D01*
X-724848Y-18357748D01*
X-600040Y-18409445D01*
X-467545Y-18435800D01*
X-332455Y-18435800D01*
X-199960Y-18409445D01*
X-172282Y-18397980D01*
X8947491Y-27517753D01*
X8927459Y-27566113D01*
X8878200Y-27813754D01*
X8878200Y-28066246D01*
X8927459Y-28313887D01*
X9024084Y-28547160D01*
X9164361Y-28757100D01*
X9342900Y-28935639D01*
X9552840Y-29075916D01*
X9786113Y-29172541D01*
X10033754Y-29221800D01*
X10286246Y-29221800D01*
X10533887Y-29172541D01*
X10767160Y-29075916D01*
X10977100Y-28935639D01*
X11155639Y-28757100D01*
X11295916Y-28547160D01*
X11392541Y-28313887D01*
X11441800Y-28066246D01*
X11441800Y-27813754D01*
X11392541Y-27566113D01*
X11295916Y-27332840D01*
X11155639Y-27122900D01*
X10977100Y-26944361D01*
X10767160Y-26804084D01*
X10700340Y-26776406D01*
X10791252Y-26744157D01*
X11041355Y-26595178D01*
X11257588Y-26400269D01*
X11431641Y-26166920D01*
X11556825Y-25904099D01*
X11601476Y-25756890D01*
X11480155Y-25527000D01*
X10287000Y-25527000D01*
X10287000Y-25547000D01*
X10033000Y-25547000D01*
X10033000Y-25527000D01*
X8839845Y-25527000D01*
X8735322Y-25725060D01*
X569062Y-17558800D01*
X4068538Y-17558800D01*
X8947491Y-22437753D01*
X8927459Y-22486113D01*
X8878200Y-22733754D01*
X8878200Y-22986246D01*
X8927459Y-23233887D01*
X9024084Y-23467160D01*
X9164361Y-23677100D01*
X9342900Y-23855639D01*
X9552840Y-23995916D01*
X9619660Y-24023594D01*
X9528748Y-24055843D01*
X9278645Y-24204822D01*
X9062412Y-24399731D01*
X8888359Y-24633080D01*
X8763175Y-24895901D01*
X8718524Y-25043110D01*
X8839845Y-25273000D01*
X10033000Y-25273000D01*
X10033000Y-25253000D01*
X10287000Y-25253000D01*
X10287000Y-25273000D01*
X11480155Y-25273000D01*
X11601476Y-25043110D01*
X11556825Y-24895901D01*
X11431641Y-24633080D01*
X11257588Y-24399731D01*
X11041355Y-24204822D01*
X10791252Y-24055843D01*
X10700340Y-24023594D01*
X10767160Y-23995916D01*
X10977100Y-23855639D01*
X11155639Y-23677100D01*
X11295916Y-23467160D01*
X11392541Y-23233887D01*
X11441800Y-22986246D01*
X11441800Y-22733754D01*
X11392541Y-22486113D01*
X11295916Y-22252840D01*
X11155639Y-22042900D01*
X10977100Y-21864361D01*
X10767160Y-21724084D01*
X10533887Y-21627459D01*
X10345568Y-21590000D01*
X10533887Y-21552541D01*
X10767160Y-21455916D01*
X10977100Y-21315639D01*
X11155639Y-21137100D01*
X11295916Y-20927160D01*
X11392541Y-20693887D01*
X11441800Y-20446246D01*
X11441800Y-20193754D01*
X11392541Y-19946113D01*
X11295916Y-19712840D01*
X11155639Y-19502900D01*
X10977100Y-19324361D01*
X10767160Y-19184084D01*
X10700340Y-19156406D01*
X10791252Y-19124157D01*
X11041355Y-18975178D01*
X11257588Y-18780269D01*
X11431641Y-18546920D01*
X11556825Y-18284099D01*
X11601476Y-18136890D01*
X11480155Y-17907000D01*
X10287000Y-17907000D01*
X10287000Y-17927000D01*
X10033000Y-17927000D01*
X10033000Y-17907000D01*
X8839845Y-17907000D01*
X8718524Y-18136890D01*
X8763175Y-18284099D01*
X8888359Y-18546920D01*
X9062412Y-18780269D01*
X9278645Y-18975178D01*
X9528748Y-19124157D01*
X9619660Y-19156406D01*
X9552840Y-19184084D01*
X9342900Y-19324361D01*
X9164361Y-19502900D01*
X9024084Y-19712840D01*
X8927459Y-19946113D01*
X8878200Y-20193754D01*
X8878200Y-20446246D01*
X8927459Y-20693887D01*
X9024084Y-20927160D01*
X9037499Y-20947237D01*
X4714543Y-16624281D01*
X4697043Y-16602957D01*
X4611954Y-16533127D01*
X4514878Y-16481239D01*
X4409544Y-16449286D01*
X4327444Y-16441200D01*
X4327442Y-16441200D01*
X4300000Y-16438497D01*
X4272558Y-16441200D01*
X-801897Y-16441200D01*
X-875152Y-16392252D01*
X-999960Y-16340555D01*
X-1132455Y-16314200D01*
X-1225401Y-16314200D01*
X-1225401Y-10515663D01*
X-386371Y-9676633D01*
X-299960Y-9659445D01*
X-175152Y-9607748D01*
X-62828Y-9532695D01*
X32695Y-9437172D01*
X107748Y-9324848D01*
X159445Y-9200040D01*
X185800Y-9067545D01*
X185800Y-8932455D01*
X159445Y-8799960D01*
X107748Y-8675152D01*
X32695Y-8562828D01*
X28667Y-8558800D01*
X3601897Y-8558800D01*
X3675152Y-8607748D01*
X3799960Y-8659445D01*
X3932455Y-8685800D01*
X4067545Y-8685800D01*
X4200040Y-8659445D01*
X4324848Y-8607748D01*
X4437172Y-8532695D01*
X4441200Y-8528667D01*
X4441200Y-8601897D01*
X4392252Y-8675152D01*
X4340555Y-8799960D01*
X4314200Y-8932455D01*
X4314200Y-9067545D01*
X4340555Y-9200040D01*
X4392252Y-9324848D01*
X4467305Y-9437172D01*
X4562828Y-9532695D01*
X4675152Y-9607748D01*
X4799960Y-9659445D01*
X4932455Y-9685800D01*
X5067545Y-9685800D01*
X5200040Y-9659445D01*
X5324848Y-9607748D01*
X5437172Y-9532695D01*
X5532695Y-9437172D01*
X5607748Y-9324848D01*
X5659445Y-9200040D01*
X5685800Y-9067545D01*
X5685800Y-8932455D01*
X5659445Y-8799960D01*
X5607748Y-8675152D01*
X5558800Y-8601897D01*
X5558800Y-8596080D01*
X6441200Y-7713680D01*
X6441201Y-9601895D01*
X6392252Y-9675152D01*
X6340555Y-9799960D01*
X6314200Y-9932455D01*
X6314200Y-10067545D01*
X6340555Y-10200040D01*
X6392252Y-10324848D01*
X6467305Y-10437172D01*
X6552244Y-10522111D01*
X5633156Y-11441200D01*
X3198103Y-11441200D01*
X3124848Y-11392252D01*
X3000040Y-11340555D01*
X2867545Y-11314200D01*
X2732455Y-11314200D01*
X2599960Y-11340555D01*
X2475152Y-11392252D01*
X2362828Y-11467305D01*
X2267305Y-11562828D01*
X2192252Y-11675152D01*
X2140555Y-11799960D01*
X2114200Y-11932455D01*
X2114200Y-12067545D01*
X2115429Y-12073725D01*
X2067545Y-12064200D01*
X1932455Y-12064200D01*
X1799960Y-12090555D01*
X1675152Y-12142252D01*
X1562828Y-12217305D01*
X1467305Y-12312828D01*
X1392252Y-12425152D01*
X1340555Y-12549960D01*
X1314200Y-12682455D01*
X1314200Y-12817545D01*
X1315429Y-12823725D01*
X1267545Y-12814200D01*
X1132455Y-12814200D01*
X999960Y-12840555D01*
X875152Y-12892252D01*
X762828Y-12967305D01*
X667305Y-13062828D01*
X592252Y-13175152D01*
X540555Y-13299960D01*
X514200Y-13432455D01*
X514200Y-13567545D01*
X540555Y-13700040D01*
X592252Y-13824848D01*
X667305Y-13937172D01*
X762828Y-14032695D01*
X875152Y-14107748D01*
X999960Y-14159445D01*
X1132455Y-14185800D01*
X1267545Y-14185800D01*
X1400040Y-14159445D01*
X1524848Y-14107748D01*
X1598103Y-14058800D01*
X6038558Y-14058800D01*
X6066000Y-14061503D01*
X6093442Y-14058800D01*
X6093444Y-14058800D01*
X6175544Y-14050714D01*
X6280878Y-14018761D01*
X6377954Y-13966873D01*
X6463043Y-13897043D01*
X6480543Y-13875719D01*
X9373111Y-10983151D01*
X9418944Y-11020766D01*
X9493958Y-11060861D01*
X9575352Y-11085552D01*
X9660000Y-11093889D01*
X10660000Y-11093889D01*
X10744648Y-11085552D01*
X10768689Y-11078259D01*
X10920471Y-11174210D01*
X11128124Y-11254126D01*
X11303000Y-11129129D01*
X11303000Y-10287000D01*
X11283000Y-10287000D01*
X11283000Y-10033000D01*
X11303000Y-10033000D01*
X11303000Y-10013000D01*
X11557000Y-10013000D01*
X11557000Y-10033000D01*
X11577000Y-10033000D01*
X11577000Y-10287000D01*
X11557000Y-10287000D01*
X11557000Y-11129129D01*
X11701401Y-11232344D01*
X11701402Y-14012335D01*
X11429229Y-14284508D01*
X11410861Y-14223958D01*
X11370766Y-14148944D01*
X11316806Y-14083194D01*
X11251056Y-14029234D01*
X11176042Y-13989139D01*
X11094648Y-13964448D01*
X11010000Y-13956111D01*
X9310000Y-13956111D01*
X9225352Y-13964448D01*
X9143958Y-13989139D01*
X9068944Y-14029234D01*
X9003194Y-14083194D01*
X8949234Y-14148944D01*
X8909139Y-14223958D01*
X8884448Y-14305352D01*
X8876111Y-14390000D01*
X8876111Y-16090000D01*
X8884448Y-16174648D01*
X8909139Y-16256042D01*
X8949234Y-16331056D01*
X9003194Y-16396806D01*
X9068944Y-16450766D01*
X9143958Y-16490861D01*
X9225352Y-16515552D01*
X9310000Y-16523889D01*
X9380938Y-16523889D01*
X9278645Y-16584822D01*
X9062412Y-16779731D01*
X8888359Y-17013080D01*
X8763175Y-17275901D01*
X8718524Y-17423110D01*
X8839845Y-17653000D01*
X10033000Y-17653000D01*
X10033000Y-17633000D01*
X10287000Y-17633000D01*
X10287000Y-17653000D01*
X11480155Y-17653000D01*
X11601476Y-17423110D01*
X11556825Y-17275901D01*
X11431641Y-17013080D01*
X11257588Y-16779731D01*
X11041355Y-16584822D01*
X10939062Y-16523889D01*
X11010000Y-16523889D01*
X11094648Y-16515552D01*
X11176042Y-16490861D01*
X11251056Y-16450766D01*
X11316806Y-16396806D01*
X11370766Y-16331056D01*
X11410861Y-16256042D01*
X11435552Y-16174648D01*
X11443889Y-16090000D01*
X11443889Y-15769375D01*
X11478878Y-15758761D01*
X11575954Y-15706873D01*
X11661043Y-15637043D01*
X11678543Y-15615719D01*
X12635926Y-14658337D01*
X12657244Y-14640842D01*
X12727074Y-14555753D01*
X12778962Y-14458677D01*
X12810915Y-14353343D01*
X12819001Y-14271243D01*
X12819001Y-14271241D01*
X12821704Y-14243799D01*
X12819001Y-14216357D01*
X12819001Y-9040539D01*
X12821704Y-9013095D01*
X12810915Y-8903550D01*
X12789055Y-8831490D01*
X12778962Y-8798217D01*
X12727074Y-8701141D01*
X12657244Y-8616052D01*
X12635920Y-8598552D01*
X12551649Y-8514281D01*
X12534149Y-8492957D01*
X12449060Y-8423127D01*
X12351984Y-8371239D01*
X12246650Y-8339286D01*
X12178186Y-8332543D01*
X12153777Y-8296012D01*
X12112765Y-8255000D01*
X12153777Y-8213988D01*
X12255751Y-8061373D01*
X12325992Y-7891796D01*
X12361800Y-7711774D01*
X12361800Y-7528226D01*
X12353544Y-7486718D01*
X12635920Y-7204342D01*
X12657244Y-7186842D01*
X12727074Y-7101753D01*
X12778962Y-7004677D01*
X12810915Y-6899343D01*
X12819001Y-6817243D01*
X12819001Y-6817242D01*
X12821704Y-6789800D01*
X12819001Y-6762358D01*
X12819001Y-4708947D01*
X12821704Y-4681503D01*
X12810915Y-4571958D01*
X12778962Y-4466625D01*
X12727074Y-4369548D01*
X12674738Y-4305777D01*
X12657244Y-4284460D01*
X12635925Y-4266964D01*
X12243039Y-3874079D01*
X12225540Y-3852756D01*
X12140451Y-3782926D01*
X12043375Y-3731038D01*
X11938041Y-3699085D01*
X11855941Y-3690999D01*
X11855939Y-3690999D01*
X11828497Y-3688296D01*
X11801055Y-3690999D01*
X9142261Y-3690999D01*
X9114819Y-3688296D01*
X9087377Y-3690999D01*
X9087375Y-3690999D01*
X9005275Y-3699085D01*
X8899941Y-3731038D01*
X8802864Y-3782926D01*
X8769875Y-3810000D01*
X8717776Y-3852756D01*
X8700281Y-3874074D01*
X8022111Y-4552244D01*
X7937172Y-4467305D01*
X7824848Y-4392252D01*
X7700040Y-4340555D01*
X7567545Y-4314200D01*
X7432455Y-4314200D01*
X7299960Y-4340555D01*
X7175152Y-4392252D01*
X7101897Y-4441200D01*
X865853Y-4441200D01*
X881916Y-4417160D01*
X978541Y-4183887D01*
X1027800Y-3936246D01*
X1027800Y-3683754D01*
X978563Y-3436226D01*
X984250Y-3435000D01*
X1143000Y-3276250D01*
X1143000Y-2627000D01*
X1123000Y-2627000D01*
X1123000Y-2373000D01*
X1143000Y-2373000D01*
X1143000Y-1860058D01*
X1232541Y-1643887D01*
X1270000Y-1455568D01*
X1307459Y-1643887D01*
X1397000Y-1860058D01*
X1397000Y-2373000D01*
X1417000Y-2373000D01*
X1417000Y-2627000D01*
X1397000Y-2627000D01*
X1397000Y-3276250D01*
X1555750Y-3435000D01*
X1570000Y-3438072D01*
X1694482Y-3425812D01*
X1814180Y-3389502D01*
X1924494Y-3330537D01*
X2021185Y-3251185D01*
X2100537Y-3154494D01*
X2159502Y-3044180D01*
X2195812Y-2924482D01*
X2208072Y-2800000D01*
X2205000Y-2785750D01*
X2046252Y-2627002D01*
X2205000Y-2627002D01*
X2205000Y-2510276D01*
X2413754Y-2551800D01*
X2666246Y-2551800D01*
X2913887Y-2502541D01*
X3147160Y-2405916D01*
X3357100Y-2265639D01*
X3535639Y-2087100D01*
X3675916Y-1877160D01*
X3772541Y-1643887D01*
X3810000Y-1455568D01*
X3847459Y-1643887D01*
X3944084Y-1877160D01*
X4084361Y-2087100D01*
X4262900Y-2265639D01*
X4472840Y-2405916D01*
X4706113Y-2502541D01*
X4953754Y-2551800D01*
X5206246Y-2551800D01*
X5453887Y-2502541D01*
X5687160Y-2405916D01*
X5897100Y-2265639D01*
X6075639Y-2087100D01*
X6215916Y-1877160D01*
X6312541Y-1643887D01*
X6350000Y-1455568D01*
X6387459Y-1643887D01*
X6484084Y-1877160D01*
X6624361Y-2087100D01*
X6802900Y-2265639D01*
X7012840Y-2405916D01*
X7246113Y-2502541D01*
X7493754Y-2551800D01*
X7746246Y-2551800D01*
X7993887Y-2502541D01*
X8227160Y-2405916D01*
X8437100Y-2265639D01*
X8615639Y-2087100D01*
X8755916Y-1877160D01*
X8852541Y-1643887D01*
X8901800Y-1396246D01*
X8901800Y-1143754D01*
X8852541Y-896113D01*
X8755916Y-662840D01*
X8618245Y-456800D01*
X13543200Y-456800D01*
X13543201Y-38543200D01*
X1956800Y-38543200D01*
X1956800Y-32454231D01*
X5798200Y-32454231D01*
X5798201Y-33545770D01*
X5811684Y-33682665D01*
X5864965Y-33858310D01*
X5951489Y-34020185D01*
X6067931Y-34162070D01*
X6209816Y-34278512D01*
X6371691Y-34365036D01*
X6547336Y-34418317D01*
X6730000Y-34436308D01*
X6912665Y-34418317D01*
X7088310Y-34365036D01*
X7198622Y-34306073D01*
X7287236Y-34392369D01*
X7475024Y-34514276D01*
X7698126Y-34594119D01*
X7873000Y-34467954D01*
X7873000Y-33127000D01*
X7853000Y-33127000D01*
X7853000Y-32873000D01*
X7873000Y-32873000D01*
X7873000Y-31532046D01*
X8127000Y-31532046D01*
X8127000Y-32873000D01*
X8147000Y-32873000D01*
X8147000Y-33127000D01*
X8127000Y-33127000D01*
X8127000Y-34467954D01*
X8301874Y-34594119D01*
X8524976Y-34514276D01*
X8712764Y-34392369D01*
X8801379Y-34306073D01*
X8911691Y-34365036D01*
X9087336Y-34418317D01*
X9270000Y-34436308D01*
X9452665Y-34418317D01*
X9628310Y-34365036D01*
X9790185Y-34278512D01*
X9932070Y-34162070D01*
X10048512Y-34020185D01*
X10135036Y-33858310D01*
X10188317Y-33682665D01*
X10201800Y-33545770D01*
X10201800Y-32454230D01*
X10188317Y-32317335D01*
X10135036Y-32141690D01*
X10048512Y-31979815D01*
X9932070Y-31837930D01*
X9790184Y-31721488D01*
X9628309Y-31634964D01*
X9452664Y-31581683D01*
X9270000Y-31563692D01*
X9087335Y-31581683D01*
X8911690Y-31634964D01*
X8801378Y-31693927D01*
X8712764Y-31607631D01*
X8524976Y-31485724D01*
X8301874Y-31405881D01*
X8127000Y-31532046D01*
X7873000Y-31532046D01*
X7698126Y-31405881D01*
X7475024Y-31485724D01*
X7287236Y-31607631D01*
X7198621Y-31693927D01*
X7088309Y-31634964D01*
X6912664Y-31581683D01*
X6730000Y-31563692D01*
X6547335Y-31581683D01*
X6371690Y-31634964D01*
X6209815Y-31721488D01*
X6067930Y-31837930D01*
X5951488Y-31979816D01*
X5864964Y-32141691D01*
X5811683Y-32317336D01*
X5798200Y-32454231D01*
X1956800Y-32454231D01*
X1956800Y-31022438D01*
X1959010Y-31000000D01*
X1950190Y-30910452D01*
X1924070Y-30824344D01*
X1881653Y-30744988D01*
X1824569Y-30675431D01*
X1755012Y-30618347D01*
X1675656Y-30575930D01*
X1589548Y-30549810D01*
X1522438Y-30543200D01*
X1500000Y-30540990D01*
X1477562Y-30543200D01*
X-1477562Y-30543200D01*
X-1500000Y-30540990D01*
X-1522438Y-30543200D01*
X-1589548Y-30549810D01*
X-1675656Y-30575930D01*
X-1755012Y-30618347D01*
X-1824569Y-30675431D01*
X-1881653Y-30744988D01*
X-1924070Y-30824344D01*
X-1950190Y-30910452D01*
X-1959010Y-31000000D01*
X-1956800Y-31022438D01*
X-1956800Y-32374461D01*
X-1976900Y-32354361D01*
X-2186840Y-32214084D01*
X-2420113Y-32117459D01*
X-2667754Y-32068200D01*
X-2920246Y-32068200D01*
X-3167887Y-32117459D01*
X-3401160Y-32214084D01*
X-3611100Y-32354361D01*
X-3789639Y-32532900D01*
X-3929916Y-32742840D01*
X-4026541Y-32976113D01*
X-4064000Y-33164432D01*
X-4101459Y-32976113D01*
X-4198084Y-32742840D01*
X-4338361Y-32532900D01*
X-4516900Y-32354361D01*
X-4726840Y-32214084D01*
X-4960113Y-32117459D01*
X-5207754Y-32068200D01*
X-5460246Y-32068200D01*
X-5707887Y-32117459D01*
X-5941160Y-32214084D01*
X-6151100Y-32354361D01*
X-6329639Y-32532900D01*
X-6469916Y-32742840D01*
X-6497594Y-32809660D01*
X-6529843Y-32718748D01*
X-6678822Y-32468645D01*
X-6873731Y-32252412D01*
X-7107080Y-32078359D01*
X-7369901Y-31953175D01*
X-7517110Y-31908524D01*
X-7747000Y-32029845D01*
X-7747000Y-33223000D01*
X-7727000Y-33223000D01*
X-7727000Y-33477000D01*
X-7747000Y-33477000D01*
X-7747000Y-34670155D01*
X-7517110Y-34791476D01*
X-7369901Y-34746825D01*
X-7107080Y-34621641D01*
X-6873731Y-34447588D01*
X-6678822Y-34231355D01*
X-6529843Y-33981252D01*
X-6497594Y-33890340D01*
X-6469916Y-33957160D01*
X-6329639Y-34167100D01*
X-6151100Y-34345639D01*
X-5941160Y-34485916D01*
X-5707887Y-34582541D01*
X-5460246Y-34631800D01*
X-5207754Y-34631800D01*
X-4960113Y-34582541D01*
X-4726840Y-34485916D01*
X-4516900Y-34345639D01*
X-4338361Y-34167100D01*
X-4198084Y-33957160D01*
X-4101459Y-33723887D01*
X-4064000Y-33535568D01*
X-4026541Y-33723887D01*
X-3929916Y-33957160D01*
X-3789639Y-34167100D01*
X-3611100Y-34345639D01*
X-3401160Y-34485916D01*
X-3167887Y-34582541D01*
X-2920246Y-34631800D01*
X-2667754Y-34631800D01*
X-2420113Y-34582541D01*
X-2186840Y-34485916D01*
X-1976900Y-34345639D01*
X-1956800Y-34325539D01*
X-1956799Y-38543200D01*
X-13543200Y-38543200D01*
X-13543200Y-32500000D01*
X-11697889Y-32500000D01*
X-11697889Y-34200000D01*
X-11689552Y-34284648D01*
X-11664861Y-34366042D01*
X-11624766Y-34441056D01*
X-11570806Y-34506806D01*
X-11505056Y-34560766D01*
X-11430042Y-34600861D01*
X-11348648Y-34625552D01*
X-11264000Y-34633889D01*
X-9564000Y-34633889D01*
X-9479352Y-34625552D01*
X-9397958Y-34600861D01*
X-9322944Y-34560766D01*
X-9257194Y-34506806D01*
X-9203234Y-34441056D01*
X-9163139Y-34366042D01*
X-9138448Y-34284648D01*
X-9130111Y-34200000D01*
X-9130111Y-34129062D01*
X-9069178Y-34231355D01*
X-8874269Y-34447588D01*
X-8640920Y-34621641D01*
X-8378099Y-34746825D01*
X-8230890Y-34791476D01*
X-8001000Y-34670155D01*
X-8001000Y-33477000D01*
X-8021000Y-33477000D01*
X-8021000Y-33223000D01*
X-8001000Y-33223000D01*
X-8001000Y-32029845D01*
X-8230890Y-31908524D01*
X-8378099Y-31953175D01*
X-8640920Y-32078359D01*
X-8874269Y-32252412D01*
X-9069178Y-32468645D01*
X-9130111Y-32570938D01*
X-9130111Y-32500000D01*
X-9138448Y-32415352D01*
X-9163139Y-32333958D01*
X-9203234Y-32258944D01*
X-9257194Y-32193194D01*
X-9322944Y-32139234D01*
X-9397958Y-32099139D01*
X-9479352Y-32074448D01*
X-9564000Y-32066111D01*
X-11264000Y-32066111D01*
X-11348648Y-32074448D01*
X-11430042Y-32099139D01*
X-11505056Y-32139234D01*
X-11570806Y-32193194D01*
X-11624766Y-32258944D01*
X-11664861Y-32333958D01*
X-11689552Y-32415352D01*
X-11697889Y-32500000D01*
X-13543200Y-32500000D01*
X-13543200Y-456800D01*
X-9107872Y-456800D01*
X-9105000Y-984250D01*
M02*
