G04 #@! TF.GenerationSoftware,KiCad,Pcbnew,(5.1.5-0-10_14)*
G04 #@! TF.CreationDate,2020-10-11T20:42:09+09:00*
G04 #@! TF.ProjectId,EnvMon,456e764d-6f6e-42e6-9b69-6361645f7063,2.0*
G04 #@! TF.SameCoordinates,Original*
G04 #@! TF.FileFunction,Legend,Bot*
G04 #@! TF.FilePolarity,Positive*
%FSLAX46Y46*%
G04 Gerber Fmt 4.6, Leading zero omitted, Abs format (unit mm)*
G04 Created by KiCad (PCBNEW (5.1.5-0-10_14)) date 2020-10-11 20:42:09*
%MOMM*%
%LPD*%
G04 APERTURE LIST*
%ADD10C,0.150000*%
G04 APERTURE END LIST*
D10*
X-2395238Y-37728571D02*
X-2728571Y-37728571D01*
X-2871428Y-38252380D02*
X-2395238Y-38252380D01*
X-2395238Y-37252380D01*
X-2871428Y-37252380D01*
X-3300000Y-37585714D02*
X-3300000Y-38252380D01*
X-3300000Y-37680952D02*
X-3347619Y-37633333D01*
X-3442857Y-37585714D01*
X-3585714Y-37585714D01*
X-3680952Y-37633333D01*
X-3728571Y-37728571D01*
X-3728571Y-38252380D01*
X-4109523Y-37585714D02*
X-4347619Y-38252380D01*
X-4585714Y-37585714D01*
X-4966666Y-38252380D02*
X-4966666Y-37252380D01*
X-5299999Y-37966666D01*
X-5633333Y-37252380D01*
X-5633333Y-38252380D01*
X-6252380Y-38252380D02*
X-6157142Y-38204761D01*
X-6109523Y-38157142D01*
X-6061904Y-38061904D01*
X-6061904Y-37776190D01*
X-6109523Y-37680952D01*
X-6157142Y-37633333D01*
X-6252380Y-37585714D01*
X-6395238Y-37585714D01*
X-6490476Y-37633333D01*
X-6538095Y-37680952D01*
X-6585714Y-37776190D01*
X-6585714Y-38061904D01*
X-6538095Y-38157142D01*
X-6490476Y-38204761D01*
X-6395238Y-38252380D01*
X-6252380Y-38252380D01*
X-7014285Y-37585714D02*
X-7014285Y-38252380D01*
X-7014285Y-37680952D02*
X-7061904Y-37633333D01*
X-7157142Y-37585714D01*
X-7299999Y-37585714D01*
X-7395238Y-37633333D01*
X-7442857Y-37728571D01*
X-7442857Y-38252380D01*
X-8252380Y-37728571D02*
X-8395238Y-37776190D01*
X-8442857Y-37823809D01*
X-8490476Y-37919047D01*
X-8490476Y-38061904D01*
X-8442857Y-38157142D01*
X-8395238Y-38204761D01*
X-8299999Y-38252380D01*
X-7919047Y-38252380D01*
X-7919047Y-37252380D01*
X-8252380Y-37252380D01*
X-8347619Y-37300000D01*
X-8395238Y-37347619D01*
X-8442857Y-37442857D01*
X-8442857Y-37538095D01*
X-8395238Y-37633333D01*
X-8347619Y-37680952D01*
X-8252380Y-37728571D01*
X-7919047Y-37728571D01*
X-8776190Y-37252380D02*
X-9347619Y-37252380D01*
X-9061904Y-38252380D02*
X-9061904Y-37252380D01*
X-10300000Y-37252380D02*
X-10633333Y-38252380D01*
X-10966666Y-37252380D01*
X-11252380Y-37347619D02*
X-11300000Y-37300000D01*
X-11395238Y-37252380D01*
X-11633333Y-37252380D01*
X-11728571Y-37300000D01*
X-11776190Y-37347619D01*
X-11823809Y-37442857D01*
X-11823809Y-37538095D01*
X-11776190Y-37680952D01*
X-11204761Y-38252380D01*
X-11823809Y-38252380D01*
X-12252380Y-38157142D02*
X-12300000Y-38204761D01*
X-12252380Y-38252380D01*
X-12204761Y-38204761D01*
X-12252380Y-38157142D01*
X-12252380Y-38252380D01*
X-12919047Y-37252380D02*
X-13014285Y-37252380D01*
X-13109523Y-37300000D01*
X-13157142Y-37347619D01*
X-13204761Y-37442857D01*
X-13252380Y-37633333D01*
X-13252380Y-37871428D01*
X-13204761Y-38061904D01*
X-13157142Y-38157142D01*
X-13109523Y-38204761D01*
X-13014285Y-38252380D01*
X-12919047Y-38252380D01*
X-12823809Y-38204761D01*
X-12776190Y-38157142D01*
X-12728571Y-38061904D01*
X-12680952Y-37871428D01*
X-12680952Y-37633333D01*
X-12728571Y-37442857D01*
X-12776190Y-37347619D01*
X-12823809Y-37300000D01*
X-12919047Y-37252380D01*
X12440952Y-30168571D02*
X12298095Y-30216190D01*
X12250476Y-30263809D01*
X12202857Y-30359047D01*
X12202857Y-30501904D01*
X12250476Y-30597142D01*
X12298095Y-30644761D01*
X12393333Y-30692380D01*
X12774285Y-30692380D01*
X12774285Y-29692380D01*
X12440952Y-29692380D01*
X12345714Y-29740000D01*
X12298095Y-29787619D01*
X12250476Y-29882857D01*
X12250476Y-29978095D01*
X12298095Y-30073333D01*
X12345714Y-30120952D01*
X12440952Y-30168571D01*
X12774285Y-30168571D01*
X11774285Y-30692380D02*
X11774285Y-29692380D01*
X11440952Y-30406666D01*
X11107619Y-29692380D01*
X11107619Y-30692380D01*
X10631428Y-30168571D02*
X10298095Y-30168571D01*
X10155238Y-30692380D02*
X10631428Y-30692380D01*
X10631428Y-29692380D01*
X10155238Y-29692380D01*
X9774285Y-29787619D02*
X9726666Y-29740000D01*
X9631428Y-29692380D01*
X9393333Y-29692380D01*
X9298095Y-29740000D01*
X9250476Y-29787619D01*
X9202857Y-29882857D01*
X9202857Y-29978095D01*
X9250476Y-30120952D01*
X9821904Y-30692380D01*
X9202857Y-30692380D01*
X8631428Y-30120952D02*
X8726666Y-30073333D01*
X8774285Y-30025714D01*
X8821904Y-29930476D01*
X8821904Y-29882857D01*
X8774285Y-29787619D01*
X8726666Y-29740000D01*
X8631428Y-29692380D01*
X8440952Y-29692380D01*
X8345714Y-29740000D01*
X8298095Y-29787619D01*
X8250476Y-29882857D01*
X8250476Y-29930476D01*
X8298095Y-30025714D01*
X8345714Y-30073333D01*
X8440952Y-30120952D01*
X8631428Y-30120952D01*
X8726666Y-30168571D01*
X8774285Y-30216190D01*
X8821904Y-30311428D01*
X8821904Y-30501904D01*
X8774285Y-30597142D01*
X8726666Y-30644761D01*
X8631428Y-30692380D01*
X8440952Y-30692380D01*
X8345714Y-30644761D01*
X8298095Y-30597142D01*
X8250476Y-30501904D01*
X8250476Y-30311428D01*
X8298095Y-30216190D01*
X8345714Y-30168571D01*
X8440952Y-30120952D01*
X7631428Y-29692380D02*
X7536190Y-29692380D01*
X7440952Y-29740000D01*
X7393333Y-29787619D01*
X7345714Y-29882857D01*
X7298095Y-30073333D01*
X7298095Y-30311428D01*
X7345714Y-30501904D01*
X7393333Y-30597142D01*
X7440952Y-30644761D01*
X7536190Y-30692380D01*
X7631428Y-30692380D01*
X7726666Y-30644761D01*
X7774285Y-30597142D01*
X7821904Y-30501904D01*
X7869523Y-30311428D01*
X7869523Y-30073333D01*
X7821904Y-29882857D01*
X7774285Y-29787619D01*
X7726666Y-29740000D01*
X7631428Y-29692380D01*
X12847619Y-12152380D02*
X12847619Y-11152380D01*
X12609523Y-11152380D01*
X12466666Y-11200000D01*
X12371428Y-11295238D01*
X12323809Y-11390476D01*
X12276190Y-11580952D01*
X12276190Y-11723809D01*
X12323809Y-11914285D01*
X12371428Y-12009523D01*
X12466666Y-12104761D01*
X12609523Y-12152380D01*
X12847619Y-12152380D01*
X11466666Y-12104761D02*
X11561904Y-12152380D01*
X11752380Y-12152380D01*
X11847619Y-12104761D01*
X11895238Y-12009523D01*
X11895238Y-11628571D01*
X11847619Y-11533333D01*
X11752380Y-11485714D01*
X11561904Y-11485714D01*
X11466666Y-11533333D01*
X11419047Y-11628571D01*
X11419047Y-11723809D01*
X11895238Y-11819047D01*
X10990476Y-12152380D02*
X10990476Y-11152380D01*
X10990476Y-11533333D02*
X10895238Y-11485714D01*
X10704761Y-11485714D01*
X10609523Y-11533333D01*
X10561904Y-11580952D01*
X10514285Y-11676190D01*
X10514285Y-11961904D01*
X10561904Y-12057142D01*
X10609523Y-12104761D01*
X10704761Y-12152380D01*
X10895238Y-12152380D01*
X10990476Y-12104761D01*
X9657142Y-11485714D02*
X9657142Y-12152380D01*
X10085714Y-11485714D02*
X10085714Y-12009523D01*
X10038095Y-12104761D01*
X9942857Y-12152380D01*
X9800000Y-12152380D01*
X9704761Y-12104761D01*
X9657142Y-12057142D01*
X8752380Y-11485714D02*
X8752380Y-12295238D01*
X8800000Y-12390476D01*
X8847619Y-12438095D01*
X8942857Y-12485714D01*
X9085714Y-12485714D01*
X9180952Y-12438095D01*
X8752380Y-12104761D02*
X8847619Y-12152380D01*
X9038095Y-12152380D01*
X9133333Y-12104761D01*
X9180952Y-12057142D01*
X9228571Y-11961904D01*
X9228571Y-11676190D01*
X9180952Y-11580952D01*
X9133333Y-11533333D01*
X9038095Y-11485714D01*
X8847619Y-11485714D01*
X8752380Y-11533333D01*
X-3105238Y-31528380D02*
X-3105238Y-30528380D01*
X-3438571Y-31242666D01*
X-3771904Y-30528380D01*
X-3771904Y-31528380D01*
X-4248095Y-31528380D02*
X-4248095Y-30528380D01*
X-4248095Y-31004571D02*
X-4819523Y-31004571D01*
X-4819523Y-31528380D02*
X-4819523Y-30528380D01*
X-5295714Y-31147428D02*
X-6057619Y-31147428D01*
X-6438571Y-30528380D02*
X-7105238Y-30528380D01*
X-6438571Y-31528380D01*
X-7105238Y-31528380D01*
X-8009999Y-31528380D02*
X-7438571Y-31528380D01*
X-7724285Y-31528380D02*
X-7724285Y-30528380D01*
X-7629047Y-30671238D01*
X-7533809Y-30766476D01*
X-7438571Y-30814095D01*
X-8486190Y-31528380D02*
X-8676666Y-31528380D01*
X-8771904Y-31480761D01*
X-8819523Y-31433142D01*
X-8914761Y-31290285D01*
X-8962380Y-31099809D01*
X-8962380Y-30718857D01*
X-8914761Y-30623619D01*
X-8867142Y-30576000D01*
X-8771904Y-30528380D01*
X-8581428Y-30528380D01*
X-8486190Y-30576000D01*
X-8438571Y-30623619D01*
X-8390952Y-30718857D01*
X-8390952Y-30956952D01*
X-8438571Y-31052190D01*
X-8486190Y-31099809D01*
X-8581428Y-31147428D01*
X-8771904Y-31147428D01*
X-8867142Y-31099809D01*
X-8914761Y-31052190D01*
X-8962380Y-30956952D01*
X-9724285Y-31004571D02*
X-9867142Y-31052190D01*
X-9914761Y-31099809D01*
X-9962380Y-31195047D01*
X-9962380Y-31337904D01*
X-9914761Y-31433142D01*
X-9867142Y-31480761D01*
X-9771904Y-31528380D01*
X-9390952Y-31528380D01*
X-9390952Y-30528380D01*
X-9724285Y-30528380D01*
X-9819523Y-30576000D01*
X-9867142Y-30623619D01*
X-9914761Y-30718857D01*
X-9914761Y-30814095D01*
X-9867142Y-30909333D01*
X-9819523Y-30956952D01*
X-9724285Y-31004571D01*
X-9390952Y-31004571D01*
X-1835238Y-6636380D02*
X-1835238Y-5636380D01*
X-2168571Y-6350666D01*
X-2501904Y-5636380D01*
X-2501904Y-6636380D01*
X-2978095Y-6636380D02*
X-2978095Y-5636380D01*
X-2978095Y-6112571D02*
X-3549523Y-6112571D01*
X-3549523Y-6636380D02*
X-3549523Y-5636380D01*
X-4025714Y-6255428D02*
X-4787619Y-6255428D01*
X-5168571Y-5636380D02*
X-5835238Y-5636380D01*
X-5168571Y-6636380D01*
X-5835238Y-6636380D01*
X-6739999Y-6636380D02*
X-6168571Y-6636380D01*
X-6454285Y-6636380D02*
X-6454285Y-5636380D01*
X-6359047Y-5779238D01*
X-6263809Y-5874476D01*
X-6168571Y-5922095D01*
X-7216190Y-6636380D02*
X-7406666Y-6636380D01*
X-7501904Y-6588761D01*
X-7549523Y-6541142D01*
X-7644761Y-6398285D01*
X-7692380Y-6207809D01*
X-7692380Y-5826857D01*
X-7644761Y-5731619D01*
X-7597142Y-5684000D01*
X-7501904Y-5636380D01*
X-7311428Y-5636380D01*
X-7216190Y-5684000D01*
X-7168571Y-5731619D01*
X-7120952Y-5826857D01*
X-7120952Y-6064952D01*
X-7168571Y-6160190D01*
X-7216190Y-6207809D01*
X-7311428Y-6255428D01*
X-7501904Y-6255428D01*
X-7597142Y-6207809D01*
X-7644761Y-6160190D01*
X-7692380Y-6064952D01*
X-8454285Y-6112571D02*
X-8597142Y-6160190D01*
X-8644761Y-6207809D01*
X-8692380Y-6303047D01*
X-8692380Y-6445904D01*
X-8644761Y-6541142D01*
X-8597142Y-6588761D01*
X-8501904Y-6636380D01*
X-8120952Y-6636380D01*
X-8120952Y-5636380D01*
X-8454285Y-5636380D01*
X-8549523Y-5684000D01*
X-8597142Y-5731619D01*
X-8644761Y-5826857D01*
X-8644761Y-5922095D01*
X-8597142Y-6017333D01*
X-8549523Y-6064952D01*
X-8454285Y-6112571D01*
X-8120952Y-6112571D01*
M02*
